# Tiled2Unity generated file. Do not modify by hand.
# Wavefront file for 'Dungeon_mesh_0003.obj'

# Vertices (Count = 416)
v -42 -13 -0.13
v -43 -13 -0.13
v -43 -12 -0.13
v -42 -12 -0.13
v -43 -13 -0.13
v -44 -13 -0.13
v -44 -12 -0.13
v -43 -12 -0.13
v -50 -13 -0.13
v -51 -13 -0.13
v -51 -12 -0.13
v -50 -12 -0.13
v -51 -13 -0.13
v -52 -13 -0.13
v -52 -12 -0.13
v -51 -12 -0.13
v -42 -14 -0.14
v -43 -14 -0.14
v -43 -13 -0.14
v -42 -13 -0.14
v -43 -14 -0.14
v -44 -14 -0.14
v -44 -13 -0.14
v -43 -13 -0.14
v -50 -14 -0.14
v -51 -14 -0.14
v -51 -13 -0.14
v -50 -13 -0.14
v -51 -14 -0.14
v -52 -14 -0.14
v -52 -13 -0.14
v -51 -13 -0.14
v -42 -15 -0.15
v -43 -15 -0.15
v -43 -14 -0.15
v -42 -14 -0.15
v -43 -15 -0.15
v -44 -15 -0.15
v -44 -14 -0.15
v -43 -14 -0.15
v -50 -15 -0.15
v -51 -15 -0.15
v -51 -14 -0.15
v -50 -14 -0.15
v -51 -15 -0.15
v -52 -15 -0.15
v -52 -14 -0.15
v -51 -14 -0.15
v -42 -16 -0.16
v -43 -16 -0.16
v -43 -15 -0.16
v -42 -15 -0.16
v -43 -16 -0.16
v -44 -16 -0.16
v -44 -15 -0.16
v -43 -15 -0.16
v -50 -16 -0.16
v -51 -16 -0.16
v -51 -15 -0.16
v -50 -15 -0.16
v -51 -16 -0.16
v -52 -16 -0.16
v -52 -15 -0.16
v -51 -15 -0.16
v -42 -17 -0.17
v -43 -17 -0.17
v -43 -16 -0.17
v -42 -16 -0.17
v -43 -17 -0.17
v -44 -17 -0.17
v -44 -16 -0.17
v -43 -16 -0.17
v -50 -17 -0.17
v -51 -17 -0.17
v -51 -16 -0.17
v -50 -16 -0.17
v -51 -17 -0.17
v -52 -17 -0.17
v -52 -16 -0.17
v -51 -16 -0.17
v -42 -18 -0.18
v -43 -18 -0.18
v -43 -17 -0.18
v -42 -17 -0.18
v -43 -18 -0.18
v -44 -18 -0.18
v -44 -17 -0.18
v -43 -17 -0.18
v -50 -18 -0.18
v -51 -18 -0.18
v -51 -17 -0.18
v -50 -17 -0.18
v -51 -18 -0.18
v -52 -18 -0.18
v -52 -17 -0.18
v -51 -17 -0.18
v -42 -19 -0.19
v -43 -19 -0.19
v -43 -18 -0.19
v -42 -18 -0.19
v -43 -19 -0.19
v -44 -19 -0.19
v -44 -18 -0.19
v -43 -18 -0.19
v -50 -19 -0.19
v -51 -19 -0.19
v -51 -18 -0.19
v -50 -18 -0.19
v -51 -19 -0.19
v -52 -19 -0.19
v -52 -18 -0.19
v -51 -18 -0.19
v -42 -20 -0.2
v -43 -20 -0.2
v -43 -19 -0.2
v -42 -19 -0.2
v -43 -20 -0.2
v -44 -20 -0.2
v -44 -19 -0.2
v -43 -19 -0.2
v -50 -20 -0.2
v -51 -20 -0.2
v -51 -19 -0.2
v -50 -19 -0.2
v -51 -20 -0.2
v -52 -20 -0.2
v -52 -19 -0.2
v -51 -19 -0.2
v -42 -21 -0.21
v -43 -21 -0.21
v -43 -20 -0.21
v -42 -20 -0.21
v -43 -21 -0.21
v -44 -21 -0.21
v -44 -20 -0.21
v -43 -20 -0.21
v -50 -21 -0.21
v -51 -21 -0.21
v -51 -20 -0.21
v -50 -20 -0.21
v -51 -21 -0.21
v -52 -21 -0.21
v -52 -20 -0.21
v -51 -20 -0.21
v -42 -22 -0.22
v -43 -22 -0.22
v -43 -21 -0.22
v -42 -21 -0.22
v -43 -22 -0.22
v -44 -22 -0.22
v -44 -21 -0.22
v -43 -21 -0.22
v -50 -22 -0.22
v -51 -22 -0.22
v -51 -21 -0.22
v -50 -21 -0.22
v -51 -22 -0.22
v -52 -22 -0.22
v -52 -21 -0.22
v -51 -21 -0.22
v -42 -23 -0.23
v -43 -23 -0.23
v -43 -22 -0.23
v -42 -22 -0.23
v -43 -23 -0.23
v -44 -23 -0.23
v -44 -22 -0.23
v -43 -22 -0.23
v -50 -23 -0.23
v -51 -23 -0.23
v -51 -22 -0.23
v -50 -22 -0.23
v -51 -23 -0.23
v -52 -23 -0.23
v -52 -22 -0.23
v -51 -22 -0.23
v -42 -24 -0.24
v -43 -24 -0.24
v -43 -23 -0.24
v -42 -23 -0.24
v -43 -24 -0.24
v -44 -24 -0.24
v -44 -23 -0.24
v -43 -23 -0.24
v -50 -24 -0.24
v -51 -24 -0.24
v -51 -23 -0.24
v -50 -23 -0.24
v -51 -24 -0.24
v -52 -24 -0.24
v -52 -23 -0.24
v -51 -23 -0.24
v -40 -35 -0.35
v -41 -35 -0.35
v -41 -34 -0.35
v -40 -34 -0.35
v -41 -35 -0.35
v -42 -35 -0.35
v -42 -34 -0.35
v -41 -34 -0.35
v -44 -35 -0.35
v -45 -35 -0.35
v -45 -34 -0.35
v -44 -34 -0.35
v -45 -35 -0.35
v -46 -35 -0.35
v -46 -34 -0.35
v -45 -34 -0.35
v -50 -35 -0.35
v -51 -35 -0.35
v -51 -34 -0.35
v -50 -34 -0.35
v -51 -35 -0.35
v -52 -35 -0.35
v -52 -34 -0.35
v -51 -34 -0.35
v -52 -35 -0.35
v -53 -35 -0.35
v -53 -34 -0.35
v -52 -34 -0.35
v -53 -35 -0.35
v -54 -35 -0.35
v -54 -34 -0.35
v -53 -34 -0.35
v -40 -36 -0.36
v -41 -36 -0.36
v -41 -35 -0.36
v -40 -35 -0.36
v -41 -36 -0.36
v -42 -36 -0.36
v -42 -35 -0.36
v -41 -35 -0.36
v -44 -36 -0.36
v -45 -36 -0.36
v -45 -35 -0.36
v -44 -35 -0.36
v -45 -36 -0.36
v -46 -36 -0.36
v -46 -35 -0.36
v -45 -35 -0.36
v -50 -36 -0.36
v -51 -36 -0.36
v -51 -35 -0.36
v -50 -35 -0.36
v -51 -36 -0.36
v -52 -36 -0.36
v -52 -35 -0.36
v -51 -35 -0.36
v -52 -36 -0.36
v -53 -36 -0.36
v -53 -35 -0.36
v -52 -35 -0.36
v -53 -36 -0.36
v -54 -36 -0.36
v -54 -35 -0.36
v -53 -35 -0.36
v -40 -37 -0.37
v -41 -37 -0.37
v -41 -36 -0.37
v -40 -36 -0.37
v -41 -37 -0.37
v -42 -37 -0.37
v -42 -36 -0.37
v -41 -36 -0.37
v -40 -38 -0.38
v -41 -38 -0.38
v -41 -37 -0.38
v -40 -37 -0.38
v -41 -38 -0.38
v -42 -38 -0.38
v -42 -37 -0.38
v -41 -37 -0.38
v -52 -39 -0.39
v -53 -39 -0.39
v -53 -38 -0.39
v -52 -38 -0.39
v -53 -39 -0.39
v -54 -39 -0.39
v -54 -38 -0.39
v -53 -38 -0.39
v -52 -40 -0.4
v -53 -40 -0.4
v -53 -39 -0.4
v -52 -39 -0.4
v -53 -40 -0.4
v -54 -40 -0.4
v -54 -39 -0.4
v -53 -39 -0.4
v -40 -41 -0.41
v -41 -41 -0.41
v -41 -40 -0.41
v -40 -40 -0.41
v -41 -41 -0.41
v -42 -41 -0.41
v -42 -40 -0.41
v -41 -40 -0.41
v -46 -41 -0.41
v -47 -41 -0.41
v -47 -40 -0.41
v -46 -40 -0.41
v -47 -41 -0.41
v -48 -41 -0.41
v -48 -40 -0.41
v -47 -40 -0.41
v -50 -41 -0.41
v -51 -41 -0.41
v -51 -40 -0.41
v -50 -40 -0.41
v -51 -41 -0.41
v -52 -41 -0.41
v -52 -40 -0.41
v -51 -40 -0.41
v -52 -41 -0.41
v -53 -41 -0.41
v -53 -40 -0.41
v -52 -40 -0.41
v -53 -41 -0.41
v -54 -41 -0.41
v -54 -40 -0.41
v -53 -40 -0.41
v -40 -42 -0.42
v -41 -42 -0.42
v -41 -41 -0.42
v -40 -41 -0.42
v -41 -42 -0.42
v -42 -42 -0.42
v -42 -41 -0.42
v -41 -41 -0.42
v -46 -42 -0.42
v -47 -42 -0.42
v -47 -41 -0.42
v -46 -41 -0.42
v -47 -42 -0.42
v -48 -42 -0.42
v -48 -41 -0.42
v -47 -41 -0.42
v -50 -42 -0.42
v -51 -42 -0.42
v -51 -41 -0.42
v -50 -41 -0.42
v -51 -42 -0.42
v -52 -42 -0.42
v -52 -41 -0.42
v -51 -41 -0.42
v -52 -42 -0.42
v -53 -42 -0.42
v -53 -41 -0.42
v -52 -41 -0.42
v -53 -42 -0.42
v -54 -42 -0.42
v -54 -41 -0.42
v -53 -41 -0.42
v -40 -43 -0.43
v -41 -43 -0.43
v -41 -42 -0.43
v -40 -42 -0.43
v -41 -43 -0.43
v -42 -43 -0.43
v -42 -42 -0.43
v -41 -42 -0.43
v -42 -43 -0.43
v -43 -43 -0.43
v -43 -42 -0.43
v -42 -42 -0.43
v -43 -43 -0.43
v -44 -43 -0.43
v -44 -42 -0.43
v -43 -42 -0.43
v -46 -43 -0.43
v -47 -43 -0.43
v -47 -42 -0.43
v -46 -42 -0.43
v -47 -43 -0.43
v -48 -43 -0.43
v -48 -42 -0.43
v -47 -42 -0.43
v -52 -43 -0.43
v -53 -43 -0.43
v -53 -42 -0.43
v -52 -42 -0.43
v -53 -43 -0.43
v -54 -43 -0.43
v -54 -42 -0.43
v -53 -42 -0.43
v -40 -44 -0.44
v -41 -44 -0.44
v -41 -43 -0.44
v -40 -43 -0.44
v -41 -44 -0.44
v -42 -44 -0.44
v -42 -43 -0.44
v -41 -43 -0.44
v -42 -44 -0.44
v -43 -44 -0.44
v -43 -43 -0.44
v -42 -43 -0.44
v -43 -44 -0.44
v -44 -44 -0.44
v -44 -43 -0.44
v -43 -43 -0.44
v -46 -44 -0.44
v -47 -44 -0.44
v -47 -43 -0.44
v -46 -43 -0.44
v -47 -44 -0.44
v -48 -44 -0.44
v -48 -43 -0.44
v -47 -43 -0.44
v -52 -44 -0.44
v -53 -44 -0.44
v -53 -43 -0.44
v -52 -43 -0.44
v -53 -44 -0.44
v -54 -44 -0.44
v -54 -43 -0.44
v -53 -43 -0.44

# Texture cooridinates (Count = 39)
vt 0.25 0.1466165
vt 0.3125 0.1466165
vt 0.3125 0.150376
vt 0.25 0.150376
vt 0.375 0.1466165
vt 0.375 0.150376
vt 0.25 0.1428571
vt 0.3125 0.1428571
vt 0.375 0.1428571
vt 0.25 0.1390978
vt 0.3125 0.1390978
vt 0.375 0.1390978
vt 0.25 0.1353384
vt 0.3125 0.1353384
vt 0.375 0.1353384
vt 0.25 0.1315789
vt 0.3125 0.1315789
vt 0.375 0.1315789
vt 0.25 0.1278195
vt 0.3125 0.1278195
vt 0.375 0.1278195
vt 0.625 0.1917293
vt 0.6875 0.1917293
vt 0.6875 0.1954888
vt 0.625 0.1954888
vt 0.75 0.1917293
vt 0.75 0.1954888
vt 0.375 0.1917293
vt 0.4375 0.1917293
vt 0.4375 0.1954888
vt 0.375 0.1954888
vt 0.5 0.1917293
vt 0.5 0.1954888
vt 0.625 0.1879699
vt 0.6875 0.1879699
vt 0.75 0.1879699
vt 0.375 0.1879699
vt 0.4375 0.1879699
vt 0.5 0.1879699

# Normal
vn 0 0 -1

# Mesh description
g Dungeon_mesh_0003

# Faces
f 1/1/1 2/2/1 3/3/1 4/4/1
f 5/2/1 6/5/1 7/6/1 8/3/1
f 9/1/1 10/2/1 11/3/1 12/4/1
f 13/2/1 14/5/1 15/6/1 16/3/1
f 17/7/1 18/8/1 19/2/1 20/1/1
f 21/8/1 22/9/1 23/5/1 24/2/1
f 25/7/1 26/8/1 27/2/1 28/1/1
f 29/8/1 30/9/1 31/5/1 32/2/1
f 33/10/1 34/11/1 35/8/1 36/7/1
f 37/11/1 38/12/1 39/9/1 40/8/1
f 41/10/1 42/11/1 43/8/1 44/7/1
f 45/11/1 46/12/1 47/9/1 48/8/1
f 49/13/1 50/14/1 51/11/1 52/10/1
f 53/14/1 54/15/1 55/12/1 56/11/1
f 57/13/1 58/14/1 59/11/1 60/10/1
f 61/14/1 62/15/1 63/12/1 64/11/1
f 65/16/1 66/17/1 67/14/1 68/13/1
f 69/17/1 70/18/1 71/15/1 72/14/1
f 73/16/1 74/17/1 75/14/1 76/13/1
f 77/17/1 78/18/1 79/15/1 80/14/1
f 81/19/1 82/20/1 83/17/1 84/16/1
f 85/20/1 86/21/1 87/18/1 88/17/1
f 89/19/1 90/20/1 91/17/1 92/16/1
f 93/20/1 94/21/1 95/18/1 96/17/1
f 97/1/1 98/2/1 99/3/1 100/4/1
f 101/2/1 102/5/1 103/6/1 104/3/1
f 105/1/1 106/2/1 107/3/1 108/4/1
f 109/2/1 110/5/1 111/6/1 112/3/1
f 113/7/1 114/8/1 115/2/1 116/1/1
f 117/8/1 118/9/1 119/5/1 120/2/1
f 121/7/1 122/8/1 123/2/1 124/1/1
f 125/8/1 126/9/1 127/5/1 128/2/1
f 129/10/1 130/11/1 131/8/1 132/7/1
f 133/11/1 134/12/1 135/9/1 136/8/1
f 137/10/1 138/11/1 139/8/1 140/7/1
f 141/11/1 142/12/1 143/9/1 144/8/1
f 145/13/1 146/14/1 147/11/1 148/10/1
f 149/14/1 150/15/1 151/12/1 152/11/1
f 153/13/1 154/14/1 155/11/1 156/10/1
f 157/14/1 158/15/1 159/12/1 160/11/1
f 161/16/1 162/17/1 163/14/1 164/13/1
f 165/17/1 166/18/1 167/15/1 168/14/1
f 169/16/1 170/17/1 171/14/1 172/13/1
f 173/17/1 174/18/1 175/15/1 176/14/1
f 177/19/1 178/20/1 179/17/1 180/16/1
f 181/20/1 182/21/1 183/18/1 184/17/1
f 185/19/1 186/20/1 187/17/1 188/16/1
f 189/20/1 190/21/1 191/18/1 192/17/1
f 193/22/1 194/23/1 195/24/1 196/25/1
f 197/23/1 198/26/1 199/27/1 200/24/1
f 201/28/1 202/29/1 203/30/1 204/31/1
f 205/29/1 206/32/1 207/33/1 208/30/1
f 209/28/1 210/29/1 211/30/1 212/31/1
f 213/29/1 214/32/1 215/33/1 216/30/1
f 217/28/1 218/29/1 219/30/1 220/31/1
f 221/29/1 222/32/1 223/33/1 224/30/1
f 225/34/1 226/35/1 227/23/1 228/22/1
f 229/35/1 230/36/1 231/26/1 232/23/1
f 233/37/1 234/38/1 235/29/1 236/28/1
f 237/38/1 238/39/1 239/32/1 240/29/1
f 241/37/1 242/38/1 243/29/1 244/28/1
f 245/38/1 246/39/1 247/32/1 248/29/1
f 249/37/1 250/38/1 251/29/1 252/28/1
f 253/38/1 254/39/1 255/32/1 256/29/1
f 257/28/1 258/29/1 259/30/1 260/31/1
f 261/29/1 262/32/1 263/33/1 264/30/1
f 265/37/1 266/38/1 267/29/1 268/28/1
f 269/38/1 270/39/1 271/32/1 272/29/1
f 273/28/1 274/29/1 275/30/1 276/31/1
f 277/29/1 278/32/1 279/33/1 280/30/1
f 281/37/1 282/38/1 283/29/1 284/28/1
f 285/38/1 286/39/1 287/32/1 288/29/1
f 289/28/1 290/29/1 291/30/1 292/31/1
f 293/29/1 294/32/1 295/33/1 296/30/1
f 297/28/1 298/29/1 299/30/1 300/31/1
f 301/29/1 302/32/1 303/33/1 304/30/1
f 305/28/1 306/29/1 307/30/1 308/31/1
f 309/29/1 310/32/1 311/33/1 312/30/1
f 313/28/1 314/29/1 315/30/1 316/31/1
f 317/29/1 318/32/1 319/33/1 320/30/1
f 321/37/1 322/38/1 323/29/1 324/28/1
f 325/38/1 326/39/1 327/32/1 328/29/1
f 329/37/1 330/38/1 331/29/1 332/28/1
f 333/38/1 334/39/1 335/32/1 336/29/1
f 337/37/1 338/38/1 339/29/1 340/28/1
f 341/38/1 342/39/1 343/32/1 344/29/1
f 345/37/1 346/38/1 347/29/1 348/28/1
f 349/38/1 350/39/1 351/32/1 352/29/1
f 353/28/1 354/29/1 355/30/1 356/31/1
f 357/29/1 358/32/1 359/33/1 360/30/1
f 361/28/1 362/29/1 363/30/1 364/31/1
f 365/29/1 366/32/1 367/33/1 368/30/1
f 369/28/1 370/29/1 371/30/1 372/31/1
f 373/29/1 374/32/1 375/33/1 376/30/1
f 377/22/1 378/23/1 379/24/1 380/25/1
f 381/23/1 382/26/1 383/27/1 384/24/1
f 385/37/1 386/38/1 387/29/1 388/28/1
f 389/38/1 390/39/1 391/32/1 392/29/1
f 393/37/1 394/38/1 395/29/1 396/28/1
f 397/38/1 398/39/1 399/32/1 400/29/1
f 401/37/1 402/38/1 403/29/1 404/28/1
f 405/38/1 406/39/1 407/32/1 408/29/1
f 409/34/1 410/35/1 411/23/1 412/22/1
f 413/35/1 414/36/1 415/26/1 416/23/1

