# Tiled2Unity generated file. Do not modify by hand.
# Wavefront file for 'Dungeon_mesh_0004.obj'

# Vertices (Count = 792)
v -36 -8 -0.08
v -37 -8 -0.08
v -37 -7 -0.08
v -36 -7 -0.08
v -37 -8 -0.08
v -38 -8 -0.08
v -38 -7 -0.08
v -37 -7 -0.08
v -38 -8 -0.08
v -39 -8 -0.08
v -39 -7 -0.08
v -38 -7 -0.08
v -39 -8 -0.08
v -40 -8 -0.08
v -40 -7 -0.08
v -39 -7 -0.08
v -40 -8 -0.08
v -41 -8 -0.08
v -41 -7 -0.08
v -40 -7 -0.08
v -41 -8 -0.08
v -42 -8 -0.08
v -42 -7 -0.08
v -41 -7 -0.08
v -42 -8 -0.08
v -43 -8 -0.08
v -43 -7 -0.08
v -42 -7 -0.08
v -43 -8 -0.08
v -44 -8 -0.08
v -44 -7 -0.08
v -43 -7 -0.08
v -44 -8 -0.08
v -45 -8 -0.08
v -45 -7 -0.08
v -44 -7 -0.08
v -45 -8 -0.08
v -46 -8 -0.08
v -46 -7 -0.08
v -45 -7 -0.08
v -46 -8 -0.08
v -47 -8 -0.08
v -47 -7 -0.08
v -46 -7 -0.08
v -47 -8 -0.08
v -48 -8 -0.08
v -48 -7 -0.08
v -47 -7 -0.08
v -48 -8 -0.08
v -49 -8 -0.08
v -49 -7 -0.08
v -48 -7 -0.08
v -49 -8 -0.08
v -50 -8 -0.08
v -50 -7 -0.08
v -49 -7 -0.08
v -50 -8 -0.08
v -51 -8 -0.08
v -51 -7 -0.08
v -50 -7 -0.08
v -51 -8 -0.08
v -52 -8 -0.08
v -52 -7 -0.08
v -51 -7 -0.08
v -52 -8 -0.08
v -53 -8 -0.08
v -53 -7 -0.08
v -52 -7 -0.08
v -53 -8 -0.08
v -54 -8 -0.08
v -54 -7 -0.08
v -53 -7 -0.08
v -54 -8 -0.08
v -55 -8 -0.08
v -55 -7 -0.08
v -54 -7 -0.08
v -55 -8 -0.08
v -56 -8 -0.08
v -56 -7 -0.08
v -55 -7 -0.08
v -56 -8 -0.08
v -57 -8 -0.08
v -57 -7 -0.08
v -56 -7 -0.08
v -57 -8 -0.08
v -58 -8 -0.08
v -58 -7 -0.08
v -57 -7 -0.08
v -36 -9 -0.09
v -37 -9 -0.09
v -37 -8 -0.09
v -36 -8 -0.09
v -37 -9 -0.09
v -38 -9 -0.09
v -38 -8 -0.09
v -37 -8 -0.09
v -38 -9 -0.09
v -39 -9 -0.09
v -39 -8 -0.09
v -38 -8 -0.09
v -39 -9 -0.09
v -40 -9 -0.09
v -40 -8 -0.09
v -39 -8 -0.09
v -40 -9 -0.09
v -41 -9 -0.09
v -41 -8 -0.09
v -40 -8 -0.09
v -41 -9 -0.09
v -42 -9 -0.09
v -42 -8 -0.09
v -41 -8 -0.09
v -42 -9 -0.09
v -43 -9 -0.09
v -43 -8 -0.09
v -42 -8 -0.09
v -43 -9 -0.09
v -44 -9 -0.09
v -44 -8 -0.09
v -43 -8 -0.09
v -44 -9 -0.09
v -45 -9 -0.09
v -45 -8 -0.09
v -44 -8 -0.09
v -45 -9 -0.09
v -46 -9 -0.09
v -46 -8 -0.09
v -45 -8 -0.09
v -46 -9 -0.09
v -47 -9 -0.09
v -47 -8 -0.09
v -46 -8 -0.09
v -47 -9 -0.09
v -48 -9 -0.09
v -48 -8 -0.09
v -47 -8 -0.09
v -48 -9 -0.09
v -49 -9 -0.09
v -49 -8 -0.09
v -48 -8 -0.09
v -49 -9 -0.09
v -50 -9 -0.09
v -50 -8 -0.09
v -49 -8 -0.09
v -50 -9 -0.09
v -51 -9 -0.09
v -51 -8 -0.09
v -50 -8 -0.09
v -51 -9 -0.09
v -52 -9 -0.09
v -52 -8 -0.09
v -51 -8 -0.09
v -52 -9 -0.09
v -53 -9 -0.09
v -53 -8 -0.09
v -52 -8 -0.09
v -53 -9 -0.09
v -54 -9 -0.09
v -54 -8 -0.09
v -53 -8 -0.09
v -54 -9 -0.09
v -55 -9 -0.09
v -55 -8 -0.09
v -54 -8 -0.09
v -55 -9 -0.09
v -56 -9 -0.09
v -56 -8 -0.09
v -55 -8 -0.09
v -56 -9 -0.09
v -57 -9 -0.09
v -57 -8 -0.09
v -56 -8 -0.09
v -57 -9 -0.09
v -58 -9 -0.09
v -58 -8 -0.09
v -57 -8 -0.09
v -36 -10 -0.1
v -37 -10 -0.1
v -37 -9 -0.1
v -36 -9 -0.1
v -37 -10 -0.1
v -38 -10 -0.1
v -38 -9 -0.1
v -37 -9 -0.1
v -38 -10 -0.1
v -39 -10 -0.1
v -39 -9 -0.1
v -38 -9 -0.1
v -39 -10 -0.1
v -40 -10 -0.1
v -40 -9 -0.1
v -39 -9 -0.1
v -40 -10 -0.1
v -41 -10 -0.1
v -41 -9 -0.1
v -40 -9 -0.1
v -41 -10 -0.1
v -42 -10 -0.1
v -42 -9 -0.1
v -41 -9 -0.1
v -42 -10 -0.1
v -43 -10 -0.1
v -43 -9 -0.1
v -42 -9 -0.1
v -43 -10 -0.1
v -44 -10 -0.1
v -44 -9 -0.1
v -43 -9 -0.1
v -44 -10 -0.1
v -45 -10 -0.1
v -45 -9 -0.1
v -44 -9 -0.1
v -45 -10 -0.1
v -46 -10 -0.1
v -46 -9 -0.1
v -45 -9 -0.1
v -46 -10 -0.1
v -47 -10 -0.1
v -47 -9 -0.1
v -46 -9 -0.1
v -47 -10 -0.1
v -48 -10 -0.1
v -48 -9 -0.1
v -47 -9 -0.1
v -48 -10 -0.1
v -49 -10 -0.1
v -49 -9 -0.1
v -48 -9 -0.1
v -49 -10 -0.1
v -50 -10 -0.1
v -50 -9 -0.1
v -49 -9 -0.1
v -50 -10 -0.1
v -51 -10 -0.1
v -51 -9 -0.1
v -50 -9 -0.1
v -51 -10 -0.1
v -52 -10 -0.1
v -52 -9 -0.1
v -51 -9 -0.1
v -52 -10 -0.1
v -53 -10 -0.1
v -53 -9 -0.1
v -52 -9 -0.1
v -53 -10 -0.1
v -54 -10 -0.1
v -54 -9 -0.1
v -53 -9 -0.1
v -54 -10 -0.1
v -55 -10 -0.1
v -55 -9 -0.1
v -54 -9 -0.1
v -55 -10 -0.1
v -56 -10 -0.1
v -56 -9 -0.1
v -55 -9 -0.1
v -56 -10 -0.1
v -57 -10 -0.1
v -57 -9 -0.1
v -56 -9 -0.1
v -57 -10 -0.1
v -58 -10 -0.1
v -58 -9 -0.1
v -57 -9 -0.1
v -36 -11 -0.11
v -37 -11 -0.11
v -37 -10 -0.11
v -36 -10 -0.11
v -37 -11 -0.11
v -38 -11 -0.11
v -38 -10 -0.11
v -37 -10 -0.11
v -38 -11 -0.11
v -39 -11 -0.11
v -39 -10 -0.11
v -38 -10 -0.11
v -39 -11 -0.11
v -40 -11 -0.11
v -40 -10 -0.11
v -39 -10 -0.11
v -40 -11 -0.11
v -41 -11 -0.11
v -41 -10 -0.11
v -40 -10 -0.11
v -41 -11 -0.11
v -42 -11 -0.11
v -42 -10 -0.11
v -41 -10 -0.11
v -42 -11 -0.11
v -43 -11 -0.11
v -43 -10 -0.11
v -42 -10 -0.11
v -43 -11 -0.11
v -44 -11 -0.11
v -44 -10 -0.11
v -43 -10 -0.11
v -44 -11 -0.11
v -45 -11 -0.11
v -45 -10 -0.11
v -44 -10 -0.11
v -45 -11 -0.11
v -46 -11 -0.11
v -46 -10 -0.11
v -45 -10 -0.11
v -46 -11 -0.11
v -47 -11 -0.11
v -47 -10 -0.11
v -46 -10 -0.11
v -47 -11 -0.11
v -48 -11 -0.11
v -48 -10 -0.11
v -47 -10 -0.11
v -48 -11 -0.11
v -49 -11 -0.11
v -49 -10 -0.11
v -48 -10 -0.11
v -49 -11 -0.11
v -50 -11 -0.11
v -50 -10 -0.11
v -49 -10 -0.11
v -50 -11 -0.11
v -51 -11 -0.11
v -51 -10 -0.11
v -50 -10 -0.11
v -51 -11 -0.11
v -52 -11 -0.11
v -52 -10 -0.11
v -51 -10 -0.11
v -52 -11 -0.11
v -53 -11 -0.11
v -53 -10 -0.11
v -52 -10 -0.11
v -53 -11 -0.11
v -54 -11 -0.11
v -54 -10 -0.11
v -53 -10 -0.11
v -54 -11 -0.11
v -55 -11 -0.11
v -55 -10 -0.11
v -54 -10 -0.11
v -55 -11 -0.11
v -56 -11 -0.11
v -56 -10 -0.11
v -55 -10 -0.11
v -56 -11 -0.11
v -57 -11 -0.11
v -57 -10 -0.11
v -56 -10 -0.11
v -57 -11 -0.11
v -58 -11 -0.11
v -58 -10 -0.11
v -57 -10 -0.11
v -36 -12 -0.12
v -37 -12 -0.12
v -37 -11 -0.12
v -36 -11 -0.12
v -37 -12 -0.12
v -38 -12 -0.12
v -38 -11 -0.12
v -37 -11 -0.12
v -38 -12 -0.12
v -39 -12 -0.12
v -39 -11 -0.12
v -38 -11 -0.12
v -39 -12 -0.12
v -40 -12 -0.12
v -40 -11 -0.12
v -39 -11 -0.12
v -40 -12 -0.12
v -41 -12 -0.12
v -41 -11 -0.12
v -40 -11 -0.12
v -41 -12 -0.12
v -42 -12 -0.12
v -42 -11 -0.12
v -41 -11 -0.12
v -42 -12 -0.12
v -43 -12 -0.12
v -43 -11 -0.12
v -42 -11 -0.12
v -43 -12 -0.12
v -44 -12 -0.12
v -44 -11 -0.12
v -43 -11 -0.12
v -44 -12 -0.12
v -45 -12 -0.12
v -45 -11 -0.12
v -44 -11 -0.12
v -45 -12 -0.12
v -46 -12 -0.12
v -46 -11 -0.12
v -45 -11 -0.12
v -46 -12 -0.12
v -47 -12 -0.12
v -47 -11 -0.12
v -46 -11 -0.12
v -47 -12 -0.12
v -48 -12 -0.12
v -48 -11 -0.12
v -47 -11 -0.12
v -48 -12 -0.12
v -49 -12 -0.12
v -49 -11 -0.12
v -48 -11 -0.12
v -49 -12 -0.12
v -50 -12 -0.12
v -50 -11 -0.12
v -49 -11 -0.12
v -50 -12 -0.12
v -51 -12 -0.12
v -51 -11 -0.12
v -50 -11 -0.12
v -51 -12 -0.12
v -52 -12 -0.12
v -52 -11 -0.12
v -51 -11 -0.12
v -52 -12 -0.12
v -53 -12 -0.12
v -53 -11 -0.12
v -52 -11 -0.12
v -53 -12 -0.12
v -54 -12 -0.12
v -54 -11 -0.12
v -53 -11 -0.12
v -54 -12 -0.12
v -55 -12 -0.12
v -55 -11 -0.12
v -54 -11 -0.12
v -55 -12 -0.12
v -56 -12 -0.12
v -56 -11 -0.12
v -55 -11 -0.12
v -56 -12 -0.12
v -57 -12 -0.12
v -57 -11 -0.12
v -56 -11 -0.12
v -57 -12 -0.12
v -58 -12 -0.12
v -58 -11 -0.12
v -57 -11 -0.12
v -36 -13 -0.13
v -37 -13 -0.13
v -37 -12 -0.13
v -36 -12 -0.13
v -57 -13 -0.13
v -58 -13 -0.13
v -58 -12 -0.13
v -57 -12 -0.13
v -36 -14 -0.14
v -37 -14 -0.14
v -37 -13 -0.14
v -36 -13 -0.14
v -57 -14 -0.14
v -58 -14 -0.14
v -58 -13 -0.14
v -57 -13 -0.14
v -36 -15 -0.15
v -37 -15 -0.15
v -37 -14 -0.15
v -36 -14 -0.15
v -57 -15 -0.15
v -58 -15 -0.15
v -58 -14 -0.15
v -57 -14 -0.15
v -36 -16 -0.16
v -37 -16 -0.16
v -37 -15 -0.16
v -36 -15 -0.16
v -57 -16 -0.16
v -58 -16 -0.16
v -58 -15 -0.16
v -57 -15 -0.16
v -36 -17 -0.17
v -37 -17 -0.17
v -37 -16 -0.17
v -36 -16 -0.17
v -57 -17 -0.17
v -58 -17 -0.17
v -58 -16 -0.17
v -57 -16 -0.17
v -36 -18 -0.18
v -37 -18 -0.18
v -37 -17 -0.18
v -36 -17 -0.18
v -57 -18 -0.18
v -58 -18 -0.18
v -58 -17 -0.18
v -57 -17 -0.18
v -36 -19 -0.19
v -37 -19 -0.19
v -37 -18 -0.19
v -36 -18 -0.19
v -57 -19 -0.19
v -58 -19 -0.19
v -58 -18 -0.19
v -57 -18 -0.19
v -36 -20 -0.2
v -37 -20 -0.2
v -37 -19 -0.2
v -36 -19 -0.2
v -57 -20 -0.2
v -58 -20 -0.2
v -58 -19 -0.2
v -57 -19 -0.2
v -36 -21 -0.21
v -37 -21 -0.21
v -37 -20 -0.21
v -36 -20 -0.21
v -57 -21 -0.21
v -58 -21 -0.21
v -58 -20 -0.21
v -57 -20 -0.21
v -36 -22 -0.22
v -37 -22 -0.22
v -37 -21 -0.22
v -36 -21 -0.22
v -57 -22 -0.22
v -58 -22 -0.22
v -58 -21 -0.22
v -57 -21 -0.22
v -36 -23 -0.23
v -37 -23 -0.23
v -37 -22 -0.23
v -36 -22 -0.23
v -57 -23 -0.23
v -58 -23 -0.23
v -58 -22 -0.23
v -57 -22 -0.23
v -36 -24 -0.24
v -37 -24 -0.24
v -37 -23 -0.24
v -36 -23 -0.24
v -57 -24 -0.24
v -58 -24 -0.24
v -58 -23 -0.24
v -57 -23 -0.24
v -36 -25 -0.25
v -37 -25 -0.25
v -37 -24 -0.25
v -36 -24 -0.25
v -57 -25 -0.25
v -58 -25 -0.25
v -58 -24 -0.25
v -57 -24 -0.25
v -45 -29 -0.29
v -46 -29 -0.29
v -46 -28 -0.29
v -45 -28 -0.29
v -48 -29 -0.29
v -49 -29 -0.29
v -49 -28 -0.29
v -48 -28 -0.29
v -40 -30 -0.3
v -41 -30 -0.3
v -41 -29 -0.3
v -40 -29 -0.3
v -41 -30 -0.3
v -42 -30 -0.3
v -42 -29 -0.3
v -41 -29 -0.3
v -42 -30 -0.3
v -43 -30 -0.3
v -43 -29 -0.3
v -42 -29 -0.3
v -43 -30 -0.3
v -44 -30 -0.3
v -44 -29 -0.3
v -43 -29 -0.3
v -44 -30 -0.3
v -45 -30 -0.3
v -45 -29 -0.3
v -44 -29 -0.3
v -45 -30 -0.3
v -46 -30 -0.3
v -46 -29 -0.3
v -45 -29 -0.3
v -48 -30 -0.3
v -49 -30 -0.3
v -49 -29 -0.3
v -48 -29 -0.3
v -49 -30 -0.3
v -50 -30 -0.3
v -50 -29 -0.3
v -49 -29 -0.3
v -50 -30 -0.3
v -51 -30 -0.3
v -51 -29 -0.3
v -50 -29 -0.3
v -51 -30 -0.3
v -52 -30 -0.3
v -52 -29 -0.3
v -51 -29 -0.3
v -52 -30 -0.3
v -53 -30 -0.3
v -53 -29 -0.3
v -52 -29 -0.3
v -53 -30 -0.3
v -54 -30 -0.3
v -54 -29 -0.3
v -53 -29 -0.3
v -40 -31 -0.31
v -41 -31 -0.31
v -41 -30 -0.31
v -40 -30 -0.31
v -41 -31 -0.31
v -42 -31 -0.31
v -42 -30 -0.31
v -41 -30 -0.31
v -42 -31 -0.31
v -43 -31 -0.31
v -43 -30 -0.31
v -42 -30 -0.31
v -43 -31 -0.31
v -44 -31 -0.31
v -44 -30 -0.31
v -43 -30 -0.31
v -44 -31 -0.31
v -45 -31 -0.31
v -45 -30 -0.31
v -44 -30 -0.31
v -45 -31 -0.31
v -46 -31 -0.31
v -46 -30 -0.31
v -45 -30 -0.31
v -48 -31 -0.31
v -49 -31 -0.31
v -49 -30 -0.31
v -48 -30 -0.31
v -49 -31 -0.31
v -50 -31 -0.31
v -50 -30 -0.31
v -49 -30 -0.31
v -50 -31 -0.31
v -51 -31 -0.31
v -51 -30 -0.31
v -50 -30 -0.31
v -51 -31 -0.31
v -52 -31 -0.31
v -52 -30 -0.31
v -51 -30 -0.31
v -52 -31 -0.31
v -53 -31 -0.31
v -53 -30 -0.31
v -52 -30 -0.31
v -53 -31 -0.31
v -54 -31 -0.31
v -54 -30 -0.31
v -53 -30 -0.31
v -40 -32 -0.32
v -41 -32 -0.32
v -41 -31 -0.32
v -40 -31 -0.32
v -41 -32 -0.32
v -42 -32 -0.32
v -42 -31 -0.32
v -41 -31 -0.32
v -42 -32 -0.32
v -43 -32 -0.32
v -43 -31 -0.32
v -42 -31 -0.32
v -43 -32 -0.32
v -44 -32 -0.32
v -44 -31 -0.32
v -43 -31 -0.32
v -44 -32 -0.32
v -45 -32 -0.32
v -45 -31 -0.32
v -44 -31 -0.32
v -45 -32 -0.32
v -46 -32 -0.32
v -46 -31 -0.32
v -45 -31 -0.32
v -48 -32 -0.32
v -49 -32 -0.32
v -49 -31 -0.32
v -48 -31 -0.32
v -49 -32 -0.32
v -50 -32 -0.32
v -50 -31 -0.32
v -49 -31 -0.32
v -50 -32 -0.32
v -51 -32 -0.32
v -51 -31 -0.32
v -50 -31 -0.32
v -51 -32 -0.32
v -52 -32 -0.32
v -52 -31 -0.32
v -51 -31 -0.32
v -52 -32 -0.32
v -53 -32 -0.32
v -53 -31 -0.32
v -52 -31 -0.32
v -53 -32 -0.32
v -54 -32 -0.32
v -54 -31 -0.32
v -53 -31 -0.32
v -40 -33 -0.33
v -41 -33 -0.33
v -41 -32 -0.33
v -40 -32 -0.33
v -41 -33 -0.33
v -42 -33 -0.33
v -42 -32 -0.33
v -41 -32 -0.33
v -42 -33 -0.33
v -43 -33 -0.33
v -43 -32 -0.33
v -42 -32 -0.33
v -43 -33 -0.33
v -44 -33 -0.33
v -44 -32 -0.33
v -43 -32 -0.33
v -44 -33 -0.33
v -45 -33 -0.33
v -45 -32 -0.33
v -44 -32 -0.33
v -45 -33 -0.33
v -46 -33 -0.33
v -46 -32 -0.33
v -45 -32 -0.33
v -48 -33 -0.33
v -49 -33 -0.33
v -49 -32 -0.33
v -48 -32 -0.33
v -49 -33 -0.33
v -50 -33 -0.33
v -50 -32 -0.33
v -49 -32 -0.33
v -50 -33 -0.33
v -51 -33 -0.33
v -51 -32 -0.33
v -50 -32 -0.33
v -51 -33 -0.33
v -52 -33 -0.33
v -52 -32 -0.33
v -51 -32 -0.33
v -52 -33 -0.33
v -53 -33 -0.33
v -53 -32 -0.33
v -52 -32 -0.33
v -53 -33 -0.33
v -54 -33 -0.33
v -54 -32 -0.33
v -53 -32 -0.33
v -40 -34 -0.34
v -41 -34 -0.34
v -41 -33 -0.34
v -40 -33 -0.34
v -41 -34 -0.34
v -42 -34 -0.34
v -42 -33 -0.34
v -41 -33 -0.34
v -42 -34 -0.34
v -43 -34 -0.34
v -43 -33 -0.34
v -42 -33 -0.34
v -43 -34 -0.34
v -44 -34 -0.34
v -44 -33 -0.34
v -43 -33 -0.34
v -44 -34 -0.34
v -45 -34 -0.34
v -45 -33 -0.34
v -44 -33 -0.34
v -45 -34 -0.34
v -46 -34 -0.34
v -46 -33 -0.34
v -45 -33 -0.34
v -48 -34 -0.34
v -49 -34 -0.34
v -49 -33 -0.34
v -48 -33 -0.34
v -49 -34 -0.34
v -50 -34 -0.34
v -50 -33 -0.34
v -49 -33 -0.34
v -50 -34 -0.34
v -51 -34 -0.34
v -51 -33 -0.34
v -50 -33 -0.34
v -51 -34 -0.34
v -52 -34 -0.34
v -52 -33 -0.34
v -51 -33 -0.34
v -52 -34 -0.34
v -53 -34 -0.34
v -53 -33 -0.34
v -52 -33 -0.34
v -53 -34 -0.34
v -54 -34 -0.34
v -54 -33 -0.34
v -53 -33 -0.34

# Texture cooridinates (Count = 47)
vt 0.375 0.875
vt 0.4375 0.875
vt 0.4375 0.9375
vt 0.375 0.9375
vt 0.5 0.875
vt 0.5 0.9375
vt 0.625 0.875
vt 0.6875 0.875
vt 0.6875 0.9375
vt 0.625 0.9375
vt 0.375 0.8125
vt 0.4375 0.8125
vt 0.5625 0.8125
vt 0.625 0.8125
vt 0.5625 0.875
vt 0.6875 0.8125
vt 0.5 0.8125
vt 0.5 0.5625
vt 0.5625 0.5625
vt 0.5625 0.625
vt 0.5 0.625
vt 0.625 0.5625
vt 0.625 0.625
vt 0.375 0.75
vt 0.4375 0.75
vt 0.625 0.75
vt 0.6875 0.75
vt 0.625 0.6875
vt 0.6875 0.6875
vt 0.375 0.6875
vt 0.4375 0.6875
vt 0.0625 0.875
vt 0.125 0.875
vt 0.125 0.9375
vt 0.0625 0.9375
vt 0.5625 0.6875
vt 0.5 0.6875
vt 0.6875 0.625
vt 0.375 0.625
vt 0.4375 0.625
vt 0.5625 0.9375
vt 0.125 0.8125
vt 0.1875 0.8125
vt 0.1875 0.875
vt 0.6875 0.5625
vt 0.375 0.5625
vt 0.4375 0.5625

# Normal
vn 0 0 -1

# Mesh description
g Dungeon_mesh_0004

# Faces
f 1/1/1 2/2/1 3/3/1 4/4/1
f 5/2/1 6/5/1 7/6/1 8/3/1
f 9/2/1 10/5/1 11/6/1 12/3/1
f 13/2/1 14/5/1 15/6/1 16/3/1
f 17/2/1 18/5/1 19/6/1 20/3/1
f 21/2/1 22/5/1 23/6/1 24/3/1
f 25/2/1 26/5/1 27/6/1 28/3/1
f 29/2/1 30/5/1 31/6/1 32/3/1
f 33/2/1 34/5/1 35/6/1 36/3/1
f 37/2/1 38/5/1 39/6/1 40/3/1
f 41/2/1 42/5/1 43/6/1 44/3/1
f 45/2/1 46/5/1 47/6/1 48/3/1
f 49/2/1 50/5/1 51/6/1 52/3/1
f 53/2/1 54/5/1 55/6/1 56/3/1
f 57/2/1 58/5/1 59/6/1 60/3/1
f 61/2/1 62/5/1 63/6/1 64/3/1
f 65/2/1 66/5/1 67/6/1 68/3/1
f 69/2/1 70/5/1 71/6/1 72/3/1
f 73/2/1 74/5/1 75/6/1 76/3/1
f 77/2/1 78/5/1 79/6/1 80/3/1
f 81/2/1 82/5/1 83/6/1 84/3/1
f 85/7/1 86/8/1 87/9/1 88/10/1
f 89/11/1 90/12/1 91/2/1 92/1/1
f 93/13/1 94/14/1 95/7/1 96/15/1
f 97/13/1 98/14/1 99/7/1 100/15/1
f 101/13/1 102/14/1 103/7/1 104/15/1
f 105/13/1 106/14/1 107/7/1 108/15/1
f 109/13/1 110/14/1 111/7/1 112/15/1
f 113/13/1 114/14/1 115/7/1 116/15/1
f 117/13/1 118/14/1 119/7/1 120/15/1
f 121/13/1 122/14/1 123/7/1 124/15/1
f 125/13/1 126/14/1 127/7/1 128/15/1
f 129/13/1 130/14/1 131/7/1 132/15/1
f 133/13/1 134/14/1 135/7/1 136/15/1
f 137/13/1 138/14/1 139/7/1 140/15/1
f 141/13/1 142/14/1 143/7/1 144/15/1
f 145/13/1 146/14/1 147/7/1 148/15/1
f 149/13/1 150/14/1 151/7/1 152/15/1
f 153/13/1 154/14/1 155/7/1 156/15/1
f 157/13/1 158/14/1 159/7/1 160/15/1
f 161/13/1 162/14/1 163/7/1 164/15/1
f 165/13/1 166/14/1 167/7/1 168/15/1
f 169/13/1 170/14/1 171/7/1 172/15/1
f 173/14/1 174/16/1 175/8/1 176/7/1
f 177/11/1 178/12/1 179/2/1 180/1/1
f 181/13/1 182/14/1 183/7/1 184/15/1
f 185/13/1 186/14/1 187/7/1 188/15/1
f 189/13/1 190/14/1 191/7/1 192/15/1
f 193/13/1 194/14/1 195/7/1 196/15/1
f 197/13/1 198/14/1 199/7/1 200/15/1
f 201/13/1 202/14/1 203/7/1 204/15/1
f 205/13/1 206/14/1 207/7/1 208/15/1
f 209/13/1 210/14/1 211/7/1 212/15/1
f 213/13/1 214/14/1 215/7/1 216/15/1
f 217/13/1 218/14/1 219/7/1 220/15/1
f 221/13/1 222/14/1 223/7/1 224/15/1
f 225/13/1 226/14/1 227/7/1 228/15/1
f 229/13/1 230/14/1 231/7/1 232/15/1
f 233/13/1 234/14/1 235/7/1 236/15/1
f 237/13/1 238/14/1 239/7/1 240/15/1
f 241/13/1 242/14/1 243/7/1 244/15/1
f 245/13/1 246/14/1 247/7/1 248/15/1
f 249/13/1 250/14/1 251/7/1 252/15/1
f 253/13/1 254/14/1 255/7/1 256/15/1
f 257/13/1 258/14/1 259/7/1 260/15/1
f 261/14/1 262/16/1 263/8/1 264/7/1
f 265/11/1 266/12/1 267/2/1 268/1/1
f 269/12/1 270/17/1 271/5/1 272/2/1
f 273/18/1 274/19/1 275/20/1 276/21/1
f 277/19/1 278/22/1 279/23/1 280/20/1
f 281/18/1 282/19/1 283/20/1 284/21/1
f 285/19/1 286/22/1 287/23/1 288/20/1
f 289/18/1 290/19/1 291/20/1 292/21/1
f 293/19/1 294/22/1 295/23/1 296/20/1
f 297/18/1 298/19/1 299/20/1 300/21/1
f 301/19/1 302/22/1 303/23/1 304/20/1
f 305/18/1 306/19/1 307/20/1 308/21/1
f 309/19/1 310/22/1 311/23/1 312/20/1
f 313/18/1 314/19/1 315/20/1 316/21/1
f 317/19/1 318/22/1 319/23/1 320/20/1
f 321/18/1 322/19/1 323/20/1 324/21/1
f 325/19/1 326/22/1 327/23/1 328/20/1
f 329/13/1 330/14/1 331/7/1 332/15/1
f 333/19/1 334/22/1 335/23/1 336/20/1
f 337/18/1 338/19/1 339/20/1 340/21/1
f 341/19/1 342/22/1 343/23/1 344/20/1
f 345/13/1 346/14/1 347/7/1 348/15/1
f 349/14/1 350/16/1 351/8/1 352/7/1
f 353/11/1 354/12/1 355/2/1 356/1/1
f 357/12/1 358/17/1 359/5/1 360/2/1
f 361/18/1 362/19/1 363/20/1 364/21/1
f 365/19/1 366/22/1 367/23/1 368/20/1
f 369/18/1 370/19/1 371/20/1 372/21/1
f 373/19/1 374/22/1 375/23/1 376/20/1
f 377/18/1 378/19/1 379/20/1 380/21/1
f 381/19/1 382/22/1 383/23/1 384/20/1
f 385/18/1 386/19/1 387/20/1 388/21/1
f 389/19/1 390/22/1 391/23/1 392/20/1
f 393/18/1 394/19/1 395/20/1 396/21/1
f 397/19/1 398/22/1 399/23/1 400/20/1
f 401/18/1 402/19/1 403/20/1 404/21/1
f 405/19/1 406/22/1 407/23/1 408/20/1
f 409/18/1 410/19/1 411/20/1 412/21/1
f 413/19/1 414/22/1 415/23/1 416/20/1
f 417/18/1 418/19/1 419/20/1 420/21/1
f 421/19/1 422/22/1 423/23/1 424/20/1
f 425/18/1 426/19/1 427/20/1 428/21/1
f 429/19/1 430/22/1 431/23/1 432/20/1
f 433/13/1 434/14/1 435/7/1 436/15/1
f 437/14/1 438/16/1 439/8/1 440/7/1
f 441/24/1 442/25/1 443/12/1 444/11/1
f 445/26/1 446/27/1 447/16/1 448/14/1
f 449/24/1 450/25/1 451/12/1 452/11/1
f 453/26/1 454/27/1 455/16/1 456/14/1
f 457/24/1 458/25/1 459/12/1 460/11/1
f 461/26/1 462/27/1 463/16/1 464/14/1
f 465/24/1 466/25/1 467/12/1 468/11/1
f 469/26/1 470/27/1 471/16/1 472/14/1
f 473/24/1 474/25/1 475/12/1 476/11/1
f 477/26/1 478/27/1 479/16/1 480/14/1
f 481/24/1 482/25/1 483/12/1 484/11/1
f 485/26/1 486/27/1 487/16/1 488/14/1
f 489/24/1 490/25/1 491/12/1 492/11/1
f 493/26/1 494/27/1 495/16/1 496/14/1
f 497/24/1 498/25/1 499/12/1 500/11/1
f 501/26/1 502/27/1 503/16/1 504/14/1
f 505/24/1 506/25/1 507/12/1 508/11/1
f 509/26/1 510/27/1 511/16/1 512/14/1
f 513/24/1 514/25/1 515/12/1 516/11/1
f 517/26/1 518/27/1 519/16/1 520/14/1
f 521/24/1 522/25/1 523/12/1 524/11/1
f 525/26/1 526/27/1 527/16/1 528/14/1
f 529/24/1 530/25/1 531/12/1 532/11/1
f 533/26/1 534/27/1 535/16/1 536/14/1
f 537/24/1 538/25/1 539/12/1 540/11/1
f 541/26/1 542/27/1 543/16/1 544/14/1
f 545/28/1 546/29/1 547/27/1 548/26/1
f 549/30/1 550/31/1 551/25/1 552/24/1
f 553/32/1 554/33/1 555/34/1 556/35/1
f 557/21/1 558/20/1 559/36/1 560/37/1
f 561/21/1 562/20/1 563/36/1 564/37/1
f 565/21/1 566/20/1 567/36/1 568/37/1
f 569/21/1 570/20/1 571/36/1 572/37/1
f 573/23/1 574/38/1 575/29/1 576/28/1
f 577/39/1 578/40/1 579/31/1 580/30/1
f 581/15/1 582/7/1 583/10/1 584/41/1
f 585/15/1 586/7/1 587/10/1 588/41/1
f 589/15/1 590/7/1 591/10/1 592/41/1
f 593/15/1 594/7/1 595/10/1 596/41/1
f 597/7/1 598/8/1 599/9/1 600/10/1
f 601/11/1 602/12/1 603/2/1 604/1/1
f 605/42/1 606/43/1 607/44/1 608/33/1
f 609/42/1 610/43/1 611/44/1 612/33/1
f 613/42/1 614/43/1 615/44/1 616/33/1
f 617/42/1 618/43/1 619/44/1 620/33/1
f 621/22/1 622/45/1 623/38/1 624/23/1
f 625/46/1 626/47/1 627/40/1 628/39/1
f 629/18/1 630/19/1 631/20/1 632/21/1
f 633/18/1 634/19/1 635/20/1 636/21/1
f 637/18/1 638/19/1 639/20/1 640/21/1
f 641/18/1 642/19/1 643/20/1 644/21/1
f 645/14/1 646/16/1 647/8/1 648/7/1
f 649/11/1 650/12/1 651/2/1 652/1/1
f 653/42/1 654/43/1 655/44/1 656/33/1
f 657/42/1 658/43/1 659/44/1 660/33/1
f 661/42/1 662/43/1 663/44/1 664/33/1
f 665/42/1 666/43/1 667/44/1 668/33/1
f 669/22/1 670/45/1 671/38/1 672/23/1
f 673/46/1 674/47/1 675/40/1 676/39/1
f 677/18/1 678/19/1 679/20/1 680/21/1
f 681/18/1 682/19/1 683/20/1 684/21/1
f 685/18/1 686/19/1 687/20/1 688/21/1
f 689/18/1 690/19/1 691/20/1 692/21/1
f 693/14/1 694/16/1 695/8/1 696/7/1
f 697/11/1 698/12/1 699/2/1 700/1/1
f 701/42/1 702/43/1 703/44/1 704/33/1
f 705/42/1 706/43/1 707/44/1 708/33/1
f 709/42/1 710/43/1 711/44/1 712/33/1
f 713/42/1 714/43/1 715/44/1 716/33/1
f 717/22/1 718/45/1 719/38/1 720/23/1
f 721/46/1 722/47/1 723/40/1 724/39/1
f 725/42/1 726/43/1 727/44/1 728/33/1
f 729/42/1 730/43/1 731/44/1 732/33/1
f 733/42/1 734/43/1 735/44/1 736/33/1
f 737/42/1 738/43/1 739/44/1 740/33/1
f 741/14/1 742/16/1 743/8/1 744/7/1
f 745/11/1 746/12/1 747/2/1 748/1/1
f 749/42/1 750/43/1 751/44/1 752/33/1
f 753/42/1 754/43/1 755/44/1 756/33/1
f 757/42/1 758/43/1 759/44/1 760/33/1
f 761/42/1 762/43/1 763/44/1 764/33/1
f 765/22/1 766/45/1 767/38/1 768/23/1
f 769/46/1 770/47/1 771/40/1 772/39/1
f 773/42/1 774/43/1 775/44/1 776/33/1
f 777/42/1 778/43/1 779/44/1 780/33/1
f 781/42/1 782/43/1 783/44/1 784/33/1
f 785/42/1 786/43/1 787/44/1 788/33/1
f 789/14/1 790/16/1 791/8/1 792/7/1

