# Tiled2Unity generated file. Do not modify by hand.
# Wavefront file for 'Area_mesh_0007.obj'

# Vertices (Count = 960)
v 0 -2 -0.02
v -1 -2 -0.02
v -1 -1 -0.02
v 0 -1 -0.02
v -1 -2 -0.02
v -2 -2 -0.02
v -2 -1 -0.02
v -1 -1 -0.02
v -2 -2 -0.02
v -3 -2 -0.02
v -3 -1 -0.02
v -2 -1 -0.02
v -3 -2 -0.02
v -4 -2 -0.02
v -4 -1 -0.02
v -3 -1 -0.02
v -4 -2 -0.02
v -5 -2 -0.02
v -5 -1 -0.02
v -4 -1 -0.02
v -5 -2 -0.02
v -6 -2 -0.02
v -6 -1 -0.02
v -5 -1 -0.02
v -6 -2 -0.02
v -7 -2 -0.02
v -7 -1 -0.02
v -6 -1 -0.02
v -7 -2 -0.02
v -8 -2 -0.02
v -8 -1 -0.02
v -7 -1 -0.02
v -8 -2 -0.02
v -9 -2 -0.02
v -9 -1 -0.02
v -8 -1 -0.02
v -9 -2 -0.02
v -10 -2 -0.02
v -10 -1 -0.02
v -9 -1 -0.02
v -10 -2 -0.02
v -11 -2 -0.02
v -11 -1 -0.02
v -10 -1 -0.02
v -11 -2 -0.02
v -12 -2 -0.02
v -12 -1 -0.02
v -11 -1 -0.02
v -12 -2 -0.02
v -13 -2 -0.02
v -13 -1 -0.02
v -12 -1 -0.02
v -13 -2 -0.02
v -14 -2 -0.02
v -14 -1 -0.02
v -13 -1 -0.02
v -14 -2 -0.02
v -15 -2 -0.02
v -15 -1 -0.02
v -14 -1 -0.02
v -15 -2 -0.02
v -16 -2 -0.02
v -16 -1 -0.02
v -15 -1 -0.02
v 0 -3 -0.03
v -1 -3 -0.03
v -1 -2 -0.03
v 0 -2 -0.03
v -1 -3 -0.03
v -2 -3 -0.03
v -2 -2 -0.03
v -1 -2 -0.03
v -2 -3 -0.03
v -3 -3 -0.03
v -3 -2 -0.03
v -2 -2 -0.03
v -3 -3 -0.03
v -4 -3 -0.03
v -4 -2 -0.03
v -3 -2 -0.03
v -4 -3 -0.03
v -5 -3 -0.03
v -5 -2 -0.03
v -4 -2 -0.03
v -5 -3 -0.03
v -6 -3 -0.03
v -6 -2 -0.03
v -5 -2 -0.03
v -6 -3 -0.03
v -7 -3 -0.03
v -7 -2 -0.03
v -6 -2 -0.03
v -7 -3 -0.03
v -8 -3 -0.03
v -8 -2 -0.03
v -7 -2 -0.03
v -8 -3 -0.03
v -9 -3 -0.03
v -9 -2 -0.03
v -8 -2 -0.03
v -9 -3 -0.03
v -10 -3 -0.03
v -10 -2 -0.03
v -9 -2 -0.03
v -10 -3 -0.03
v -11 -3 -0.03
v -11 -2 -0.03
v -10 -2 -0.03
v -11 -3 -0.03
v -12 -3 -0.03
v -12 -2 -0.03
v -11 -2 -0.03
v -12 -3 -0.03
v -13 -3 -0.03
v -13 -2 -0.03
v -12 -2 -0.03
v -13 -3 -0.03
v -14 -3 -0.03
v -14 -2 -0.03
v -13 -2 -0.03
v -14 -3 -0.03
v -15 -3 -0.03
v -15 -2 -0.03
v -14 -2 -0.03
v -15 -3 -0.03
v -16 -3 -0.03
v -16 -2 -0.03
v -15 -2 -0.03
v 0 -4 -0.04
v -1 -4 -0.04
v -1 -3 -0.04
v 0 -3 -0.04
v -1 -4 -0.04
v -2 -4 -0.04
v -2 -3 -0.04
v -1 -3 -0.04
v -2 -4 -0.04
v -3 -4 -0.04
v -3 -3 -0.04
v -2 -3 -0.04
v -3 -4 -0.04
v -4 -4 -0.04
v -4 -3 -0.04
v -3 -3 -0.04
v -4 -4 -0.04
v -5 -4 -0.04
v -5 -3 -0.04
v -4 -3 -0.04
v -5 -4 -0.04
v -6 -4 -0.04
v -6 -3 -0.04
v -5 -3 -0.04
v -6 -4 -0.04
v -7 -4 -0.04
v -7 -3 -0.04
v -6 -3 -0.04
v -7 -4 -0.04
v -8 -4 -0.04
v -8 -3 -0.04
v -7 -3 -0.04
v -8 -4 -0.04
v -9 -4 -0.04
v -9 -3 -0.04
v -8 -3 -0.04
v -9 -4 -0.04
v -10 -4 -0.04
v -10 -3 -0.04
v -9 -3 -0.04
v -10 -4 -0.04
v -11 -4 -0.04
v -11 -3 -0.04
v -10 -3 -0.04
v -11 -4 -0.04
v -12 -4 -0.04
v -12 -3 -0.04
v -11 -3 -0.04
v -12 -4 -0.04
v -13 -4 -0.04
v -13 -3 -0.04
v -12 -3 -0.04
v -13 -4 -0.04
v -14 -4 -0.04
v -14 -3 -0.04
v -13 -3 -0.04
v -14 -4 -0.04
v -15 -4 -0.04
v -15 -3 -0.04
v -14 -3 -0.04
v -15 -4 -0.04
v -16 -4 -0.04
v -16 -3 -0.04
v -15 -3 -0.04
v 0 -5 -0.05
v -1 -5 -0.05
v -1 -4 -0.05
v 0 -4 -0.05
v -1 -5 -0.05
v -2 -5 -0.05
v -2 -4 -0.05
v -1 -4 -0.05
v -2 -5 -0.05
v -3 -5 -0.05
v -3 -4 -0.05
v -2 -4 -0.05
v -3 -5 -0.05
v -4 -5 -0.05
v -4 -4 -0.05
v -3 -4 -0.05
v -4 -5 -0.05
v -5 -5 -0.05
v -5 -4 -0.05
v -4 -4 -0.05
v -5 -5 -0.05
v -6 -5 -0.05
v -6 -4 -0.05
v -5 -4 -0.05
v -6 -5 -0.05
v -7 -5 -0.05
v -7 -4 -0.05
v -6 -4 -0.05
v -7 -5 -0.05
v -8 -5 -0.05
v -8 -4 -0.05
v -7 -4 -0.05
v -8 -5 -0.05
v -9 -5 -0.05
v -9 -4 -0.05
v -8 -4 -0.05
v -9 -5 -0.05
v -10 -5 -0.05
v -10 -4 -0.05
v -9 -4 -0.05
v -10 -5 -0.05
v -11 -5 -0.05
v -11 -4 -0.05
v -10 -4 -0.05
v -11 -5 -0.05
v -12 -5 -0.05
v -12 -4 -0.05
v -11 -4 -0.05
v -12 -5 -0.05
v -13 -5 -0.05
v -13 -4 -0.05
v -12 -4 -0.05
v -13 -5 -0.05
v -14 -5 -0.05
v -14 -4 -0.05
v -13 -4 -0.05
v -14 -5 -0.05
v -15 -5 -0.05
v -15 -4 -0.05
v -14 -4 -0.05
v -15 -5 -0.05
v -16 -5 -0.05
v -16 -4 -0.05
v -15 -4 -0.05
v 0 -6 -0.06
v -1 -6 -0.06
v -1 -5 -0.06
v 0 -5 -0.06
v -1 -6 -0.06
v -2 -6 -0.06
v -2 -5 -0.06
v -1 -5 -0.06
v -2 -6 -0.06
v -3 -6 -0.06
v -3 -5 -0.06
v -2 -5 -0.06
v -3 -6 -0.06
v -4 -6 -0.06
v -4 -5 -0.06
v -3 -5 -0.06
v -4 -6 -0.06
v -5 -6 -0.06
v -5 -5 -0.06
v -4 -5 -0.06
v -5 -6 -0.06
v -6 -6 -0.06
v -6 -5 -0.06
v -5 -5 -0.06
v -6 -6 -0.06
v -7 -6 -0.06
v -7 -5 -0.06
v -6 -5 -0.06
v -7 -6 -0.06
v -8 -6 -0.06
v -8 -5 -0.06
v -7 -5 -0.06
v -8 -6 -0.06
v -9 -6 -0.06
v -9 -5 -0.06
v -8 -5 -0.06
v -9 -6 -0.06
v -10 -6 -0.06
v -10 -5 -0.06
v -9 -5 -0.06
v -10 -6 -0.06
v -11 -6 -0.06
v -11 -5 -0.06
v -10 -5 -0.06
v -11 -6 -0.06
v -12 -6 -0.06
v -12 -5 -0.06
v -11 -5 -0.06
v -12 -6 -0.06
v -13 -6 -0.06
v -13 -5 -0.06
v -12 -5 -0.06
v -13 -6 -0.06
v -14 -6 -0.06
v -14 -5 -0.06
v -13 -5 -0.06
v -14 -6 -0.06
v -15 -6 -0.06
v -15 -5 -0.06
v -14 -5 -0.06
v -15 -6 -0.06
v -16 -6 -0.06
v -16 -5 -0.06
v -15 -5 -0.06
v 0 -7 -0.07
v -1 -7 -0.07
v -1 -6 -0.07
v 0 -6 -0.07
v -1 -7 -0.07
v -2 -7 -0.07
v -2 -6 -0.07
v -1 -6 -0.07
v -2 -7 -0.07
v -3 -7 -0.07
v -3 -6 -0.07
v -2 -6 -0.07
v -3 -7 -0.07
v -4 -7 -0.07
v -4 -6 -0.07
v -3 -6 -0.07
v -4 -7 -0.07
v -5 -7 -0.07
v -5 -6 -0.07
v -4 -6 -0.07
v -5 -7 -0.07
v -6 -7 -0.07
v -6 -6 -0.07
v -5 -6 -0.07
v -6 -7 -0.07
v -7 -7 -0.07
v -7 -6 -0.07
v -6 -6 -0.07
v -7 -7 -0.07
v -8 -7 -0.07
v -8 -6 -0.07
v -7 -6 -0.07
v -8 -7 -0.07
v -9 -7 -0.07
v -9 -6 -0.07
v -8 -6 -0.07
v -9 -7 -0.07
v -10 -7 -0.07
v -10 -6 -0.07
v -9 -6 -0.07
v -10 -7 -0.07
v -11 -7 -0.07
v -11 -6 -0.07
v -10 -6 -0.07
v -11 -7 -0.07
v -12 -7 -0.07
v -12 -6 -0.07
v -11 -6 -0.07
v -12 -7 -0.07
v -13 -7 -0.07
v -13 -6 -0.07
v -12 -6 -0.07
v -13 -7 -0.07
v -14 -7 -0.07
v -14 -6 -0.07
v -13 -6 -0.07
v -14 -7 -0.07
v -15 -7 -0.07
v -15 -6 -0.07
v -14 -6 -0.07
v -15 -7 -0.07
v -16 -7 -0.07
v -16 -6 -0.07
v -15 -6 -0.07
v 0 -8 -0.08
v -1 -8 -0.08
v -1 -7 -0.08
v 0 -7 -0.08
v -1 -8 -0.08
v -2 -8 -0.08
v -2 -7 -0.08
v -1 -7 -0.08
v -2 -8 -0.08
v -3 -8 -0.08
v -3 -7 -0.08
v -2 -7 -0.08
v -3 -8 -0.08
v -4 -8 -0.08
v -4 -7 -0.08
v -3 -7 -0.08
v -4 -8 -0.08
v -5 -8 -0.08
v -5 -7 -0.08
v -4 -7 -0.08
v -5 -8 -0.08
v -6 -8 -0.08
v -6 -7 -0.08
v -5 -7 -0.08
v -6 -8 -0.08
v -7 -8 -0.08
v -7 -7 -0.08
v -6 -7 -0.08
v -7 -8 -0.08
v -8 -8 -0.08
v -8 -7 -0.08
v -7 -7 -0.08
v -8 -8 -0.08
v -9 -8 -0.08
v -9 -7 -0.08
v -8 -7 -0.08
v -9 -8 -0.08
v -10 -8 -0.08
v -10 -7 -0.08
v -9 -7 -0.08
v -10 -8 -0.08
v -11 -8 -0.08
v -11 -7 -0.08
v -10 -7 -0.08
v -11 -8 -0.08
v -12 -8 -0.08
v -12 -7 -0.08
v -11 -7 -0.08
v -12 -8 -0.08
v -13 -8 -0.08
v -13 -7 -0.08
v -12 -7 -0.08
v -13 -8 -0.08
v -14 -8 -0.08
v -14 -7 -0.08
v -13 -7 -0.08
v -14 -8 -0.08
v -15 -8 -0.08
v -15 -7 -0.08
v -14 -7 -0.08
v -15 -8 -0.08
v -16 -8 -0.08
v -16 -7 -0.08
v -15 -7 -0.08
v 0 -9 -0.09
v -1 -9 -0.09
v -1 -8 -0.09
v 0 -8 -0.09
v -1 -9 -0.09
v -2 -9 -0.09
v -2 -8 -0.09
v -1 -8 -0.09
v -2 -9 -0.09
v -3 -9 -0.09
v -3 -8 -0.09
v -2 -8 -0.09
v -3 -9 -0.09
v -4 -9 -0.09
v -4 -8 -0.09
v -3 -8 -0.09
v -4 -9 -0.09
v -5 -9 -0.09
v -5 -8 -0.09
v -4 -8 -0.09
v -5 -9 -0.09
v -6 -9 -0.09
v -6 -8 -0.09
v -5 -8 -0.09
v -6 -9 -0.09
v -7 -9 -0.09
v -7 -8 -0.09
v -6 -8 -0.09
v -7 -9 -0.09
v -8 -9 -0.09
v -8 -8 -0.09
v -7 -8 -0.09
v -8 -9 -0.09
v -9 -9 -0.09
v -9 -8 -0.09
v -8 -8 -0.09
v -9 -9 -0.09
v -10 -9 -0.09
v -10 -8 -0.09
v -9 -8 -0.09
v -10 -9 -0.09
v -11 -9 -0.09
v -11 -8 -0.09
v -10 -8 -0.09
v -11 -9 -0.09
v -12 -9 -0.09
v -12 -8 -0.09
v -11 -8 -0.09
v -12 -9 -0.09
v -13 -9 -0.09
v -13 -8 -0.09
v -12 -8 -0.09
v -13 -9 -0.09
v -14 -9 -0.09
v -14 -8 -0.09
v -13 -8 -0.09
v -14 -9 -0.09
v -15 -9 -0.09
v -15 -8 -0.09
v -14 -8 -0.09
v -15 -9 -0.09
v -16 -9 -0.09
v -16 -8 -0.09
v -15 -8 -0.09
v 0 -10 -0.1
v -1 -10 -0.1
v -1 -9 -0.1
v 0 -9 -0.1
v -1 -10 -0.1
v -2 -10 -0.1
v -2 -9 -0.1
v -1 -9 -0.1
v -2 -10 -0.1
v -3 -10 -0.1
v -3 -9 -0.1
v -2 -9 -0.1
v -3 -10 -0.1
v -4 -10 -0.1
v -4 -9 -0.1
v -3 -9 -0.1
v -4 -10 -0.1
v -5 -10 -0.1
v -5 -9 -0.1
v -4 -9 -0.1
v -5 -10 -0.1
v -6 -10 -0.1
v -6 -9 -0.1
v -5 -9 -0.1
v -6 -10 -0.1
v -7 -10 -0.1
v -7 -9 -0.1
v -6 -9 -0.1
v -7 -10 -0.1
v -8 -10 -0.1
v -8 -9 -0.1
v -7 -9 -0.1
v -8 -10 -0.1
v -9 -10 -0.1
v -9 -9 -0.1
v -8 -9 -0.1
v -9 -10 -0.1
v -10 -10 -0.1
v -10 -9 -0.1
v -9 -9 -0.1
v -10 -10 -0.1
v -11 -10 -0.1
v -11 -9 -0.1
v -10 -9 -0.1
v -11 -10 -0.1
v -12 -10 -0.1
v -12 -9 -0.1
v -11 -9 -0.1
v -12 -10 -0.1
v -13 -10 -0.1
v -13 -9 -0.1
v -12 -9 -0.1
v -13 -10 -0.1
v -14 -10 -0.1
v -14 -9 -0.1
v -13 -9 -0.1
v -14 -10 -0.1
v -15 -10 -0.1
v -15 -9 -0.1
v -14 -9 -0.1
v -15 -10 -0.1
v -16 -10 -0.1
v -16 -9 -0.1
v -15 -9 -0.1
v 0 -11 -0.11
v -1 -11 -0.11
v -1 -10 -0.11
v 0 -10 -0.11
v -1 -11 -0.11
v -2 -11 -0.11
v -2 -10 -0.11
v -1 -10 -0.11
v -2 -11 -0.11
v -3 -11 -0.11
v -3 -10 -0.11
v -2 -10 -0.11
v -3 -11 -0.11
v -4 -11 -0.11
v -4 -10 -0.11
v -3 -10 -0.11
v -4 -11 -0.11
v -5 -11 -0.11
v -5 -10 -0.11
v -4 -10 -0.11
v -5 -11 -0.11
v -6 -11 -0.11
v -6 -10 -0.11
v -5 -10 -0.11
v -6 -11 -0.11
v -7 -11 -0.11
v -7 -10 -0.11
v -6 -10 -0.11
v -7 -11 -0.11
v -8 -11 -0.11
v -8 -10 -0.11
v -7 -10 -0.11
v -8 -11 -0.11
v -9 -11 -0.11
v -9 -10 -0.11
v -8 -10 -0.11
v -9 -11 -0.11
v -10 -11 -0.11
v -10 -10 -0.11
v -9 -10 -0.11
v -10 -11 -0.11
v -11 -11 -0.11
v -11 -10 -0.11
v -10 -10 -0.11
v -11 -11 -0.11
v -12 -11 -0.11
v -12 -10 -0.11
v -11 -10 -0.11
v -12 -11 -0.11
v -13 -11 -0.11
v -13 -10 -0.11
v -12 -10 -0.11
v -13 -11 -0.11
v -14 -11 -0.11
v -14 -10 -0.11
v -13 -10 -0.11
v -14 -11 -0.11
v -15 -11 -0.11
v -15 -10 -0.11
v -14 -10 -0.11
v -15 -11 -0.11
v -16 -11 -0.11
v -16 -10 -0.11
v -15 -10 -0.11
v 0 -12 -0.12
v -1 -12 -0.12
v -1 -11 -0.12
v 0 -11 -0.12
v -1 -12 -0.12
v -2 -12 -0.12
v -2 -11 -0.12
v -1 -11 -0.12
v -2 -12 -0.12
v -3 -12 -0.12
v -3 -11 -0.12
v -2 -11 -0.12
v -3 -12 -0.12
v -4 -12 -0.12
v -4 -11 -0.12
v -3 -11 -0.12
v -4 -12 -0.12
v -5 -12 -0.12
v -5 -11 -0.12
v -4 -11 -0.12
v -5 -12 -0.12
v -6 -12 -0.12
v -6 -11 -0.12
v -5 -11 -0.12
v -6 -12 -0.12
v -7 -12 -0.12
v -7 -11 -0.12
v -6 -11 -0.12
v -7 -12 -0.12
v -8 -12 -0.12
v -8 -11 -0.12
v -7 -11 -0.12
v -8 -12 -0.12
v -9 -12 -0.12
v -9 -11 -0.12
v -8 -11 -0.12
v -9 -12 -0.12
v -10 -12 -0.12
v -10 -11 -0.12
v -9 -11 -0.12
v -10 -12 -0.12
v -11 -12 -0.12
v -11 -11 -0.12
v -10 -11 -0.12
v -11 -12 -0.12
v -12 -12 -0.12
v -12 -11 -0.12
v -11 -11 -0.12
v -12 -12 -0.12
v -13 -12 -0.12
v -13 -11 -0.12
v -12 -11 -0.12
v -13 -12 -0.12
v -14 -12 -0.12
v -14 -11 -0.12
v -13 -11 -0.12
v -14 -12 -0.12
v -15 -12 -0.12
v -15 -11 -0.12
v -14 -11 -0.12
v -15 -12 -0.12
v -16 -12 -0.12
v -16 -11 -0.12
v -15 -11 -0.12
v 0 -13 -0.13
v -1 -13 -0.13
v -1 -12 -0.13
v 0 -12 -0.13
v -1 -13 -0.13
v -2 -13 -0.13
v -2 -12 -0.13
v -1 -12 -0.13
v -2 -13 -0.13
v -3 -13 -0.13
v -3 -12 -0.13
v -2 -12 -0.13
v -3 -13 -0.13
v -4 -13 -0.13
v -4 -12 -0.13
v -3 -12 -0.13
v -4 -13 -0.13
v -5 -13 -0.13
v -5 -12 -0.13
v -4 -12 -0.13
v -5 -13 -0.13
v -6 -13 -0.13
v -6 -12 -0.13
v -5 -12 -0.13
v -6 -13 -0.13
v -7 -13 -0.13
v -7 -12 -0.13
v -6 -12 -0.13
v -7 -13 -0.13
v -8 -13 -0.13
v -8 -12 -0.13
v -7 -12 -0.13
v -8 -13 -0.13
v -9 -13 -0.13
v -9 -12 -0.13
v -8 -12 -0.13
v -9 -13 -0.13
v -10 -13 -0.13
v -10 -12 -0.13
v -9 -12 -0.13
v -10 -13 -0.13
v -11 -13 -0.13
v -11 -12 -0.13
v -10 -12 -0.13
v -11 -13 -0.13
v -12 -13 -0.13
v -12 -12 -0.13
v -11 -12 -0.13
v -12 -13 -0.13
v -13 -13 -0.13
v -13 -12 -0.13
v -12 -12 -0.13
v -13 -13 -0.13
v -14 -13 -0.13
v -14 -12 -0.13
v -13 -12 -0.13
v -14 -13 -0.13
v -15 -13 -0.13
v -15 -12 -0.13
v -14 -12 -0.13
v -15 -13 -0.13
v -16 -13 -0.13
v -16 -12 -0.13
v -15 -12 -0.13
v 0 -14 -0.14
v -1 -14 -0.14
v -1 -13 -0.14
v 0 -13 -0.14
v -1 -14 -0.14
v -2 -14 -0.14
v -2 -13 -0.14
v -1 -13 -0.14
v -2 -14 -0.14
v -3 -14 -0.14
v -3 -13 -0.14
v -2 -13 -0.14
v -3 -14 -0.14
v -4 -14 -0.14
v -4 -13 -0.14
v -3 -13 -0.14
v -4 -14 -0.14
v -5 -14 -0.14
v -5 -13 -0.14
v -4 -13 -0.14
v -5 -14 -0.14
v -6 -14 -0.14
v -6 -13 -0.14
v -5 -13 -0.14
v -6 -14 -0.14
v -7 -14 -0.14
v -7 -13 -0.14
v -6 -13 -0.14
v -7 -14 -0.14
v -8 -14 -0.14
v -8 -13 -0.14
v -7 -13 -0.14
v -8 -14 -0.14
v -9 -14 -0.14
v -9 -13 -0.14
v -8 -13 -0.14
v -9 -14 -0.14
v -10 -14 -0.14
v -10 -13 -0.14
v -9 -13 -0.14
v -10 -14 -0.14
v -11 -14 -0.14
v -11 -13 -0.14
v -10 -13 -0.14
v -11 -14 -0.14
v -12 -14 -0.14
v -12 -13 -0.14
v -11 -13 -0.14
v -12 -14 -0.14
v -13 -14 -0.14
v -13 -13 -0.14
v -12 -13 -0.14
v -13 -14 -0.14
v -14 -14 -0.14
v -14 -13 -0.14
v -13 -13 -0.14
v -14 -14 -0.14
v -15 -14 -0.14
v -15 -13 -0.14
v -14 -13 -0.14
v -15 -14 -0.14
v -16 -14 -0.14
v -16 -13 -0.14
v -15 -13 -0.14
v 0 -15 -0.15
v -1 -15 -0.15
v -1 -14 -0.15
v 0 -14 -0.15
v -1 -15 -0.15
v -2 -15 -0.15
v -2 -14 -0.15
v -1 -14 -0.15
v -2 -15 -0.15
v -3 -15 -0.15
v -3 -14 -0.15
v -2 -14 -0.15
v -3 -15 -0.15
v -4 -15 -0.15
v -4 -14 -0.15
v -3 -14 -0.15
v -4 -15 -0.15
v -5 -15 -0.15
v -5 -14 -0.15
v -4 -14 -0.15
v -5 -15 -0.15
v -6 -15 -0.15
v -6 -14 -0.15
v -5 -14 -0.15
v -6 -15 -0.15
v -7 -15 -0.15
v -7 -14 -0.15
v -6 -14 -0.15
v -7 -15 -0.15
v -8 -15 -0.15
v -8 -14 -0.15
v -7 -14 -0.15
v -8 -15 -0.15
v -9 -15 -0.15
v -9 -14 -0.15
v -8 -14 -0.15
v -9 -15 -0.15
v -10 -15 -0.15
v -10 -14 -0.15
v -9 -14 -0.15
v -10 -15 -0.15
v -11 -15 -0.15
v -11 -14 -0.15
v -10 -14 -0.15
v -11 -15 -0.15
v -12 -15 -0.15
v -12 -14 -0.15
v -11 -14 -0.15
v -12 -15 -0.15
v -13 -15 -0.15
v -13 -14 -0.15
v -12 -14 -0.15
v -13 -15 -0.15
v -14 -15 -0.15
v -14 -14 -0.15
v -13 -14 -0.15
v -14 -15 -0.15
v -15 -15 -0.15
v -15 -14 -0.15
v -14 -14 -0.15
v -15 -15 -0.15
v -16 -15 -0.15
v -16 -14 -0.15
v -15 -14 -0.15
v 0 -16 -0.16
v -1 -16 -0.16
v -1 -15 -0.16
v 0 -15 -0.16
v -1 -16 -0.16
v -2 -16 -0.16
v -2 -15 -0.16
v -1 -15 -0.16
v -2 -16 -0.16
v -3 -16 -0.16
v -3 -15 -0.16
v -2 -15 -0.16
v -3 -16 -0.16
v -4 -16 -0.16
v -4 -15 -0.16
v -3 -15 -0.16
v -4 -16 -0.16
v -5 -16 -0.16
v -5 -15 -0.16
v -4 -15 -0.16
v -5 -16 -0.16
v -6 -16 -0.16
v -6 -15 -0.16
v -5 -15 -0.16
v -6 -16 -0.16
v -7 -16 -0.16
v -7 -15 -0.16
v -6 -15 -0.16
v -7 -16 -0.16
v -8 -16 -0.16
v -8 -15 -0.16
v -7 -15 -0.16
v -8 -16 -0.16
v -9 -16 -0.16
v -9 -15 -0.16
v -8 -15 -0.16
v -9 -16 -0.16
v -10 -16 -0.16
v -10 -15 -0.16
v -9 -15 -0.16
v -10 -16 -0.16
v -11 -16 -0.16
v -11 -15 -0.16
v -10 -15 -0.16
v -11 -16 -0.16
v -12 -16 -0.16
v -12 -15 -0.16
v -11 -15 -0.16
v -12 -16 -0.16
v -13 -16 -0.16
v -13 -15 -0.16
v -12 -15 -0.16
v -13 -16 -0.16
v -14 -16 -0.16
v -14 -15 -0.16
v -13 -15 -0.16
v -14 -16 -0.16
v -15 -16 -0.16
v -15 -15 -0.16
v -14 -15 -0.16
v -15 -16 -0.16
v -16 -16 -0.16
v -16 -15 -0.16
v -15 -15 -0.16

# Texture cooridinates (Count = 25)
vt 0.1190476 0.8858773
vt 0.1428571 0.8858773
vt 0.1428571 0.9087018
vt 0.1190476 0.9087018
vt 0.04761905 0.8858773
vt 0.07142857 0.8858773
vt 0.07142857 0.9087018
vt 0.04761905 0.9087018
vt 0.0952381 0.8858773
vt 0.0952381 0.9087018
vt 0.1190476 0.8630528
vt 0.1428571 0.8630528
vt 0.04761905 0.8630528
vt 0.07142857 0.8630528
vt 0.0952381 0.8630528
vt 0.1190476 0.8402283
vt 0.1428571 0.8402283
vt 0.04761905 0.8402283
vt 0.07142857 0.8402283
vt 0.0952381 0.8402283
vt 0.1190476 0.8174037
vt 0.1428571 0.8174037
vt 0.04761905 0.8174037
vt 0.07142857 0.8174037
vt 0.0952381 0.8174037

# Normal
vn 0 0 -1

# Mesh description
g Area_mesh_0007

# Faces
f 1/1/1 2/2/1 3/3/1 4/4/1
f 5/5/1 6/6/1 7/7/1 8/8/1
f 9/6/1 10/9/1 11/10/1 12/7/1
f 13/9/1 14/1/1 15/4/1 16/10/1
f 17/1/1 18/2/1 19/3/1 20/4/1
f 21/5/1 22/6/1 23/7/1 24/8/1
f 25/6/1 26/9/1 27/10/1 28/7/1
f 29/9/1 30/1/1 31/4/1 32/10/1
f 33/1/1 34/2/1 35/3/1 36/4/1
f 37/5/1 38/6/1 39/7/1 40/8/1
f 41/6/1 42/9/1 43/10/1 44/7/1
f 45/9/1 46/1/1 47/4/1 48/10/1
f 49/1/1 50/2/1 51/3/1 52/4/1
f 53/5/1 54/6/1 55/7/1 56/8/1
f 57/6/1 58/9/1 59/10/1 60/7/1
f 61/9/1 62/1/1 63/4/1 64/10/1
f 65/11/1 66/12/1 67/2/1 68/1/1
f 69/13/1 70/14/1 71/6/1 72/5/1
f 73/14/1 74/15/1 75/9/1 76/6/1
f 77/15/1 78/11/1 79/1/1 80/9/1
f 81/11/1 82/12/1 83/2/1 84/1/1
f 85/13/1 86/14/1 87/6/1 88/5/1
f 89/14/1 90/15/1 91/9/1 92/6/1
f 93/15/1 94/11/1 95/1/1 96/9/1
f 97/11/1 98/12/1 99/2/1 100/1/1
f 101/13/1 102/14/1 103/6/1 104/5/1
f 105/14/1 106/15/1 107/9/1 108/6/1
f 109/15/1 110/11/1 111/1/1 112/9/1
f 113/11/1 114/12/1 115/2/1 116/1/1
f 117/13/1 118/14/1 119/6/1 120/5/1
f 121/14/1 122/15/1 123/9/1 124/6/1
f 125/15/1 126/11/1 127/1/1 128/9/1
f 129/16/1 130/17/1 131/12/1 132/11/1
f 133/18/1 134/19/1 135/14/1 136/13/1
f 137/19/1 138/20/1 139/15/1 140/14/1
f 141/20/1 142/16/1 143/11/1 144/15/1
f 145/16/1 146/17/1 147/12/1 148/11/1
f 149/18/1 150/19/1 151/14/1 152/13/1
f 153/19/1 154/20/1 155/15/1 156/14/1
f 157/20/1 158/16/1 159/11/1 160/15/1
f 161/16/1 162/17/1 163/12/1 164/11/1
f 165/18/1 166/19/1 167/14/1 168/13/1
f 169/19/1 170/20/1 171/15/1 172/14/1
f 173/20/1 174/16/1 175/11/1 176/15/1
f 177/16/1 178/17/1 179/12/1 180/11/1
f 181/18/1 182/19/1 183/14/1 184/13/1
f 185/19/1 186/20/1 187/15/1 188/14/1
f 189/20/1 190/16/1 191/11/1 192/15/1
f 193/21/1 194/22/1 195/17/1 196/16/1
f 197/23/1 198/24/1 199/19/1 200/18/1
f 201/24/1 202/25/1 203/20/1 204/19/1
f 205/25/1 206/21/1 207/16/1 208/20/1
f 209/21/1 210/22/1 211/17/1 212/16/1
f 213/23/1 214/24/1 215/19/1 216/18/1
f 217/24/1 218/25/1 219/20/1 220/19/1
f 221/25/1 222/21/1 223/16/1 224/20/1
f 225/21/1 226/22/1 227/17/1 228/16/1
f 229/23/1 230/24/1 231/19/1 232/18/1
f 233/24/1 234/25/1 235/20/1 236/19/1
f 237/25/1 238/21/1 239/16/1 240/20/1
f 241/21/1 242/22/1 243/17/1 244/16/1
f 245/23/1 246/24/1 247/19/1 248/18/1
f 249/24/1 250/25/1 251/20/1 252/19/1
f 253/25/1 254/21/1 255/16/1 256/20/1
f 257/1/1 258/2/1 259/3/1 260/4/1
f 261/5/1 262/6/1 263/7/1 264/8/1
f 265/6/1 266/9/1 267/10/1 268/7/1
f 269/9/1 270/1/1 271/4/1 272/10/1
f 273/1/1 274/2/1 275/3/1 276/4/1
f 277/5/1 278/6/1 279/7/1 280/8/1
f 281/6/1 282/9/1 283/10/1 284/7/1
f 285/9/1 286/1/1 287/4/1 288/10/1
f 289/1/1 290/2/1 291/3/1 292/4/1
f 293/5/1 294/6/1 295/7/1 296/8/1
f 297/6/1 298/9/1 299/10/1 300/7/1
f 301/9/1 302/1/1 303/4/1 304/10/1
f 305/1/1 306/2/1 307/3/1 308/4/1
f 309/5/1 310/6/1 311/7/1 312/8/1
f 313/6/1 314/9/1 315/10/1 316/7/1
f 317/9/1 318/1/1 319/4/1 320/10/1
f 321/11/1 322/12/1 323/2/1 324/1/1
f 325/13/1 326/14/1 327/6/1 328/5/1
f 329/14/1 330/15/1 331/9/1 332/6/1
f 333/15/1 334/11/1 335/1/1 336/9/1
f 337/11/1 338/12/1 339/2/1 340/1/1
f 341/13/1 342/14/1 343/6/1 344/5/1
f 345/14/1 346/15/1 347/9/1 348/6/1
f 349/15/1 350/11/1 351/1/1 352/9/1
f 353/11/1 354/12/1 355/2/1 356/1/1
f 357/13/1 358/14/1 359/6/1 360/5/1
f 361/14/1 362/15/1 363/9/1 364/6/1
f 365/15/1 366/11/1 367/1/1 368/9/1
f 369/11/1 370/12/1 371/2/1 372/1/1
f 373/13/1 374/14/1 375/6/1 376/5/1
f 377/14/1 378/15/1 379/9/1 380/6/1
f 381/15/1 382/11/1 383/1/1 384/9/1
f 385/16/1 386/17/1 387/12/1 388/11/1
f 389/18/1 390/19/1 391/14/1 392/13/1
f 393/19/1 394/20/1 395/15/1 396/14/1
f 397/20/1 398/16/1 399/11/1 400/15/1
f 401/16/1 402/17/1 403/12/1 404/11/1
f 405/18/1 406/19/1 407/14/1 408/13/1
f 409/19/1 410/20/1 411/15/1 412/14/1
f 413/20/1 414/16/1 415/11/1 416/15/1
f 417/16/1 418/17/1 419/12/1 420/11/1
f 421/18/1 422/19/1 423/14/1 424/13/1
f 425/19/1 426/20/1 427/15/1 428/14/1
f 429/20/1 430/16/1 431/11/1 432/15/1
f 433/16/1 434/17/1 435/12/1 436/11/1
f 437/18/1 438/19/1 439/14/1 440/13/1
f 441/19/1 442/20/1 443/15/1 444/14/1
f 445/20/1 446/16/1 447/11/1 448/15/1
f 449/21/1 450/22/1 451/17/1 452/16/1
f 453/23/1 454/24/1 455/19/1 456/18/1
f 457/24/1 458/25/1 459/20/1 460/19/1
f 461/25/1 462/21/1 463/16/1 464/20/1
f 465/21/1 466/22/1 467/17/1 468/16/1
f 469/23/1 470/24/1 471/19/1 472/18/1
f 473/24/1 474/25/1 475/20/1 476/19/1
f 477/25/1 478/21/1 479/16/1 480/20/1
f 481/21/1 482/22/1 483/17/1 484/16/1
f 485/23/1 486/24/1 487/19/1 488/18/1
f 489/24/1 490/25/1 491/20/1 492/19/1
f 493/25/1 494/21/1 495/16/1 496/20/1
f 497/21/1 498/22/1 499/17/1 500/16/1
f 501/23/1 502/24/1 503/19/1 504/18/1
f 505/24/1 506/25/1 507/20/1 508/19/1
f 509/25/1 510/21/1 511/16/1 512/20/1
f 513/1/1 514/2/1 515/3/1 516/4/1
f 517/5/1 518/6/1 519/7/1 520/8/1
f 521/6/1 522/9/1 523/10/1 524/7/1
f 525/9/1 526/1/1 527/4/1 528/10/1
f 529/1/1 530/2/1 531/3/1 532/4/1
f 533/5/1 534/6/1 535/7/1 536/8/1
f 537/6/1 538/9/1 539/10/1 540/7/1
f 541/9/1 542/1/1 543/4/1 544/10/1
f 545/1/1 546/2/1 547/3/1 548/4/1
f 549/5/1 550/6/1 551/7/1 552/8/1
f 553/6/1 554/9/1 555/10/1 556/7/1
f 557/9/1 558/1/1 559/4/1 560/10/1
f 561/1/1 562/2/1 563/3/1 564/4/1
f 565/5/1 566/6/1 567/7/1 568/8/1
f 569/6/1 570/9/1 571/10/1 572/7/1
f 573/9/1 574/1/1 575/4/1 576/10/1
f 577/11/1 578/12/1 579/2/1 580/1/1
f 581/13/1 582/14/1 583/6/1 584/5/1
f 585/14/1 586/15/1 587/9/1 588/6/1
f 589/15/1 590/11/1 591/1/1 592/9/1
f 593/11/1 594/12/1 595/2/1 596/1/1
f 597/13/1 598/14/1 599/6/1 600/5/1
f 601/14/1 602/15/1 603/9/1 604/6/1
f 605/15/1 606/11/1 607/1/1 608/9/1
f 609/11/1 610/12/1 611/2/1 612/1/1
f 613/13/1 614/14/1 615/6/1 616/5/1
f 617/14/1 618/15/1 619/9/1 620/6/1
f 621/15/1 622/11/1 623/1/1 624/9/1
f 625/11/1 626/12/1 627/2/1 628/1/1
f 629/13/1 630/14/1 631/6/1 632/5/1
f 633/14/1 634/15/1 635/9/1 636/6/1
f 637/15/1 638/11/1 639/1/1 640/9/1
f 641/16/1 642/17/1 643/12/1 644/11/1
f 645/18/1 646/19/1 647/14/1 648/13/1
f 649/19/1 650/20/1 651/15/1 652/14/1
f 653/20/1 654/16/1 655/11/1 656/15/1
f 657/16/1 658/17/1 659/12/1 660/11/1
f 661/18/1 662/19/1 663/14/1 664/13/1
f 665/19/1 666/20/1 667/15/1 668/14/1
f 669/20/1 670/16/1 671/11/1 672/15/1
f 673/16/1 674/17/1 675/12/1 676/11/1
f 677/18/1 678/19/1 679/14/1 680/13/1
f 681/19/1 682/20/1 683/15/1 684/14/1
f 685/20/1 686/16/1 687/11/1 688/15/1
f 689/16/1 690/17/1 691/12/1 692/11/1
f 693/18/1 694/19/1 695/14/1 696/13/1
f 697/19/1 698/20/1 699/15/1 700/14/1
f 701/20/1 702/16/1 703/11/1 704/15/1
f 705/21/1 706/22/1 707/17/1 708/16/1
f 709/23/1 710/24/1 711/19/1 712/18/1
f 713/24/1 714/25/1 715/20/1 716/19/1
f 717/25/1 718/21/1 719/16/1 720/20/1
f 721/21/1 722/22/1 723/17/1 724/16/1
f 725/23/1 726/24/1 727/19/1 728/18/1
f 729/24/1 730/25/1 731/20/1 732/19/1
f 733/25/1 734/21/1 735/16/1 736/20/1
f 737/21/1 738/22/1 739/17/1 740/16/1
f 741/23/1 742/24/1 743/19/1 744/18/1
f 745/24/1 746/25/1 747/20/1 748/19/1
f 749/25/1 750/21/1 751/16/1 752/20/1
f 753/21/1 754/22/1 755/17/1 756/16/1
f 757/23/1 758/24/1 759/19/1 760/18/1
f 761/24/1 762/25/1 763/20/1 764/19/1
f 765/25/1 766/21/1 767/16/1 768/20/1
f 769/1/1 770/2/1 771/3/1 772/4/1
f 773/5/1 774/6/1 775/7/1 776/8/1
f 777/6/1 778/9/1 779/10/1 780/7/1
f 781/9/1 782/1/1 783/4/1 784/10/1
f 785/1/1 786/2/1 787/3/1 788/4/1
f 789/5/1 790/6/1 791/7/1 792/8/1
f 793/6/1 794/9/1 795/10/1 796/7/1
f 797/9/1 798/1/1 799/4/1 800/10/1
f 801/1/1 802/2/1 803/3/1 804/4/1
f 805/5/1 806/6/1 807/7/1 808/8/1
f 809/6/1 810/9/1 811/10/1 812/7/1
f 813/9/1 814/1/1 815/4/1 816/10/1
f 817/1/1 818/2/1 819/3/1 820/4/1
f 821/5/1 822/6/1 823/7/1 824/8/1
f 825/6/1 826/9/1 827/10/1 828/7/1
f 829/9/1 830/1/1 831/4/1 832/10/1
f 833/11/1 834/12/1 835/2/1 836/1/1
f 837/13/1 838/14/1 839/6/1 840/5/1
f 841/14/1 842/15/1 843/9/1 844/6/1
f 845/15/1 846/11/1 847/1/1 848/9/1
f 849/11/1 850/12/1 851/2/1 852/1/1
f 853/13/1 854/14/1 855/6/1 856/5/1
f 857/14/1 858/15/1 859/9/1 860/6/1
f 861/15/1 862/11/1 863/1/1 864/9/1
f 865/11/1 866/12/1 867/2/1 868/1/1
f 869/13/1 870/14/1 871/6/1 872/5/1
f 873/14/1 874/15/1 875/9/1 876/6/1
f 877/15/1 878/11/1 879/1/1 880/9/1
f 881/11/1 882/12/1 883/2/1 884/1/1
f 885/13/1 886/14/1 887/6/1 888/5/1
f 889/14/1 890/15/1 891/9/1 892/6/1
f 893/15/1 894/11/1 895/1/1 896/9/1
f 897/16/1 898/17/1 899/12/1 900/11/1
f 901/18/1 902/19/1 903/14/1 904/13/1
f 905/19/1 906/20/1 907/15/1 908/14/1
f 909/20/1 910/16/1 911/11/1 912/15/1
f 913/16/1 914/17/1 915/12/1 916/11/1
f 917/18/1 918/19/1 919/14/1 920/13/1
f 921/19/1 922/20/1 923/15/1 924/14/1
f 925/20/1 926/16/1 927/11/1 928/15/1
f 929/16/1 930/17/1 931/12/1 932/11/1
f 933/18/1 934/19/1 935/14/1 936/13/1
f 937/19/1 938/20/1 939/15/1 940/14/1
f 941/20/1 942/16/1 943/11/1 944/15/1
f 945/16/1 946/17/1 947/12/1 948/11/1
f 949/18/1 950/19/1 951/14/1 952/13/1
f 953/19/1 954/20/1 955/15/1 956/14/1
f 957/20/1 958/16/1 959/11/1 960/15/1

