# Tiled2Unity generated file. Do not modify by hand.
# Wavefront file for 'Area_mesh_0257.obj'

# Vertices (Count = 272)
v -8 -2 -0.02
v -9 -2 -0.02
v -9 -1 -0.02
v -8 -1 -0.02
v -9 -2 -0.02
v -10 -2 -0.02
v -10 -1 -0.02
v -9 -1 -0.02
v -10 -2 -0.02
v -11 -2 -0.02
v -11 -1 -0.02
v -10 -1 -0.02
v -11 -2 -0.02
v -12 -2 -0.02
v -12 -1 -0.02
v -11 -1 -0.02
v -8 -3 -0.03
v -9 -3 -0.03
v -9 -2 -0.03
v -8 -2 -0.03
v -9 -3 -0.03
v -10 -3 -0.03
v -10 -2 -0.03
v -9 -2 -0.03
v -1 -4 -0.04
v -2 -4 -0.04
v -2 -3 -0.04
v -1 -3 -0.04
v -8 -4 -0.04
v -9 -4 -0.04
v -9 -3 -0.04
v -8 -3 -0.04
v -9 -4 -0.04
v -10 -4 -0.04
v -10 -3 -0.04
v -9 -3 -0.04
v -8 -5 -0.05
v -9 -5 -0.05
v -9 -4 -0.05
v -8 -4 -0.05
v -8 -6 -0.06
v -9 -6 -0.06
v -9 -5 -0.06
v -8 -5 -0.06
v -11 -7 -0.07
v -12 -7 -0.07
v -12 -6 -0.07
v -11 -6 -0.07
v -8 -8 -0.08
v -9 -8 -0.08
v -9 -7 -0.08
v -8 -7 -0.08
v -9 -8 -0.08
v -10 -8 -0.08
v -10 -7 -0.08
v -9 -7 -0.08
v -10 -8 -0.08
v -11 -8 -0.08
v -11 -7 -0.08
v -10 -7 -0.08
v -11 -8 -0.08
v -12 -8 -0.08
v -12 -7 -0.08
v -11 -7 -0.08
v -8 -9 -0.09
v -9 -9 -0.09
v -9 -8 -0.09
v -8 -8 -0.09
v -9 -9 -0.09
v -10 -9 -0.09
v -10 -8 -0.09
v -9 -8 -0.09
v -10 -9 -0.09
v -11 -9 -0.09
v -11 -8 -0.09
v -10 -8 -0.09
v -11 -9 -0.09
v -12 -9 -0.09
v -12 -8 -0.09
v -11 -8 -0.09
v -8 -10 -0.1
v -9 -10 -0.1
v -9 -9 -0.1
v -8 -9 -0.1
v -9 -10 -0.1
v -10 -10 -0.1
v -10 -9 -0.1
v -9 -9 -0.1
v -10 -10 -0.1
v -11 -10 -0.1
v -11 -9 -0.1
v -10 -9 -0.1
v -11 -10 -0.1
v -12 -10 -0.1
v -12 -9 -0.1
v -11 -9 -0.1
v -12 -10 -0.1
v -13 -10 -0.1
v -13 -9 -0.1
v -12 -9 -0.1
v -13 -10 -0.1
v -14 -10 -0.1
v -14 -9 -0.1
v -13 -9 -0.1
v -14 -10 -0.1
v -15 -10 -0.1
v -15 -9 -0.1
v -14 -9 -0.1
v -15 -10 -0.1
v -16 -10 -0.1
v -16 -9 -0.1
v -15 -9 -0.1
v -8 -11 -0.11
v -9 -11 -0.11
v -9 -10 -0.11
v -8 -10 -0.11
v -9 -11 -0.11
v -10 -11 -0.11
v -10 -10 -0.11
v -9 -10 -0.11
v -10 -11 -0.11
v -11 -11 -0.11
v -11 -10 -0.11
v -10 -10 -0.11
v -11 -11 -0.11
v -12 -11 -0.11
v -12 -10 -0.11
v -11 -10 -0.11
v -12 -11 -0.11
v -13 -11 -0.11
v -13 -10 -0.11
v -12 -10 -0.11
v -13 -11 -0.11
v -14 -11 -0.11
v -14 -10 -0.11
v -13 -10 -0.11
v -14 -11 -0.11
v -15 -11 -0.11
v -15 -10 -0.11
v -14 -10 -0.11
v -15 -11 -0.11
v -16 -11 -0.11
v -16 -10 -0.11
v -15 -10 -0.11
v -8 -12 -0.12
v -9 -12 -0.12
v -9 -11 -0.12
v -8 -11 -0.12
v -9 -12 -0.12
v -10 -12 -0.12
v -10 -11 -0.12
v -9 -11 -0.12
v -10 -12 -0.12
v -11 -12 -0.12
v -11 -11 -0.12
v -10 -11 -0.12
v -11 -12 -0.12
v -12 -12 -0.12
v -12 -11 -0.12
v -11 -11 -0.12
v -12 -12 -0.12
v -13 -12 -0.12
v -13 -11 -0.12
v -12 -11 -0.12
v -13 -12 -0.12
v -14 -12 -0.12
v -14 -11 -0.12
v -13 -11 -0.12
v -14 -12 -0.12
v -15 -12 -0.12
v -15 -11 -0.12
v -14 -11 -0.12
v -15 -12 -0.12
v -16 -12 -0.12
v -16 -11 -0.12
v -15 -11 -0.12
v -8 -13 -0.13
v -9 -13 -0.13
v -9 -12 -0.13
v -8 -12 -0.13
v -9 -13 -0.13
v -10 -13 -0.13
v -10 -12 -0.13
v -9 -12 -0.13
v -10 -13 -0.13
v -11 -13 -0.13
v -11 -12 -0.13
v -10 -12 -0.13
v -11 -13 -0.13
v -12 -13 -0.13
v -12 -12 -0.13
v -11 -12 -0.13
v -12 -13 -0.13
v -13 -13 -0.13
v -13 -12 -0.13
v -12 -12 -0.13
v -13 -13 -0.13
v -14 -13 -0.13
v -14 -12 -0.13
v -13 -12 -0.13
v -14 -13 -0.13
v -15 -13 -0.13
v -15 -12 -0.13
v -14 -12 -0.13
v -15 -13 -0.13
v -16 -13 -0.13
v -16 -12 -0.13
v -15 -12 -0.13
v -8 -14 -0.14
v -9 -14 -0.14
v -9 -13 -0.14
v -8 -13 -0.14
v -9 -14 -0.14
v -10 -14 -0.14
v -10 -13 -0.14
v -9 -13 -0.14
v -10 -14 -0.14
v -11 -14 -0.14
v -11 -13 -0.14
v -10 -13 -0.14
v -11 -14 -0.14
v -12 -14 -0.14
v -12 -13 -0.14
v -11 -13 -0.14
v -12 -14 -0.14
v -13 -14 -0.14
v -13 -13 -0.14
v -12 -13 -0.14
v -13 -14 -0.14
v -14 -14 -0.14
v -14 -13 -0.14
v -13 -13 -0.14
v -14 -14 -0.14
v -15 -14 -0.14
v -15 -13 -0.14
v -14 -13 -0.14
v -15 -14 -0.14
v -16 -14 -0.14
v -16 -13 -0.14
v -15 -13 -0.14
v -8 -15 -0.15
v -9 -15 -0.15
v -9 -14 -0.15
v -8 -14 -0.15
v -9 -15 -0.15
v -10 -15 -0.15
v -10 -14 -0.15
v -9 -14 -0.15
v -10 -15 -0.15
v -11 -15 -0.15
v -11 -14 -0.15
v -10 -14 -0.15
v -11 -15 -0.15
v -12 -15 -0.15
v -12 -14 -0.15
v -11 -14 -0.15
v -12 -15 -0.15
v -13 -15 -0.15
v -13 -14 -0.15
v -12 -14 -0.15
v -13 -15 -0.15
v -14 -15 -0.15
v -14 -14 -0.15
v -13 -14 -0.15
v -14 -15 -0.15
v -15 -15 -0.15
v -15 -14 -0.15
v -14 -14 -0.15
v -15 -15 -0.15
v -16 -15 -0.15
v -16 -14 -0.15
v -15 -14 -0.15

# Texture cooridinates (Count = 104)
vt 0.06361829 0.969112
vt 0.09542744 0.969112
vt 0.09542744 1
vt 0.06361829 1
vt 0.1272366 0.969112
vt 0.1272366 1
vt 0.1590457 0.969112
vt 0.1590457 1
vt 0.1908549 0.969112
vt 0.1908549 1
vt 0.06361829 0.938224
vt 0.09542744 0.938224
vt 0.1272366 0.938224
vt 0.06361829 0.5675676
vt 0.09542744 0.5675676
vt 0.09542744 0.5984556
vt 0.06361829 0.5984556
vt 0.06361829 0.9073359
vt 0.09542744 0.9073359
vt 0.1272366 0.9073359
vt 0.06361829 0.8764479
vt 0.09542744 0.8764479
vt 0.06361829 0.8455598
vt 0.09542744 0.8455598
vt 0.1590457 0.8146718
vt 0.1908549 0.8146718
vt 0.1908549 0.8455598
vt 0.1590457 0.8455598
vt 0.06361829 0.7837838
vt 0.09542744 0.7837838
vt 0.09542744 0.8146718
vt 0.06361829 0.8146718
vt 0.1272366 0.7837838
vt 0.1272366 0.8146718
vt 0.1590457 0.7837838
vt 0.1908549 0.7837838
vt 0.06361829 0.7528958
vt 0.09542744 0.7528958
vt 0.1272366 0.7528958
vt 0.1590457 0.7528958
vt 0.1908549 0.7528958
vt 0.06361829 0.7220078
vt 0.09542744 0.7220078
vt 0.1272366 0.7220078
vt 0.6361829 0.7220078
vt 0.6679921 0.7220078
vt 0.6679921 0.7528958
vt 0.6361829 0.7528958
vt 0.6998012 0.7220078
vt 0.6998012 0.7528958
vt 0.7316104 0.7220078
vt 0.7316104 0.7528958
vt 0.7634195 0.7220078
vt 0.7634195 0.7528958
vt 0.7952286 0.7220078
vt 0.7952286 0.7528958
vt 0.8270378 0.7220078
vt 0.8270378 0.7528958
vt 0.06361829 0.6911197
vt 0.09542744 0.6911197
vt 0.1272366 0.6911197
vt 0.6361829 0.6911197
vt 0.6679921 0.6911197
vt 0.6998012 0.6911197
vt 0.7316104 0.6911197
vt 0.7634195 0.6911197
vt 0.7952286 0.6911197
vt 0.8270378 0.6911197
vt 0.06361829 0.6602316
vt 0.09542744 0.6602316
vt 0.1272366 0.6602316
vt 0.6361829 0.6602316
vt 0.6679921 0.6602316
vt 0.6998012 0.6602316
vt 0.7316104 0.6602316
vt 0.7634195 0.6602316
vt 0.7952286 0.6602316
vt 0.8270378 0.6602316
vt 0.06361829 0.6293436
vt 0.09542744 0.6293436
vt 0.1272366 0.6293436
vt 0.6361829 0.6293436
vt 0.6679921 0.6293436
vt 0.6998012 0.6293436
vt 0.7316104 0.6293436
vt 0.7634195 0.6293436
vt 0.7952286 0.6293436
vt 0.8270378 0.6293436
vt 0.1272366 0.5984556
vt 0.6361829 0.5984556
vt 0.6679921 0.5984556
vt 0.6998012 0.5984556
vt 0.7316104 0.5984556
vt 0.7634195 0.5984556
vt 0.7952286 0.5984556
vt 0.8270378 0.5984556
vt 0.1272366 0.5675676
vt 0.6361829 0.5675676
vt 0.6679921 0.5675676
vt 0.6998012 0.5675676
vt 0.7316104 0.5675676
vt 0.7634195 0.5675676
vt 0.7952286 0.5675676
vt 0.8270378 0.5675676

# Normal
vn 0 0 -1

# Mesh description
g Area_mesh_0257

# Faces
f 1/1/1 2/2/1 3/3/1 4/4/1
f 5/2/1 6/5/1 7/6/1 8/3/1
f 9/5/1 10/7/1 11/8/1 12/6/1
f 13/7/1 14/9/1 15/10/1 16/8/1
f 17/11/1 18/12/1 19/2/1 20/1/1
f 21/12/1 22/13/1 23/5/1 24/2/1
f 25/14/1 26/15/1 27/16/1 28/17/1
f 29/18/1 30/19/1 31/12/1 32/11/1
f 33/19/1 34/20/1 35/13/1 36/12/1
f 37/21/1 38/22/1 39/19/1 40/18/1
f 41/23/1 42/24/1 43/22/1 44/21/1
f 45/25/1 46/26/1 47/27/1 48/28/1
f 49/29/1 50/30/1 51/31/1 52/32/1
f 53/30/1 54/33/1 55/34/1 56/31/1
f 57/33/1 58/35/1 59/25/1 60/34/1
f 61/35/1 62/36/1 63/26/1 64/25/1
f 65/37/1 66/38/1 67/30/1 68/29/1
f 69/38/1 70/39/1 71/33/1 72/30/1
f 73/39/1 74/40/1 75/35/1 76/33/1
f 77/40/1 78/41/1 79/36/1 80/35/1
f 81/42/1 82/43/1 83/38/1 84/37/1
f 85/43/1 86/44/1 87/39/1 88/38/1
f 89/45/1 90/46/1 91/47/1 92/48/1
f 93/46/1 94/49/1 95/50/1 96/47/1
f 97/49/1 98/51/1 99/52/1 100/50/1
f 101/51/1 102/53/1 103/54/1 104/52/1
f 105/53/1 106/55/1 107/56/1 108/54/1
f 109/55/1 110/57/1 111/58/1 112/56/1
f 113/59/1 114/60/1 115/43/1 116/42/1
f 117/60/1 118/61/1 119/44/1 120/43/1
f 121/62/1 122/63/1 123/46/1 124/45/1
f 125/63/1 126/64/1 127/49/1 128/46/1
f 129/64/1 130/65/1 131/51/1 132/49/1
f 133/65/1 134/66/1 135/53/1 136/51/1
f 137/66/1 138/67/1 139/55/1 140/53/1
f 141/67/1 142/68/1 143/57/1 144/55/1
f 145/69/1 146/70/1 147/60/1 148/59/1
f 149/70/1 150/71/1 151/61/1 152/60/1
f 153/72/1 154/73/1 155/63/1 156/62/1
f 157/73/1 158/74/1 159/64/1 160/63/1
f 161/74/1 162/75/1 163/65/1 164/64/1
f 165/75/1 166/76/1 167/66/1 168/65/1
f 169/76/1 170/77/1 171/67/1 172/66/1
f 173/77/1 174/78/1 175/68/1 176/67/1
f 177/79/1 178/80/1 179/70/1 180/69/1
f 181/80/1 182/81/1 183/71/1 184/70/1
f 185/82/1 186/83/1 187/73/1 188/72/1
f 189/83/1 190/84/1 191/74/1 192/73/1
f 193/84/1 194/85/1 195/75/1 196/74/1
f 197/85/1 198/86/1 199/76/1 200/75/1
f 201/86/1 202/87/1 203/77/1 204/76/1
f 205/87/1 206/88/1 207/78/1 208/77/1
f 209/17/1 210/16/1 211/80/1 212/79/1
f 213/16/1 214/89/1 215/81/1 216/80/1
f 217/90/1 218/91/1 219/83/1 220/82/1
f 221/91/1 222/92/1 223/84/1 224/83/1
f 225/92/1 226/93/1 227/85/1 228/84/1
f 229/93/1 230/94/1 231/86/1 232/85/1
f 233/94/1 234/95/1 235/87/1 236/86/1
f 237/95/1 238/96/1 239/88/1 240/87/1
f 241/14/1 242/15/1 243/16/1 244/17/1
f 245/15/1 246/97/1 247/89/1 248/16/1
f 249/98/1 250/99/1 251/91/1 252/90/1
f 253/99/1 254/100/1 255/92/1 256/91/1
f 257/100/1 258/101/1 259/93/1 260/92/1
f 261/101/1 262/102/1 263/94/1 264/93/1
f 265/102/1 266/103/1 267/95/1 268/94/1
f 269/103/1 270/104/1 271/96/1 272/95/1

