# Tiled2Unity generated file. Do not modify by hand.
# Wavefront file for 'Area_mesh_0225.obj'

# Vertices (Count = 960)
v -1 -1 -0.01
v -2 -1 -0.01
v -2 0 -0.01
v -1 0 -0.01
v -2 -1 -0.01
v -3 -1 -0.01
v -3 0 -0.01
v -2 0 -0.01
v -3 -1 -0.01
v -4 -1 -0.01
v -4 0 -0.01
v -3 0 -0.01
v -4 -1 -0.01
v -5 -1 -0.01
v -5 0 -0.01
v -4 0 -0.01
v -5 -1 -0.01
v -6 -1 -0.01
v -6 0 -0.01
v -5 0 -0.01
v -6 -1 -0.01
v -7 -1 -0.01
v -7 0 -0.01
v -6 0 -0.01
v -7 -1 -0.01
v -8 -1 -0.01
v -8 0 -0.01
v -7 0 -0.01
v -8 -1 -0.01
v -9 -1 -0.01
v -9 0 -0.01
v -8 0 -0.01
v -9 -1 -0.01
v -10 -1 -0.01
v -10 0 -0.01
v -9 0 -0.01
v -10 -1 -0.01
v -11 -1 -0.01
v -11 0 -0.01
v -10 0 -0.01
v -11 -1 -0.01
v -12 -1 -0.01
v -12 0 -0.01
v -11 0 -0.01
v -12 -1 -0.01
v -13 -1 -0.01
v -13 0 -0.01
v -12 0 -0.01
v -13 -1 -0.01
v -14 -1 -0.01
v -14 0 -0.01
v -13 0 -0.01
v -14 -1 -0.01
v -15 -1 -0.01
v -15 0 -0.01
v -14 0 -0.01
v -15 -1 -0.01
v -16 -1 -0.01
v -16 0 -0.01
v -15 0 -0.01
v -1 -2 -0.02
v -2 -2 -0.02
v -2 -1 -0.02
v -1 -1 -0.02
v -2 -2 -0.02
v -3 -2 -0.02
v -3 -1 -0.02
v -2 -1 -0.02
v -3 -2 -0.02
v -4 -2 -0.02
v -4 -1 -0.02
v -3 -1 -0.02
v -4 -2 -0.02
v -5 -2 -0.02
v -5 -1 -0.02
v -4 -1 -0.02
v -5 -2 -0.02
v -6 -2 -0.02
v -6 -1 -0.02
v -5 -1 -0.02
v -6 -2 -0.02
v -7 -2 -0.02
v -7 -1 -0.02
v -6 -1 -0.02
v -7 -2 -0.02
v -8 -2 -0.02
v -8 -1 -0.02
v -7 -1 -0.02
v -8 -2 -0.02
v -9 -2 -0.02
v -9 -1 -0.02
v -8 -1 -0.02
v -9 -2 -0.02
v -10 -2 -0.02
v -10 -1 -0.02
v -9 -1 -0.02
v -10 -2 -0.02
v -11 -2 -0.02
v -11 -1 -0.02
v -10 -1 -0.02
v -11 -2 -0.02
v -12 -2 -0.02
v -12 -1 -0.02
v -11 -1 -0.02
v -12 -2 -0.02
v -13 -2 -0.02
v -13 -1 -0.02
v -12 -1 -0.02
v -13 -2 -0.02
v -14 -2 -0.02
v -14 -1 -0.02
v -13 -1 -0.02
v -14 -2 -0.02
v -15 -2 -0.02
v -15 -1 -0.02
v -14 -1 -0.02
v -15 -2 -0.02
v -16 -2 -0.02
v -16 -1 -0.02
v -15 -1 -0.02
v -1 -3 -0.03
v -2 -3 -0.03
v -2 -2 -0.03
v -1 -2 -0.03
v -2 -3 -0.03
v -3 -3 -0.03
v -3 -2 -0.03
v -2 -2 -0.03
v -3 -3 -0.03
v -4 -3 -0.03
v -4 -2 -0.03
v -3 -2 -0.03
v -4 -3 -0.03
v -5 -3 -0.03
v -5 -2 -0.03
v -4 -2 -0.03
v -5 -3 -0.03
v -6 -3 -0.03
v -6 -2 -0.03
v -5 -2 -0.03
v -6 -3 -0.03
v -7 -3 -0.03
v -7 -2 -0.03
v -6 -2 -0.03
v -7 -3 -0.03
v -8 -3 -0.03
v -8 -2 -0.03
v -7 -2 -0.03
v -8 -3 -0.03
v -9 -3 -0.03
v -9 -2 -0.03
v -8 -2 -0.03
v -9 -3 -0.03
v -10 -3 -0.03
v -10 -2 -0.03
v -9 -2 -0.03
v -10 -3 -0.03
v -11 -3 -0.03
v -11 -2 -0.03
v -10 -2 -0.03
v -11 -3 -0.03
v -12 -3 -0.03
v -12 -2 -0.03
v -11 -2 -0.03
v -12 -3 -0.03
v -13 -3 -0.03
v -13 -2 -0.03
v -12 -2 -0.03
v -13 -3 -0.03
v -14 -3 -0.03
v -14 -2 -0.03
v -13 -2 -0.03
v -14 -3 -0.03
v -15 -3 -0.03
v -15 -2 -0.03
v -14 -2 -0.03
v -15 -3 -0.03
v -16 -3 -0.03
v -16 -2 -0.03
v -15 -2 -0.03
v -1 -4 -0.04
v -2 -4 -0.04
v -2 -3 -0.04
v -1 -3 -0.04
v -2 -4 -0.04
v -3 -4 -0.04
v -3 -3 -0.04
v -2 -3 -0.04
v -3 -4 -0.04
v -4 -4 -0.04
v -4 -3 -0.04
v -3 -3 -0.04
v -4 -4 -0.04
v -5 -4 -0.04
v -5 -3 -0.04
v -4 -3 -0.04
v -5 -4 -0.04
v -6 -4 -0.04
v -6 -3 -0.04
v -5 -3 -0.04
v -6 -4 -0.04
v -7 -4 -0.04
v -7 -3 -0.04
v -6 -3 -0.04
v -7 -4 -0.04
v -8 -4 -0.04
v -8 -3 -0.04
v -7 -3 -0.04
v -8 -4 -0.04
v -9 -4 -0.04
v -9 -3 -0.04
v -8 -3 -0.04
v -9 -4 -0.04
v -10 -4 -0.04
v -10 -3 -0.04
v -9 -3 -0.04
v -10 -4 -0.04
v -11 -4 -0.04
v -11 -3 -0.04
v -10 -3 -0.04
v -11 -4 -0.04
v -12 -4 -0.04
v -12 -3 -0.04
v -11 -3 -0.04
v -12 -4 -0.04
v -13 -4 -0.04
v -13 -3 -0.04
v -12 -3 -0.04
v -13 -4 -0.04
v -14 -4 -0.04
v -14 -3 -0.04
v -13 -3 -0.04
v -14 -4 -0.04
v -15 -4 -0.04
v -15 -3 -0.04
v -14 -3 -0.04
v -15 -4 -0.04
v -16 -4 -0.04
v -16 -3 -0.04
v -15 -3 -0.04
v -1 -5 -0.05
v -2 -5 -0.05
v -2 -4 -0.05
v -1 -4 -0.05
v -2 -5 -0.05
v -3 -5 -0.05
v -3 -4 -0.05
v -2 -4 -0.05
v -3 -5 -0.05
v -4 -5 -0.05
v -4 -4 -0.05
v -3 -4 -0.05
v -4 -5 -0.05
v -5 -5 -0.05
v -5 -4 -0.05
v -4 -4 -0.05
v -5 -5 -0.05
v -6 -5 -0.05
v -6 -4 -0.05
v -5 -4 -0.05
v -6 -5 -0.05
v -7 -5 -0.05
v -7 -4 -0.05
v -6 -4 -0.05
v -7 -5 -0.05
v -8 -5 -0.05
v -8 -4 -0.05
v -7 -4 -0.05
v -8 -5 -0.05
v -9 -5 -0.05
v -9 -4 -0.05
v -8 -4 -0.05
v -9 -5 -0.05
v -10 -5 -0.05
v -10 -4 -0.05
v -9 -4 -0.05
v -10 -5 -0.05
v -11 -5 -0.05
v -11 -4 -0.05
v -10 -4 -0.05
v -11 -5 -0.05
v -12 -5 -0.05
v -12 -4 -0.05
v -11 -4 -0.05
v -12 -5 -0.05
v -13 -5 -0.05
v -13 -4 -0.05
v -12 -4 -0.05
v -13 -5 -0.05
v -14 -5 -0.05
v -14 -4 -0.05
v -13 -4 -0.05
v -14 -5 -0.05
v -15 -5 -0.05
v -15 -4 -0.05
v -14 -4 -0.05
v -15 -5 -0.05
v -16 -5 -0.05
v -16 -4 -0.05
v -15 -4 -0.05
v -1 -6 -0.06
v -2 -6 -0.06
v -2 -5 -0.06
v -1 -5 -0.06
v -2 -6 -0.06
v -3 -6 -0.06
v -3 -5 -0.06
v -2 -5 -0.06
v -3 -6 -0.06
v -4 -6 -0.06
v -4 -5 -0.06
v -3 -5 -0.06
v -4 -6 -0.06
v -5 -6 -0.06
v -5 -5 -0.06
v -4 -5 -0.06
v -5 -6 -0.06
v -6 -6 -0.06
v -6 -5 -0.06
v -5 -5 -0.06
v -6 -6 -0.06
v -7 -6 -0.06
v -7 -5 -0.06
v -6 -5 -0.06
v -7 -6 -0.06
v -8 -6 -0.06
v -8 -5 -0.06
v -7 -5 -0.06
v -8 -6 -0.06
v -9 -6 -0.06
v -9 -5 -0.06
v -8 -5 -0.06
v -9 -6 -0.06
v -10 -6 -0.06
v -10 -5 -0.06
v -9 -5 -0.06
v -10 -6 -0.06
v -11 -6 -0.06
v -11 -5 -0.06
v -10 -5 -0.06
v -11 -6 -0.06
v -12 -6 -0.06
v -12 -5 -0.06
v -11 -5 -0.06
v -12 -6 -0.06
v -13 -6 -0.06
v -13 -5 -0.06
v -12 -5 -0.06
v -13 -6 -0.06
v -14 -6 -0.06
v -14 -5 -0.06
v -13 -5 -0.06
v -14 -6 -0.06
v -15 -6 -0.06
v -15 -5 -0.06
v -14 -5 -0.06
v -15 -6 -0.06
v -16 -6 -0.06
v -16 -5 -0.06
v -15 -5 -0.06
v -1 -7 -0.07
v -2 -7 -0.07
v -2 -6 -0.07
v -1 -6 -0.07
v -2 -7 -0.07
v -3 -7 -0.07
v -3 -6 -0.07
v -2 -6 -0.07
v -3 -7 -0.07
v -4 -7 -0.07
v -4 -6 -0.07
v -3 -6 -0.07
v -4 -7 -0.07
v -5 -7 -0.07
v -5 -6 -0.07
v -4 -6 -0.07
v -5 -7 -0.07
v -6 -7 -0.07
v -6 -6 -0.07
v -5 -6 -0.07
v -6 -7 -0.07
v -7 -7 -0.07
v -7 -6 -0.07
v -6 -6 -0.07
v -7 -7 -0.07
v -8 -7 -0.07
v -8 -6 -0.07
v -7 -6 -0.07
v -8 -7 -0.07
v -9 -7 -0.07
v -9 -6 -0.07
v -8 -6 -0.07
v -9 -7 -0.07
v -10 -7 -0.07
v -10 -6 -0.07
v -9 -6 -0.07
v -10 -7 -0.07
v -11 -7 -0.07
v -11 -6 -0.07
v -10 -6 -0.07
v -11 -7 -0.07
v -12 -7 -0.07
v -12 -6 -0.07
v -11 -6 -0.07
v -12 -7 -0.07
v -13 -7 -0.07
v -13 -6 -0.07
v -12 -6 -0.07
v -13 -7 -0.07
v -14 -7 -0.07
v -14 -6 -0.07
v -13 -6 -0.07
v -14 -7 -0.07
v -15 -7 -0.07
v -15 -6 -0.07
v -14 -6 -0.07
v -15 -7 -0.07
v -16 -7 -0.07
v -16 -6 -0.07
v -15 -6 -0.07
v -1 -8 -0.08
v -2 -8 -0.08
v -2 -7 -0.08
v -1 -7 -0.08
v -2 -8 -0.08
v -3 -8 -0.08
v -3 -7 -0.08
v -2 -7 -0.08
v -3 -8 -0.08
v -4 -8 -0.08
v -4 -7 -0.08
v -3 -7 -0.08
v -4 -8 -0.08
v -5 -8 -0.08
v -5 -7 -0.08
v -4 -7 -0.08
v -5 -8 -0.08
v -6 -8 -0.08
v -6 -7 -0.08
v -5 -7 -0.08
v -6 -8 -0.08
v -7 -8 -0.08
v -7 -7 -0.08
v -6 -7 -0.08
v -7 -8 -0.08
v -8 -8 -0.08
v -8 -7 -0.08
v -7 -7 -0.08
v -8 -8 -0.08
v -9 -8 -0.08
v -9 -7 -0.08
v -8 -7 -0.08
v -9 -8 -0.08
v -10 -8 -0.08
v -10 -7 -0.08
v -9 -7 -0.08
v -10 -8 -0.08
v -11 -8 -0.08
v -11 -7 -0.08
v -10 -7 -0.08
v -11 -8 -0.08
v -12 -8 -0.08
v -12 -7 -0.08
v -11 -7 -0.08
v -12 -8 -0.08
v -13 -8 -0.08
v -13 -7 -0.08
v -12 -7 -0.08
v -13 -8 -0.08
v -14 -8 -0.08
v -14 -7 -0.08
v -13 -7 -0.08
v -14 -8 -0.08
v -15 -8 -0.08
v -15 -7 -0.08
v -14 -7 -0.08
v -15 -8 -0.08
v -16 -8 -0.08
v -16 -7 -0.08
v -15 -7 -0.08
v -1 -9 -0.09
v -2 -9 -0.09
v -2 -8 -0.09
v -1 -8 -0.09
v -2 -9 -0.09
v -3 -9 -0.09
v -3 -8 -0.09
v -2 -8 -0.09
v -3 -9 -0.09
v -4 -9 -0.09
v -4 -8 -0.09
v -3 -8 -0.09
v -4 -9 -0.09
v -5 -9 -0.09
v -5 -8 -0.09
v -4 -8 -0.09
v -5 -9 -0.09
v -6 -9 -0.09
v -6 -8 -0.09
v -5 -8 -0.09
v -6 -9 -0.09
v -7 -9 -0.09
v -7 -8 -0.09
v -6 -8 -0.09
v -7 -9 -0.09
v -8 -9 -0.09
v -8 -8 -0.09
v -7 -8 -0.09
v -8 -9 -0.09
v -9 -9 -0.09
v -9 -8 -0.09
v -8 -8 -0.09
v -9 -9 -0.09
v -10 -9 -0.09
v -10 -8 -0.09
v -9 -8 -0.09
v -10 -9 -0.09
v -11 -9 -0.09
v -11 -8 -0.09
v -10 -8 -0.09
v -11 -9 -0.09
v -12 -9 -0.09
v -12 -8 -0.09
v -11 -8 -0.09
v -12 -9 -0.09
v -13 -9 -0.09
v -13 -8 -0.09
v -12 -8 -0.09
v -13 -9 -0.09
v -14 -9 -0.09
v -14 -8 -0.09
v -13 -8 -0.09
v -14 -9 -0.09
v -15 -9 -0.09
v -15 -8 -0.09
v -14 -8 -0.09
v -15 -9 -0.09
v -16 -9 -0.09
v -16 -8 -0.09
v -15 -8 -0.09
v -1 -10 -0.1
v -2 -10 -0.1
v -2 -9 -0.1
v -1 -9 -0.1
v -2 -10 -0.1
v -3 -10 -0.1
v -3 -9 -0.1
v -2 -9 -0.1
v -3 -10 -0.1
v -4 -10 -0.1
v -4 -9 -0.1
v -3 -9 -0.1
v -4 -10 -0.1
v -5 -10 -0.1
v -5 -9 -0.1
v -4 -9 -0.1
v -5 -10 -0.1
v -6 -10 -0.1
v -6 -9 -0.1
v -5 -9 -0.1
v -6 -10 -0.1
v -7 -10 -0.1
v -7 -9 -0.1
v -6 -9 -0.1
v -7 -10 -0.1
v -8 -10 -0.1
v -8 -9 -0.1
v -7 -9 -0.1
v -8 -10 -0.1
v -9 -10 -0.1
v -9 -9 -0.1
v -8 -9 -0.1
v -9 -10 -0.1
v -10 -10 -0.1
v -10 -9 -0.1
v -9 -9 -0.1
v -10 -10 -0.1
v -11 -10 -0.1
v -11 -9 -0.1
v -10 -9 -0.1
v -11 -10 -0.1
v -12 -10 -0.1
v -12 -9 -0.1
v -11 -9 -0.1
v -12 -10 -0.1
v -13 -10 -0.1
v -13 -9 -0.1
v -12 -9 -0.1
v -13 -10 -0.1
v -14 -10 -0.1
v -14 -9 -0.1
v -13 -9 -0.1
v -14 -10 -0.1
v -15 -10 -0.1
v -15 -9 -0.1
v -14 -9 -0.1
v -15 -10 -0.1
v -16 -10 -0.1
v -16 -9 -0.1
v -15 -9 -0.1
v -1 -11 -0.11
v -2 -11 -0.11
v -2 -10 -0.11
v -1 -10 -0.11
v -2 -11 -0.11
v -3 -11 -0.11
v -3 -10 -0.11
v -2 -10 -0.11
v -3 -11 -0.11
v -4 -11 -0.11
v -4 -10 -0.11
v -3 -10 -0.11
v -4 -11 -0.11
v -5 -11 -0.11
v -5 -10 -0.11
v -4 -10 -0.11
v -5 -11 -0.11
v -6 -11 -0.11
v -6 -10 -0.11
v -5 -10 -0.11
v -6 -11 -0.11
v -7 -11 -0.11
v -7 -10 -0.11
v -6 -10 -0.11
v -7 -11 -0.11
v -8 -11 -0.11
v -8 -10 -0.11
v -7 -10 -0.11
v -8 -11 -0.11
v -9 -11 -0.11
v -9 -10 -0.11
v -8 -10 -0.11
v -9 -11 -0.11
v -10 -11 -0.11
v -10 -10 -0.11
v -9 -10 -0.11
v -10 -11 -0.11
v -11 -11 -0.11
v -11 -10 -0.11
v -10 -10 -0.11
v -11 -11 -0.11
v -12 -11 -0.11
v -12 -10 -0.11
v -11 -10 -0.11
v -12 -11 -0.11
v -13 -11 -0.11
v -13 -10 -0.11
v -12 -10 -0.11
v -13 -11 -0.11
v -14 -11 -0.11
v -14 -10 -0.11
v -13 -10 -0.11
v -14 -11 -0.11
v -15 -11 -0.11
v -15 -10 -0.11
v -14 -10 -0.11
v -15 -11 -0.11
v -16 -11 -0.11
v -16 -10 -0.11
v -15 -10 -0.11
v -1 -12 -0.12
v -2 -12 -0.12
v -2 -11 -0.12
v -1 -11 -0.12
v -2 -12 -0.12
v -3 -12 -0.12
v -3 -11 -0.12
v -2 -11 -0.12
v -3 -12 -0.12
v -4 -12 -0.12
v -4 -11 -0.12
v -3 -11 -0.12
v -4 -12 -0.12
v -5 -12 -0.12
v -5 -11 -0.12
v -4 -11 -0.12
v -5 -12 -0.12
v -6 -12 -0.12
v -6 -11 -0.12
v -5 -11 -0.12
v -6 -12 -0.12
v -7 -12 -0.12
v -7 -11 -0.12
v -6 -11 -0.12
v -7 -12 -0.12
v -8 -12 -0.12
v -8 -11 -0.12
v -7 -11 -0.12
v -8 -12 -0.12
v -9 -12 -0.12
v -9 -11 -0.12
v -8 -11 -0.12
v -9 -12 -0.12
v -10 -12 -0.12
v -10 -11 -0.12
v -9 -11 -0.12
v -10 -12 -0.12
v -11 -12 -0.12
v -11 -11 -0.12
v -10 -11 -0.12
v -11 -12 -0.12
v -12 -12 -0.12
v -12 -11 -0.12
v -11 -11 -0.12
v -12 -12 -0.12
v -13 -12 -0.12
v -13 -11 -0.12
v -12 -11 -0.12
v -13 -12 -0.12
v -14 -12 -0.12
v -14 -11 -0.12
v -13 -11 -0.12
v -14 -12 -0.12
v -15 -12 -0.12
v -15 -11 -0.12
v -14 -11 -0.12
v -15 -12 -0.12
v -16 -12 -0.12
v -16 -11 -0.12
v -15 -11 -0.12
v -1 -13 -0.13
v -2 -13 -0.13
v -2 -12 -0.13
v -1 -12 -0.13
v -2 -13 -0.13
v -3 -13 -0.13
v -3 -12 -0.13
v -2 -12 -0.13
v -3 -13 -0.13
v -4 -13 -0.13
v -4 -12 -0.13
v -3 -12 -0.13
v -4 -13 -0.13
v -5 -13 -0.13
v -5 -12 -0.13
v -4 -12 -0.13
v -5 -13 -0.13
v -6 -13 -0.13
v -6 -12 -0.13
v -5 -12 -0.13
v -6 -13 -0.13
v -7 -13 -0.13
v -7 -12 -0.13
v -6 -12 -0.13
v -7 -13 -0.13
v -8 -13 -0.13
v -8 -12 -0.13
v -7 -12 -0.13
v -8 -13 -0.13
v -9 -13 -0.13
v -9 -12 -0.13
v -8 -12 -0.13
v -9 -13 -0.13
v -10 -13 -0.13
v -10 -12 -0.13
v -9 -12 -0.13
v -10 -13 -0.13
v -11 -13 -0.13
v -11 -12 -0.13
v -10 -12 -0.13
v -11 -13 -0.13
v -12 -13 -0.13
v -12 -12 -0.13
v -11 -12 -0.13
v -12 -13 -0.13
v -13 -13 -0.13
v -13 -12 -0.13
v -12 -12 -0.13
v -13 -13 -0.13
v -14 -13 -0.13
v -14 -12 -0.13
v -13 -12 -0.13
v -14 -13 -0.13
v -15 -13 -0.13
v -15 -12 -0.13
v -14 -12 -0.13
v -15 -13 -0.13
v -16 -13 -0.13
v -16 -12 -0.13
v -15 -12 -0.13
v -1 -14 -0.14
v -2 -14 -0.14
v -2 -13 -0.14
v -1 -13 -0.14
v -2 -14 -0.14
v -3 -14 -0.14
v -3 -13 -0.14
v -2 -13 -0.14
v -3 -14 -0.14
v -4 -14 -0.14
v -4 -13 -0.14
v -3 -13 -0.14
v -4 -14 -0.14
v -5 -14 -0.14
v -5 -13 -0.14
v -4 -13 -0.14
v -5 -14 -0.14
v -6 -14 -0.14
v -6 -13 -0.14
v -5 -13 -0.14
v -6 -14 -0.14
v -7 -14 -0.14
v -7 -13 -0.14
v -6 -13 -0.14
v -7 -14 -0.14
v -8 -14 -0.14
v -8 -13 -0.14
v -7 -13 -0.14
v -8 -14 -0.14
v -9 -14 -0.14
v -9 -13 -0.14
v -8 -13 -0.14
v -9 -14 -0.14
v -10 -14 -0.14
v -10 -13 -0.14
v -9 -13 -0.14
v -10 -14 -0.14
v -11 -14 -0.14
v -11 -13 -0.14
v -10 -13 -0.14
v -11 -14 -0.14
v -12 -14 -0.14
v -12 -13 -0.14
v -11 -13 -0.14
v -12 -14 -0.14
v -13 -14 -0.14
v -13 -13 -0.14
v -12 -13 -0.14
v -13 -14 -0.14
v -14 -14 -0.14
v -14 -13 -0.14
v -13 -13 -0.14
v -14 -14 -0.14
v -15 -14 -0.14
v -15 -13 -0.14
v -14 -13 -0.14
v -15 -14 -0.14
v -16 -14 -0.14
v -16 -13 -0.14
v -15 -13 -0.14
v -1 -15 -0.15
v -2 -15 -0.15
v -2 -14 -0.15
v -1 -14 -0.15
v -2 -15 -0.15
v -3 -15 -0.15
v -3 -14 -0.15
v -2 -14 -0.15
v -3 -15 -0.15
v -4 -15 -0.15
v -4 -14 -0.15
v -3 -14 -0.15
v -4 -15 -0.15
v -5 -15 -0.15
v -5 -14 -0.15
v -4 -14 -0.15
v -5 -15 -0.15
v -6 -15 -0.15
v -6 -14 -0.15
v -5 -14 -0.15
v -6 -15 -0.15
v -7 -15 -0.15
v -7 -14 -0.15
v -6 -14 -0.15
v -7 -15 -0.15
v -8 -15 -0.15
v -8 -14 -0.15
v -7 -14 -0.15
v -8 -15 -0.15
v -9 -15 -0.15
v -9 -14 -0.15
v -8 -14 -0.15
v -9 -15 -0.15
v -10 -15 -0.15
v -10 -14 -0.15
v -9 -14 -0.15
v -10 -15 -0.15
v -11 -15 -0.15
v -11 -14 -0.15
v -10 -14 -0.15
v -11 -15 -0.15
v -12 -15 -0.15
v -12 -14 -0.15
v -11 -14 -0.15
v -12 -15 -0.15
v -13 -15 -0.15
v -13 -14 -0.15
v -12 -14 -0.15
v -13 -15 -0.15
v -14 -15 -0.15
v -14 -14 -0.15
v -13 -14 -0.15
v -14 -15 -0.15
v -15 -15 -0.15
v -15 -14 -0.15
v -14 -14 -0.15
v -15 -15 -0.15
v -16 -15 -0.15
v -16 -14 -0.15
v -15 -14 -0.15
v -1 -16 -0.16
v -2 -16 -0.16
v -2 -15 -0.16
v -1 -15 -0.16
v -2 -16 -0.16
v -3 -16 -0.16
v -3 -15 -0.16
v -2 -15 -0.16
v -3 -16 -0.16
v -4 -16 -0.16
v -4 -15 -0.16
v -3 -15 -0.16
v -4 -16 -0.16
v -5 -16 -0.16
v -5 -15 -0.16
v -4 -15 -0.16
v -5 -16 -0.16
v -6 -16 -0.16
v -6 -15 -0.16
v -5 -15 -0.16
v -6 -16 -0.16
v -7 -16 -0.16
v -7 -15 -0.16
v -6 -15 -0.16
v -7 -16 -0.16
v -8 -16 -0.16
v -8 -15 -0.16
v -7 -15 -0.16
v -8 -16 -0.16
v -9 -16 -0.16
v -9 -15 -0.16
v -8 -15 -0.16
v -9 -16 -0.16
v -10 -16 -0.16
v -10 -15 -0.16
v -9 -15 -0.16
v -10 -16 -0.16
v -11 -16 -0.16
v -11 -15 -0.16
v -10 -15 -0.16
v -11 -16 -0.16
v -12 -16 -0.16
v -12 -15 -0.16
v -11 -15 -0.16
v -12 -16 -0.16
v -13 -16 -0.16
v -13 -15 -0.16
v -12 -15 -0.16
v -13 -16 -0.16
v -14 -16 -0.16
v -14 -15 -0.16
v -13 -15 -0.16
v -14 -16 -0.16
v -15 -16 -0.16
v -15 -15 -0.16
v -14 -15 -0.16
v -15 -16 -0.16
v -16 -16 -0.16
v -16 -15 -0.16
v -15 -15 -0.16

# Texture cooridinates (Count = 25)
vt 0.04761905 0.8174037
vt 0.07142857 0.8174037
vt 0.07142857 0.8402283
vt 0.04761905 0.8402283
vt 0.0952381 0.8174037
vt 0.0952381 0.8402283
vt 0.1190476 0.8174037
vt 0.1190476 0.8402283
vt 0.1428571 0.8174037
vt 0.1428571 0.8402283
vt 0.04761905 0.8858773
vt 0.07142857 0.8858773
vt 0.07142857 0.9087018
vt 0.04761905 0.9087018
vt 0.0952381 0.8858773
vt 0.0952381 0.9087018
vt 0.1190476 0.8858773
vt 0.1190476 0.9087018
vt 0.1428571 0.8858773
vt 0.1428571 0.9087018
vt 0.04761905 0.8630528
vt 0.07142857 0.8630528
vt 0.0952381 0.8630528
vt 0.1190476 0.8630528
vt 0.1428571 0.8630528

# Normal
vn 0 0 -1

# Mesh description
g Area_mesh_0225

# Faces
f 1/1/1 2/2/1 3/3/1 4/4/1
f 5/2/1 6/5/1 7/6/1 8/3/1
f 9/1/1 10/2/1 11/3/1 12/4/1
f 13/2/1 14/5/1 15/6/1 16/3/1
f 17/5/1 18/7/1 19/8/1 20/6/1
f 21/7/1 22/9/1 23/10/1 24/8/1
f 25/1/1 26/2/1 27/3/1 28/4/1
f 29/2/1 30/5/1 31/6/1 32/3/1
f 33/5/1 34/7/1 35/8/1 36/6/1
f 37/7/1 38/9/1 39/10/1 40/8/1
f 41/1/1 42/2/1 43/3/1 44/4/1
f 45/2/1 46/5/1 47/6/1 48/3/1
f 49/5/1 50/7/1 51/8/1 52/6/1
f 53/7/1 54/9/1 55/10/1 56/8/1
f 57/1/1 58/2/1 59/3/1 60/4/1
f 61/11/1 62/12/1 63/13/1 64/14/1
f 65/12/1 66/15/1 67/16/1 68/13/1
f 69/15/1 70/17/1 71/18/1 72/16/1
f 73/17/1 74/19/1 75/20/1 76/18/1
f 77/11/1 78/12/1 79/13/1 80/14/1
f 81/12/1 82/15/1 83/16/1 84/13/1
f 85/15/1 86/17/1 87/18/1 88/16/1
f 89/17/1 90/19/1 91/20/1 92/18/1
f 93/11/1 94/12/1 95/13/1 96/14/1
f 97/12/1 98/15/1 99/16/1 100/13/1
f 101/15/1 102/17/1 103/18/1 104/16/1
f 105/17/1 106/19/1 107/20/1 108/18/1
f 109/11/1 110/12/1 111/13/1 112/14/1
f 113/12/1 114/15/1 115/16/1 116/13/1
f 117/15/1 118/17/1 119/18/1 120/16/1
f 121/21/1 122/22/1 123/12/1 124/11/1
f 125/22/1 126/23/1 127/15/1 128/12/1
f 129/23/1 130/24/1 131/17/1 132/15/1
f 133/24/1 134/25/1 135/19/1 136/17/1
f 137/21/1 138/22/1 139/12/1 140/11/1
f 141/22/1 142/23/1 143/15/1 144/12/1
f 145/23/1 146/24/1 147/17/1 148/15/1
f 149/24/1 150/25/1 151/19/1 152/17/1
f 153/21/1 154/22/1 155/12/1 156/11/1
f 157/22/1 158/23/1 159/15/1 160/12/1
f 161/23/1 162/24/1 163/17/1 164/15/1
f 165/24/1 166/25/1 167/19/1 168/17/1
f 169/21/1 170/22/1 171/12/1 172/11/1
f 173/22/1 174/23/1 175/15/1 176/12/1
f 177/23/1 178/24/1 179/17/1 180/15/1
f 181/4/1 182/3/1 183/22/1 184/21/1
f 185/3/1 186/6/1 187/23/1 188/22/1
f 189/6/1 190/8/1 191/24/1 192/23/1
f 193/8/1 194/10/1 195/25/1 196/24/1
f 197/4/1 198/3/1 199/22/1 200/21/1
f 201/3/1 202/6/1 203/23/1 204/22/1
f 205/6/1 206/8/1 207/24/1 208/23/1
f 209/8/1 210/10/1 211/25/1 212/24/1
f 213/4/1 214/3/1 215/22/1 216/21/1
f 217/3/1 218/6/1 219/23/1 220/22/1
f 221/6/1 222/8/1 223/24/1 224/23/1
f 225/8/1 226/10/1 227/25/1 228/24/1
f 229/4/1 230/3/1 231/22/1 232/21/1
f 233/3/1 234/6/1 235/23/1 236/22/1
f 237/6/1 238/8/1 239/24/1 240/23/1
f 241/1/1 242/2/1 243/3/1 244/4/1
f 245/2/1 246/5/1 247/6/1 248/3/1
f 249/5/1 250/7/1 251/8/1 252/6/1
f 253/7/1 254/9/1 255/10/1 256/8/1
f 257/1/1 258/2/1 259/3/1 260/4/1
f 261/2/1 262/5/1 263/6/1 264/3/1
f 265/5/1 266/7/1 267/8/1 268/6/1
f 269/7/1 270/9/1 271/10/1 272/8/1
f 273/1/1 274/2/1 275/3/1 276/4/1
f 277/2/1 278/5/1 279/6/1 280/3/1
f 281/5/1 282/7/1 283/8/1 284/6/1
f 285/7/1 286/9/1 287/10/1 288/8/1
f 289/1/1 290/2/1 291/3/1 292/4/1
f 293/2/1 294/5/1 295/6/1 296/3/1
f 297/5/1 298/7/1 299/8/1 300/6/1
f 301/11/1 302/12/1 303/13/1 304/14/1
f 305/12/1 306/15/1 307/16/1 308/13/1
f 309/15/1 310/17/1 311/18/1 312/16/1
f 313/17/1 314/19/1 315/20/1 316/18/1
f 317/11/1 318/12/1 319/13/1 320/14/1
f 321/12/1 322/15/1 323/16/1 324/13/1
f 325/15/1 326/17/1 327/18/1 328/16/1
f 329/17/1 330/19/1 331/20/1 332/18/1
f 333/11/1 334/12/1 335/13/1 336/14/1
f 337/12/1 338/15/1 339/16/1 340/13/1
f 341/15/1 342/17/1 343/18/1 344/16/1
f 345/17/1 346/19/1 347/20/1 348/18/1
f 349/11/1 350/12/1 351/13/1 352/14/1
f 353/12/1 354/15/1 355/16/1 356/13/1
f 357/15/1 358/17/1 359/18/1 360/16/1
f 361/21/1 362/22/1 363/12/1 364/11/1
f 365/22/1 366/23/1 367/15/1 368/12/1
f 369/23/1 370/24/1 371/17/1 372/15/1
f 373/24/1 374/25/1 375/19/1 376/17/1
f 377/21/1 378/22/1 379/12/1 380/11/1
f 381/22/1 382/23/1 383/15/1 384/12/1
f 385/23/1 386/24/1 387/17/1 388/15/1
f 389/24/1 390/25/1 391/19/1 392/17/1
f 393/21/1 394/22/1 395/12/1 396/11/1
f 397/22/1 398/23/1 399/15/1 400/12/1
f 401/23/1 402/24/1 403/17/1 404/15/1
f 405/24/1 406/25/1 407/19/1 408/17/1
f 409/21/1 410/22/1 411/12/1 412/11/1
f 413/22/1 414/23/1 415/15/1 416/12/1
f 417/23/1 418/24/1 419/17/1 420/15/1
f 421/4/1 422/3/1 423/22/1 424/21/1
f 425/3/1 426/6/1 427/23/1 428/22/1
f 429/6/1 430/8/1 431/24/1 432/23/1
f 433/8/1 434/10/1 435/25/1 436/24/1
f 437/4/1 438/3/1 439/22/1 440/21/1
f 441/3/1 442/6/1 443/23/1 444/22/1
f 445/6/1 446/8/1 447/24/1 448/23/1
f 449/8/1 450/10/1 451/25/1 452/24/1
f 453/4/1 454/3/1 455/22/1 456/21/1
f 457/3/1 458/6/1 459/23/1 460/22/1
f 461/6/1 462/8/1 463/24/1 464/23/1
f 465/8/1 466/10/1 467/25/1 468/24/1
f 469/4/1 470/3/1 471/22/1 472/21/1
f 473/3/1 474/6/1 475/23/1 476/22/1
f 477/6/1 478/8/1 479/24/1 480/23/1
f 481/1/1 482/2/1 483/3/1 484/4/1
f 485/2/1 486/5/1 487/6/1 488/3/1
f 489/5/1 490/7/1 491/8/1 492/6/1
f 493/7/1 494/9/1 495/10/1 496/8/1
f 497/1/1 498/2/1 499/3/1 500/4/1
f 501/2/1 502/5/1 503/6/1 504/3/1
f 505/5/1 506/7/1 507/8/1 508/6/1
f 509/7/1 510/9/1 511/10/1 512/8/1
f 513/1/1 514/2/1 515/3/1 516/4/1
f 517/2/1 518/5/1 519/6/1 520/3/1
f 521/5/1 522/7/1 523/8/1 524/6/1
f 525/7/1 526/9/1 527/10/1 528/8/1
f 529/1/1 530/2/1 531/3/1 532/4/1
f 533/2/1 534/5/1 535/6/1 536/3/1
f 537/5/1 538/7/1 539/8/1 540/6/1
f 541/11/1 542/12/1 543/13/1 544/14/1
f 545/12/1 546/15/1 547/16/1 548/13/1
f 549/15/1 550/17/1 551/18/1 552/16/1
f 553/17/1 554/19/1 555/20/1 556/18/1
f 557/11/1 558/12/1 559/13/1 560/14/1
f 561/12/1 562/15/1 563/16/1 564/13/1
f 565/15/1 566/17/1 567/18/1 568/16/1
f 569/17/1 570/19/1 571/20/1 572/18/1
f 573/11/1 574/12/1 575/13/1 576/14/1
f 577/12/1 578/15/1 579/16/1 580/13/1
f 581/15/1 582/17/1 583/18/1 584/16/1
f 585/17/1 586/19/1 587/20/1 588/18/1
f 589/11/1 590/12/1 591/13/1 592/14/1
f 593/12/1 594/15/1 595/16/1 596/13/1
f 597/15/1 598/17/1 599/18/1 600/16/1
f 601/21/1 602/22/1 603/12/1 604/11/1
f 605/22/1 606/23/1 607/15/1 608/12/1
f 609/23/1 610/24/1 611/17/1 612/15/1
f 613/24/1 614/25/1 615/19/1 616/17/1
f 617/21/1 618/22/1 619/12/1 620/11/1
f 621/22/1 622/23/1 623/15/1 624/12/1
f 625/23/1 626/24/1 627/17/1 628/15/1
f 629/24/1 630/25/1 631/19/1 632/17/1
f 633/21/1 634/22/1 635/12/1 636/11/1
f 637/22/1 638/23/1 639/15/1 640/12/1
f 641/23/1 642/24/1 643/17/1 644/15/1
f 645/24/1 646/25/1 647/19/1 648/17/1
f 649/21/1 650/22/1 651/12/1 652/11/1
f 653/22/1 654/23/1 655/15/1 656/12/1
f 657/23/1 658/24/1 659/17/1 660/15/1
f 661/4/1 662/3/1 663/22/1 664/21/1
f 665/3/1 666/6/1 667/23/1 668/22/1
f 669/6/1 670/8/1 671/24/1 672/23/1
f 673/8/1 674/10/1 675/25/1 676/24/1
f 677/4/1 678/3/1 679/22/1 680/21/1
f 681/3/1 682/6/1 683/23/1 684/22/1
f 685/6/1 686/8/1 687/24/1 688/23/1
f 689/8/1 690/10/1 691/25/1 692/24/1
f 693/4/1 694/3/1 695/22/1 696/21/1
f 697/3/1 698/6/1 699/23/1 700/22/1
f 701/6/1 702/8/1 703/24/1 704/23/1
f 705/8/1 706/10/1 707/25/1 708/24/1
f 709/4/1 710/3/1 711/22/1 712/21/1
f 713/3/1 714/6/1 715/23/1 716/22/1
f 717/6/1 718/8/1 719/24/1 720/23/1
f 721/1/1 722/2/1 723/3/1 724/4/1
f 725/2/1 726/5/1 727/6/1 728/3/1
f 729/5/1 730/7/1 731/8/1 732/6/1
f 733/7/1 734/9/1 735/10/1 736/8/1
f 737/1/1 738/2/1 739/3/1 740/4/1
f 741/2/1 742/5/1 743/6/1 744/3/1
f 745/5/1 746/7/1 747/8/1 748/6/1
f 749/7/1 750/9/1 751/10/1 752/8/1
f 753/1/1 754/2/1 755/3/1 756/4/1
f 757/2/1 758/5/1 759/6/1 760/3/1
f 761/5/1 762/7/1 763/8/1 764/6/1
f 765/7/1 766/9/1 767/10/1 768/8/1
f 769/1/1 770/2/1 771/3/1 772/4/1
f 773/2/1 774/5/1 775/6/1 776/3/1
f 777/5/1 778/7/1 779/8/1 780/6/1
f 781/11/1 782/12/1 783/13/1 784/14/1
f 785/12/1 786/15/1 787/16/1 788/13/1
f 789/15/1 790/17/1 791/18/1 792/16/1
f 793/17/1 794/19/1 795/20/1 796/18/1
f 797/11/1 798/12/1 799/13/1 800/14/1
f 801/12/1 802/15/1 803/16/1 804/13/1
f 805/15/1 806/17/1 807/18/1 808/16/1
f 809/17/1 810/19/1 811/20/1 812/18/1
f 813/11/1 814/12/1 815/13/1 816/14/1
f 817/12/1 818/15/1 819/16/1 820/13/1
f 821/15/1 822/17/1 823/18/1 824/16/1
f 825/17/1 826/19/1 827/20/1 828/18/1
f 829/11/1 830/12/1 831/13/1 832/14/1
f 833/12/1 834/15/1 835/16/1 836/13/1
f 837/15/1 838/17/1 839/18/1 840/16/1
f 841/21/1 842/22/1 843/12/1 844/11/1
f 845/22/1 846/23/1 847/15/1 848/12/1
f 849/23/1 850/24/1 851/17/1 852/15/1
f 853/24/1 854/25/1 855/19/1 856/17/1
f 857/21/1 858/22/1 859/12/1 860/11/1
f 861/22/1 862/23/1 863/15/1 864/12/1
f 865/23/1 866/24/1 867/17/1 868/15/1
f 869/24/1 870/25/1 871/19/1 872/17/1
f 873/21/1 874/22/1 875/12/1 876/11/1
f 877/22/1 878/23/1 879/15/1 880/12/1
f 881/23/1 882/24/1 883/17/1 884/15/1
f 885/24/1 886/25/1 887/19/1 888/17/1
f 889/21/1 890/22/1 891/12/1 892/11/1
f 893/22/1 894/23/1 895/15/1 896/12/1
f 897/23/1 898/24/1 899/17/1 900/15/1
f 901/4/1 902/3/1 903/22/1 904/21/1
f 905/3/1 906/6/1 907/23/1 908/22/1
f 909/6/1 910/8/1 911/24/1 912/23/1
f 913/8/1 914/10/1 915/25/1 916/24/1
f 917/4/1 918/3/1 919/22/1 920/21/1
f 921/3/1 922/6/1 923/23/1 924/22/1
f 925/6/1 926/8/1 927/24/1 928/23/1
f 929/8/1 930/10/1 931/25/1 932/24/1
f 933/4/1 934/3/1 935/22/1 936/21/1
f 937/3/1 938/6/1 939/23/1 940/22/1
f 941/6/1 942/8/1 943/24/1 944/23/1
f 945/8/1 946/10/1 947/25/1 948/24/1
f 949/4/1 950/3/1 951/22/1 952/21/1
f 953/3/1 954/6/1 955/23/1 956/22/1
f 957/6/1 958/8/1 959/24/1 960/23/1

