# Tiled2Unity generated file. Do not modify by hand.
# Wavefront file for 'Act-0-Forest_mesh_0196.obj'

# Vertices (Count = 576)
v 0 -1 -0.01
v -1 -1 -0.01
v -1 0 -0.01
v 0 0 -0.01
v -1 -1 -0.01
v -2 -1 -0.01
v -2 0 -0.01
v -1 0 -0.01
v -2 -1 -0.01
v -3 -1 -0.01
v -3 0 -0.01
v -2 0 -0.01
v -3 -1 -0.01
v -4 -1 -0.01
v -4 0 -0.01
v -3 0 -0.01
v -4 -1 -0.01
v -5 -1 -0.01
v -5 0 -0.01
v -4 0 -0.01
v -5 -1 -0.01
v -6 -1 -0.01
v -6 0 -0.01
v -5 0 -0.01
v -6 -1 -0.01
v -7 -1 -0.01
v -7 0 -0.01
v -6 0 -0.01
v -7 -1 -0.01
v -8 -1 -0.01
v -8 0 -0.01
v -7 0 -0.01
v -8 -1 -0.01
v -9 -1 -0.01
v -9 0 -0.01
v -8 0 -0.01
v -9 -1 -0.01
v -10 -1 -0.01
v -10 0 -0.01
v -9 0 -0.01
v -10 -1 -0.01
v -11 -1 -0.01
v -11 0 -0.01
v -10 0 -0.01
v -11 -1 -0.01
v -12 -1 -0.01
v -12 0 -0.01
v -11 0 -0.01
v -12 -1 -0.01
v -13 -1 -0.01
v -13 0 -0.01
v -12 0 -0.01
v -13 -1 -0.01
v -14 -1 -0.01
v -14 0 -0.01
v -13 0 -0.01
v -14 -1 -0.01
v -15 -1 -0.01
v -15 0 -0.01
v -14 0 -0.01
v -15 -1 -0.01
v -16 -1 -0.01
v -16 0 -0.01
v -15 0 -0.01
v 0 -2 -0.02
v -1 -2 -0.02
v -1 -1 -0.02
v 0 -1 -0.02
v -1 -2 -0.02
v -2 -2 -0.02
v -2 -1 -0.02
v -1 -1 -0.02
v -2 -2 -0.02
v -3 -2 -0.02
v -3 -1 -0.02
v -2 -1 -0.02
v -3 -2 -0.02
v -4 -2 -0.02
v -4 -1 -0.02
v -3 -1 -0.02
v -4 -2 -0.02
v -5 -2 -0.02
v -5 -1 -0.02
v -4 -1 -0.02
v -5 -2 -0.02
v -6 -2 -0.02
v -6 -1 -0.02
v -5 -1 -0.02
v -6 -2 -0.02
v -7 -2 -0.02
v -7 -1 -0.02
v -6 -1 -0.02
v -7 -2 -0.02
v -8 -2 -0.02
v -8 -1 -0.02
v -7 -1 -0.02
v -8 -2 -0.02
v -9 -2 -0.02
v -9 -1 -0.02
v -8 -1 -0.02
v -9 -2 -0.02
v -10 -2 -0.02
v -10 -1 -0.02
v -9 -1 -0.02
v -10 -2 -0.02
v -11 -2 -0.02
v -11 -1 -0.02
v -10 -1 -0.02
v -11 -2 -0.02
v -12 -2 -0.02
v -12 -1 -0.02
v -11 -1 -0.02
v -12 -2 -0.02
v -13 -2 -0.02
v -13 -1 -0.02
v -12 -1 -0.02
v -13 -2 -0.02
v -14 -2 -0.02
v -14 -1 -0.02
v -13 -1 -0.02
v -14 -2 -0.02
v -15 -2 -0.02
v -15 -1 -0.02
v -14 -1 -0.02
v -15 -2 -0.02
v -16 -2 -0.02
v -16 -1 -0.02
v -15 -1 -0.02
v 0 -3 -0.03
v -1 -3 -0.03
v -1 -2 -0.03
v 0 -2 -0.03
v -1 -3 -0.03
v -2 -3 -0.03
v -2 -2 -0.03
v -1 -2 -0.03
v -2 -3 -0.03
v -3 -3 -0.03
v -3 -2 -0.03
v -2 -2 -0.03
v -3 -3 -0.03
v -4 -3 -0.03
v -4 -2 -0.03
v -3 -2 -0.03
v -4 -3 -0.03
v -5 -3 -0.03
v -5 -2 -0.03
v -4 -2 -0.03
v -5 -3 -0.03
v -6 -3 -0.03
v -6 -2 -0.03
v -5 -2 -0.03
v -6 -3 -0.03
v -7 -3 -0.03
v -7 -2 -0.03
v -6 -2 -0.03
v -7 -3 -0.03
v -8 -3 -0.03
v -8 -2 -0.03
v -7 -2 -0.03
v -8 -3 -0.03
v -9 -3 -0.03
v -9 -2 -0.03
v -8 -2 -0.03
v -9 -3 -0.03
v -10 -3 -0.03
v -10 -2 -0.03
v -9 -2 -0.03
v -10 -3 -0.03
v -11 -3 -0.03
v -11 -2 -0.03
v -10 -2 -0.03
v -11 -3 -0.03
v -12 -3 -0.03
v -12 -2 -0.03
v -11 -2 -0.03
v -12 -3 -0.03
v -13 -3 -0.03
v -13 -2 -0.03
v -12 -2 -0.03
v -13 -3 -0.03
v -14 -3 -0.03
v -14 -2 -0.03
v -13 -2 -0.03
v -14 -3 -0.03
v -15 -3 -0.03
v -15 -2 -0.03
v -14 -2 -0.03
v -15 -3 -0.03
v -16 -3 -0.03
v -16 -2 -0.03
v -15 -2 -0.03
v 0 -4 -0.04
v -1 -4 -0.04
v -1 -3 -0.04
v 0 -3 -0.04
v -1 -4 -0.04
v -2 -4 -0.04
v -2 -3 -0.04
v -1 -3 -0.04
v -2 -4 -0.04
v -3 -4 -0.04
v -3 -3 -0.04
v -2 -3 -0.04
v -3 -4 -0.04
v -4 -4 -0.04
v -4 -3 -0.04
v -3 -3 -0.04
v -4 -4 -0.04
v -5 -4 -0.04
v -5 -3 -0.04
v -4 -3 -0.04
v -5 -4 -0.04
v -6 -4 -0.04
v -6 -3 -0.04
v -5 -3 -0.04
v -6 -4 -0.04
v -7 -4 -0.04
v -7 -3 -0.04
v -6 -3 -0.04
v -7 -4 -0.04
v -8 -4 -0.04
v -8 -3 -0.04
v -7 -3 -0.04
v -8 -4 -0.04
v -9 -4 -0.04
v -9 -3 -0.04
v -8 -3 -0.04
v -9 -4 -0.04
v -10 -4 -0.04
v -10 -3 -0.04
v -9 -3 -0.04
v -10 -4 -0.04
v -11 -4 -0.04
v -11 -3 -0.04
v -10 -3 -0.04
v -11 -4 -0.04
v -12 -4 -0.04
v -12 -3 -0.04
v -11 -3 -0.04
v -12 -4 -0.04
v -13 -4 -0.04
v -13 -3 -0.04
v -12 -3 -0.04
v -13 -4 -0.04
v -14 -4 -0.04
v -14 -3 -0.04
v -13 -3 -0.04
v -14 -4 -0.04
v -15 -4 -0.04
v -15 -3 -0.04
v -14 -3 -0.04
v -15 -4 -0.04
v -16 -4 -0.04
v -16 -3 -0.04
v -15 -3 -0.04
v 0 -5 -0.05
v -1 -5 -0.05
v -1 -4 -0.05
v 0 -4 -0.05
v -1 -5 -0.05
v -2 -5 -0.05
v -2 -4 -0.05
v -1 -4 -0.05
v -2 -5 -0.05
v -3 -5 -0.05
v -3 -4 -0.05
v -2 -4 -0.05
v -3 -5 -0.05
v -4 -5 -0.05
v -4 -4 -0.05
v -3 -4 -0.05
v -4 -5 -0.05
v -5 -5 -0.05
v -5 -4 -0.05
v -4 -4 -0.05
v -5 -5 -0.05
v -6 -5 -0.05
v -6 -4 -0.05
v -5 -4 -0.05
v -6 -5 -0.05
v -7 -5 -0.05
v -7 -4 -0.05
v -6 -4 -0.05
v -7 -5 -0.05
v -8 -5 -0.05
v -8 -4 -0.05
v -7 -4 -0.05
v -8 -5 -0.05
v -9 -5 -0.05
v -9 -4 -0.05
v -8 -4 -0.05
v -9 -5 -0.05
v -10 -5 -0.05
v -10 -4 -0.05
v -9 -4 -0.05
v -10 -5 -0.05
v -11 -5 -0.05
v -11 -4 -0.05
v -10 -4 -0.05
v -11 -5 -0.05
v -12 -5 -0.05
v -12 -4 -0.05
v -11 -4 -0.05
v -12 -5 -0.05
v -13 -5 -0.05
v -13 -4 -0.05
v -12 -4 -0.05
v -13 -5 -0.05
v -14 -5 -0.05
v -14 -4 -0.05
v -13 -4 -0.05
v -14 -5 -0.05
v -15 -5 -0.05
v -15 -4 -0.05
v -14 -4 -0.05
v -15 -5 -0.05
v -16 -5 -0.05
v -16 -4 -0.05
v -15 -4 -0.05
v 0 -6 -0.06
v -1 -6 -0.06
v -1 -5 -0.06
v 0 -5 -0.06
v -1 -6 -0.06
v -2 -6 -0.06
v -2 -5 -0.06
v -1 -5 -0.06
v -2 -6 -0.06
v -3 -6 -0.06
v -3 -5 -0.06
v -2 -5 -0.06
v -3 -6 -0.06
v -4 -6 -0.06
v -4 -5 -0.06
v -3 -5 -0.06
v -4 -6 -0.06
v -5 -6 -0.06
v -5 -5 -0.06
v -4 -5 -0.06
v -5 -6 -0.06
v -6 -6 -0.06
v -6 -5 -0.06
v -5 -5 -0.06
v -6 -6 -0.06
v -7 -6 -0.06
v -7 -5 -0.06
v -6 -5 -0.06
v -7 -6 -0.06
v -8 -6 -0.06
v -8 -5 -0.06
v -7 -5 -0.06
v -8 -6 -0.06
v -9 -6 -0.06
v -9 -5 -0.06
v -8 -5 -0.06
v -9 -6 -0.06
v -10 -6 -0.06
v -10 -5 -0.06
v -9 -5 -0.06
v -10 -6 -0.06
v -11 -6 -0.06
v -11 -5 -0.06
v -10 -5 -0.06
v -11 -6 -0.06
v -12 -6 -0.06
v -12 -5 -0.06
v -11 -5 -0.06
v -12 -6 -0.06
v -13 -6 -0.06
v -13 -5 -0.06
v -12 -5 -0.06
v -13 -6 -0.06
v -14 -6 -0.06
v -14 -5 -0.06
v -13 -5 -0.06
v -14 -6 -0.06
v -15 -6 -0.06
v -15 -5 -0.06
v -14 -5 -0.06
v -15 -6 -0.06
v -16 -6 -0.06
v -16 -5 -0.06
v -15 -5 -0.06
v 0 -7 -0.07
v -1 -7 -0.07
v -1 -6 -0.07
v 0 -6 -0.07
v -1 -7 -0.07
v -2 -7 -0.07
v -2 -6 -0.07
v -1 -6 -0.07
v -2 -7 -0.07
v -3 -7 -0.07
v -3 -6 -0.07
v -2 -6 -0.07
v -3 -7 -0.07
v -4 -7 -0.07
v -4 -6 -0.07
v -3 -6 -0.07
v -4 -7 -0.07
v -5 -7 -0.07
v -5 -6 -0.07
v -4 -6 -0.07
v -5 -7 -0.07
v -6 -7 -0.07
v -6 -6 -0.07
v -5 -6 -0.07
v -6 -7 -0.07
v -7 -7 -0.07
v -7 -6 -0.07
v -6 -6 -0.07
v -7 -7 -0.07
v -8 -7 -0.07
v -8 -6 -0.07
v -7 -6 -0.07
v -8 -7 -0.07
v -9 -7 -0.07
v -9 -6 -0.07
v -8 -6 -0.07
v -9 -7 -0.07
v -10 -7 -0.07
v -10 -6 -0.07
v -9 -6 -0.07
v -10 -7 -0.07
v -11 -7 -0.07
v -11 -6 -0.07
v -10 -6 -0.07
v -11 -7 -0.07
v -12 -7 -0.07
v -12 -6 -0.07
v -11 -6 -0.07
v -12 -7 -0.07
v -13 -7 -0.07
v -13 -6 -0.07
v -12 -6 -0.07
v -13 -7 -0.07
v -14 -7 -0.07
v -14 -6 -0.07
v -13 -6 -0.07
v -14 -7 -0.07
v -15 -7 -0.07
v -15 -6 -0.07
v -14 -6 -0.07
v -15 -7 -0.07
v -16 -7 -0.07
v -16 -6 -0.07
v -15 -6 -0.07
v 0 -8 -0.08
v -1 -8 -0.08
v -1 -7 -0.08
v 0 -7 -0.08
v -1 -8 -0.08
v -2 -8 -0.08
v -2 -7 -0.08
v -1 -7 -0.08
v -2 -8 -0.08
v -3 -8 -0.08
v -3 -7 -0.08
v -2 -7 -0.08
v -3 -8 -0.08
v -4 -8 -0.08
v -4 -7 -0.08
v -3 -7 -0.08
v -4 -8 -0.08
v -5 -8 -0.08
v -5 -7 -0.08
v -4 -7 -0.08
v -5 -8 -0.08
v -6 -8 -0.08
v -6 -7 -0.08
v -5 -7 -0.08
v -6 -8 -0.08
v -7 -8 -0.08
v -7 -7 -0.08
v -6 -7 -0.08
v -7 -8 -0.08
v -8 -8 -0.08
v -8 -7 -0.08
v -7 -7 -0.08
v -8 -8 -0.08
v -9 -8 -0.08
v -9 -7 -0.08
v -8 -7 -0.08
v -9 -8 -0.08
v -10 -8 -0.08
v -10 -7 -0.08
v -9 -7 -0.08
v -10 -8 -0.08
v -11 -8 -0.08
v -11 -7 -0.08
v -10 -7 -0.08
v -11 -8 -0.08
v -12 -8 -0.08
v -12 -7 -0.08
v -11 -7 -0.08
v -12 -8 -0.08
v -13 -8 -0.08
v -13 -7 -0.08
v -12 -7 -0.08
v -13 -8 -0.08
v -14 -8 -0.08
v -14 -7 -0.08
v -13 -7 -0.08
v -14 -8 -0.08
v -15 -8 -0.08
v -15 -7 -0.08
v -14 -7 -0.08
v -15 -8 -0.08
v -16 -8 -0.08
v -16 -7 -0.08
v -15 -7 -0.08
v 0 -9 -0.09
v -1 -9 -0.09
v -1 -8 -0.09
v 0 -8 -0.09
v -1 -9 -0.09
v -2 -9 -0.09
v -2 -8 -0.09
v -1 -8 -0.09
v -2 -9 -0.09
v -3 -9 -0.09
v -3 -8 -0.09
v -2 -8 -0.09
v -3 -9 -0.09
v -4 -9 -0.09
v -4 -8 -0.09
v -3 -8 -0.09
v -4 -9 -0.09
v -5 -9 -0.09
v -5 -8 -0.09
v -4 -8 -0.09
v -5 -9 -0.09
v -6 -9 -0.09
v -6 -8 -0.09
v -5 -8 -0.09
v -6 -9 -0.09
v -7 -9 -0.09
v -7 -8 -0.09
v -6 -8 -0.09
v -7 -9 -0.09
v -8 -9 -0.09
v -8 -8 -0.09
v -7 -8 -0.09
v -8 -9 -0.09
v -9 -9 -0.09
v -9 -8 -0.09
v -8 -8 -0.09
v -9 -9 -0.09
v -10 -9 -0.09
v -10 -8 -0.09
v -9 -8 -0.09
v -10 -9 -0.09
v -11 -9 -0.09
v -11 -8 -0.09
v -10 -8 -0.09
v -11 -9 -0.09
v -12 -9 -0.09
v -12 -8 -0.09
v -11 -8 -0.09
v -12 -9 -0.09
v -13 -9 -0.09
v -13 -8 -0.09
v -12 -8 -0.09
v -13 -9 -0.09
v -14 -9 -0.09
v -14 -8 -0.09
v -13 -8 -0.09
v -14 -9 -0.09
v -15 -9 -0.09
v -15 -8 -0.09
v -14 -8 -0.09
v -15 -9 -0.09
v -16 -9 -0.09
v -16 -8 -0.09
v -15 -8 -0.09

# Texture cooridinates (Count = 53)
vt 0.2777778 0.9022557
vt 0.3333333 0.9022557
vt 0.3333333 0.906015
vt 0.2777778 0.906015
vt 0.1666667 0.9022557
vt 0.2222222 0.9022557
vt 0.2222222 0.906015
vt 0.1666667 0.906015
vt 0.3333333 0.9097744
vt 0.2777778 0.9097744
vt 0.2222222 0.9097744
vt 0.1666667 0.9097744
vt 0.1666667 0.8646616
vt 0.2222222 0.8646616
vt 0.2222222 0.8684211
vt 0.1666667 0.8684211
vt 0.2222222 0.8721805
vt 0.1666667 0.8721805
vt 0.3333333 0.8684211
vt 0.3888889 0.8684211
vt 0.3888889 0.8721805
vt 0.3333333 0.8721805
vt 0 0.8834586
vt 0.05555556 0.8834586
vt 0.05555556 0.8872181
vt 0 0.8872181
vt 0.4444444 0.8684211
vt 0.4444444 0.8721805
vt 0.3333333 0.8646616
vt 0.3888889 0.8646616
vt 0.1111111 0.8834586
vt 0.1111111 0.8872181
vt 0.4444444 0.8646616
vt 0.05555556 0.8759398
vt 0.1111111 0.8759398
vt 0.1111111 0.8796992
vt 0.05555556 0.8796992
vt 0.3888889 0.8609022
vt 0.4444444 0.8609022
vt 0.3333333 0.8609022
vt 0.2777778 0.8984963
vt 0.3333333 0.8984963
vt 0.1666667 0.8984963
vt 0.2222222 0.8984963
vt 0.2777778 0.8947368
vt 0.3333333 0.8947368
vt 0.1666667 0.8947368
vt 0.2222222 0.8947368
vt 0.3333333 0.8571429
vt 0.3888889 0.8571429
vt 0 0.8759398
vt 0 0.8796992
vt 0.4444444 0.8571429

# Normal
vn 0 0 -1

# Mesh description
g Act-0-Forest_mesh_0196

# Faces
f 1/1/1 2/2/1 3/3/1 4/4/1
f 5/5/1 6/6/1 7/7/1 8/8/1
f 9/6/1 10/1/1 11/4/1 12/7/1
f 13/1/1 14/2/1 15/3/1 16/4/1
f 17/5/1 18/6/1 19/7/1 20/8/1
f 21/6/1 22/1/1 23/4/1 24/7/1
f 25/1/1 26/2/1 27/3/1 28/4/1
f 29/5/1 30/6/1 31/7/1 32/8/1
f 33/6/1 34/1/1 35/4/1 36/7/1
f 37/1/1 38/2/1 39/3/1 40/4/1
f 41/5/1 42/6/1 43/7/1 44/8/1
f 45/6/1 46/1/1 47/4/1 48/7/1
f 49/1/1 50/2/1 51/3/1 52/4/1
f 53/5/1 54/6/1 55/7/1 56/8/1
f 57/6/1 58/1/1 59/4/1 60/7/1
f 61/1/1 62/2/1 63/3/1 64/4/1
f 65/4/1 66/3/1 67/9/1 68/10/1
f 69/8/1 70/7/1 71/11/1 72/12/1
f 73/7/1 74/4/1 75/10/1 76/11/1
f 77/4/1 78/3/1 79/9/1 80/10/1
f 81/8/1 82/7/1 83/11/1 84/12/1
f 85/7/1 86/4/1 87/10/1 88/11/1
f 89/4/1 90/3/1 91/9/1 92/10/1
f 93/8/1 94/7/1 95/11/1 96/12/1
f 97/7/1 98/4/1 99/10/1 100/11/1
f 101/4/1 102/3/1 103/9/1 104/10/1
f 105/8/1 106/7/1 107/11/1 108/12/1
f 109/7/1 110/4/1 111/10/1 112/11/1
f 113/4/1 114/3/1 115/9/1 116/10/1
f 117/8/1 118/7/1 119/11/1 120/12/1
f 121/7/1 122/4/1 123/10/1 124/11/1
f 125/4/1 126/3/1 127/9/1 128/10/1
f 129/1/1 130/2/1 131/3/1 132/4/1
f 133/5/1 134/6/1 135/7/1 136/8/1
f 137/6/1 138/1/1 139/4/1 140/7/1
f 141/13/1 142/14/1 143/15/1 144/16/1
f 145/13/1 146/14/1 147/15/1 148/16/1
f 149/13/1 150/14/1 151/15/1 152/16/1
f 153/13/1 154/14/1 155/15/1 156/16/1
f 157/13/1 158/14/1 159/15/1 160/16/1
f 161/13/1 162/14/1 163/15/1 164/16/1
f 165/13/1 166/14/1 167/15/1 168/16/1
f 169/13/1 170/14/1 171/15/1 172/16/1
f 173/13/1 174/14/1 175/15/1 176/16/1
f 177/13/1 178/14/1 179/15/1 180/16/1
f 181/13/1 182/14/1 183/15/1 184/16/1
f 185/13/1 186/14/1 187/15/1 188/16/1
f 189/13/1 190/14/1 191/15/1 192/16/1
f 193/4/1 194/3/1 195/9/1 196/10/1
f 197/8/1 198/7/1 199/11/1 200/12/1
f 201/16/1 202/15/1 203/17/1 204/18/1
f 205/19/1 206/20/1 207/21/1 208/22/1
f 209/23/1 210/24/1 211/25/1 212/26/1
f 213/23/1 214/24/1 215/25/1 216/26/1
f 217/23/1 218/24/1 219/25/1 220/26/1
f 221/23/1 222/24/1 223/25/1 224/26/1
f 225/23/1 226/24/1 227/25/1 228/26/1
f 229/23/1 230/24/1 231/25/1 232/26/1
f 233/23/1 234/24/1 235/25/1 236/26/1
f 237/23/1 238/24/1 239/25/1 240/26/1
f 241/23/1 242/24/1 243/25/1 244/26/1
f 245/23/1 246/24/1 247/25/1 248/26/1
f 249/23/1 250/24/1 251/25/1 252/26/1
f 253/20/1 254/27/1 255/28/1 256/21/1
f 257/1/1 258/2/1 259/3/1 260/4/1
f 261/5/1 262/6/1 263/7/1 264/8/1
f 265/16/1 266/15/1 267/17/1 268/18/1
f 269/29/1 270/30/1 271/20/1 272/19/1
f 273/24/1 274/31/1 275/32/1 276/25/1
f 277/24/1 278/31/1 279/32/1 280/25/1
f 281/24/1 282/31/1 283/32/1 284/25/1
f 285/24/1 286/31/1 287/32/1 288/25/1
f 289/24/1 290/31/1 291/32/1 292/25/1
f 293/24/1 294/31/1 295/32/1 296/25/1
f 297/24/1 298/31/1 299/32/1 300/25/1
f 301/24/1 302/31/1 303/32/1 304/25/1
f 305/24/1 306/31/1 307/32/1 308/25/1
f 309/24/1 310/31/1 311/32/1 312/25/1
f 313/24/1 314/31/1 315/32/1 316/25/1
f 317/30/1 318/33/1 319/27/1 320/20/1
f 321/4/1 322/3/1 323/9/1 324/10/1
f 325/8/1 326/7/1 327/11/1 328/12/1
f 329/19/1 330/20/1 331/21/1 332/22/1
f 333/34/1 334/35/1 335/36/1 336/37/1
f 337/24/1 338/31/1 339/32/1 340/25/1
f 341/24/1 342/31/1 343/32/1 344/25/1
f 345/24/1 346/31/1 347/32/1 348/25/1
f 349/24/1 350/31/1 351/32/1 352/25/1
f 353/24/1 354/31/1 355/32/1 356/25/1
f 357/24/1 358/31/1 359/32/1 360/25/1
f 361/24/1 362/31/1 363/32/1 364/25/1
f 365/24/1 366/31/1 367/32/1 368/25/1
f 369/24/1 370/31/1 371/32/1 372/25/1
f 373/24/1 374/31/1 375/32/1 376/25/1
f 377/24/1 378/31/1 379/32/1 380/25/1
f 381/38/1 382/39/1 383/33/1 384/30/1
f 385/1/1 386/2/1 387/3/1 388/4/1
f 389/5/1 390/6/1 391/7/1 392/8/1
f 393/40/1 394/38/1 395/30/1 396/29/1
f 397/24/1 398/31/1 399/32/1 400/25/1
f 401/24/1 402/31/1 403/32/1 404/25/1
f 405/24/1 406/31/1 407/32/1 408/25/1
f 409/24/1 410/31/1 411/32/1 412/25/1
f 413/24/1 414/31/1 415/32/1 416/25/1
f 417/24/1 418/31/1 419/32/1 420/25/1
f 421/24/1 422/31/1 423/32/1 424/25/1
f 425/24/1 426/31/1 427/32/1 428/25/1
f 429/24/1 430/31/1 431/32/1 432/25/1
f 433/24/1 434/31/1 435/32/1 436/25/1
f 437/24/1 438/31/1 439/32/1 440/25/1
f 441/24/1 442/31/1 443/32/1 444/25/1
f 445/38/1 446/39/1 447/33/1 448/30/1
f 449/41/1 450/42/1 451/2/1 452/1/1
f 453/43/1 454/44/1 455/6/1 456/5/1
f 457/40/1 458/38/1 459/30/1 460/29/1
f 461/24/1 462/31/1 463/32/1 464/25/1
f 465/24/1 466/31/1 467/32/1 468/25/1
f 469/24/1 470/31/1 471/32/1 472/25/1
f 473/24/1 474/31/1 475/32/1 476/25/1
f 477/24/1 478/31/1 479/32/1 480/25/1
f 481/24/1 482/31/1 483/32/1 484/25/1
f 485/24/1 486/31/1 487/32/1 488/25/1
f 489/24/1 490/31/1 491/32/1 492/25/1
f 493/24/1 494/31/1 495/32/1 496/25/1
f 497/24/1 498/31/1 499/32/1 500/25/1
f 501/24/1 502/31/1 503/32/1 504/25/1
f 505/24/1 506/31/1 507/32/1 508/25/1
f 509/38/1 510/39/1 511/33/1 512/30/1
f 513/45/1 514/46/1 515/42/1 516/41/1
f 517/47/1 518/48/1 519/44/1 520/43/1
f 521/49/1 522/50/1 523/38/1 524/40/1
f 525/51/1 526/34/1 527/37/1 528/52/1
f 529/51/1 530/34/1 531/37/1 532/52/1
f 533/51/1 534/34/1 535/37/1 536/52/1
f 537/51/1 538/34/1 539/37/1 540/52/1
f 541/51/1 542/34/1 543/37/1 544/52/1
f 545/51/1 546/34/1 547/37/1 548/52/1
f 549/51/1 550/34/1 551/37/1 552/52/1
f 553/51/1 554/34/1 555/37/1 556/52/1
f 557/51/1 558/34/1 559/37/1 560/52/1
f 561/51/1 562/34/1 563/37/1 564/52/1
f 565/51/1 566/34/1 567/37/1 568/52/1
f 569/51/1 570/34/1 571/37/1 572/52/1
f 573/50/1 574/53/1 575/39/1 576/38/1

