# Tiled2Unity generated file. Do not modify by hand.
# Wavefront file for 'Act-0-Forest_mesh_0288.obj'

# Vertices (Count = 288)
v 0 -1 -0.01
v -1 -1 -0.01
v -1 0 -0.01
v 0 0 -0.01
v -1 -1 -0.01
v -2 -1 -0.01
v -2 0 -0.01
v -1 0 -0.01
v -2 -1 -0.01
v -3 -1 -0.01
v -3 0 -0.01
v -2 0 -0.01
v -3 -1 -0.01
v -4 -1 -0.01
v -4 0 -0.01
v -3 0 -0.01
v -4 -1 -0.01
v -5 -1 -0.01
v -5 0 -0.01
v -4 0 -0.01
v -5 -1 -0.01
v -6 -1 -0.01
v -6 0 -0.01
v -5 0 -0.01
v -6 -1 -0.01
v -7 -1 -0.01
v -7 0 -0.01
v -6 0 -0.01
v -7 -1 -0.01
v -8 -1 -0.01
v -8 0 -0.01
v -7 0 -0.01
v -8 -1 -0.01
v -9 -1 -0.01
v -9 0 -0.01
v -8 0 -0.01
v -9 -1 -0.01
v -10 -1 -0.01
v -10 0 -0.01
v -9 0 -0.01
v -10 -1 -0.01
v -11 -1 -0.01
v -11 0 -0.01
v -10 0 -0.01
v -11 -1 -0.01
v -12 -1 -0.01
v -12 0 -0.01
v -11 0 -0.01
v -12 -1 -0.01
v -13 -1 -0.01
v -13 0 -0.01
v -12 0 -0.01
v -13 -1 -0.01
v -14 -1 -0.01
v -14 0 -0.01
v -13 0 -0.01
v -14 -1 -0.01
v -15 -1 -0.01
v -15 0 -0.01
v -14 0 -0.01
v -15 -1 -0.01
v -16 -1 -0.01
v -16 0 -0.01
v -15 0 -0.01
v 0 -2 -0.02
v -1 -2 -0.02
v -1 -1 -0.02
v 0 -1 -0.02
v -1 -2 -0.02
v -2 -2 -0.02
v -2 -1 -0.02
v -1 -1 -0.02
v -2 -2 -0.02
v -3 -2 -0.02
v -3 -1 -0.02
v -2 -1 -0.02
v -3 -2 -0.02
v -4 -2 -0.02
v -4 -1 -0.02
v -3 -1 -0.02
v -4 -2 -0.02
v -5 -2 -0.02
v -5 -1 -0.02
v -4 -1 -0.02
v -5 -2 -0.02
v -6 -2 -0.02
v -6 -1 -0.02
v -5 -1 -0.02
v -6 -2 -0.02
v -7 -2 -0.02
v -7 -1 -0.02
v -6 -1 -0.02
v -7 -2 -0.02
v -8 -2 -0.02
v -8 -1 -0.02
v -7 -1 -0.02
v -8 -2 -0.02
v -9 -2 -0.02
v -9 -1 -0.02
v -8 -1 -0.02
v -9 -2 -0.02
v -10 -2 -0.02
v -10 -1 -0.02
v -9 -1 -0.02
v -10 -2 -0.02
v -11 -2 -0.02
v -11 -1 -0.02
v -10 -1 -0.02
v -11 -2 -0.02
v -12 -2 -0.02
v -12 -1 -0.02
v -11 -1 -0.02
v -12 -2 -0.02
v -13 -2 -0.02
v -13 -1 -0.02
v -12 -1 -0.02
v -13 -2 -0.02
v -14 -2 -0.02
v -14 -1 -0.02
v -13 -1 -0.02
v -14 -2 -0.02
v -15 -2 -0.02
v -15 -1 -0.02
v -14 -1 -0.02
v -15 -2 -0.02
v -16 -2 -0.02
v -16 -1 -0.02
v -15 -1 -0.02
v 0 -3 -0.03
v -1 -3 -0.03
v -1 -2 -0.03
v 0 -2 -0.03
v -1 -3 -0.03
v -2 -3 -0.03
v -2 -2 -0.03
v -1 -2 -0.03
v -2 -3 -0.03
v -3 -3 -0.03
v -3 -2 -0.03
v -2 -2 -0.03
v -3 -3 -0.03
v -4 -3 -0.03
v -4 -2 -0.03
v -3 -2 -0.03
v -4 -3 -0.03
v -5 -3 -0.03
v -5 -2 -0.03
v -4 -2 -0.03
v -5 -3 -0.03
v -6 -3 -0.03
v -6 -2 -0.03
v -5 -2 -0.03
v -6 -3 -0.03
v -7 -3 -0.03
v -7 -2 -0.03
v -6 -2 -0.03
v -7 -3 -0.03
v -8 -3 -0.03
v -8 -2 -0.03
v -7 -2 -0.03
v -8 -3 -0.03
v -9 -3 -0.03
v -9 -2 -0.03
v -8 -2 -0.03
v -9 -3 -0.03
v -10 -3 -0.03
v -10 -2 -0.03
v -9 -2 -0.03
v -10 -3 -0.03
v -11 -3 -0.03
v -11 -2 -0.03
v -10 -2 -0.03
v -11 -3 -0.03
v -12 -3 -0.03
v -12 -2 -0.03
v -11 -2 -0.03
v -12 -3 -0.03
v -13 -3 -0.03
v -13 -2 -0.03
v -12 -2 -0.03
v -13 -3 -0.03
v -14 -3 -0.03
v -14 -2 -0.03
v -13 -2 -0.03
v -14 -3 -0.03
v -15 -3 -0.03
v -15 -2 -0.03
v -14 -2 -0.03
v -15 -3 -0.03
v -16 -3 -0.03
v -16 -2 -0.03
v -15 -2 -0.03
v -4 -14 -0.14
v -5 -14 -0.14
v -5 -13 -0.14
v -4 -13 -0.14
v -5 -14 -0.14
v -6 -14 -0.14
v -6 -13 -0.14
v -5 -13 -0.14
v -6 -14 -0.14
v -7 -14 -0.14
v -7 -13 -0.14
v -6 -13 -0.14
v -7 -14 -0.14
v -8 -14 -0.14
v -8 -13 -0.14
v -7 -13 -0.14
v -4 -15 -0.15
v -5 -15 -0.15
v -5 -14 -0.15
v -4 -14 -0.15
v -5 -15 -0.15
v -6 -15 -0.15
v -6 -14 -0.15
v -5 -14 -0.15
v -6 -15 -0.15
v -7 -15 -0.15
v -7 -14 -0.15
v -6 -14 -0.15
v -7 -15 -0.15
v -8 -15 -0.15
v -8 -14 -0.15
v -7 -14 -0.15
v 0 -16 -0.16
v -1 -16 -0.16
v -1 -15 -0.16
v 0 -15 -0.16
v -1 -16 -0.16
v -2 -16 -0.16
v -2 -15 -0.16
v -1 -15 -0.16
v -2 -16 -0.16
v -3 -16 -0.16
v -3 -15 -0.16
v -2 -15 -0.16
v -3 -16 -0.16
v -4 -16 -0.16
v -4 -15 -0.16
v -3 -15 -0.16
v -4 -16 -0.16
v -5 -16 -0.16
v -5 -15 -0.16
v -4 -15 -0.16
v -5 -16 -0.16
v -6 -16 -0.16
v -6 -15 -0.16
v -5 -15 -0.16
v -6 -16 -0.16
v -7 -16 -0.16
v -7 -15 -0.16
v -6 -15 -0.16
v -7 -16 -0.16
v -8 -16 -0.16
v -8 -15 -0.16
v -7 -15 -0.16
v -8 -16 -0.16
v -9 -16 -0.16
v -9 -15 -0.16
v -8 -15 -0.16
v -9 -16 -0.16
v -10 -16 -0.16
v -10 -15 -0.16
v -9 -15 -0.16
v -10 -16 -0.16
v -11 -16 -0.16
v -11 -15 -0.16
v -10 -15 -0.16
v -11 -16 -0.16
v -12 -16 -0.16
v -12 -15 -0.16
v -11 -15 -0.16
v -12 -16 -0.16
v -13 -16 -0.16
v -13 -15 -0.16
v -12 -15 -0.16
v -13 -16 -0.16
v -14 -16 -0.16
v -14 -15 -0.16
v -13 -15 -0.16
v -14 -16 -0.16
v -15 -16 -0.16
v -15 -15 -0.16
v -14 -15 -0.16
v -15 -16 -0.16
v -16 -16 -0.16
v -16 -15 -0.16
v -15 -15 -0.16

# Texture cooridinates (Count = 40)
vt 0.4444444 0.962406
vt 0.5 0.962406
vt 0.5 0.9661654
vt 0.4444444 0.9661654
vt 0.5555556 0.962406
vt 0.5555556 0.9661654
vt 0.3333333 0.962406
vt 0.3888889 0.962406
vt 0.3888889 0.9661654
vt 0.3333333 0.9661654
vt 0.4444444 0.981203
vt 0.5 0.981203
vt 0.5 0.9849624
vt 0.4444444 0.9849624
vt 0.5555556 0.981203
vt 0.5555556 0.9849624
vt 0.3333333 0.981203
vt 0.3888889 0.981203
vt 0.3888889 0.9849624
vt 0.3333333 0.9849624
vt 0.4444444 0.9774436
vt 0.5 0.9774436
vt 0.5555556 0.9774436
vt 0.3333333 0.9774436
vt 0.3888889 0.9774436
vt 0.3333333 0.9887218
vt 0.3888889 0.9887218
vt 0.3888889 0.9924812
vt 0.3333333 0.9924812
vt 0.4444444 0.9887218
vt 0.4444444 0.9924812
vt 0.5 0.9887218
vt 0.5 0.9924812
vt 0.5555556 0.9887218
vt 0.5555556 0.9924812
vt 0.5 0.9699248
vt 0.4444444 0.9699248
vt 0.5555556 0.9699248
vt 0.3888889 0.9699248
vt 0.3333333 0.9699248

# Normal
vn 0 0 -1

# Mesh description
g Act-0-Forest_mesh_0288

# Faces
f 1/1/1 2/2/1 3/3/1 4/4/1
f 5/2/1 6/5/1 7/6/1 8/3/1
f 9/7/1 10/8/1 11/9/1 12/10/1
f 13/8/1 14/1/1 15/4/1 16/9/1
f 17/1/1 18/2/1 19/3/1 20/4/1
f 21/2/1 22/5/1 23/6/1 24/3/1
f 25/7/1 26/8/1 27/9/1 28/10/1
f 29/8/1 30/1/1 31/4/1 32/9/1
f 33/1/1 34/2/1 35/3/1 36/4/1
f 37/2/1 38/5/1 39/6/1 40/3/1
f 41/7/1 42/8/1 43/9/1 44/10/1
f 45/8/1 46/1/1 47/4/1 48/9/1
f 49/1/1 50/2/1 51/3/1 52/4/1
f 53/2/1 54/5/1 55/6/1 56/3/1
f 57/7/1 58/8/1 59/9/1 60/10/1
f 61/8/1 62/1/1 63/4/1 64/9/1
f 65/11/1 66/12/1 67/13/1 68/14/1
f 69/12/1 70/15/1 71/16/1 72/13/1
f 73/17/1 74/18/1 75/19/1 76/20/1
f 77/18/1 78/11/1 79/14/1 80/19/1
f 81/11/1 82/12/1 83/13/1 84/14/1
f 85/12/1 86/15/1 87/16/1 88/13/1
f 89/17/1 90/18/1 91/19/1 92/20/1
f 93/18/1 94/11/1 95/14/1 96/19/1
f 97/11/1 98/12/1 99/13/1 100/14/1
f 101/12/1 102/15/1 103/16/1 104/13/1
f 105/17/1 106/18/1 107/19/1 108/20/1
f 109/18/1 110/11/1 111/14/1 112/19/1
f 113/11/1 114/12/1 115/13/1 116/14/1
f 117/12/1 118/15/1 119/16/1 120/13/1
f 121/17/1 122/18/1 123/19/1 124/20/1
f 125/18/1 126/11/1 127/14/1 128/19/1
f 129/21/1 130/22/1 131/12/1 132/11/1
f 133/22/1 134/23/1 135/15/1 136/12/1
f 137/24/1 138/25/1 139/18/1 140/17/1
f 141/25/1 142/21/1 143/11/1 144/18/1
f 145/21/1 146/22/1 147/12/1 148/11/1
f 149/22/1 150/23/1 151/15/1 152/12/1
f 153/24/1 154/25/1 155/18/1 156/17/1
f 157/25/1 158/21/1 159/11/1 160/18/1
f 161/21/1 162/22/1 163/12/1 164/11/1
f 165/22/1 166/23/1 167/15/1 168/12/1
f 169/24/1 170/25/1 171/18/1 172/17/1
f 173/25/1 174/21/1 175/11/1 176/18/1
f 177/21/1 178/22/1 179/12/1 180/11/1
f 181/22/1 182/23/1 183/15/1 184/12/1
f 185/24/1 186/25/1 187/18/1 188/17/1
f 189/25/1 190/21/1 191/11/1 192/18/1
f 193/26/1 194/27/1 195/28/1 196/29/1
f 197/27/1 198/30/1 199/31/1 200/28/1
f 201/30/1 202/32/1 203/33/1 204/31/1
f 205/32/1 206/34/1 207/35/1 208/33/1
f 209/20/1 210/19/1 211/27/1 212/26/1
f 213/19/1 214/14/1 215/30/1 216/27/1
f 217/14/1 218/13/1 219/32/1 220/30/1
f 221/13/1 222/16/1 223/34/1 224/32/1
f 225/30/1 226/32/1 227/33/1 228/31/1
f 229/32/1 230/34/1 231/35/1 232/33/1
f 233/26/1 234/27/1 235/28/1 236/29/1
f 237/27/1 238/30/1 239/31/1 240/28/1
f 241/4/1 242/3/1 243/36/1 244/37/1
f 245/3/1 246/6/1 247/38/1 248/36/1
f 249/10/1 250/9/1 251/39/1 252/40/1
f 253/9/1 254/4/1 255/37/1 256/39/1
f 257/30/1 258/32/1 259/33/1 260/31/1
f 261/32/1 262/34/1 263/35/1 264/33/1
f 265/26/1 266/27/1 267/28/1 268/29/1
f 269/27/1 270/30/1 271/31/1 272/28/1
f 273/30/1 274/32/1 275/33/1 276/31/1
f 277/32/1 278/34/1 279/35/1 280/33/1
f 281/26/1 282/27/1 283/28/1 284/29/1
f 285/27/1 286/30/1 287/31/1 288/28/1

