# Tiled2Unity generated file. Do not modify by hand.
# Wavefront file for 'Act-0-Forest_mesh_0290.obj'

# Vertices (Count = 416)
v 0 -1 -0.01
v -1 -1 -0.01
v -1 0 -0.01
v 0 0 -0.01
v -1 -1 -0.01
v -2 -1 -0.01
v -2 0 -0.01
v -1 0 -0.01
v -2 -1 -0.01
v -3 -1 -0.01
v -3 0 -0.01
v -2 0 -0.01
v -3 -1 -0.01
v -4 -1 -0.01
v -4 0 -0.01
v -3 0 -0.01
v -4 -1 -0.01
v -5 -1 -0.01
v -5 0 -0.01
v -4 0 -0.01
v -5 -1 -0.01
v -6 -1 -0.01
v -6 0 -0.01
v -5 0 -0.01
v -6 -1 -0.01
v -7 -1 -0.01
v -7 0 -0.01
v -6 0 -0.01
v -7 -1 -0.01
v -8 -1 -0.01
v -8 0 -0.01
v -7 0 -0.01
v -8 -1 -0.01
v -9 -1 -0.01
v -9 0 -0.01
v -8 0 -0.01
v -9 -1 -0.01
v -10 -1 -0.01
v -10 0 -0.01
v -9 0 -0.01
v -10 -1 -0.01
v -11 -1 -0.01
v -11 0 -0.01
v -10 0 -0.01
v -11 -1 -0.01
v -12 -1 -0.01
v -12 0 -0.01
v -11 0 -0.01
v -12 -1 -0.01
v -13 -1 -0.01
v -13 0 -0.01
v -12 0 -0.01
v -13 -1 -0.01
v -14 -1 -0.01
v -14 0 -0.01
v -13 0 -0.01
v -14 -1 -0.01
v -15 -1 -0.01
v -15 0 -0.01
v -14 0 -0.01
v -15 -1 -0.01
v -16 -1 -0.01
v -16 0 -0.01
v -15 0 -0.01
v 0 -2 -0.02
v -1 -2 -0.02
v -1 -1 -0.02
v 0 -1 -0.02
v -1 -2 -0.02
v -2 -2 -0.02
v -2 -1 -0.02
v -1 -1 -0.02
v -2 -2 -0.02
v -3 -2 -0.02
v -3 -1 -0.02
v -2 -1 -0.02
v -3 -2 -0.02
v -4 -2 -0.02
v -4 -1 -0.02
v -3 -1 -0.02
v -4 -2 -0.02
v -5 -2 -0.02
v -5 -1 -0.02
v -4 -1 -0.02
v -5 -2 -0.02
v -6 -2 -0.02
v -6 -1 -0.02
v -5 -1 -0.02
v -6 -2 -0.02
v -7 -2 -0.02
v -7 -1 -0.02
v -6 -1 -0.02
v -7 -2 -0.02
v -8 -2 -0.02
v -8 -1 -0.02
v -7 -1 -0.02
v -8 -2 -0.02
v -9 -2 -0.02
v -9 -1 -0.02
v -8 -1 -0.02
v -9 -2 -0.02
v -10 -2 -0.02
v -10 -1 -0.02
v -9 -1 -0.02
v -10 -2 -0.02
v -11 -2 -0.02
v -11 -1 -0.02
v -10 -1 -0.02
v -11 -2 -0.02
v -12 -2 -0.02
v -12 -1 -0.02
v -11 -1 -0.02
v -12 -2 -0.02
v -13 -2 -0.02
v -13 -1 -0.02
v -12 -1 -0.02
v -13 -2 -0.02
v -14 -2 -0.02
v -14 -1 -0.02
v -13 -1 -0.02
v -14 -2 -0.02
v -15 -2 -0.02
v -15 -1 -0.02
v -14 -1 -0.02
v -15 -2 -0.02
v -16 -2 -0.02
v -16 -1 -0.02
v -15 -1 -0.02
v 0 -3 -0.03
v -1 -3 -0.03
v -1 -2 -0.03
v 0 -2 -0.03
v -1 -3 -0.03
v -2 -3 -0.03
v -2 -2 -0.03
v -1 -2 -0.03
v -2 -3 -0.03
v -3 -3 -0.03
v -3 -2 -0.03
v -2 -2 -0.03
v -3 -3 -0.03
v -4 -3 -0.03
v -4 -2 -0.03
v -3 -2 -0.03
v -4 -3 -0.03
v -5 -3 -0.03
v -5 -2 -0.03
v -4 -2 -0.03
v -5 -3 -0.03
v -6 -3 -0.03
v -6 -2 -0.03
v -5 -2 -0.03
v -6 -3 -0.03
v -7 -3 -0.03
v -7 -2 -0.03
v -6 -2 -0.03
v -7 -3 -0.03
v -8 -3 -0.03
v -8 -2 -0.03
v -7 -2 -0.03
v -8 -3 -0.03
v -9 -3 -0.03
v -9 -2 -0.03
v -8 -2 -0.03
v -9 -3 -0.03
v -10 -3 -0.03
v -10 -2 -0.03
v -9 -2 -0.03
v -10 -3 -0.03
v -11 -3 -0.03
v -11 -2 -0.03
v -10 -2 -0.03
v -11 -3 -0.03
v -12 -3 -0.03
v -12 -2 -0.03
v -11 -2 -0.03
v -12 -3 -0.03
v -13 -3 -0.03
v -13 -2 -0.03
v -12 -2 -0.03
v -13 -3 -0.03
v -14 -3 -0.03
v -14 -2 -0.03
v -13 -2 -0.03
v -14 -3 -0.03
v -15 -3 -0.03
v -15 -2 -0.03
v -14 -2 -0.03
v -15 -3 -0.03
v -16 -3 -0.03
v -16 -2 -0.03
v -15 -2 -0.03
v 0 -4 -0.04
v -1 -4 -0.04
v -1 -3 -0.04
v 0 -3 -0.04
v -1 -4 -0.04
v -2 -4 -0.04
v -2 -3 -0.04
v -1 -3 -0.04
v -2 -4 -0.04
v -3 -4 -0.04
v -3 -3 -0.04
v -2 -3 -0.04
v -3 -4 -0.04
v -4 -4 -0.04
v -4 -3 -0.04
v -3 -3 -0.04
v -4 -4 -0.04
v -5 -4 -0.04
v -5 -3 -0.04
v -4 -3 -0.04
v -5 -4 -0.04
v -6 -4 -0.04
v -6 -3 -0.04
v -5 -3 -0.04
v -6 -4 -0.04
v -7 -4 -0.04
v -7 -3 -0.04
v -6 -3 -0.04
v -7 -4 -0.04
v -8 -4 -0.04
v -8 -3 -0.04
v -7 -3 -0.04
v -8 -4 -0.04
v -9 -4 -0.04
v -9 -3 -0.04
v -8 -3 -0.04
v -9 -4 -0.04
v -10 -4 -0.04
v -10 -3 -0.04
v -9 -3 -0.04
v -10 -4 -0.04
v -11 -4 -0.04
v -11 -3 -0.04
v -10 -3 -0.04
v -11 -4 -0.04
v -12 -4 -0.04
v -12 -3 -0.04
v -11 -3 -0.04
v -12 -4 -0.04
v -13 -4 -0.04
v -13 -3 -0.04
v -12 -3 -0.04
v -13 -4 -0.04
v -14 -4 -0.04
v -14 -3 -0.04
v -13 -3 -0.04
v -14 -4 -0.04
v -15 -4 -0.04
v -15 -3 -0.04
v -14 -3 -0.04
v -15 -4 -0.04
v -16 -4 -0.04
v -16 -3 -0.04
v -15 -3 -0.04
v 0 -5 -0.05
v -1 -5 -0.05
v -1 -4 -0.05
v 0 -4 -0.05
v -1 -5 -0.05
v -2 -5 -0.05
v -2 -4 -0.05
v -1 -4 -0.05
v -2 -5 -0.05
v -3 -5 -0.05
v -3 -4 -0.05
v -2 -4 -0.05
v -3 -5 -0.05
v -4 -5 -0.05
v -4 -4 -0.05
v -3 -4 -0.05
v -4 -5 -0.05
v -5 -5 -0.05
v -5 -4 -0.05
v -4 -4 -0.05
v -5 -5 -0.05
v -6 -5 -0.05
v -6 -4 -0.05
v -5 -4 -0.05
v -6 -5 -0.05
v -7 -5 -0.05
v -7 -4 -0.05
v -6 -4 -0.05
v -7 -5 -0.05
v -8 -5 -0.05
v -8 -4 -0.05
v -7 -4 -0.05
v -8 -5 -0.05
v -9 -5 -0.05
v -9 -4 -0.05
v -8 -4 -0.05
v -9 -5 -0.05
v -10 -5 -0.05
v -10 -4 -0.05
v -9 -4 -0.05
v -10 -5 -0.05
v -11 -5 -0.05
v -11 -4 -0.05
v -10 -4 -0.05
v -11 -5 -0.05
v -12 -5 -0.05
v -12 -4 -0.05
v -11 -4 -0.05
v -12 -5 -0.05
v -13 -5 -0.05
v -13 -4 -0.05
v -12 -4 -0.05
v -13 -5 -0.05
v -14 -5 -0.05
v -14 -4 -0.05
v -13 -4 -0.05
v -14 -5 -0.05
v -15 -5 -0.05
v -15 -4 -0.05
v -14 -4 -0.05
v -15 -5 -0.05
v -16 -5 -0.05
v -16 -4 -0.05
v -15 -4 -0.05
v -6 -6 -0.06
v -7 -6 -0.06
v -7 -5 -0.06
v -6 -5 -0.06
v -7 -6 -0.06
v -8 -6 -0.06
v -8 -5 -0.06
v -7 -5 -0.06
v -8 -6 -0.06
v -9 -6 -0.06
v -9 -5 -0.06
v -8 -5 -0.06
v -9 -6 -0.06
v -10 -6 -0.06
v -10 -5 -0.06
v -9 -5 -0.06
v -6 -7 -0.07
v -7 -7 -0.07
v -7 -6 -0.07
v -6 -6 -0.07
v -7 -7 -0.07
v -8 -7 -0.07
v -8 -6 -0.07
v -7 -6 -0.07
v -8 -7 -0.07
v -9 -7 -0.07
v -9 -6 -0.07
v -8 -6 -0.07
v -9 -7 -0.07
v -10 -7 -0.07
v -10 -6 -0.07
v -9 -6 -0.07
v 0 -16 -0.16
v -1 -16 -0.16
v -1 -15 -0.16
v 0 -15 -0.16
v -1 -16 -0.16
v -2 -16 -0.16
v -2 -15 -0.16
v -1 -15 -0.16
v -2 -16 -0.16
v -3 -16 -0.16
v -3 -15 -0.16
v -2 -15 -0.16
v -3 -16 -0.16
v -4 -16 -0.16
v -4 -15 -0.16
v -3 -15 -0.16
v -4 -16 -0.16
v -5 -16 -0.16
v -5 -15 -0.16
v -4 -15 -0.16
v -5 -16 -0.16
v -6 -16 -0.16
v -6 -15 -0.16
v -5 -15 -0.16
v -6 -16 -0.16
v -7 -16 -0.16
v -7 -15 -0.16
v -6 -15 -0.16
v -7 -16 -0.16
v -8 -16 -0.16
v -8 -15 -0.16
v -7 -15 -0.16
v -8 -16 -0.16
v -9 -16 -0.16
v -9 -15 -0.16
v -8 -15 -0.16
v -9 -16 -0.16
v -10 -16 -0.16
v -10 -15 -0.16
v -9 -15 -0.16
v -10 -16 -0.16
v -11 -16 -0.16
v -11 -15 -0.16
v -10 -15 -0.16
v -11 -16 -0.16
v -12 -16 -0.16
v -12 -15 -0.16
v -11 -15 -0.16
v -12 -16 -0.16
v -13 -16 -0.16
v -13 -15 -0.16
v -12 -15 -0.16
v -13 -16 -0.16
v -14 -16 -0.16
v -14 -15 -0.16
v -13 -15 -0.16
v -14 -16 -0.16
v -15 -16 -0.16
v -15 -15 -0.16
v -14 -15 -0.16
v -15 -16 -0.16
v -16 -16 -0.16
v -16 -15 -0.16
v -15 -15 -0.16

# Texture cooridinates (Count = 40)
vt 0.4444444 0.962406
vt 0.5 0.962406
vt 0.5 0.9661654
vt 0.4444444 0.9661654
vt 0.5555556 0.962406
vt 0.5555556 0.9661654
vt 0.3333333 0.962406
vt 0.3888889 0.962406
vt 0.3888889 0.9661654
vt 0.3333333 0.9661654
vt 0.3888889 0.9699248
vt 0.3333333 0.9699248
vt 0.4444444 0.9699248
vt 0.5 0.9699248
vt 0.5555556 0.9699248
vt 0.3333333 0.981203
vt 0.3888889 0.981203
vt 0.3888889 0.9849624
vt 0.3333333 0.9849624
vt 0.4444444 0.981203
vt 0.4444444 0.9849624
vt 0.5 0.981203
vt 0.5 0.9849624
vt 0.5555556 0.981203
vt 0.5555556 0.9849624
vt 0.3333333 0.9774436
vt 0.3888889 0.9774436
vt 0.4444444 0.9774436
vt 0.5 0.9774436
vt 0.5555556 0.9774436
vt 0.4444444 0.9887218
vt 0.5 0.9887218
vt 0.5 0.9924812
vt 0.4444444 0.9924812
vt 0.5555556 0.9887218
vt 0.5555556 0.9924812
vt 0.3333333 0.9887218
vt 0.3888889 0.9887218
vt 0.3888889 0.9924812
vt 0.3333333 0.9924812

# Normal
vn 0 0 -1

# Mesh description
g Act-0-Forest_mesh_0290

# Faces
f 1/1/1 2/2/1 3/3/1 4/4/1
f 5/2/1 6/5/1 7/6/1 8/3/1
f 9/7/1 10/8/1 11/9/1 12/10/1
f 13/8/1 14/1/1 15/4/1 16/9/1
f 17/1/1 18/2/1 19/3/1 20/4/1
f 21/2/1 22/5/1 23/6/1 24/3/1
f 25/7/1 26/8/1 27/9/1 28/10/1
f 29/8/1 30/1/1 31/4/1 32/9/1
f 33/1/1 34/2/1 35/3/1 36/4/1
f 37/2/1 38/5/1 39/6/1 40/3/1
f 41/7/1 42/8/1 43/9/1 44/10/1
f 45/8/1 46/1/1 47/4/1 48/9/1
f 49/1/1 50/2/1 51/3/1 52/4/1
f 53/2/1 54/5/1 55/6/1 56/3/1
f 57/7/1 58/8/1 59/9/1 60/10/1
f 61/8/1 62/1/1 63/4/1 64/9/1
f 65/10/1 66/9/1 67/11/1 68/12/1
f 69/9/1 70/4/1 71/13/1 72/11/1
f 73/4/1 74/3/1 75/14/1 76/13/1
f 77/3/1 78/6/1 79/15/1 80/14/1
f 81/10/1 82/9/1 83/11/1 84/12/1
f 85/9/1 86/4/1 87/13/1 88/11/1
f 89/4/1 90/3/1 91/14/1 92/13/1
f 93/3/1 94/6/1 95/15/1 96/14/1
f 97/10/1 98/9/1 99/11/1 100/12/1
f 101/9/1 102/4/1 103/13/1 104/11/1
f 105/4/1 106/3/1 107/14/1 108/13/1
f 109/3/1 110/6/1 111/15/1 112/14/1
f 113/10/1 114/9/1 115/11/1 116/12/1
f 117/9/1 118/4/1 119/13/1 120/11/1
f 121/4/1 122/3/1 123/14/1 124/13/1
f 125/3/1 126/6/1 127/15/1 128/14/1
f 129/7/1 130/8/1 131/9/1 132/10/1
f 133/8/1 134/1/1 135/4/1 136/9/1
f 137/1/1 138/2/1 139/3/1 140/4/1
f 141/2/1 142/5/1 143/6/1 144/3/1
f 145/7/1 146/8/1 147/9/1 148/10/1
f 149/8/1 150/1/1 151/4/1 152/9/1
f 153/1/1 154/2/1 155/3/1 156/4/1
f 157/2/1 158/5/1 159/6/1 160/3/1
f 161/7/1 162/8/1 163/9/1 164/10/1
f 165/8/1 166/1/1 167/4/1 168/9/1
f 169/1/1 170/2/1 171/3/1 172/4/1
f 173/2/1 174/5/1 175/6/1 176/3/1
f 177/7/1 178/8/1 179/9/1 180/10/1
f 181/8/1 182/1/1 183/4/1 184/9/1
f 185/1/1 186/2/1 187/3/1 188/4/1
f 189/2/1 190/5/1 191/6/1 192/3/1
f 193/16/1 194/17/1 195/18/1 196/19/1
f 197/17/1 198/20/1 199/21/1 200/18/1
f 201/20/1 202/22/1 203/23/1 204/21/1
f 205/22/1 206/24/1 207/25/1 208/23/1
f 209/16/1 210/17/1 211/18/1 212/19/1
f 213/17/1 214/20/1 215/21/1 216/18/1
f 217/10/1 218/9/1 219/11/1 220/12/1
f 221/9/1 222/4/1 223/13/1 224/11/1
f 225/4/1 226/3/1 227/14/1 228/13/1
f 229/3/1 230/6/1 231/15/1 232/14/1
f 233/20/1 234/22/1 235/23/1 236/21/1
f 237/22/1 238/24/1 239/25/1 240/23/1
f 241/16/1 242/17/1 243/18/1 244/19/1
f 245/17/1 246/20/1 247/21/1 248/18/1
f 249/20/1 250/22/1 251/23/1 252/21/1
f 253/22/1 254/24/1 255/25/1 256/23/1
f 257/26/1 258/27/1 259/17/1 260/16/1
f 261/27/1 262/28/1 263/20/1 264/17/1
f 265/28/1 266/29/1 267/22/1 268/20/1
f 269/29/1 270/30/1 271/24/1 272/22/1
f 273/26/1 274/27/1 275/17/1 276/16/1
f 277/27/1 278/28/1 279/20/1 280/17/1
f 281/7/1 282/8/1 283/9/1 284/10/1
f 285/8/1 286/1/1 287/4/1 288/9/1
f 289/1/1 290/2/1 291/3/1 292/4/1
f 293/2/1 294/5/1 295/6/1 296/3/1
f 297/28/1 298/29/1 299/22/1 300/20/1
f 301/29/1 302/30/1 303/24/1 304/22/1
f 305/26/1 306/27/1 307/17/1 308/16/1
f 309/27/1 310/28/1 311/20/1 312/17/1
f 313/28/1 314/29/1 315/22/1 316/20/1
f 317/29/1 318/30/1 319/24/1 320/22/1
f 321/16/1 322/17/1 323/18/1 324/19/1
f 325/17/1 326/20/1 327/21/1 328/18/1
f 329/20/1 330/22/1 331/23/1 332/21/1
f 333/22/1 334/24/1 335/25/1 336/23/1
f 337/26/1 338/27/1 339/17/1 340/16/1
f 341/27/1 342/28/1 343/20/1 344/17/1
f 345/28/1 346/29/1 347/22/1 348/20/1
f 349/29/1 350/30/1 351/24/1 352/22/1
f 353/31/1 354/32/1 355/33/1 356/34/1
f 357/32/1 358/35/1 359/36/1 360/33/1
f 361/37/1 362/38/1 363/39/1 364/40/1
f 365/38/1 366/31/1 367/34/1 368/39/1
f 369/31/1 370/32/1 371/33/1 372/34/1
f 373/32/1 374/35/1 375/36/1 376/33/1
f 377/37/1 378/38/1 379/39/1 380/40/1
f 381/38/1 382/31/1 383/34/1 384/39/1
f 385/31/1 386/32/1 387/33/1 388/34/1
f 389/32/1 390/35/1 391/36/1 392/33/1
f 393/37/1 394/38/1 395/39/1 396/40/1
f 397/38/1 398/31/1 399/34/1 400/39/1
f 401/31/1 402/32/1 403/33/1 404/34/1
f 405/32/1 406/35/1 407/36/1 408/33/1
f 409/37/1 410/38/1 411/39/1 412/40/1
f 413/38/1 414/31/1 415/34/1 416/39/1

