# Tiled2Unity generated file. Do not modify by hand.
# Wavefront file for 'Act-0-Forest_mesh_0166.obj'

# Vertices (Count = 192)
v -4 -1 0
v -6 -1 0
v -6 1 0
v -4 1 0
v -6 -2 -0.01
v -8 -2 -0.01
v -8 0 -0.01
v -6 0 -0.01
v -8 -2 -0.01
v -10 -2 -0.01
v -10 0 -0.01
v -8 0 -0.01
v -10 -2 -0.01
v -12 -2 -0.01
v -12 0 -0.01
v -10 0 -0.01
v -12 -2 -0.01
v -14 -2 -0.01
v -14 0 -0.01
v -12 0 -0.01
v -14 -2 -0.01
v -16 -2 -0.01
v -16 0 -0.01
v -14 0 -0.01
v -4 -3 -0.02
v -6 -3 -0.02
v -6 -1 -0.02
v -4 -1 -0.02
v -6 -4 -0.03
v -8 -4 -0.03
v -8 -2 -0.03
v -6 -2 -0.03
v -8 -4 -0.03
v -10 -4 -0.03
v -10 -2 -0.03
v -8 -2 -0.03
v -10 -4 -0.03
v -12 -4 -0.03
v -12 -2 -0.03
v -10 -2 -0.03
v -12 -4 -0.03
v -14 -4 -0.03
v -14 -2 -0.03
v -12 -2 -0.03
v -14 -4 -0.03
v -16 -4 -0.03
v -16 -2 -0.03
v -14 -2 -0.03
v -4 -5 -0.04
v -6 -5 -0.04
v -6 -3 -0.04
v -4 -3 -0.04
v -6 -6 -0.05
v -8 -6 -0.05
v -8 -4 -0.05
v -6 -4 -0.05
v -8 -6 -0.05
v -10 -6 -0.05
v -10 -4 -0.05
v -8 -4 -0.05
v -10 -6 -0.05
v -12 -6 -0.05
v -12 -4 -0.05
v -10 -4 -0.05
v -12 -6 -0.05
v -14 -6 -0.05
v -14 -4 -0.05
v -12 -4 -0.05
v -14 -6 -0.05
v -16 -6 -0.05
v -16 -4 -0.05
v -14 -4 -0.05
v -4 -7 -0.06
v -6 -7 -0.06
v -6 -5 -0.06
v -4 -5 -0.06
v -6 -8 -0.07
v -8 -8 -0.07
v -8 -6 -0.07
v -6 -6 -0.07
v -8 -8 -0.07
v -10 -8 -0.07
v -10 -6 -0.07
v -8 -6 -0.07
v -10 -8 -0.07
v -12 -8 -0.07
v -12 -6 -0.07
v -10 -6 -0.07
v -12 -8 -0.07
v -14 -8 -0.07
v -14 -6 -0.07
v -12 -6 -0.07
v -14 -8 -0.07
v -16 -8 -0.07
v -16 -6 -0.07
v -14 -6 -0.07
v -4 -9 -0.08
v -6 -9 -0.08
v -6 -7 -0.08
v -4 -7 -0.08
v -6 -10 -0.09
v -8 -10 -0.09
v -8 -8 -0.09
v -6 -8 -0.09
v -8 -10 -0.09
v -10 -10 -0.09
v -10 -8 -0.09
v -8 -8 -0.09
v -10 -10 -0.09
v -12 -10 -0.09
v -12 -8 -0.09
v -10 -8 -0.09
v -12 -10 -0.09
v -14 -10 -0.09
v -14 -8 -0.09
v -12 -8 -0.09
v -14 -10 -0.09
v -16 -10 -0.09
v -16 -8 -0.09
v -14 -8 -0.09
v -4 -11 -0.1
v -6 -11 -0.1
v -6 -9 -0.1
v -4 -9 -0.1
v -6 -12 -0.11
v -8 -12 -0.11
v -8 -10 -0.11
v -6 -10 -0.11
v -8 -12 -0.11
v -10 -12 -0.11
v -10 -10 -0.11
v -8 -10 -0.11
v -10 -12 -0.11
v -12 -12 -0.11
v -12 -10 -0.11
v -10 -10 -0.11
v -12 -12 -0.11
v -14 -12 -0.11
v -14 -10 -0.11
v -12 -10 -0.11
v -14 -12 -0.11
v -16 -12 -0.11
v -16 -10 -0.11
v -14 -10 -0.11
v -4 -13 -0.12
v -6 -13 -0.12
v -6 -11 -0.12
v -4 -11 -0.12
v -6 -14 -0.13
v -8 -14 -0.13
v -8 -12 -0.13
v -6 -12 -0.13
v -8 -14 -0.13
v -10 -14 -0.13
v -10 -12 -0.13
v -8 -12 -0.13
v -10 -14 -0.13
v -12 -14 -0.13
v -12 -12 -0.13
v -10 -12 -0.13
v -12 -14 -0.13
v -14 -14 -0.13
v -14 -12 -0.13
v -12 -12 -0.13
v -14 -14 -0.13
v -16 -14 -0.13
v -16 -12 -0.13
v -14 -12 -0.13
v -4 -15 -0.14
v -6 -15 -0.14
v -6 -13 -0.14
v -4 -13 -0.14
v -6 -16 -0.15
v -8 -16 -0.15
v -8 -14 -0.15
v -6 -14 -0.15
v -8 -16 -0.15
v -10 -16 -0.15
v -10 -14 -0.15
v -8 -14 -0.15
v -10 -16 -0.15
v -12 -16 -0.15
v -12 -14 -0.15
v -10 -14 -0.15
v -12 -16 -0.15
v -14 -16 -0.15
v -14 -14 -0.15
v -12 -14 -0.15
v -14 -16 -0.15
v -16 -16 -0.15
v -16 -14 -0.15
v -14 -14 -0.15

# Texture cooridinates (Count = 10)
vt 0.078125 0.8333333
vt 0.09375 0.8333333
vt 0.09375 0.8541667
vt 0.078125 0.8541667
vt 0.09375 0.08333331
vt 0.109375 0.08333331
vt 0.109375 0.1041667
vt 0.09375 0.1041667
vt 0.109375 0.8333333
vt 0.109375 0.8541667

# Normal
vn 0 0 -1

# Mesh description
g Act-0-Forest_mesh_0166

# Faces
f 1/1/1 2/2/1 3/3/1 4/4/1
f 5/5/1 6/6/1 7/7/1 8/8/1
f 9/5/1 10/6/1 11/7/1 12/8/1
f 13/5/1 14/6/1 15/7/1 16/8/1
f 17/5/1 18/6/1 19/7/1 20/8/1
f 21/2/1 22/9/1 23/10/1 24/3/1
f 25/1/1 26/2/1 27/3/1 28/4/1
f 29/5/1 30/6/1 31/7/1 32/8/1
f 33/5/1 34/6/1 35/7/1 36/8/1
f 37/5/1 38/6/1 39/7/1 40/8/1
f 41/5/1 42/6/1 43/7/1 44/8/1
f 45/2/1 46/9/1 47/10/1 48/3/1
f 49/1/1 50/2/1 51/3/1 52/4/1
f 53/5/1 54/6/1 55/7/1 56/8/1
f 57/5/1 58/6/1 59/7/1 60/8/1
f 61/5/1 62/6/1 63/7/1 64/8/1
f 65/5/1 66/6/1 67/7/1 68/8/1
f 69/2/1 70/9/1 71/10/1 72/3/1
f 73/1/1 74/2/1 75/3/1 76/4/1
f 77/2/1 78/9/1 79/10/1 80/3/1
f 81/2/1 82/9/1 83/10/1 84/3/1
f 85/2/1 86/9/1 87/10/1 88/3/1
f 89/2/1 90/9/1 91/10/1 92/3/1
f 93/2/1 94/9/1 95/10/1 96/3/1
f 97/1/1 98/2/1 99/3/1 100/4/1
f 101/2/1 102/9/1 103/10/1 104/3/1
f 105/2/1 106/9/1 107/10/1 108/3/1
f 109/2/1 110/9/1 111/10/1 112/3/1
f 113/2/1 114/9/1 115/10/1 116/3/1
f 117/2/1 118/9/1 119/10/1 120/3/1
f 121/1/1 122/2/1 123/3/1 124/4/1
f 125/2/1 126/9/1 127/10/1 128/3/1
f 129/2/1 130/9/1 131/10/1 132/3/1
f 133/2/1 134/9/1 135/10/1 136/3/1
f 137/2/1 138/9/1 139/10/1 140/3/1
f 141/2/1 142/9/1 143/10/1 144/3/1
f 145/1/1 146/2/1 147/3/1 148/4/1
f 149/2/1 150/9/1 151/10/1 152/3/1
f 153/2/1 154/9/1 155/10/1 156/3/1
f 157/2/1 158/9/1 159/10/1 160/3/1
f 161/2/1 162/9/1 163/10/1 164/3/1
f 165/2/1 166/9/1 167/10/1 168/3/1
f 169/1/1 170/2/1 171/3/1 172/4/1
f 173/2/1 174/9/1 175/10/1 176/3/1
f 177/2/1 178/9/1 179/10/1 180/3/1
f 181/2/1 182/9/1 183/10/1 184/3/1
f 185/2/1 186/9/1 187/10/1 188/3/1
f 189/2/1 190/9/1 191/10/1 192/3/1

