# Tiled2Unity generated file. Do not modify by hand.
# Wavefront file for 'Act-0-Forest_mesh_0343.obj'

# Vertices (Count = 16)
v -12 -12 -0.12
v -13 -12 -0.12
v -13 -11 -0.12
v -12 -11 -0.12
v -13 -12 -0.12
v -14 -12 -0.12
v -14 -11 -0.12
v -13 -11 -0.12
v -12 -13 -0.13
v -13 -13 -0.13
v -13 -12 -0.13
v -12 -12 -0.13
v -13 -13 -0.13
v -14 -13 -0.13
v -14 -12 -0.13
v -13 -12 -0.13

# Texture cooridinates (Count = 9)
vt 0.3333333 0.9360902
vt 0.3888889 0.9360902
vt 0.3888889 0.9398496
vt 0.3333333 0.9398496
vt 0.4444444 0.9360902
vt 0.4444444 0.9398496
vt 0.3333333 0.9323308
vt 0.3888889 0.9323308
vt 0.4444444 0.9323308

# Normal
vn 0 0 -1

# Mesh description
g Act-0-Forest_mesh_0343

# Faces
f 1/1/1 2/2/1 3/3/1 4/4/1
f 5/2/1 6/5/1 7/6/1 8/3/1
f 9/7/1 10/8/1 11/2/1 12/1/1
f 13/8/1 14/9/1 15/5/1 16/2/1

