# Tiled2Unity generated file. Do not modify by hand.
# Wavefront file for 'Act-0-Forest_mesh_0225.obj'

# Vertices (Count = 16)
v 0 -10 -0.1
v -1 -10 -0.1
v -1 -9 -0.1
v 0 -9 -0.1
v -1 -10 -0.1
v -2 -10 -0.1
v -2 -9 -0.1
v -1 -9 -0.1
v 0 -11 -0.11
v -1 -11 -0.11
v -1 -10 -0.11
v 0 -10 -0.11
v -1 -11 -0.11
v -2 -11 -0.11
v -2 -10 -0.11
v -1 -10 -0.11

# Texture cooridinates (Count = 9)
vt 0.2222222 0.9586466
vt 0.2777778 0.9586466
vt 0.2777778 0.962406
vt 0.2222222 0.962406
vt 0.3333333 0.9586466
vt 0.3333333 0.962406
vt 0.2222222 0.9548872
vt 0.2777778 0.9548872
vt 0.3333333 0.9548872

# Normal
vn 0 0 -1

# Mesh description
g Act-0-Forest_mesh_0225

# Faces
f 1/1/1 2/2/1 3/3/1 4/4/1
f 5/2/1 6/5/1 7/6/1 8/3/1
f 9/7/1 10/8/1 11/2/1 12/1/1
f 13/8/1 14/9/1 15/5/1 16/2/1

