# Tiled2Unity generated file. Do not modify by hand.
# Wavefront file for 'Act-0-Forest_mesh_0155.obj'

# Vertices (Count = 12)
v 0 -11 -0.1
v -2 -11 -0.1
v -2 -9 -0.1
v 0 -9 -0.1
v 0 -13 -0.12
v -2 -13 -0.12
v -2 -11 -0.12
v 0 -11 -0.12
v 0 -15 -0.14
v -2 -15 -0.14
v -2 -13 -0.14
v 0 -13 -0.14

# Texture cooridinates (Count = 6)
vt 0.109375 0.8541667
vt 0.125 0.8541667
vt 0.125 0.875
vt 0.109375 0.875
vt 0.109375 0.8333333
vt 0.125 0.8333333

# Normal
vn 0 0 -1

# Mesh description
g Act-0-Forest_mesh_0155

# Faces
f 1/1/1 2/2/1 3/3/1 4/4/1
f 5/5/1 6/6/1 7/2/1 8/1/1
f 9/5/1 10/6/1 11/2/1 12/1/1

