# Tiled2Unity generated file. Do not modify by hand.
# Wavefront file for 'Act-0-Forest_mesh_0286.obj'

# Vertices (Count = 256)
v 0 -1 -0.01
v -1 -1 -0.01
v -1 0 -0.01
v 0 0 -0.01
v -1 -1 -0.01
v -2 -1 -0.01
v -2 0 -0.01
v -1 0 -0.01
v -2 -1 -0.01
v -3 -1 -0.01
v -3 0 -0.01
v -2 0 -0.01
v -3 -1 -0.01
v -4 -1 -0.01
v -4 0 -0.01
v -3 0 -0.01
v -4 -1 -0.01
v -5 -1 -0.01
v -5 0 -0.01
v -4 0 -0.01
v -5 -1 -0.01
v -6 -1 -0.01
v -6 0 -0.01
v -5 0 -0.01
v -6 -1 -0.01
v -7 -1 -0.01
v -7 0 -0.01
v -6 0 -0.01
v -7 -1 -0.01
v -8 -1 -0.01
v -8 0 -0.01
v -7 0 -0.01
v -8 -1 -0.01
v -9 -1 -0.01
v -9 0 -0.01
v -8 0 -0.01
v -9 -1 -0.01
v -10 -1 -0.01
v -10 0 -0.01
v -9 0 -0.01
v -10 -1 -0.01
v -11 -1 -0.01
v -11 0 -0.01
v -10 0 -0.01
v -11 -1 -0.01
v -12 -1 -0.01
v -12 0 -0.01
v -11 0 -0.01
v -12 -1 -0.01
v -13 -1 -0.01
v -13 0 -0.01
v -12 0 -0.01
v -13 -1 -0.01
v -14 -1 -0.01
v -14 0 -0.01
v -13 0 -0.01
v -14 -1 -0.01
v -15 -1 -0.01
v -15 0 -0.01
v -14 0 -0.01
v -15 -1 -0.01
v -16 -1 -0.01
v -16 0 -0.01
v -15 0 -0.01
v -2 -2 -0.02
v -3 -2 -0.02
v -3 -1 -0.02
v -2 -1 -0.02
v -3 -2 -0.02
v -4 -2 -0.02
v -4 -1 -0.02
v -3 -1 -0.02
v -4 -2 -0.02
v -5 -2 -0.02
v -5 -1 -0.02
v -4 -1 -0.02
v -5 -2 -0.02
v -6 -2 -0.02
v -6 -1 -0.02
v -5 -1 -0.02
v -6 -2 -0.02
v -7 -2 -0.02
v -7 -1 -0.02
v -6 -1 -0.02
v -7 -2 -0.02
v -8 -2 -0.02
v -8 -1 -0.02
v -7 -1 -0.02
v -8 -2 -0.02
v -9 -2 -0.02
v -9 -1 -0.02
v -8 -1 -0.02
v -9 -2 -0.02
v -10 -2 -0.02
v -10 -1 -0.02
v -9 -1 -0.02
v -10 -2 -0.02
v -11 -2 -0.02
v -11 -1 -0.02
v -10 -1 -0.02
v -11 -2 -0.02
v -12 -2 -0.02
v -12 -1 -0.02
v -11 -1 -0.02
v -12 -2 -0.02
v -13 -2 -0.02
v -13 -1 -0.02
v -12 -1 -0.02
v -13 -2 -0.02
v -14 -2 -0.02
v -14 -1 -0.02
v -13 -1 -0.02
v -14 -2 -0.02
v -15 -2 -0.02
v -15 -1 -0.02
v -14 -1 -0.02
v -15 -2 -0.02
v -16 -2 -0.02
v -16 -1 -0.02
v -15 -1 -0.02
v -2 -3 -0.03
v -3 -3 -0.03
v -3 -2 -0.03
v -2 -2 -0.03
v -3 -3 -0.03
v -4 -3 -0.03
v -4 -2 -0.03
v -3 -2 -0.03
v -4 -3 -0.03
v -5 -3 -0.03
v -5 -2 -0.03
v -4 -2 -0.03
v -5 -3 -0.03
v -6 -3 -0.03
v -6 -2 -0.03
v -5 -2 -0.03
v -6 -3 -0.03
v -7 -3 -0.03
v -7 -2 -0.03
v -6 -2 -0.03
v -7 -3 -0.03
v -8 -3 -0.03
v -8 -2 -0.03
v -7 -2 -0.03
v -8 -3 -0.03
v -9 -3 -0.03
v -9 -2 -0.03
v -8 -2 -0.03
v -9 -3 -0.03
v -10 -3 -0.03
v -10 -2 -0.03
v -9 -2 -0.03
v -10 -3 -0.03
v -11 -3 -0.03
v -11 -2 -0.03
v -10 -2 -0.03
v -11 -3 -0.03
v -12 -3 -0.03
v -12 -2 -0.03
v -11 -2 -0.03
v -12 -3 -0.03
v -13 -3 -0.03
v -13 -2 -0.03
v -12 -2 -0.03
v -13 -3 -0.03
v -14 -3 -0.03
v -14 -2 -0.03
v -13 -2 -0.03
v -14 -3 -0.03
v -15 -3 -0.03
v -15 -2 -0.03
v -14 -2 -0.03
v -15 -3 -0.03
v -16 -3 -0.03
v -16 -2 -0.03
v -15 -2 -0.03
v -8 -4 -0.04
v -9 -4 -0.04
v -9 -3 -0.04
v -8 -3 -0.04
v -9 -4 -0.04
v -10 -4 -0.04
v -10 -3 -0.04
v -9 -3 -0.04
v -10 -4 -0.04
v -11 -4 -0.04
v -11 -3 -0.04
v -10 -3 -0.04
v -11 -4 -0.04
v -12 -4 -0.04
v -12 -3 -0.04
v -11 -3 -0.04
v -12 -4 -0.04
v -13 -4 -0.04
v -13 -3 -0.04
v -12 -3 -0.04
v -13 -4 -0.04
v -14 -4 -0.04
v -14 -3 -0.04
v -13 -3 -0.04
v -14 -4 -0.04
v -15 -4 -0.04
v -15 -3 -0.04
v -14 -3 -0.04
v -15 -4 -0.04
v -16 -4 -0.04
v -16 -3 -0.04
v -15 -3 -0.04
v -8 -5 -0.05
v -9 -5 -0.05
v -9 -4 -0.05
v -8 -4 -0.05
v -9 -5 -0.05
v -10 -5 -0.05
v -10 -4 -0.05
v -9 -4 -0.05
v -10 -5 -0.05
v -11 -5 -0.05
v -11 -4 -0.05
v -10 -4 -0.05
v -11 -5 -0.05
v -12 -5 -0.05
v -12 -4 -0.05
v -11 -4 -0.05
v -12 -5 -0.05
v -13 -5 -0.05
v -13 -4 -0.05
v -12 -4 -0.05
v -13 -5 -0.05
v -14 -5 -0.05
v -14 -4 -0.05
v -13 -4 -0.05
v -14 -5 -0.05
v -15 -5 -0.05
v -15 -4 -0.05
v -14 -4 -0.05
v -15 -5 -0.05
v -16 -5 -0.05
v -16 -4 -0.05
v -15 -4 -0.05
v -6 -16 -0.16
v -7 -16 -0.16
v -7 -15 -0.16
v -6 -15 -0.16
v -7 -16 -0.16
v -8 -16 -0.16
v -8 -15 -0.16
v -7 -15 -0.16
v -8 -16 -0.16
v -9 -16 -0.16
v -9 -15 -0.16
v -8 -15 -0.16
v -9 -16 -0.16
v -10 -16 -0.16
v -10 -15 -0.16
v -9 -15 -0.16

# Texture cooridinates (Count = 40)
vt 0.3333333 0.9774436
vt 0.3888889 0.9774436
vt 0.3888889 0.981203
vt 0.3333333 0.981203
vt 0.4444444 0.9774436
vt 0.4444444 0.981203
vt 0.3333333 0.962406
vt 0.3888889 0.962406
vt 0.3888889 0.9661654
vt 0.3333333 0.9661654
vt 0.4444444 0.962406
vt 0.4444444 0.9661654
vt 0.5 0.962406
vt 0.5 0.9661654
vt 0.5555556 0.962406
vt 0.5555556 0.9661654
vt 0.3888889 0.9849624
vt 0.3333333 0.9849624
vt 0.4444444 0.9849624
vt 0.5 0.981203
vt 0.5 0.9849624
vt 0.5555556 0.981203
vt 0.5555556 0.9849624
vt 0.3888889 0.9699248
vt 0.3333333 0.9699248
vt 0.4444444 0.9699248
vt 0.5 0.9699248
vt 0.5555556 0.9699248
vt 0.5 0.9774436
vt 0.5555556 0.9774436
vt 0.3333333 0.9887218
vt 0.3888889 0.9887218
vt 0.3888889 0.9924812
vt 0.3333333 0.9924812
vt 0.4444444 0.9887218
vt 0.4444444 0.9924812
vt 0.5 0.9887218
vt 0.5 0.9924812
vt 0.5555556 0.9887218
vt 0.5555556 0.9924812

# Normal
vn 0 0 -1

# Mesh description
g Act-0-Forest_mesh_0286

# Faces
f 1/1/1 2/2/1 3/3/1 4/4/1
f 5/2/1 6/5/1 7/6/1 8/3/1
f 9/7/1 10/8/1 11/9/1 12/10/1
f 13/8/1 14/11/1 15/12/1 16/9/1
f 17/11/1 18/13/1 19/14/1 20/12/1
f 21/13/1 22/15/1 23/16/1 24/14/1
f 25/7/1 26/8/1 27/9/1 28/10/1
f 29/8/1 30/11/1 31/12/1 32/9/1
f 33/11/1 34/13/1 35/14/1 36/12/1
f 37/13/1 38/15/1 39/16/1 40/14/1
f 41/7/1 42/8/1 43/9/1 44/10/1
f 45/8/1 46/11/1 47/12/1 48/9/1
f 49/11/1 50/13/1 51/14/1 52/12/1
f 53/13/1 54/15/1 55/16/1 56/14/1
f 57/7/1 58/8/1 59/9/1 60/10/1
f 61/8/1 62/11/1 63/12/1 64/9/1
f 65/4/1 66/3/1 67/17/1 68/18/1
f 69/3/1 70/6/1 71/19/1 72/17/1
f 73/6/1 74/20/1 75/21/1 76/19/1
f 77/20/1 78/22/1 79/23/1 80/21/1
f 81/4/1 82/3/1 83/17/1 84/18/1
f 85/3/1 86/6/1 87/19/1 88/17/1
f 89/10/1 90/9/1 91/24/1 92/25/1
f 93/9/1 94/12/1 95/26/1 96/24/1
f 97/12/1 98/14/1 99/27/1 100/26/1
f 101/14/1 102/16/1 103/28/1 104/27/1
f 105/10/1 106/9/1 107/24/1 108/25/1
f 109/9/1 110/12/1 111/26/1 112/24/1
f 113/12/1 114/14/1 115/27/1 116/26/1
f 117/14/1 118/16/1 119/28/1 120/27/1
f 121/1/1 122/2/1 123/3/1 124/4/1
f 125/2/1 126/5/1 127/6/1 128/3/1
f 129/5/1 130/29/1 131/20/1 132/6/1
f 133/29/1 134/30/1 135/22/1 136/20/1
f 137/1/1 138/2/1 139/3/1 140/4/1
f 141/2/1 142/5/1 143/6/1 144/3/1
f 145/7/1 146/8/1 147/9/1 148/10/1
f 149/8/1 150/11/1 151/12/1 152/9/1
f 153/11/1 154/13/1 155/14/1 156/12/1
f 157/13/1 158/15/1 159/16/1 160/14/1
f 161/7/1 162/8/1 163/9/1 164/10/1
f 165/8/1 166/11/1 167/12/1 168/9/1
f 169/11/1 170/13/1 171/14/1 172/12/1
f 173/13/1 174/15/1 175/16/1 176/14/1
f 177/4/1 178/3/1 179/17/1 180/18/1
f 181/3/1 182/6/1 183/19/1 184/17/1
f 185/6/1 186/20/1 187/21/1 188/19/1
f 189/20/1 190/22/1 191/23/1 192/21/1
f 193/4/1 194/3/1 195/17/1 196/18/1
f 197/3/1 198/6/1 199/19/1 200/17/1
f 201/6/1 202/20/1 203/21/1 204/19/1
f 205/20/1 206/22/1 207/23/1 208/21/1
f 209/1/1 210/2/1 211/3/1 212/4/1
f 213/2/1 214/5/1 215/6/1 216/3/1
f 217/5/1 218/29/1 219/20/1 220/6/1
f 221/29/1 222/30/1 223/22/1 224/20/1
f 225/1/1 226/2/1 227/3/1 228/4/1
f 229/2/1 230/5/1 231/6/1 232/3/1
f 233/5/1 234/29/1 235/20/1 236/6/1
f 237/29/1 238/30/1 239/22/1 240/20/1
f 241/31/1 242/32/1 243/33/1 244/34/1
f 245/32/1 246/35/1 247/36/1 248/33/1
f 249/35/1 250/37/1 251/38/1 252/36/1
f 253/37/1 254/39/1 255/40/1 256/38/1

