# Tiled2Unity generated file. Do not modify by hand.
# Wavefront file for 'Act-0-Forest_mesh_0298.obj'

# Vertices (Count = 656)
v -14 -4 -0.04
v -15 -4 -0.04
v -15 -3 -0.04
v -14 -3 -0.04
v -15 -4 -0.04
v -16 -4 -0.04
v -16 -3 -0.04
v -15 -3 -0.04
v -14 -5 -0.05
v -15 -5 -0.05
v -15 -4 -0.05
v -14 -4 -0.05
v -15 -5 -0.05
v -16 -5 -0.05
v -16 -4 -0.05
v -15 -4 -0.05
v 0 -6 -0.06
v -1 -6 -0.06
v -1 -5 -0.06
v 0 -5 -0.06
v -1 -6 -0.06
v -2 -6 -0.06
v -2 -5 -0.06
v -1 -5 -0.06
v -2 -6 -0.06
v -3 -6 -0.06
v -3 -5 -0.06
v -2 -5 -0.06
v -3 -6 -0.06
v -4 -6 -0.06
v -4 -5 -0.06
v -3 -5 -0.06
v -12 -6 -0.06
v -13 -6 -0.06
v -13 -5 -0.06
v -12 -5 -0.06
v -13 -6 -0.06
v -14 -6 -0.06
v -14 -5 -0.06
v -13 -5 -0.06
v -14 -6 -0.06
v -15 -6 -0.06
v -15 -5 -0.06
v -14 -5 -0.06
v -15 -6 -0.06
v -16 -6 -0.06
v -16 -5 -0.06
v -15 -5 -0.06
v 0 -7 -0.07
v -1 -7 -0.07
v -1 -6 -0.07
v 0 -6 -0.07
v -1 -7 -0.07
v -2 -7 -0.07
v -2 -6 -0.07
v -1 -6 -0.07
v -2 -7 -0.07
v -3 -7 -0.07
v -3 -6 -0.07
v -2 -6 -0.07
v -3 -7 -0.07
v -4 -7 -0.07
v -4 -6 -0.07
v -3 -6 -0.07
v -12 -7 -0.07
v -13 -7 -0.07
v -13 -6 -0.07
v -12 -6 -0.07
v -13 -7 -0.07
v -14 -7 -0.07
v -14 -6 -0.07
v -13 -6 -0.07
v -14 -7 -0.07
v -15 -7 -0.07
v -15 -6 -0.07
v -14 -6 -0.07
v -15 -7 -0.07
v -16 -7 -0.07
v -16 -6 -0.07
v -15 -6 -0.07
v 0 -8 -0.08
v -1 -8 -0.08
v -1 -7 -0.08
v 0 -7 -0.08
v -1 -8 -0.08
v -2 -8 -0.08
v -2 -7 -0.08
v -1 -7 -0.08
v -2 -8 -0.08
v -3 -8 -0.08
v -3 -7 -0.08
v -2 -7 -0.08
v -3 -8 -0.08
v -4 -8 -0.08
v -4 -7 -0.08
v -3 -7 -0.08
v -4 -8 -0.08
v -5 -8 -0.08
v -5 -7 -0.08
v -4 -7 -0.08
v -5 -8 -0.08
v -6 -8 -0.08
v -6 -7 -0.08
v -5 -7 -0.08
v -6 -8 -0.08
v -7 -8 -0.08
v -7 -7 -0.08
v -6 -7 -0.08
v -7 -8 -0.08
v -8 -8 -0.08
v -8 -7 -0.08
v -7 -7 -0.08
v -8 -8 -0.08
v -9 -8 -0.08
v -9 -7 -0.08
v -8 -7 -0.08
v -9 -8 -0.08
v -10 -8 -0.08
v -10 -7 -0.08
v -9 -7 -0.08
v -10 -8 -0.08
v -11 -8 -0.08
v -11 -7 -0.08
v -10 -7 -0.08
v -11 -8 -0.08
v -12 -8 -0.08
v -12 -7 -0.08
v -11 -7 -0.08
v -12 -8 -0.08
v -13 -8 -0.08
v -13 -7 -0.08
v -12 -7 -0.08
v -13 -8 -0.08
v -14 -8 -0.08
v -14 -7 -0.08
v -13 -7 -0.08
v -14 -8 -0.08
v -15 -8 -0.08
v -15 -7 -0.08
v -14 -7 -0.08
v -15 -8 -0.08
v -16 -8 -0.08
v -16 -7 -0.08
v -15 -7 -0.08
v 0 -9 -0.09
v -1 -9 -0.09
v -1 -8 -0.09
v 0 -8 -0.09
v -1 -9 -0.09
v -2 -9 -0.09
v -2 -8 -0.09
v -1 -8 -0.09
v -2 -9 -0.09
v -3 -9 -0.09
v -3 -8 -0.09
v -2 -8 -0.09
v -3 -9 -0.09
v -4 -9 -0.09
v -4 -8 -0.09
v -3 -8 -0.09
v -4 -9 -0.09
v -5 -9 -0.09
v -5 -8 -0.09
v -4 -8 -0.09
v -5 -9 -0.09
v -6 -9 -0.09
v -6 -8 -0.09
v -5 -8 -0.09
v -6 -9 -0.09
v -7 -9 -0.09
v -7 -8 -0.09
v -6 -8 -0.09
v -7 -9 -0.09
v -8 -9 -0.09
v -8 -8 -0.09
v -7 -8 -0.09
v -8 -9 -0.09
v -9 -9 -0.09
v -9 -8 -0.09
v -8 -8 -0.09
v -9 -9 -0.09
v -10 -9 -0.09
v -10 -8 -0.09
v -9 -8 -0.09
v -10 -9 -0.09
v -11 -9 -0.09
v -11 -8 -0.09
v -10 -8 -0.09
v -11 -9 -0.09
v -12 -9 -0.09
v -12 -8 -0.09
v -11 -8 -0.09
v -12 -9 -0.09
v -13 -9 -0.09
v -13 -8 -0.09
v -12 -8 -0.09
v -13 -9 -0.09
v -14 -9 -0.09
v -14 -8 -0.09
v -13 -8 -0.09
v -14 -9 -0.09
v -15 -9 -0.09
v -15 -8 -0.09
v -14 -8 -0.09
v -15 -9 -0.09
v -16 -9 -0.09
v -16 -8 -0.09
v -15 -8 -0.09
v 0 -10 -0.1
v -1 -10 -0.1
v -1 -9 -0.1
v 0 -9 -0.1
v -1 -10 -0.1
v -2 -10 -0.1
v -2 -9 -0.1
v -1 -9 -0.1
v -2 -10 -0.1
v -3 -10 -0.1
v -3 -9 -0.1
v -2 -9 -0.1
v -3 -10 -0.1
v -4 -10 -0.1
v -4 -9 -0.1
v -3 -9 -0.1
v -4 -10 -0.1
v -5 -10 -0.1
v -5 -9 -0.1
v -4 -9 -0.1
v -5 -10 -0.1
v -6 -10 -0.1
v -6 -9 -0.1
v -5 -9 -0.1
v -6 -10 -0.1
v -7 -10 -0.1
v -7 -9 -0.1
v -6 -9 -0.1
v -7 -10 -0.1
v -8 -10 -0.1
v -8 -9 -0.1
v -7 -9 -0.1
v -8 -10 -0.1
v -9 -10 -0.1
v -9 -9 -0.1
v -8 -9 -0.1
v -9 -10 -0.1
v -10 -10 -0.1
v -10 -9 -0.1
v -9 -9 -0.1
v -10 -10 -0.1
v -11 -10 -0.1
v -11 -9 -0.1
v -10 -9 -0.1
v -11 -10 -0.1
v -12 -10 -0.1
v -12 -9 -0.1
v -11 -9 -0.1
v -12 -10 -0.1
v -13 -10 -0.1
v -13 -9 -0.1
v -12 -9 -0.1
v -13 -10 -0.1
v -14 -10 -0.1
v -14 -9 -0.1
v -13 -9 -0.1
v -14 -10 -0.1
v -15 -10 -0.1
v -15 -9 -0.1
v -14 -9 -0.1
v -15 -10 -0.1
v -16 -10 -0.1
v -16 -9 -0.1
v -15 -9 -0.1
v 0 -11 -0.11
v -1 -11 -0.11
v -1 -10 -0.11
v 0 -10 -0.11
v -1 -11 -0.11
v -2 -11 -0.11
v -2 -10 -0.11
v -1 -10 -0.11
v -2 -11 -0.11
v -3 -11 -0.11
v -3 -10 -0.11
v -2 -10 -0.11
v -3 -11 -0.11
v -4 -11 -0.11
v -4 -10 -0.11
v -3 -10 -0.11
v -4 -11 -0.11
v -5 -11 -0.11
v -5 -10 -0.11
v -4 -10 -0.11
v -5 -11 -0.11
v -6 -11 -0.11
v -6 -10 -0.11
v -5 -10 -0.11
v -6 -11 -0.11
v -7 -11 -0.11
v -7 -10 -0.11
v -6 -10 -0.11
v -7 -11 -0.11
v -8 -11 -0.11
v -8 -10 -0.11
v -7 -10 -0.11
v -8 -11 -0.11
v -9 -11 -0.11
v -9 -10 -0.11
v -8 -10 -0.11
v -9 -11 -0.11
v -10 -11 -0.11
v -10 -10 -0.11
v -9 -10 -0.11
v -10 -11 -0.11
v -11 -11 -0.11
v -11 -10 -0.11
v -10 -10 -0.11
v -11 -11 -0.11
v -12 -11 -0.11
v -12 -10 -0.11
v -11 -10 -0.11
v -12 -11 -0.11
v -13 -11 -0.11
v -13 -10 -0.11
v -12 -10 -0.11
v -13 -11 -0.11
v -14 -11 -0.11
v -14 -10 -0.11
v -13 -10 -0.11
v -14 -11 -0.11
v -15 -11 -0.11
v -15 -10 -0.11
v -14 -10 -0.11
v -15 -11 -0.11
v -16 -11 -0.11
v -16 -10 -0.11
v -15 -10 -0.11
v 0 -12 -0.12
v -1 -12 -0.12
v -1 -11 -0.12
v 0 -11 -0.12
v -1 -12 -0.12
v -2 -12 -0.12
v -2 -11 -0.12
v -1 -11 -0.12
v -2 -12 -0.12
v -3 -12 -0.12
v -3 -11 -0.12
v -2 -11 -0.12
v -3 -12 -0.12
v -4 -12 -0.12
v -4 -11 -0.12
v -3 -11 -0.12
v -4 -12 -0.12
v -5 -12 -0.12
v -5 -11 -0.12
v -4 -11 -0.12
v -5 -12 -0.12
v -6 -12 -0.12
v -6 -11 -0.12
v -5 -11 -0.12
v -6 -12 -0.12
v -7 -12 -0.12
v -7 -11 -0.12
v -6 -11 -0.12
v -7 -12 -0.12
v -8 -12 -0.12
v -8 -11 -0.12
v -7 -11 -0.12
v -8 -12 -0.12
v -9 -12 -0.12
v -9 -11 -0.12
v -8 -11 -0.12
v -9 -12 -0.12
v -10 -12 -0.12
v -10 -11 -0.12
v -9 -11 -0.12
v -10 -12 -0.12
v -11 -12 -0.12
v -11 -11 -0.12
v -10 -11 -0.12
v -11 -12 -0.12
v -12 -12 -0.12
v -12 -11 -0.12
v -11 -11 -0.12
v -12 -12 -0.12
v -13 -12 -0.12
v -13 -11 -0.12
v -12 -11 -0.12
v -13 -12 -0.12
v -14 -12 -0.12
v -14 -11 -0.12
v -13 -11 -0.12
v -14 -12 -0.12
v -15 -12 -0.12
v -15 -11 -0.12
v -14 -11 -0.12
v -15 -12 -0.12
v -16 -12 -0.12
v -16 -11 -0.12
v -15 -11 -0.12
v 0 -13 -0.13
v -1 -13 -0.13
v -1 -12 -0.13
v 0 -12 -0.13
v -1 -13 -0.13
v -2 -13 -0.13
v -2 -12 -0.13
v -1 -12 -0.13
v -2 -13 -0.13
v -3 -13 -0.13
v -3 -12 -0.13
v -2 -12 -0.13
v -3 -13 -0.13
v -4 -13 -0.13
v -4 -12 -0.13
v -3 -12 -0.13
v -4 -13 -0.13
v -5 -13 -0.13
v -5 -12 -0.13
v -4 -12 -0.13
v -5 -13 -0.13
v -6 -13 -0.13
v -6 -12 -0.13
v -5 -12 -0.13
v -6 -13 -0.13
v -7 -13 -0.13
v -7 -12 -0.13
v -6 -12 -0.13
v -7 -13 -0.13
v -8 -13 -0.13
v -8 -12 -0.13
v -7 -12 -0.13
v -8 -13 -0.13
v -9 -13 -0.13
v -9 -12 -0.13
v -8 -12 -0.13
v -9 -13 -0.13
v -10 -13 -0.13
v -10 -12 -0.13
v -9 -12 -0.13
v -10 -13 -0.13
v -11 -13 -0.13
v -11 -12 -0.13
v -10 -12 -0.13
v -11 -13 -0.13
v -12 -13 -0.13
v -12 -12 -0.13
v -11 -12 -0.13
v -12 -13 -0.13
v -13 -13 -0.13
v -13 -12 -0.13
v -12 -12 -0.13
v -13 -13 -0.13
v -14 -13 -0.13
v -14 -12 -0.13
v -13 -12 -0.13
v -14 -13 -0.13
v -15 -13 -0.13
v -15 -12 -0.13
v -14 -12 -0.13
v -15 -13 -0.13
v -16 -13 -0.13
v -16 -12 -0.13
v -15 -12 -0.13
v 0 -14 -0.14
v -1 -14 -0.14
v -1 -13 -0.14
v 0 -13 -0.14
v -1 -14 -0.14
v -2 -14 -0.14
v -2 -13 -0.14
v -1 -13 -0.14
v -2 -14 -0.14
v -3 -14 -0.14
v -3 -13 -0.14
v -2 -13 -0.14
v -3 -14 -0.14
v -4 -14 -0.14
v -4 -13 -0.14
v -3 -13 -0.14
v -4 -14 -0.14
v -5 -14 -0.14
v -5 -13 -0.14
v -4 -13 -0.14
v -5 -14 -0.14
v -6 -14 -0.14
v -6 -13 -0.14
v -5 -13 -0.14
v -6 -14 -0.14
v -7 -14 -0.14
v -7 -13 -0.14
v -6 -13 -0.14
v -7 -14 -0.14
v -8 -14 -0.14
v -8 -13 -0.14
v -7 -13 -0.14
v -8 -14 -0.14
v -9 -14 -0.14
v -9 -13 -0.14
v -8 -13 -0.14
v -9 -14 -0.14
v -10 -14 -0.14
v -10 -13 -0.14
v -9 -13 -0.14
v -10 -14 -0.14
v -11 -14 -0.14
v -11 -13 -0.14
v -10 -13 -0.14
v -11 -14 -0.14
v -12 -14 -0.14
v -12 -13 -0.14
v -11 -13 -0.14
v -12 -14 -0.14
v -13 -14 -0.14
v -13 -13 -0.14
v -12 -13 -0.14
v -13 -14 -0.14
v -14 -14 -0.14
v -14 -13 -0.14
v -13 -13 -0.14
v -14 -14 -0.14
v -15 -14 -0.14
v -15 -13 -0.14
v -14 -13 -0.14
v -15 -14 -0.14
v -16 -14 -0.14
v -16 -13 -0.14
v -15 -13 -0.14
v 0 -15 -0.15
v -1 -15 -0.15
v -1 -14 -0.15
v 0 -14 -0.15
v -1 -15 -0.15
v -2 -15 -0.15
v -2 -14 -0.15
v -1 -14 -0.15
v -2 -15 -0.15
v -3 -15 -0.15
v -3 -14 -0.15
v -2 -14 -0.15
v -3 -15 -0.15
v -4 -15 -0.15
v -4 -14 -0.15
v -3 -14 -0.15
v -4 -15 -0.15
v -5 -15 -0.15
v -5 -14 -0.15
v -4 -14 -0.15
v -5 -15 -0.15
v -6 -15 -0.15
v -6 -14 -0.15
v -5 -14 -0.15
v -6 -15 -0.15
v -7 -15 -0.15
v -7 -14 -0.15
v -6 -14 -0.15
v -7 -15 -0.15
v -8 -15 -0.15
v -8 -14 -0.15
v -7 -14 -0.15
v -8 -15 -0.15
v -9 -15 -0.15
v -9 -14 -0.15
v -8 -14 -0.15
v -9 -15 -0.15
v -10 -15 -0.15
v -10 -14 -0.15
v -9 -14 -0.15
v -10 -15 -0.15
v -11 -15 -0.15
v -11 -14 -0.15
v -10 -14 -0.15
v -11 -15 -0.15
v -12 -15 -0.15
v -12 -14 -0.15
v -11 -14 -0.15
v -12 -15 -0.15
v -13 -15 -0.15
v -13 -14 -0.15
v -12 -14 -0.15
v -13 -15 -0.15
v -14 -15 -0.15
v -14 -14 -0.15
v -13 -14 -0.15
v -14 -15 -0.15
v -15 -15 -0.15
v -15 -14 -0.15
v -14 -14 -0.15
v -15 -15 -0.15
v -16 -15 -0.15
v -16 -14 -0.15
v -15 -14 -0.15
v 0 -16 -0.16
v -1 -16 -0.16
v -1 -15 -0.16
v 0 -15 -0.16
v -1 -16 -0.16
v -2 -16 -0.16
v -2 -15 -0.16
v -1 -15 -0.16
v -2 -16 -0.16
v -3 -16 -0.16
v -3 -15 -0.16
v -2 -15 -0.16
v -3 -16 -0.16
v -4 -16 -0.16
v -4 -15 -0.16
v -3 -15 -0.16
v -4 -16 -0.16
v -5 -16 -0.16
v -5 -15 -0.16
v -4 -15 -0.16
v -5 -16 -0.16
v -6 -16 -0.16
v -6 -15 -0.16
v -5 -15 -0.16
v -6 -16 -0.16
v -7 -16 -0.16
v -7 -15 -0.16
v -6 -15 -0.16
v -7 -16 -0.16
v -8 -16 -0.16
v -8 -15 -0.16
v -7 -15 -0.16
v -8 -16 -0.16
v -9 -16 -0.16
v -9 -15 -0.16
v -8 -15 -0.16
v -9 -16 -0.16
v -10 -16 -0.16
v -10 -15 -0.16
v -9 -15 -0.16
v -10 -16 -0.16
v -11 -16 -0.16
v -11 -15 -0.16
v -10 -15 -0.16
v -11 -16 -0.16
v -12 -16 -0.16
v -12 -15 -0.16
v -11 -15 -0.16
v -12 -16 -0.16
v -13 -16 -0.16
v -13 -15 -0.16
v -12 -15 -0.16
v -13 -16 -0.16
v -14 -16 -0.16
v -14 -15 -0.16
v -13 -15 -0.16
v -14 -16 -0.16
v -15 -16 -0.16
v -15 -15 -0.16
v -14 -15 -0.16
v -15 -16 -0.16
v -16 -16 -0.16
v -16 -15 -0.16
v -15 -15 -0.16

# Texture cooridinates (Count = 30)
vt 0.3333333 0.9887218
vt 0.3888889 0.9887218
vt 0.3888889 0.9924812
vt 0.3333333 0.9924812
vt 0.4444444 0.9887218
vt 0.4444444 0.9924812
vt 0.3333333 0.9849624
vt 0.3888889 0.9849624
vt 0.4444444 0.9849624
vt 0.5 0.9887218
vt 0.5 0.9924812
vt 0.5555556 0.9887218
vt 0.5555556 0.9924812
vt 0.4444444 0.9661654
vt 0.5 0.9661654
vt 0.5 0.9699248
vt 0.4444444 0.9699248
vt 0.5555556 0.9661654
vt 0.5555556 0.9699248
vt 0.5 0.9849624
vt 0.5555556 0.9849624
vt 0.4444444 0.962406
vt 0.5 0.962406
vt 0.5555556 0.962406
vt 0.3333333 0.9661654
vt 0.3888889 0.9661654
vt 0.3888889 0.9699248
vt 0.3333333 0.9699248
vt 0.3333333 0.962406
vt 0.3888889 0.962406

# Normal
vn 0 0 -1

# Mesh description
g Act-0-Forest_mesh_0298

# Faces
f 1/1/1 2/2/1 3/3/1 4/4/1
f 5/2/1 6/5/1 7/6/1 8/3/1
f 9/7/1 10/8/1 11/2/1 12/1/1
f 13/8/1 14/9/1 15/5/1 16/2/1
f 17/1/1 18/2/1 19/3/1 20/4/1
f 21/2/1 22/5/1 23/6/1 24/3/1
f 25/5/1 26/10/1 27/11/1 28/6/1
f 29/10/1 30/12/1 31/13/1 32/11/1
f 33/1/1 34/2/1 35/3/1 36/4/1
f 37/2/1 38/5/1 39/6/1 40/3/1
f 41/14/1 42/15/1 43/16/1 44/17/1
f 45/15/1 46/18/1 47/19/1 48/16/1
f 49/7/1 50/8/1 51/2/1 52/1/1
f 53/8/1 54/9/1 55/5/1 56/2/1
f 57/9/1 58/20/1 59/10/1 60/5/1
f 61/20/1 62/21/1 63/12/1 64/10/1
f 65/7/1 66/8/1 67/2/1 68/1/1
f 69/8/1 70/9/1 71/5/1 72/2/1
f 73/22/1 74/23/1 75/15/1 76/14/1
f 77/23/1 78/24/1 79/18/1 80/15/1
f 81/14/1 82/15/1 83/16/1 84/17/1
f 85/15/1 86/18/1 87/19/1 88/16/1
f 89/25/1 90/26/1 91/27/1 92/28/1
f 93/26/1 94/14/1 95/17/1 96/27/1
f 97/5/1 98/10/1 99/11/1 100/6/1
f 101/10/1 102/12/1 103/13/1 104/11/1
f 105/1/1 106/2/1 107/3/1 108/4/1
f 109/2/1 110/5/1 111/6/1 112/3/1
f 113/5/1 114/10/1 115/11/1 116/6/1
f 117/10/1 118/12/1 119/13/1 120/11/1
f 121/1/1 122/2/1 123/3/1 124/4/1
f 125/2/1 126/5/1 127/6/1 128/3/1
f 129/14/1 130/15/1 131/16/1 132/17/1
f 133/15/1 134/18/1 135/19/1 136/16/1
f 137/25/1 138/26/1 139/27/1 140/28/1
f 141/26/1 142/14/1 143/17/1 144/27/1
f 145/22/1 146/23/1 147/15/1 148/14/1
f 149/23/1 150/24/1 151/18/1 152/15/1
f 153/29/1 154/30/1 155/26/1 156/25/1
f 157/30/1 158/22/1 159/14/1 160/26/1
f 161/9/1 162/20/1 163/10/1 164/5/1
f 165/20/1 166/21/1 167/12/1 168/10/1
f 169/7/1 170/8/1 171/2/1 172/1/1
f 173/8/1 174/9/1 175/5/1 176/2/1
f 177/9/1 178/20/1 179/10/1 180/5/1
f 181/20/1 182/21/1 183/12/1 184/10/1
f 185/7/1 186/8/1 187/2/1 188/1/1
f 189/8/1 190/9/1 191/5/1 192/2/1
f 193/22/1 194/23/1 195/15/1 196/14/1
f 197/23/1 198/24/1 199/18/1 200/15/1
f 201/29/1 202/30/1 203/26/1 204/25/1
f 205/30/1 206/22/1 207/14/1 208/26/1
f 209/25/1 210/26/1 211/27/1 212/28/1
f 213/26/1 214/14/1 215/17/1 216/27/1
f 217/14/1 218/15/1 219/16/1 220/17/1
f 221/15/1 222/18/1 223/19/1 224/16/1
f 225/25/1 226/26/1 227/27/1 228/28/1
f 229/26/1 230/14/1 231/17/1 232/27/1
f 233/14/1 234/15/1 235/16/1 236/17/1
f 237/15/1 238/18/1 239/19/1 240/16/1
f 241/25/1 242/26/1 243/27/1 244/28/1
f 245/26/1 246/14/1 247/17/1 248/27/1
f 249/14/1 250/15/1 251/16/1 252/17/1
f 253/15/1 254/18/1 255/19/1 256/16/1
f 257/25/1 258/26/1 259/27/1 260/28/1
f 261/26/1 262/14/1 263/17/1 264/27/1
f 265/14/1 266/15/1 267/16/1 268/17/1
f 269/15/1 270/18/1 271/19/1 272/16/1
f 273/29/1 274/30/1 275/26/1 276/25/1
f 277/30/1 278/22/1 279/14/1 280/26/1
f 281/22/1 282/23/1 283/15/1 284/14/1
f 285/23/1 286/24/1 287/18/1 288/15/1
f 289/29/1 290/30/1 291/26/1 292/25/1
f 293/30/1 294/22/1 295/14/1 296/26/1
f 297/22/1 298/23/1 299/15/1 300/14/1
f 301/23/1 302/24/1 303/18/1 304/15/1
f 305/29/1 306/30/1 307/26/1 308/25/1
f 309/30/1 310/22/1 311/14/1 312/26/1
f 313/22/1 314/23/1 315/15/1 316/14/1
f 317/23/1 318/24/1 319/18/1 320/15/1
f 321/29/1 322/30/1 323/26/1 324/25/1
f 325/30/1 326/22/1 327/14/1 328/26/1
f 329/22/1 330/23/1 331/15/1 332/14/1
f 333/23/1 334/24/1 335/18/1 336/15/1
f 337/14/1 338/15/1 339/16/1 340/17/1
f 341/15/1 342/18/1 343/19/1 344/16/1
f 345/25/1 346/26/1 347/27/1 348/28/1
f 349/26/1 350/14/1 351/17/1 352/27/1
f 353/14/1 354/15/1 355/16/1 356/17/1
f 357/15/1 358/18/1 359/19/1 360/16/1
f 361/25/1 362/26/1 363/27/1 364/28/1
f 365/26/1 366/14/1 367/17/1 368/27/1
f 369/14/1 370/15/1 371/16/1 372/17/1
f 373/15/1 374/18/1 375/19/1 376/16/1
f 377/25/1 378/26/1 379/27/1 380/28/1
f 381/26/1 382/14/1 383/17/1 384/27/1
f 385/14/1 386/15/1 387/16/1 388/17/1
f 389/15/1 390/18/1 391/19/1 392/16/1
f 393/25/1 394/26/1 395/27/1 396/28/1
f 397/26/1 398/14/1 399/17/1 400/27/1
f 401/22/1 402/23/1 403/15/1 404/14/1
f 405/23/1 406/24/1 407/18/1 408/15/1
f 409/29/1 410/30/1 411/26/1 412/25/1
f 413/30/1 414/22/1 415/14/1 416/26/1
f 417/22/1 418/23/1 419/15/1 420/14/1
f 421/23/1 422/24/1 423/18/1 424/15/1
f 425/29/1 426/30/1 427/26/1 428/25/1
f 429/30/1 430/22/1 431/14/1 432/26/1
f 433/22/1 434/23/1 435/15/1 436/14/1
f 437/23/1 438/24/1 439/18/1 440/15/1
f 441/29/1 442/30/1 443/26/1 444/25/1
f 445/30/1 446/22/1 447/14/1 448/26/1
f 449/22/1 450/23/1 451/15/1 452/14/1
f 453/23/1 454/24/1 455/18/1 456/15/1
f 457/29/1 458/30/1 459/26/1 460/25/1
f 461/30/1 462/22/1 463/14/1 464/26/1
f 465/25/1 466/26/1 467/27/1 468/28/1
f 469/26/1 470/14/1 471/17/1 472/27/1
f 473/14/1 474/15/1 475/16/1 476/17/1
f 477/15/1 478/18/1 479/19/1 480/16/1
f 481/25/1 482/26/1 483/27/1 484/28/1
f 485/26/1 486/14/1 487/17/1 488/27/1
f 489/14/1 490/15/1 491/16/1 492/17/1
f 493/15/1 494/18/1 495/19/1 496/16/1
f 497/25/1 498/26/1 499/27/1 500/28/1
f 501/26/1 502/14/1 503/17/1 504/27/1
f 505/14/1 506/15/1 507/16/1 508/17/1
f 509/15/1 510/18/1 511/19/1 512/16/1
f 513/25/1 514/26/1 515/27/1 516/28/1
f 517/26/1 518/14/1 519/17/1 520/27/1
f 521/14/1 522/15/1 523/16/1 524/17/1
f 525/15/1 526/18/1 527/19/1 528/16/1
f 529/29/1 530/30/1 531/26/1 532/25/1
f 533/30/1 534/22/1 535/14/1 536/26/1
f 537/22/1 538/23/1 539/15/1 540/14/1
f 541/23/1 542/24/1 543/18/1 544/15/1
f 545/29/1 546/30/1 547/26/1 548/25/1
f 549/30/1 550/22/1 551/14/1 552/26/1
f 553/22/1 554/23/1 555/15/1 556/14/1
f 557/23/1 558/24/1 559/18/1 560/15/1
f 561/29/1 562/30/1 563/26/1 564/25/1
f 565/30/1 566/22/1 567/14/1 568/26/1
f 569/22/1 570/23/1 571/15/1 572/14/1
f 573/23/1 574/24/1 575/18/1 576/15/1
f 577/29/1 578/30/1 579/26/1 580/25/1
f 581/30/1 582/22/1 583/14/1 584/26/1
f 585/22/1 586/23/1 587/15/1 588/14/1
f 589/23/1 590/24/1 591/18/1 592/15/1
f 593/14/1 594/15/1 595/16/1 596/17/1
f 597/15/1 598/18/1 599/19/1 600/16/1
f 601/25/1 602/26/1 603/27/1 604/28/1
f 605/26/1 606/14/1 607/17/1 608/27/1
f 609/14/1 610/15/1 611/16/1 612/17/1
f 613/15/1 614/18/1 615/19/1 616/16/1
f 617/25/1 618/26/1 619/27/1 620/28/1
f 621/26/1 622/14/1 623/17/1 624/27/1
f 625/14/1 626/15/1 627/16/1 628/17/1
f 629/15/1 630/18/1 631/19/1 632/16/1
f 633/25/1 634/26/1 635/27/1 636/28/1
f 637/26/1 638/14/1 639/17/1 640/27/1
f 641/14/1 642/15/1 643/16/1 644/17/1
f 645/15/1 646/18/1 647/19/1 648/16/1
f 649/25/1 650/26/1 651/27/1 652/28/1
f 653/26/1 654/14/1 655/17/1 656/27/1

