# Tiled2Unity generated file. Do not modify by hand.
# Wavefront file for 'Act-0-Forest_mesh_0328.obj'

# Vertices (Count = 112)
v 0 -12 -0.12
v -1 -12 -0.12
v -1 -11 -0.12
v 0 -11 -0.12
v -1 -12 -0.12
v -2 -12 -0.12
v -2 -11 -0.12
v -1 -11 -0.12
v -2 -12 -0.12
v -3 -12 -0.12
v -3 -11 -0.12
v -2 -11 -0.12
v -3 -12 -0.12
v -4 -12 -0.12
v -4 -11 -0.12
v -3 -11 -0.12
v -4 -12 -0.12
v -5 -12 -0.12
v -5 -11 -0.12
v -4 -11 -0.12
v -5 -12 -0.12
v -6 -12 -0.12
v -6 -11 -0.12
v -5 -11 -0.12
v 0 -13 -0.13
v -1 -13 -0.13
v -1 -12 -0.13
v 0 -12 -0.13
v -1 -13 -0.13
v -2 -13 -0.13
v -2 -12 -0.13
v -1 -12 -0.13
v -2 -13 -0.13
v -3 -13 -0.13
v -3 -12 -0.13
v -2 -12 -0.13
v -3 -13 -0.13
v -4 -13 -0.13
v -4 -12 -0.13
v -3 -12 -0.13
v -4 -13 -0.13
v -5 -13 -0.13
v -5 -12 -0.13
v -4 -12 -0.13
v -5 -13 -0.13
v -6 -13 -0.13
v -6 -12 -0.13
v -5 -12 -0.13
v 0 -14 -0.14
v -1 -14 -0.14
v -1 -13 -0.14
v 0 -13 -0.14
v -1 -14 -0.14
v -2 -14 -0.14
v -2 -13 -0.14
v -1 -13 -0.14
v -2 -14 -0.14
v -3 -14 -0.14
v -3 -13 -0.14
v -2 -13 -0.14
v -3 -14 -0.14
v -4 -14 -0.14
v -4 -13 -0.14
v -3 -13 -0.14
v -4 -14 -0.14
v -5 -14 -0.14
v -5 -13 -0.14
v -4 -13 -0.14
v -5 -14 -0.14
v -6 -14 -0.14
v -6 -13 -0.14
v -5 -13 -0.14
v 0 -15 -0.15
v -1 -15 -0.15
v -1 -14 -0.15
v 0 -14 -0.15
v -1 -15 -0.15
v -2 -15 -0.15
v -2 -14 -0.15
v -1 -14 -0.15
v -2 -15 -0.15
v -3 -15 -0.15
v -3 -14 -0.15
v -2 -14 -0.15
v -3 -15 -0.15
v -4 -15 -0.15
v -4 -14 -0.15
v -3 -14 -0.15
v -4 -15 -0.15
v -5 -15 -0.15
v -5 -14 -0.15
v -4 -14 -0.15
v -5 -15 -0.15
v -6 -15 -0.15
v -6 -14 -0.15
v -5 -14 -0.15
v 0 -16 -0.16
v -1 -16 -0.16
v -1 -15 -0.16
v 0 -15 -0.16
v -1 -16 -0.16
v -2 -16 -0.16
v -2 -15 -0.16
v -1 -15 -0.16
v -2 -16 -0.16
v -3 -16 -0.16
v -3 -15 -0.16
v -2 -15 -0.16
v -3 -16 -0.16
v -4 -16 -0.16
v -4 -15 -0.16
v -3 -15 -0.16

# Texture cooridinates (Count = 36)
vt 0.4444444 0.9887218
vt 0.5 0.9887218
vt 0.5 0.9924812
vt 0.4444444 0.9924812
vt 0.5555556 0.9887218
vt 0.5555556 0.9924812
vt 0.3333333 0.9887218
vt 0.3888889 0.9887218
vt 0.3888889 0.9924812
vt 0.3333333 0.9924812
vt 0.4444444 0.9849624
vt 0.5 0.9849624
vt 0.5555556 0.9849624
vt 0.3333333 0.9849624
vt 0.3888889 0.9849624
vt 0.3333333 0.9661654
vt 0.3888889 0.9661654
vt 0.3888889 0.9699248
vt 0.3333333 0.9699248
vt 0.4444444 0.9661654
vt 0.4444444 0.9699248
vt 0.5 0.9661654
vt 0.5 0.9699248
vt 0.5555556 0.9661654
vt 0.5555556 0.9699248
vt 0.4444444 0.981203
vt 0.5 0.981203
vt 0.5555556 0.981203
vt 0.3333333 0.962406
vt 0.3888889 0.962406
vt 0.4444444 0.962406
vt 0.5 0.962406
vt 0.5555556 0.962406
vt 0.4444444 0.9774436
vt 0.5 0.9774436
vt 0.5555556 0.9774436

# Normal
vn 0 0 -1

# Mesh description
g Act-0-Forest_mesh_0328

# Faces
f 1/1/1 2/2/1 3/3/1 4/4/1
f 5/2/1 6/5/1 7/6/1 8/3/1
f 9/7/1 10/8/1 11/9/1 12/10/1
f 13/8/1 14/1/1 15/4/1 16/9/1
f 17/1/1 18/2/1 19/3/1 20/4/1
f 21/2/1 22/5/1 23/6/1 24/3/1
f 25/11/1 26/12/1 27/2/1 28/1/1
f 29/12/1 30/13/1 31/5/1 32/2/1
f 33/14/1 34/15/1 35/8/1 36/7/1
f 37/15/1 38/11/1 39/1/1 40/8/1
f 41/11/1 42/12/1 43/2/1 44/1/1
f 45/12/1 46/13/1 47/5/1 48/2/1
f 49/16/1 50/17/1 51/18/1 52/19/1
f 53/17/1 54/20/1 55/21/1 56/18/1
f 57/20/1 58/22/1 59/23/1 60/21/1
f 61/22/1 62/24/1 63/25/1 64/23/1
f 65/26/1 66/27/1 67/12/1 68/11/1
f 69/27/1 70/28/1 71/13/1 72/12/1
f 73/29/1 74/30/1 75/17/1 76/16/1
f 77/30/1 78/31/1 79/20/1 80/17/1
f 81/31/1 82/32/1 83/22/1 84/20/1
f 85/32/1 86/33/1 87/24/1 88/22/1
f 89/34/1 90/35/1 91/27/1 92/26/1
f 93/35/1 94/36/1 95/28/1 96/27/1
f 97/20/1 98/22/1 99/23/1 100/21/1
f 101/22/1 102/24/1 103/25/1 104/23/1
f 105/26/1 106/27/1 107/12/1 108/11/1
f 109/27/1 110/28/1 111/13/1 112/12/1

