# Tiled2Unity generated file. Do not modify by hand.
# Wavefront file for 'Act-0-Forest_mesh_0291.obj'

# Vertices (Count = 56)
v 0 -1 -0.01
v -1 -1 -0.01
v -1 0 -0.01
v 0 0 -0.01
v -1 -1 -0.01
v -2 -1 -0.01
v -2 0 -0.01
v -1 0 -0.01
v -2 -1 -0.01
v -3 -1 -0.01
v -3 0 -0.01
v -2 0 -0.01
v -3 -1 -0.01
v -4 -1 -0.01
v -4 0 -0.01
v -3 0 -0.01
v 0 -2 -0.02
v -1 -2 -0.02
v -1 -1 -0.02
v 0 -1 -0.02
v -1 -2 -0.02
v -2 -2 -0.02
v -2 -1 -0.02
v -1 -1 -0.02
v 0 -3 -0.03
v -1 -3 -0.03
v -1 -2 -0.03
v 0 -2 -0.03
v -1 -3 -0.03
v -2 -3 -0.03
v -2 -2 -0.03
v -1 -2 -0.03
v 0 -16 -0.16
v -1 -16 -0.16
v -1 -15 -0.16
v 0 -15 -0.16
v -1 -16 -0.16
v -2 -16 -0.16
v -2 -15 -0.16
v -1 -15 -0.16
v -2 -16 -0.16
v -3 -16 -0.16
v -3 -15 -0.16
v -2 -15 -0.16
v -3 -16 -0.16
v -4 -16 -0.16
v -4 -15 -0.16
v -3 -15 -0.16
v -4 -16 -0.16
v -5 -16 -0.16
v -5 -15 -0.16
v -4 -15 -0.16
v -5 -16 -0.16
v -6 -16 -0.16
v -6 -15 -0.16
v -5 -15 -0.16

# Texture cooridinates (Count = 25)
vt 0.4444444 0.962406
vt 0.5 0.962406
vt 0.5 0.9661654
vt 0.4444444 0.9661654
vt 0.5555556 0.962406
vt 0.5555556 0.9661654
vt 0.4444444 0.9774436
vt 0.5 0.9774436
vt 0.5 0.981203
vt 0.4444444 0.981203
vt 0.5555556 0.9774436
vt 0.5555556 0.981203
vt 0.5 0.9849624
vt 0.4444444 0.9849624
vt 0.5555556 0.9849624
vt 0.4444444 0.9887218
vt 0.5 0.9887218
vt 0.5 0.9924812
vt 0.4444444 0.9924812
vt 0.5555556 0.9887218
vt 0.5555556 0.9924812
vt 0.3333333 0.9887218
vt 0.3888889 0.9887218
vt 0.3888889 0.9924812
vt 0.3333333 0.9924812

# Normal
vn 0 0 -1

# Mesh description
g Act-0-Forest_mesh_0291

# Faces
f 1/1/1 2/2/1 3/3/1 4/4/1
f 5/2/1 6/5/1 7/6/1 8/3/1
f 9/7/1 10/8/1 11/9/1 12/10/1
f 13/8/1 14/11/1 15/12/1 16/9/1
f 17/10/1 18/9/1 19/13/1 20/14/1
f 21/9/1 22/12/1 23/15/1 24/13/1
f 25/7/1 26/8/1 27/9/1 28/10/1
f 29/8/1 30/11/1 31/12/1 32/9/1
f 33/16/1 34/17/1 35/18/1 36/19/1
f 37/17/1 38/20/1 39/21/1 40/18/1
f 41/22/1 42/23/1 43/24/1 44/25/1
f 45/23/1 46/16/1 47/19/1 48/24/1
f 49/16/1 50/17/1 51/18/1 52/19/1
f 53/17/1 54/20/1 55/21/1 56/18/1

