# Tiled2Unity generated file. Do not modify by hand.
# Wavefront file for 'Act-0-Forest_mesh_0339.obj'

# Vertices (Count = 16)
v 0 -1 -0.01
v -1 -1 -0.01
v -1 0 -0.01
v 0 0 -0.01
v -1 -1 -0.01
v -2 -1 -0.01
v -2 0 -0.01
v -1 0 -0.01
v -2 -1 -0.01
v -3 -1 -0.01
v -3 0 -0.01
v -2 0 -0.01
v -3 -1 -0.01
v -4 -1 -0.01
v -4 0 -0.01
v -3 0 -0.01

# Texture cooridinates (Count = 10)
vt 0.3333333 0.9774436
vt 0.3888889 0.9774436
vt 0.3888889 0.981203
vt 0.3333333 0.981203
vt 0.4444444 0.9774436
vt 0.4444444 0.981203
vt 0.5 0.9774436
vt 0.5 0.981203
vt 0.5555556 0.9774436
vt 0.5555556 0.981203

# Normal
vn 0 0 -1

# Mesh description
g Act-0-Forest_mesh_0339

# Faces
f 1/1/1 2/2/1 3/3/1 4/4/1
f 5/2/1 6/5/1 7/6/1 8/3/1
f 9/5/1 10/7/1 11/8/1 12/6/1
f 13/7/1 14/9/1 15/10/1 16/8/1

