# Tiled2Unity generated file. Do not modify by hand.
# Wavefront file for 'Act-0-Forest_mesh_0236.obj'

# Vertices (Count = 576)
v 0 -8 -0.08
v -1 -8 -0.08
v -1 -7 -0.08
v 0 -7 -0.08
v -1 -8 -0.08
v -2 -8 -0.08
v -2 -7 -0.08
v -1 -7 -0.08
v -2 -8 -0.08
v -3 -8 -0.08
v -3 -7 -0.08
v -2 -7 -0.08
v -3 -8 -0.08
v -4 -8 -0.08
v -4 -7 -0.08
v -3 -7 -0.08
v -4 -8 -0.08
v -5 -8 -0.08
v -5 -7 -0.08
v -4 -7 -0.08
v -5 -8 -0.08
v -6 -8 -0.08
v -6 -7 -0.08
v -5 -7 -0.08
v -6 -8 -0.08
v -7 -8 -0.08
v -7 -7 -0.08
v -6 -7 -0.08
v -7 -8 -0.08
v -8 -8 -0.08
v -8 -7 -0.08
v -7 -7 -0.08
v -8 -8 -0.08
v -9 -8 -0.08
v -9 -7 -0.08
v -8 -7 -0.08
v -9 -8 -0.08
v -10 -8 -0.08
v -10 -7 -0.08
v -9 -7 -0.08
v -10 -8 -0.08
v -11 -8 -0.08
v -11 -7 -0.08
v -10 -7 -0.08
v -11 -8 -0.08
v -12 -8 -0.08
v -12 -7 -0.08
v -11 -7 -0.08
v -12 -8 -0.08
v -13 -8 -0.08
v -13 -7 -0.08
v -12 -7 -0.08
v -13 -8 -0.08
v -14 -8 -0.08
v -14 -7 -0.08
v -13 -7 -0.08
v -14 -8 -0.08
v -15 -8 -0.08
v -15 -7 -0.08
v -14 -7 -0.08
v -15 -8 -0.08
v -16 -8 -0.08
v -16 -7 -0.08
v -15 -7 -0.08
v 0 -9 -0.09
v -1 -9 -0.09
v -1 -8 -0.09
v 0 -8 -0.09
v -1 -9 -0.09
v -2 -9 -0.09
v -2 -8 -0.09
v -1 -8 -0.09
v -2 -9 -0.09
v -3 -9 -0.09
v -3 -8 -0.09
v -2 -8 -0.09
v -3 -9 -0.09
v -4 -9 -0.09
v -4 -8 -0.09
v -3 -8 -0.09
v -4 -9 -0.09
v -5 -9 -0.09
v -5 -8 -0.09
v -4 -8 -0.09
v -5 -9 -0.09
v -6 -9 -0.09
v -6 -8 -0.09
v -5 -8 -0.09
v -6 -9 -0.09
v -7 -9 -0.09
v -7 -8 -0.09
v -6 -8 -0.09
v -7 -9 -0.09
v -8 -9 -0.09
v -8 -8 -0.09
v -7 -8 -0.09
v -8 -9 -0.09
v -9 -9 -0.09
v -9 -8 -0.09
v -8 -8 -0.09
v -9 -9 -0.09
v -10 -9 -0.09
v -10 -8 -0.09
v -9 -8 -0.09
v -10 -9 -0.09
v -11 -9 -0.09
v -11 -8 -0.09
v -10 -8 -0.09
v -11 -9 -0.09
v -12 -9 -0.09
v -12 -8 -0.09
v -11 -8 -0.09
v -12 -9 -0.09
v -13 -9 -0.09
v -13 -8 -0.09
v -12 -8 -0.09
v -13 -9 -0.09
v -14 -9 -0.09
v -14 -8 -0.09
v -13 -8 -0.09
v -14 -9 -0.09
v -15 -9 -0.09
v -15 -8 -0.09
v -14 -8 -0.09
v -15 -9 -0.09
v -16 -9 -0.09
v -16 -8 -0.09
v -15 -8 -0.09
v 0 -10 -0.1
v -1 -10 -0.1
v -1 -9 -0.1
v 0 -9 -0.1
v -1 -10 -0.1
v -2 -10 -0.1
v -2 -9 -0.1
v -1 -9 -0.1
v -2 -10 -0.1
v -3 -10 -0.1
v -3 -9 -0.1
v -2 -9 -0.1
v -3 -10 -0.1
v -4 -10 -0.1
v -4 -9 -0.1
v -3 -9 -0.1
v -4 -10 -0.1
v -5 -10 -0.1
v -5 -9 -0.1
v -4 -9 -0.1
v -5 -10 -0.1
v -6 -10 -0.1
v -6 -9 -0.1
v -5 -9 -0.1
v -6 -10 -0.1
v -7 -10 -0.1
v -7 -9 -0.1
v -6 -9 -0.1
v -7 -10 -0.1
v -8 -10 -0.1
v -8 -9 -0.1
v -7 -9 -0.1
v -8 -10 -0.1
v -9 -10 -0.1
v -9 -9 -0.1
v -8 -9 -0.1
v -9 -10 -0.1
v -10 -10 -0.1
v -10 -9 -0.1
v -9 -9 -0.1
v -10 -10 -0.1
v -11 -10 -0.1
v -11 -9 -0.1
v -10 -9 -0.1
v -11 -10 -0.1
v -12 -10 -0.1
v -12 -9 -0.1
v -11 -9 -0.1
v -12 -10 -0.1
v -13 -10 -0.1
v -13 -9 -0.1
v -12 -9 -0.1
v -13 -10 -0.1
v -14 -10 -0.1
v -14 -9 -0.1
v -13 -9 -0.1
v -14 -10 -0.1
v -15 -10 -0.1
v -15 -9 -0.1
v -14 -9 -0.1
v -15 -10 -0.1
v -16 -10 -0.1
v -16 -9 -0.1
v -15 -9 -0.1
v 0 -11 -0.11
v -1 -11 -0.11
v -1 -10 -0.11
v 0 -10 -0.11
v -1 -11 -0.11
v -2 -11 -0.11
v -2 -10 -0.11
v -1 -10 -0.11
v -2 -11 -0.11
v -3 -11 -0.11
v -3 -10 -0.11
v -2 -10 -0.11
v -3 -11 -0.11
v -4 -11 -0.11
v -4 -10 -0.11
v -3 -10 -0.11
v -4 -11 -0.11
v -5 -11 -0.11
v -5 -10 -0.11
v -4 -10 -0.11
v -5 -11 -0.11
v -6 -11 -0.11
v -6 -10 -0.11
v -5 -10 -0.11
v -6 -11 -0.11
v -7 -11 -0.11
v -7 -10 -0.11
v -6 -10 -0.11
v -7 -11 -0.11
v -8 -11 -0.11
v -8 -10 -0.11
v -7 -10 -0.11
v -8 -11 -0.11
v -9 -11 -0.11
v -9 -10 -0.11
v -8 -10 -0.11
v -9 -11 -0.11
v -10 -11 -0.11
v -10 -10 -0.11
v -9 -10 -0.11
v -10 -11 -0.11
v -11 -11 -0.11
v -11 -10 -0.11
v -10 -10 -0.11
v -11 -11 -0.11
v -12 -11 -0.11
v -12 -10 -0.11
v -11 -10 -0.11
v -12 -11 -0.11
v -13 -11 -0.11
v -13 -10 -0.11
v -12 -10 -0.11
v -13 -11 -0.11
v -14 -11 -0.11
v -14 -10 -0.11
v -13 -10 -0.11
v -14 -11 -0.11
v -15 -11 -0.11
v -15 -10 -0.11
v -14 -10 -0.11
v -15 -11 -0.11
v -16 -11 -0.11
v -16 -10 -0.11
v -15 -10 -0.11
v 0 -12 -0.12
v -1 -12 -0.12
v -1 -11 -0.12
v 0 -11 -0.12
v -1 -12 -0.12
v -2 -12 -0.12
v -2 -11 -0.12
v -1 -11 -0.12
v -2 -12 -0.12
v -3 -12 -0.12
v -3 -11 -0.12
v -2 -11 -0.12
v -3 -12 -0.12
v -4 -12 -0.12
v -4 -11 -0.12
v -3 -11 -0.12
v -4 -12 -0.12
v -5 -12 -0.12
v -5 -11 -0.12
v -4 -11 -0.12
v -5 -12 -0.12
v -6 -12 -0.12
v -6 -11 -0.12
v -5 -11 -0.12
v -6 -12 -0.12
v -7 -12 -0.12
v -7 -11 -0.12
v -6 -11 -0.12
v -7 -12 -0.12
v -8 -12 -0.12
v -8 -11 -0.12
v -7 -11 -0.12
v -8 -12 -0.12
v -9 -12 -0.12
v -9 -11 -0.12
v -8 -11 -0.12
v -9 -12 -0.12
v -10 -12 -0.12
v -10 -11 -0.12
v -9 -11 -0.12
v -10 -12 -0.12
v -11 -12 -0.12
v -11 -11 -0.12
v -10 -11 -0.12
v -11 -12 -0.12
v -12 -12 -0.12
v -12 -11 -0.12
v -11 -11 -0.12
v -12 -12 -0.12
v -13 -12 -0.12
v -13 -11 -0.12
v -12 -11 -0.12
v -13 -12 -0.12
v -14 -12 -0.12
v -14 -11 -0.12
v -13 -11 -0.12
v -14 -12 -0.12
v -15 -12 -0.12
v -15 -11 -0.12
v -14 -11 -0.12
v -15 -12 -0.12
v -16 -12 -0.12
v -16 -11 -0.12
v -15 -11 -0.12
v 0 -13 -0.13
v -1 -13 -0.13
v -1 -12 -0.13
v 0 -12 -0.13
v -1 -13 -0.13
v -2 -13 -0.13
v -2 -12 -0.13
v -1 -12 -0.13
v -2 -13 -0.13
v -3 -13 -0.13
v -3 -12 -0.13
v -2 -12 -0.13
v -3 -13 -0.13
v -4 -13 -0.13
v -4 -12 -0.13
v -3 -12 -0.13
v -4 -13 -0.13
v -5 -13 -0.13
v -5 -12 -0.13
v -4 -12 -0.13
v -5 -13 -0.13
v -6 -13 -0.13
v -6 -12 -0.13
v -5 -12 -0.13
v -6 -13 -0.13
v -7 -13 -0.13
v -7 -12 -0.13
v -6 -12 -0.13
v -7 -13 -0.13
v -8 -13 -0.13
v -8 -12 -0.13
v -7 -12 -0.13
v -8 -13 -0.13
v -9 -13 -0.13
v -9 -12 -0.13
v -8 -12 -0.13
v -9 -13 -0.13
v -10 -13 -0.13
v -10 -12 -0.13
v -9 -12 -0.13
v -10 -13 -0.13
v -11 -13 -0.13
v -11 -12 -0.13
v -10 -12 -0.13
v -11 -13 -0.13
v -12 -13 -0.13
v -12 -12 -0.13
v -11 -12 -0.13
v -12 -13 -0.13
v -13 -13 -0.13
v -13 -12 -0.13
v -12 -12 -0.13
v -13 -13 -0.13
v -14 -13 -0.13
v -14 -12 -0.13
v -13 -12 -0.13
v -14 -13 -0.13
v -15 -13 -0.13
v -15 -12 -0.13
v -14 -12 -0.13
v -15 -13 -0.13
v -16 -13 -0.13
v -16 -12 -0.13
v -15 -12 -0.13
v 0 -14 -0.14
v -1 -14 -0.14
v -1 -13 -0.14
v 0 -13 -0.14
v -1 -14 -0.14
v -2 -14 -0.14
v -2 -13 -0.14
v -1 -13 -0.14
v -2 -14 -0.14
v -3 -14 -0.14
v -3 -13 -0.14
v -2 -13 -0.14
v -3 -14 -0.14
v -4 -14 -0.14
v -4 -13 -0.14
v -3 -13 -0.14
v -4 -14 -0.14
v -5 -14 -0.14
v -5 -13 -0.14
v -4 -13 -0.14
v -5 -14 -0.14
v -6 -14 -0.14
v -6 -13 -0.14
v -5 -13 -0.14
v -6 -14 -0.14
v -7 -14 -0.14
v -7 -13 -0.14
v -6 -13 -0.14
v -7 -14 -0.14
v -8 -14 -0.14
v -8 -13 -0.14
v -7 -13 -0.14
v -8 -14 -0.14
v -9 -14 -0.14
v -9 -13 -0.14
v -8 -13 -0.14
v -9 -14 -0.14
v -10 -14 -0.14
v -10 -13 -0.14
v -9 -13 -0.14
v -10 -14 -0.14
v -11 -14 -0.14
v -11 -13 -0.14
v -10 -13 -0.14
v -11 -14 -0.14
v -12 -14 -0.14
v -12 -13 -0.14
v -11 -13 -0.14
v -12 -14 -0.14
v -13 -14 -0.14
v -13 -13 -0.14
v -12 -13 -0.14
v -13 -14 -0.14
v -14 -14 -0.14
v -14 -13 -0.14
v -13 -13 -0.14
v -14 -14 -0.14
v -15 -14 -0.14
v -15 -13 -0.14
v -14 -13 -0.14
v -15 -14 -0.14
v -16 -14 -0.14
v -16 -13 -0.14
v -15 -13 -0.14
v 0 -15 -0.15
v -1 -15 -0.15
v -1 -14 -0.15
v 0 -14 -0.15
v -1 -15 -0.15
v -2 -15 -0.15
v -2 -14 -0.15
v -1 -14 -0.15
v -2 -15 -0.15
v -3 -15 -0.15
v -3 -14 -0.15
v -2 -14 -0.15
v -3 -15 -0.15
v -4 -15 -0.15
v -4 -14 -0.15
v -3 -14 -0.15
v -4 -15 -0.15
v -5 -15 -0.15
v -5 -14 -0.15
v -4 -14 -0.15
v -5 -15 -0.15
v -6 -15 -0.15
v -6 -14 -0.15
v -5 -14 -0.15
v -6 -15 -0.15
v -7 -15 -0.15
v -7 -14 -0.15
v -6 -14 -0.15
v -7 -15 -0.15
v -8 -15 -0.15
v -8 -14 -0.15
v -7 -14 -0.15
v -8 -15 -0.15
v -9 -15 -0.15
v -9 -14 -0.15
v -8 -14 -0.15
v -9 -15 -0.15
v -10 -15 -0.15
v -10 -14 -0.15
v -9 -14 -0.15
v -10 -15 -0.15
v -11 -15 -0.15
v -11 -14 -0.15
v -10 -14 -0.15
v -11 -15 -0.15
v -12 -15 -0.15
v -12 -14 -0.15
v -11 -14 -0.15
v -12 -15 -0.15
v -13 -15 -0.15
v -13 -14 -0.15
v -12 -14 -0.15
v -13 -15 -0.15
v -14 -15 -0.15
v -14 -14 -0.15
v -13 -14 -0.15
v -14 -15 -0.15
v -15 -15 -0.15
v -15 -14 -0.15
v -14 -14 -0.15
v -15 -15 -0.15
v -16 -15 -0.15
v -16 -14 -0.15
v -15 -14 -0.15
v 0 -16 -0.16
v -1 -16 -0.16
v -1 -15 -0.16
v 0 -15 -0.16
v -1 -16 -0.16
v -2 -16 -0.16
v -2 -15 -0.16
v -1 -15 -0.16
v -2 -16 -0.16
v -3 -16 -0.16
v -3 -15 -0.16
v -2 -15 -0.16
v -3 -16 -0.16
v -4 -16 -0.16
v -4 -15 -0.16
v -3 -15 -0.16
v -4 -16 -0.16
v -5 -16 -0.16
v -5 -15 -0.16
v -4 -15 -0.16
v -5 -16 -0.16
v -6 -16 -0.16
v -6 -15 -0.16
v -5 -15 -0.16
v -6 -16 -0.16
v -7 -16 -0.16
v -7 -15 -0.16
v -6 -15 -0.16
v -7 -16 -0.16
v -8 -16 -0.16
v -8 -15 -0.16
v -7 -15 -0.16
v -8 -16 -0.16
v -9 -16 -0.16
v -9 -15 -0.16
v -8 -15 -0.16
v -9 -16 -0.16
v -10 -16 -0.16
v -10 -15 -0.16
v -9 -15 -0.16
v -10 -16 -0.16
v -11 -16 -0.16
v -11 -15 -0.16
v -10 -15 -0.16
v -11 -16 -0.16
v -12 -16 -0.16
v -12 -15 -0.16
v -11 -15 -0.16
v -12 -16 -0.16
v -13 -16 -0.16
v -13 -15 -0.16
v -12 -15 -0.16
v -13 -16 -0.16
v -14 -16 -0.16
v -14 -15 -0.16
v -13 -15 -0.16
v -14 -16 -0.16
v -15 -16 -0.16
v -15 -15 -0.16
v -14 -15 -0.16
v -15 -16 -0.16
v -16 -16 -0.16
v -16 -15 -0.16
v -15 -15 -0.16

# Texture cooridinates (Count = 30)
vt 0.4444444 0.9887218
vt 0.5 0.9887218
vt 0.5 0.9924812
vt 0.4444444 0.9924812
vt 0.5555556 0.9887218
vt 0.5555556 0.9924812
vt 0.3333333 0.9887218
vt 0.3888889 0.9887218
vt 0.3888889 0.9924812
vt 0.3333333 0.9924812
vt 0.4444444 0.9849624
vt 0.5 0.9849624
vt 0.5555556 0.9849624
vt 0.3333333 0.9849624
vt 0.3888889 0.9849624
vt 0.3333333 0.9661654
vt 0.3888889 0.9661654
vt 0.3888889 0.9699248
vt 0.3333333 0.9699248
vt 0.4444444 0.9661654
vt 0.4444444 0.9699248
vt 0.5 0.9661654
vt 0.5 0.9699248
vt 0.5555556 0.9661654
vt 0.5555556 0.9699248
vt 0.3333333 0.962406
vt 0.3888889 0.962406
vt 0.4444444 0.962406
vt 0.5 0.962406
vt 0.5555556 0.962406

# Normal
vn 0 0 -1

# Mesh description
g Act-0-Forest_mesh_0236

# Faces
f 1/1/1 2/2/1 3/3/1 4/4/1
f 5/2/1 6/5/1 7/6/1 8/3/1
f 9/7/1 10/8/1 11/9/1 12/10/1
f 13/8/1 14/1/1 15/4/1 16/9/1
f 17/1/1 18/2/1 19/3/1 20/4/1
f 21/2/1 22/5/1 23/6/1 24/3/1
f 25/7/1 26/8/1 27/9/1 28/10/1
f 29/8/1 30/1/1 31/4/1 32/9/1
f 33/1/1 34/2/1 35/3/1 36/4/1
f 37/2/1 38/5/1 39/6/1 40/3/1
f 41/7/1 42/8/1 43/9/1 44/10/1
f 45/8/1 46/1/1 47/4/1 48/9/1
f 49/1/1 50/2/1 51/3/1 52/4/1
f 53/2/1 54/5/1 55/6/1 56/3/1
f 57/7/1 58/8/1 59/9/1 60/10/1
f 61/8/1 62/1/1 63/4/1 64/9/1
f 65/11/1 66/12/1 67/2/1 68/1/1
f 69/12/1 70/13/1 71/5/1 72/2/1
f 73/14/1 74/15/1 75/8/1 76/7/1
f 77/15/1 78/11/1 79/1/1 80/8/1
f 81/11/1 82/12/1 83/2/1 84/1/1
f 85/12/1 86/13/1 87/5/1 88/2/1
f 89/14/1 90/15/1 91/8/1 92/7/1
f 93/15/1 94/11/1 95/1/1 96/8/1
f 97/11/1 98/12/1 99/2/1 100/1/1
f 101/12/1 102/13/1 103/5/1 104/2/1
f 105/14/1 106/15/1 107/8/1 108/7/1
f 109/15/1 110/11/1 111/1/1 112/8/1
f 113/11/1 114/12/1 115/2/1 116/1/1
f 117/12/1 118/13/1 119/5/1 120/2/1
f 121/14/1 122/15/1 123/8/1 124/7/1
f 125/15/1 126/11/1 127/1/1 128/8/1
f 129/16/1 130/17/1 131/18/1 132/19/1
f 133/17/1 134/20/1 135/21/1 136/18/1
f 137/20/1 138/22/1 139/23/1 140/21/1
f 141/22/1 142/24/1 143/25/1 144/23/1
f 145/16/1 146/17/1 147/18/1 148/19/1
f 149/17/1 150/20/1 151/21/1 152/18/1
f 153/20/1 154/22/1 155/23/1 156/21/1
f 157/22/1 158/24/1 159/25/1 160/23/1
f 161/16/1 162/17/1 163/18/1 164/19/1
f 165/17/1 166/20/1 167/21/1 168/18/1
f 169/20/1 170/22/1 171/23/1 172/21/1
f 173/22/1 174/24/1 175/25/1 176/23/1
f 177/16/1 178/17/1 179/18/1 180/19/1
f 181/17/1 182/20/1 183/21/1 184/18/1
f 185/20/1 186/22/1 187/23/1 188/21/1
f 189/22/1 190/24/1 191/25/1 192/23/1
f 193/26/1 194/27/1 195/17/1 196/16/1
f 197/27/1 198/28/1 199/20/1 200/17/1
f 201/28/1 202/29/1 203/22/1 204/20/1
f 205/29/1 206/30/1 207/24/1 208/22/1
f 209/26/1 210/27/1 211/17/1 212/16/1
f 213/27/1 214/28/1 215/20/1 216/17/1
f 217/28/1 218/29/1 219/22/1 220/20/1
f 221/29/1 222/30/1 223/24/1 224/22/1
f 225/26/1 226/27/1 227/17/1 228/16/1
f 229/27/1 230/28/1 231/20/1 232/17/1
f 233/28/1 234/29/1 235/22/1 236/20/1
f 237/29/1 238/30/1 239/24/1 240/22/1
f 241/26/1 242/27/1 243/17/1 244/16/1
f 245/27/1 246/28/1 247/20/1 248/17/1
f 249/28/1 250/29/1 251/22/1 252/20/1
f 253/29/1 254/30/1 255/24/1 256/22/1
f 257/20/1 258/22/1 259/23/1 260/21/1
f 261/22/1 262/24/1 263/25/1 264/23/1
f 265/16/1 266/17/1 267/18/1 268/19/1
f 269/17/1 270/20/1 271/21/1 272/18/1
f 273/20/1 274/22/1 275/23/1 276/21/1
f 277/22/1 278/24/1 279/25/1 280/23/1
f 281/16/1 282/17/1 283/18/1 284/19/1
f 285/17/1 286/20/1 287/21/1 288/18/1
f 289/20/1 290/22/1 291/23/1 292/21/1
f 293/22/1 294/24/1 295/25/1 296/23/1
f 297/16/1 298/17/1 299/18/1 300/19/1
f 301/17/1 302/20/1 303/21/1 304/18/1
f 305/20/1 306/22/1 307/23/1 308/21/1
f 309/22/1 310/24/1 311/25/1 312/23/1
f 313/16/1 314/17/1 315/18/1 316/19/1
f 317/17/1 318/20/1 319/21/1 320/18/1
f 321/28/1 322/29/1 323/22/1 324/20/1
f 325/29/1 326/30/1 327/24/1 328/22/1
f 329/26/1 330/27/1 331/17/1 332/16/1
f 333/27/1 334/28/1 335/20/1 336/17/1
f 337/28/1 338/29/1 339/22/1 340/20/1
f 341/29/1 342/30/1 343/24/1 344/22/1
f 345/26/1 346/27/1 347/17/1 348/16/1
f 349/27/1 350/28/1 351/20/1 352/17/1
f 353/28/1 354/29/1 355/22/1 356/20/1
f 357/29/1 358/30/1 359/24/1 360/22/1
f 361/26/1 362/27/1 363/17/1 364/16/1
f 365/27/1 366/28/1 367/20/1 368/17/1
f 369/28/1 370/29/1 371/22/1 372/20/1
f 373/29/1 374/30/1 375/24/1 376/22/1
f 377/26/1 378/27/1 379/17/1 380/16/1
f 381/27/1 382/28/1 383/20/1 384/17/1
f 385/16/1 386/17/1 387/18/1 388/19/1
f 389/17/1 390/20/1 391/21/1 392/18/1
f 393/20/1 394/22/1 395/23/1 396/21/1
f 397/22/1 398/24/1 399/25/1 400/23/1
f 401/16/1 402/17/1 403/18/1 404/19/1
f 405/17/1 406/20/1 407/21/1 408/18/1
f 409/20/1 410/22/1 411/23/1 412/21/1
f 413/22/1 414/24/1 415/25/1 416/23/1
f 417/16/1 418/17/1 419/18/1 420/19/1
f 421/17/1 422/20/1 423/21/1 424/18/1
f 425/20/1 426/22/1 427/23/1 428/21/1
f 429/22/1 430/24/1 431/25/1 432/23/1
f 433/16/1 434/17/1 435/18/1 436/19/1
f 437/17/1 438/20/1 439/21/1 440/18/1
f 441/20/1 442/22/1 443/23/1 444/21/1
f 445/22/1 446/24/1 447/25/1 448/23/1
f 449/26/1 450/27/1 451/17/1 452/16/1
f 453/27/1 454/28/1 455/20/1 456/17/1
f 457/28/1 458/29/1 459/22/1 460/20/1
f 461/29/1 462/30/1 463/24/1 464/22/1
f 465/26/1 466/27/1 467/17/1 468/16/1
f 469/27/1 470/28/1 471/20/1 472/17/1
f 473/28/1 474/29/1 475/22/1 476/20/1
f 477/29/1 478/30/1 479/24/1 480/22/1
f 481/26/1 482/27/1 483/17/1 484/16/1
f 485/27/1 486/28/1 487/20/1 488/17/1
f 489/28/1 490/29/1 491/22/1 492/20/1
f 493/29/1 494/30/1 495/24/1 496/22/1
f 497/26/1 498/27/1 499/17/1 500/16/1
f 501/27/1 502/28/1 503/20/1 504/17/1
f 505/28/1 506/29/1 507/22/1 508/20/1
f 509/29/1 510/30/1 511/24/1 512/22/1
f 513/20/1 514/22/1 515/23/1 516/21/1
f 517/22/1 518/24/1 519/25/1 520/23/1
f 521/16/1 522/17/1 523/18/1 524/19/1
f 525/17/1 526/20/1 527/21/1 528/18/1
f 529/20/1 530/22/1 531/23/1 532/21/1
f 533/22/1 534/24/1 535/25/1 536/23/1
f 537/16/1 538/17/1 539/18/1 540/19/1
f 541/17/1 542/20/1 543/21/1 544/18/1
f 545/20/1 546/22/1 547/23/1 548/21/1
f 549/22/1 550/24/1 551/25/1 552/23/1
f 553/16/1 554/17/1 555/18/1 556/19/1
f 557/17/1 558/20/1 559/21/1 560/18/1
f 561/20/1 562/22/1 563/23/1 564/21/1
f 565/22/1 566/24/1 567/25/1 568/23/1
f 569/16/1 570/17/1 571/18/1 572/19/1
f 573/17/1 574/20/1 575/21/1 576/18/1

