# Tiled2Unity generated file. Do not modify by hand.
# Wavefront file for 'Act-0-Forest_mesh_0151.obj'

# Vertices (Count = 252)
v -2 -3 -0.02
v -4 -3 -0.02
v -4 -1 -0.02
v -2 -1 -0.02
v -4 -3 -0.02
v -6 -3 -0.02
v -6 -1 -0.02
v -4 -1 -0.02
v -6 -3 -0.02
v -8 -3 -0.02
v -8 -1 -0.02
v -6 -1 -0.02
v -7 -3 -0.02
v -9 -3 -0.02
v -9 -1 -0.02
v -7 -1 -0.02
v -8 -3 -0.02
v -10 -3 -0.02
v -10 -1 -0.02
v -8 -1 -0.02
v -9 -3 -0.02
v -11 -3 -0.02
v -11 -1 -0.02
v -9 -1 -0.02
v -10 -3 -0.02
v -12 -3 -0.02
v -12 -1 -0.02
v -10 -1 -0.02
v -11 -3 -0.02
v -13 -3 -0.02
v -13 -1 -0.02
v -11 -1 -0.02
v -12 -3 -0.02
v -14 -3 -0.02
v -14 -1 -0.02
v -12 -1 -0.02
v -14 -3 -0.02
v -16 -3 -0.02
v -16 -1 -0.02
v -14 -1 -0.02
v -4 -4 -0.03
v -6 -4 -0.03
v -6 -2 -0.03
v -4 -2 -0.03
v -6 -4 -0.03
v -8 -4 -0.03
v -8 -2 -0.03
v -6 -2 -0.03
v -8 -4 -0.03
v -10 -4 -0.03
v -10 -2 -0.03
v -8 -2 -0.03
v -10 -4 -0.03
v -12 -4 -0.03
v -12 -2 -0.03
v -10 -2 -0.03
v -12 -4 -0.03
v -14 -4 -0.03
v -14 -2 -0.03
v -12 -2 -0.03
v -2 -5 -0.04
v -4 -5 -0.04
v -4 -3 -0.04
v -2 -3 -0.04
v -4 -5 -0.04
v -6 -5 -0.04
v -6 -3 -0.04
v -4 -3 -0.04
v -14 -5 -0.04
v -16 -5 -0.04
v -16 -3 -0.04
v -14 -3 -0.04
v -4 -6 -0.05
v -6 -6 -0.05
v -6 -4 -0.05
v -4 -4 -0.05
v -6 -6 -0.05
v -8 -6 -0.05
v -8 -4 -0.05
v -6 -4 -0.05
v -8 -6 -0.05
v -10 -6 -0.05
v -10 -4 -0.05
v -8 -4 -0.05
v -10 -6 -0.05
v -12 -6 -0.05
v -12 -4 -0.05
v -10 -4 -0.05
v -12 -6 -0.05
v -14 -6 -0.05
v -14 -4 -0.05
v -12 -4 -0.05
v -2 -7 -0.06
v -4 -7 -0.06
v -4 -5 -0.06
v -2 -5 -0.06
v -4 -7 -0.06
v -6 -7 -0.06
v -6 -5 -0.06
v -4 -5 -0.06
v -14 -7 -0.06
v -16 -7 -0.06
v -16 -5 -0.06
v -14 -5 -0.06
v -4 -8 -0.07
v -6 -8 -0.07
v -6 -6 -0.07
v -4 -6 -0.07
v -6 -8 -0.07
v -8 -8 -0.07
v -8 -6 -0.07
v -6 -6 -0.07
v -8 -8 -0.07
v -10 -8 -0.07
v -10 -6 -0.07
v -8 -6 -0.07
v -10 -8 -0.07
v -12 -8 -0.07
v -12 -6 -0.07
v -10 -6 -0.07
v -12 -8 -0.07
v -14 -8 -0.07
v -14 -6 -0.07
v -12 -6 -0.07
v -2 -9 -0.08
v -4 -9 -0.08
v -4 -7 -0.08
v -2 -7 -0.08
v -4 -9 -0.08
v -6 -9 -0.08
v -6 -7 -0.08
v -4 -7 -0.08
v -14 -9 -0.08
v -16 -9 -0.08
v -16 -7 -0.08
v -14 -7 -0.08
v -4 -10 -0.09
v -6 -10 -0.09
v -6 -8 -0.09
v -4 -8 -0.09
v -6 -10 -0.09
v -8 -10 -0.09
v -8 -8 -0.09
v -6 -8 -0.09
v -8 -10 -0.09
v -10 -10 -0.09
v -10 -8 -0.09
v -8 -8 -0.09
v -10 -10 -0.09
v -12 -10 -0.09
v -12 -8 -0.09
v -10 -8 -0.09
v -12 -10 -0.09
v -14 -10 -0.09
v -14 -8 -0.09
v -12 -8 -0.09
v -2 -11 -0.1
v -4 -11 -0.1
v -4 -9 -0.1
v -2 -9 -0.1
v -4 -11 -0.1
v -6 -11 -0.1
v -6 -9 -0.1
v -4 -9 -0.1
v -14 -11 -0.1
v -16 -11 -0.1
v -16 -9 -0.1
v -14 -9 -0.1
v -4 -12 -0.11
v -6 -12 -0.11
v -6 -10 -0.11
v -4 -10 -0.11
v -6 -12 -0.11
v -8 -12 -0.11
v -8 -10 -0.11
v -6 -10 -0.11
v -8 -12 -0.11
v -10 -12 -0.11
v -10 -10 -0.11
v -8 -10 -0.11
v -10 -12 -0.11
v -12 -12 -0.11
v -12 -10 -0.11
v -10 -10 -0.11
v -12 -12 -0.11
v -14 -12 -0.11
v -14 -10 -0.11
v -12 -10 -0.11
v -2 -13 -0.12
v -4 -13 -0.12
v -4 -11 -0.12
v -2 -11 -0.12
v -4 -13 -0.12
v -6 -13 -0.12
v -6 -11 -0.12
v -4 -11 -0.12
v -14 -13 -0.12
v -16 -13 -0.12
v -16 -11 -0.12
v -14 -11 -0.12
v -4 -14 -0.13
v -6 -14 -0.13
v -6 -12 -0.13
v -4 -12 -0.13
v -6 -14 -0.13
v -8 -14 -0.13
v -8 -12 -0.13
v -6 -12 -0.13
v -8 -14 -0.13
v -10 -14 -0.13
v -10 -12 -0.13
v -8 -12 -0.13
v -10 -14 -0.13
v -12 -14 -0.13
v -12 -12 -0.13
v -10 -12 -0.13
v -12 -14 -0.13
v -14 -14 -0.13
v -14 -12 -0.13
v -12 -12 -0.13
v -2 -15 -0.14
v -4 -15 -0.14
v -4 -13 -0.14
v -2 -13 -0.14
v -4 -15 -0.14
v -6 -15 -0.14
v -6 -13 -0.14
v -4 -13 -0.14
v -14 -15 -0.14
v -16 -15 -0.14
v -16 -13 -0.14
v -14 -13 -0.14
v -4 -16 -0.15
v -6 -16 -0.15
v -6 -14 -0.15
v -4 -14 -0.15
v -6 -16 -0.15
v -8 -16 -0.15
v -8 -14 -0.15
v -6 -14 -0.15
v -8 -16 -0.15
v -10 -16 -0.15
v -10 -14 -0.15
v -8 -14 -0.15
v -10 -16 -0.15
v -12 -16 -0.15
v -12 -14 -0.15
v -10 -14 -0.15
v -12 -16 -0.15
v -14 -16 -0.15
v -14 -14 -0.15
v -12 -14 -0.15

# Texture cooridinates (Count = 12)
vt 0.078125 0.8333333
vt 0.09375 0.8333333
vt 0.09375 0.8541667
vt 0.078125 0.8541667
vt 0.09375 0.08333331
vt 0.109375 0.08333331
vt 0.109375 0.1041667
vt 0.09375 0.1041667
vt 0.109375 0.8333333
vt 0.125 0.8333333
vt 0.125 0.8541667
vt 0.109375 0.8541667

# Normal
vn 0 0 -1

# Mesh description
g Act-0-Forest_mesh_0151

# Faces
f 1/1/1 2/2/1 3/3/1 4/4/1
f 5/5/1 6/6/1 7/7/1 8/8/1
f 9/5/1 10/6/1 11/7/1 12/8/1
f 13/5/1 14/6/1 15/7/1 16/8/1
f 17/5/1 18/6/1 19/7/1 20/8/1
f 21/5/1 22/6/1 23/7/1 24/8/1
f 25/5/1 26/6/1 27/7/1 28/8/1
f 29/5/1 30/6/1 31/7/1 32/8/1
f 33/5/1 34/6/1 35/7/1 36/8/1
f 37/9/1 38/10/1 39/11/1 40/12/1
f 41/5/1 42/6/1 43/7/1 44/8/1
f 45/5/1 46/6/1 47/7/1 48/8/1
f 49/5/1 50/6/1 51/7/1 52/8/1
f 53/5/1 54/6/1 55/7/1 56/8/1
f 57/5/1 58/6/1 59/7/1 60/8/1
f 61/1/1 62/2/1 63/3/1 64/4/1
f 65/5/1 66/6/1 67/7/1 68/8/1
f 69/9/1 70/10/1 71/11/1 72/12/1
f 73/5/1 74/6/1 75/7/1 76/8/1
f 77/5/1 78/6/1 79/7/1 80/8/1
f 81/5/1 82/6/1 83/7/1 84/8/1
f 85/5/1 86/6/1 87/7/1 88/8/1
f 89/5/1 90/6/1 91/7/1 92/8/1
f 93/1/1 94/2/1 95/3/1 96/4/1
f 97/5/1 98/6/1 99/7/1 100/8/1
f 101/9/1 102/10/1 103/11/1 104/12/1
f 105/5/1 106/6/1 107/7/1 108/8/1
f 109/5/1 110/6/1 111/7/1 112/8/1
f 113/5/1 114/6/1 115/7/1 116/8/1
f 117/5/1 118/6/1 119/7/1 120/8/1
f 121/5/1 122/6/1 123/7/1 124/8/1
f 125/1/1 126/2/1 127/3/1 128/4/1
f 129/5/1 130/6/1 131/7/1 132/8/1
f 133/9/1 134/10/1 135/11/1 136/12/1
f 137/5/1 138/6/1 139/7/1 140/8/1
f 141/5/1 142/6/1 143/7/1 144/8/1
f 145/5/1 146/6/1 147/7/1 148/8/1
f 149/5/1 150/6/1 151/7/1 152/8/1
f 153/5/1 154/6/1 155/7/1 156/8/1
f 157/1/1 158/2/1 159/3/1 160/4/1
f 161/5/1 162/6/1 163/7/1 164/8/1
f 165/9/1 166/10/1 167/11/1 168/12/1
f 169/5/1 170/6/1 171/7/1 172/8/1
f 173/5/1 174/6/1 175/7/1 176/8/1
f 177/5/1 178/6/1 179/7/1 180/8/1
f 181/5/1 182/6/1 183/7/1 184/8/1
f 185/5/1 186/6/1 187/7/1 188/8/1
f 189/1/1 190/2/1 191/3/1 192/4/1
f 193/5/1 194/6/1 195/7/1 196/8/1
f 197/9/1 198/10/1 199/11/1 200/12/1
f 201/5/1 202/6/1 203/7/1 204/8/1
f 205/5/1 206/6/1 207/7/1 208/8/1
f 209/5/1 210/6/1 211/7/1 212/8/1
f 213/5/1 214/6/1 215/7/1 216/8/1
f 217/5/1 218/6/1 219/7/1 220/8/1
f 221/1/1 222/2/1 223/3/1 224/4/1
f 225/5/1 226/6/1 227/7/1 228/8/1
f 229/9/1 230/10/1 231/11/1 232/12/1
f 233/5/1 234/6/1 235/7/1 236/8/1
f 237/5/1 238/6/1 239/7/1 240/8/1
f 241/5/1 242/6/1 243/7/1 244/8/1
f 245/5/1 246/6/1 247/7/1 248/8/1
f 249/5/1 250/6/1 251/7/1 252/8/1

