# Tiled2Unity generated file. Do not modify by hand.
# Wavefront file for 'Act-0-Forest_mesh_0154.obj'

# Vertices (Count = 252)
v -2 -1 0
v -4 -1 0
v -4 1 0
v -2 1 0
v -4 -1 0
v -6 -1 0
v -6 1 0
v -4 1 0
v -14 -1 0
v -16 -1 0
v -16 1 0
v -14 1 0
v -4 -2 -0.01
v -6 -2 -0.01
v -6 0 -0.01
v -4 0 -0.01
v -6 -2 -0.01
v -8 -2 -0.01
v -8 0 -0.01
v -6 0 -0.01
v -8 -2 -0.01
v -10 -2 -0.01
v -10 0 -0.01
v -8 0 -0.01
v -10 -2 -0.01
v -12 -2 -0.01
v -12 0 -0.01
v -10 0 -0.01
v -12 -2 -0.01
v -14 -2 -0.01
v -14 0 -0.01
v -12 0 -0.01
v -2 -3 -0.02
v -4 -3 -0.02
v -4 -1 -0.02
v -2 -1 -0.02
v -4 -3 -0.02
v -6 -3 -0.02
v -6 -1 -0.02
v -4 -1 -0.02
v -14 -3 -0.02
v -16 -3 -0.02
v -16 -1 -0.02
v -14 -1 -0.02
v -4 -4 -0.03
v -6 -4 -0.03
v -6 -2 -0.03
v -4 -2 -0.03
v -6 -4 -0.03
v -8 -4 -0.03
v -8 -2 -0.03
v -6 -2 -0.03
v -8 -4 -0.03
v -10 -4 -0.03
v -10 -2 -0.03
v -8 -2 -0.03
v -10 -4 -0.03
v -12 -4 -0.03
v -12 -2 -0.03
v -10 -2 -0.03
v -12 -4 -0.03
v -14 -4 -0.03
v -14 -2 -0.03
v -12 -2 -0.03
v -2 -5 -0.04
v -4 -5 -0.04
v -4 -3 -0.04
v -2 -3 -0.04
v -4 -5 -0.04
v -6 -5 -0.04
v -6 -3 -0.04
v -4 -3 -0.04
v -14 -5 -0.04
v -16 -5 -0.04
v -16 -3 -0.04
v -14 -3 -0.04
v -4 -6 -0.05
v -6 -6 -0.05
v -6 -4 -0.05
v -4 -4 -0.05
v -6 -6 -0.05
v -8 -6 -0.05
v -8 -4 -0.05
v -6 -4 -0.05
v -8 -6 -0.05
v -10 -6 -0.05
v -10 -4 -0.05
v -8 -4 -0.05
v -10 -6 -0.05
v -12 -6 -0.05
v -12 -4 -0.05
v -10 -4 -0.05
v -12 -6 -0.05
v -14 -6 -0.05
v -14 -4 -0.05
v -12 -4 -0.05
v -2 -7 -0.06
v -4 -7 -0.06
v -4 -5 -0.06
v -2 -5 -0.06
v -4 -7 -0.06
v -6 -7 -0.06
v -6 -5 -0.06
v -4 -5 -0.06
v -14 -7 -0.06
v -16 -7 -0.06
v -16 -5 -0.06
v -14 -5 -0.06
v -4 -8 -0.07
v -6 -8 -0.07
v -6 -6 -0.07
v -4 -6 -0.07
v -6 -8 -0.07
v -8 -8 -0.07
v -8 -6 -0.07
v -6 -6 -0.07
v -8 -8 -0.07
v -10 -8 -0.07
v -10 -6 -0.07
v -8 -6 -0.07
v -10 -8 -0.07
v -12 -8 -0.07
v -12 -6 -0.07
v -10 -6 -0.07
v -12 -8 -0.07
v -14 -8 -0.07
v -14 -6 -0.07
v -12 -6 -0.07
v -2 -9 -0.08
v -4 -9 -0.08
v -4 -7 -0.08
v -2 -7 -0.08
v -4 -9 -0.08
v -6 -9 -0.08
v -6 -7 -0.08
v -4 -7 -0.08
v -14 -9 -0.08
v -16 -9 -0.08
v -16 -7 -0.08
v -14 -7 -0.08
v -4 -10 -0.09
v -6 -10 -0.09
v -6 -8 -0.09
v -4 -8 -0.09
v -6 -10 -0.09
v -8 -10 -0.09
v -8 -8 -0.09
v -6 -8 -0.09
v -8 -10 -0.09
v -10 -10 -0.09
v -10 -8 -0.09
v -8 -8 -0.09
v -10 -10 -0.09
v -12 -10 -0.09
v -12 -8 -0.09
v -10 -8 -0.09
v -12 -10 -0.09
v -14 -10 -0.09
v -14 -8 -0.09
v -12 -8 -0.09
v -2 -11 -0.1
v -4 -11 -0.1
v -4 -9 -0.1
v -2 -9 -0.1
v -4 -11 -0.1
v -6 -11 -0.1
v -6 -9 -0.1
v -4 -9 -0.1
v -14 -11 -0.1
v -16 -11 -0.1
v -16 -9 -0.1
v -14 -9 -0.1
v -4 -12 -0.11
v -6 -12 -0.11
v -6 -10 -0.11
v -4 -10 -0.11
v -6 -12 -0.11
v -8 -12 -0.11
v -8 -10 -0.11
v -6 -10 -0.11
v -8 -12 -0.11
v -10 -12 -0.11
v -10 -10 -0.11
v -8 -10 -0.11
v -10 -12 -0.11
v -12 -12 -0.11
v -12 -10 -0.11
v -10 -10 -0.11
v -12 -12 -0.11
v -14 -12 -0.11
v -14 -10 -0.11
v -12 -10 -0.11
v -2 -13 -0.12
v -4 -13 -0.12
v -4 -11 -0.12
v -2 -11 -0.12
v -4 -13 -0.12
v -6 -13 -0.12
v -6 -11 -0.12
v -4 -11 -0.12
v -14 -13 -0.12
v -16 -13 -0.12
v -16 -11 -0.12
v -14 -11 -0.12
v -6 -14 -0.13
v -8 -14 -0.13
v -8 -12 -0.13
v -6 -12 -0.13
v -8 -14 -0.13
v -10 -14 -0.13
v -10 -12 -0.13
v -8 -12 -0.13
v -10 -14 -0.13
v -12 -14 -0.13
v -12 -12 -0.13
v -10 -12 -0.13
v -12 -14 -0.13
v -14 -14 -0.13
v -14 -12 -0.13
v -12 -12 -0.13
v -14 -14 -0.13
v -16 -14 -0.13
v -16 -12 -0.13
v -14 -12 -0.13
v -2 -15 -0.14
v -4 -15 -0.14
v -4 -13 -0.14
v -2 -13 -0.14
v -4 -15 -0.14
v -6 -15 -0.14
v -6 -13 -0.14
v -4 -13 -0.14
v -6 -16 -0.15
v -8 -16 -0.15
v -8 -14 -0.15
v -6 -14 -0.15
v -8 -16 -0.15
v -10 -16 -0.15
v -10 -14 -0.15
v -8 -14 -0.15
v -10 -16 -0.15
v -12 -16 -0.15
v -12 -14 -0.15
v -10 -14 -0.15
v -12 -16 -0.15
v -14 -16 -0.15
v -14 -14 -0.15
v -12 -14 -0.15
v -14 -16 -0.15
v -16 -16 -0.15
v -16 -14 -0.15
v -14 -14 -0.15

# Texture cooridinates (Count = 19)
vt 0.078125 0.8333333
vt 0.09375 0.8333333
vt 0.09375 0.8541667
vt 0.078125 0.8541667
vt 0.09375 0.08333331
vt 0.109375 0.08333331
vt 0.109375 0.1041667
vt 0.09375 0.1041667
vt 0.109375 0.8333333
vt 0.125 0.8333333
vt 0.125 0.8541667
vt 0.109375 0.8541667
vt 0.0625 0.7708333
vt 0.078125 0.7708333
vt 0.078125 0.7916667
vt 0.0625 0.7916667
vt 0.078125 0.8125
vt 0.09375 0.8125
vt 0.09375 0.7916667

# Normal
vn 0 0 -1

# Mesh description
g Act-0-Forest_mesh_0154

# Faces
f 1/1/1 2/2/1 3/3/1 4/4/1
f 5/5/1 6/6/1 7/7/1 8/8/1
f 9/9/1 10/10/1 11/11/1 12/12/1
f 13/5/1 14/6/1 15/7/1 16/8/1
f 17/5/1 18/6/1 19/7/1 20/8/1
f 21/5/1 22/6/1 23/7/1 24/8/1
f 25/5/1 26/6/1 27/7/1 28/8/1
f 29/5/1 30/6/1 31/7/1 32/8/1
f 33/1/1 34/2/1 35/3/1 36/4/1
f 37/5/1 38/6/1 39/7/1 40/8/1
f 41/9/1 42/10/1 43/11/1 44/12/1
f 45/5/1 46/6/1 47/7/1 48/8/1
f 49/5/1 50/6/1 51/7/1 52/8/1
f 53/5/1 54/6/1 55/7/1 56/8/1
f 57/5/1 58/6/1 59/7/1 60/8/1
f 61/5/1 62/6/1 63/7/1 64/8/1
f 65/1/1 66/2/1 67/3/1 68/4/1
f 69/5/1 70/6/1 71/7/1 72/8/1
f 73/9/1 74/10/1 75/11/1 76/12/1
f 77/5/1 78/6/1 79/7/1 80/8/1
f 81/5/1 82/6/1 83/7/1 84/8/1
f 85/5/1 86/6/1 87/7/1 88/8/1
f 89/5/1 90/6/1 91/7/1 92/8/1
f 93/5/1 94/6/1 95/7/1 96/8/1
f 97/1/1 98/2/1 99/3/1 100/4/1
f 101/5/1 102/6/1 103/7/1 104/8/1
f 105/9/1 106/10/1 107/11/1 108/12/1
f 109/5/1 110/6/1 111/7/1 112/8/1
f 113/5/1 114/6/1 115/7/1 116/8/1
f 117/5/1 118/6/1 119/7/1 120/8/1
f 121/5/1 122/6/1 123/7/1 124/8/1
f 125/5/1 126/6/1 127/7/1 128/8/1
f 129/1/1 130/2/1 131/3/1 132/4/1
f 133/5/1 134/6/1 135/7/1 136/8/1
f 137/9/1 138/10/1 139/11/1 140/12/1
f 141/5/1 142/6/1 143/7/1 144/8/1
f 145/5/1 146/6/1 147/7/1 148/8/1
f 149/5/1 150/6/1 151/7/1 152/8/1
f 153/5/1 154/6/1 155/7/1 156/8/1
f 157/5/1 158/6/1 159/7/1 160/8/1
f 161/1/1 162/2/1 163/3/1 164/4/1
f 165/5/1 166/6/1 167/7/1 168/8/1
f 169/13/1 170/14/1 171/15/1 172/16/1
f 173/5/1 174/6/1 175/7/1 176/8/1
f 177/5/1 178/6/1 179/7/1 180/8/1
f 181/5/1 182/6/1 183/7/1 184/8/1
f 185/5/1 186/6/1 187/7/1 188/8/1
f 189/5/1 190/6/1 191/7/1 192/8/1
f 193/1/1 194/2/1 195/3/1 196/4/1
f 197/5/1 198/6/1 199/7/1 200/8/1
f 201/2/1 202/9/1 203/12/1 204/3/1
f 205/5/1 206/6/1 207/7/1 208/8/1
f 209/5/1 210/6/1 211/7/1 212/8/1
f 213/5/1 214/6/1 215/7/1 216/8/1
f 217/5/1 218/6/1 219/7/1 220/8/1
f 221/2/1 222/9/1 223/12/1 224/3/1
f 225/17/1 226/18/1 227/2/1 228/1/1
f 229/15/1 230/19/1 231/18/1 232/17/1
f 233/5/1 234/6/1 235/7/1 236/8/1
f 237/5/1 238/6/1 239/7/1 240/8/1
f 241/5/1 242/6/1 243/7/1 244/8/1
f 245/5/1 246/6/1 247/7/1 248/8/1
f 249/2/1 250/9/1 251/12/1 252/3/1

