# Tiled2Unity generated file. Do not modify by hand.
# Wavefront file for 'Act-0-Forest_mesh_0279.obj'

# Vertices (Count = 312)
v 0 -1 -0.01
v -1 -1 -0.01
v -1 0 -0.01
v 0 0 -0.01
v -1 -1 -0.01
v -2 -1 -0.01
v -2 0 -0.01
v -1 0 -0.01
v -2 -1 -0.01
v -3 -1 -0.01
v -3 0 -0.01
v -2 0 -0.01
v -3 -1 -0.01
v -4 -1 -0.01
v -4 0 -0.01
v -3 0 -0.01
v -4 -1 -0.01
v -5 -1 -0.01
v -5 0 -0.01
v -4 0 -0.01
v -5 -1 -0.01
v -6 -1 -0.01
v -6 0 -0.01
v -5 0 -0.01
v 0 -2 -0.02
v -1 -2 -0.02
v -1 -1 -0.02
v 0 -1 -0.02
v -1 -2 -0.02
v -2 -2 -0.02
v -2 -1 -0.02
v -1 -1 -0.02
v -2 -2 -0.02
v -3 -2 -0.02
v -3 -1 -0.02
v -2 -1 -0.02
v -3 -2 -0.02
v -4 -2 -0.02
v -4 -1 -0.02
v -3 -1 -0.02
v -4 -2 -0.02
v -5 -2 -0.02
v -5 -1 -0.02
v -4 -1 -0.02
v -5 -2 -0.02
v -6 -2 -0.02
v -6 -1 -0.02
v -5 -1 -0.02
v 0 -3 -0.03
v -1 -3 -0.03
v -1 -2 -0.03
v 0 -2 -0.03
v -1 -3 -0.03
v -2 -3 -0.03
v -2 -2 -0.03
v -1 -2 -0.03
v -2 -3 -0.03
v -3 -3 -0.03
v -3 -2 -0.03
v -2 -2 -0.03
v -3 -3 -0.03
v -4 -3 -0.03
v -4 -2 -0.03
v -3 -2 -0.03
v -4 -3 -0.03
v -5 -3 -0.03
v -5 -2 -0.03
v -4 -2 -0.03
v -5 -3 -0.03
v -6 -3 -0.03
v -6 -2 -0.03
v -5 -2 -0.03
v 0 -4 -0.04
v -1 -4 -0.04
v -1 -3 -0.04
v 0 -3 -0.04
v -1 -4 -0.04
v -2 -4 -0.04
v -2 -3 -0.04
v -1 -3 -0.04
v -2 -4 -0.04
v -3 -4 -0.04
v -3 -3 -0.04
v -2 -3 -0.04
v -3 -4 -0.04
v -4 -4 -0.04
v -4 -3 -0.04
v -3 -3 -0.04
v 0 -5 -0.05
v -1 -5 -0.05
v -1 -4 -0.05
v 0 -4 -0.05
v -1 -5 -0.05
v -2 -5 -0.05
v -2 -4 -0.05
v -1 -4 -0.05
v -2 -5 -0.05
v -3 -5 -0.05
v -3 -4 -0.05
v -2 -4 -0.05
v -3 -5 -0.05
v -4 -5 -0.05
v -4 -4 -0.05
v -3 -4 -0.05
v 0 -6 -0.06
v -1 -6 -0.06
v -1 -5 -0.06
v 0 -5 -0.06
v -1 -6 -0.06
v -2 -6 -0.06
v -2 -5 -0.06
v -1 -5 -0.06
v -2 -6 -0.06
v -3 -6 -0.06
v -3 -5 -0.06
v -2 -5 -0.06
v -3 -6 -0.06
v -4 -6 -0.06
v -4 -5 -0.06
v -3 -5 -0.06
v 0 -7 -0.07
v -1 -7 -0.07
v -1 -6 -0.07
v 0 -6 -0.07
v -1 -7 -0.07
v -2 -7 -0.07
v -2 -6 -0.07
v -1 -6 -0.07
v -2 -7 -0.07
v -3 -7 -0.07
v -3 -6 -0.07
v -2 -6 -0.07
v -3 -7 -0.07
v -4 -7 -0.07
v -4 -6 -0.07
v -3 -6 -0.07
v 0 -8 -0.08
v -1 -8 -0.08
v -1 -7 -0.08
v 0 -7 -0.08
v -1 -8 -0.08
v -2 -8 -0.08
v -2 -7 -0.08
v -1 -7 -0.08
v -2 -8 -0.08
v -3 -8 -0.08
v -3 -7 -0.08
v -2 -7 -0.08
v -3 -8 -0.08
v -4 -8 -0.08
v -4 -7 -0.08
v -3 -7 -0.08
v -6 -8 -0.08
v -7 -8 -0.08
v -7 -7 -0.08
v -6 -7 -0.08
v -7 -8 -0.08
v -8 -8 -0.08
v -8 -7 -0.08
v -7 -7 -0.08
v -8 -8 -0.08
v -9 -8 -0.08
v -9 -7 -0.08
v -8 -7 -0.08
v -9 -8 -0.08
v -10 -8 -0.08
v -10 -7 -0.08
v -9 -7 -0.08
v 0 -9 -0.09
v -1 -9 -0.09
v -1 -8 -0.09
v 0 -8 -0.09
v -1 -9 -0.09
v -2 -9 -0.09
v -2 -8 -0.09
v -1 -8 -0.09
v -2 -9 -0.09
v -3 -9 -0.09
v -3 -8 -0.09
v -2 -8 -0.09
v -3 -9 -0.09
v -4 -9 -0.09
v -4 -8 -0.09
v -3 -8 -0.09
v -6 -9 -0.09
v -7 -9 -0.09
v -7 -8 -0.09
v -6 -8 -0.09
v -7 -9 -0.09
v -8 -9 -0.09
v -8 -8 -0.09
v -7 -8 -0.09
v -8 -9 -0.09
v -9 -9 -0.09
v -9 -8 -0.09
v -8 -8 -0.09
v -9 -9 -0.09
v -10 -9 -0.09
v -10 -8 -0.09
v -9 -8 -0.09
v 0 -10 -0.1
v -1 -10 -0.1
v -1 -9 -0.1
v 0 -9 -0.1
v -1 -10 -0.1
v -2 -10 -0.1
v -2 -9 -0.1
v -1 -9 -0.1
v -6 -10 -0.1
v -7 -10 -0.1
v -7 -9 -0.1
v -6 -9 -0.1
v -7 -10 -0.1
v -8 -10 -0.1
v -8 -9 -0.1
v -7 -9 -0.1
v -8 -10 -0.1
v -9 -10 -0.1
v -9 -9 -0.1
v -8 -9 -0.1
v -9 -10 -0.1
v -10 -10 -0.1
v -10 -9 -0.1
v -9 -9 -0.1
v 0 -11 -0.11
v -1 -11 -0.11
v -1 -10 -0.11
v 0 -10 -0.11
v -1 -11 -0.11
v -2 -11 -0.11
v -2 -10 -0.11
v -1 -10 -0.11
v -6 -11 -0.11
v -7 -11 -0.11
v -7 -10 -0.11
v -6 -10 -0.11
v -7 -11 -0.11
v -8 -11 -0.11
v -8 -10 -0.11
v -7 -10 -0.11
v -8 -11 -0.11
v -9 -11 -0.11
v -9 -10 -0.11
v -8 -10 -0.11
v -9 -11 -0.11
v -10 -11 -0.11
v -10 -10 -0.11
v -9 -10 -0.11
v 0 -12 -0.12
v -1 -12 -0.12
v -1 -11 -0.12
v 0 -11 -0.12
v -1 -12 -0.12
v -2 -12 -0.12
v -2 -11 -0.12
v -1 -11 -0.12
v 0 -13 -0.13
v -1 -13 -0.13
v -1 -12 -0.13
v 0 -12 -0.13
v -1 -13 -0.13
v -2 -13 -0.13
v -2 -12 -0.13
v -1 -12 -0.13
v 0 -14 -0.14
v -1 -14 -0.14
v -1 -13 -0.14
v 0 -13 -0.14
v -1 -14 -0.14
v -2 -14 -0.14
v -2 -13 -0.14
v -1 -13 -0.14
v -2 -14 -0.14
v -3 -14 -0.14
v -3 -13 -0.14
v -2 -13 -0.14
v -3 -14 -0.14
v -4 -14 -0.14
v -4 -13 -0.14
v -3 -13 -0.14
v 0 -15 -0.15
v -1 -15 -0.15
v -1 -14 -0.15
v 0 -14 -0.15
v -1 -15 -0.15
v -2 -15 -0.15
v -2 -14 -0.15
v -1 -14 -0.15
v -2 -15 -0.15
v -3 -15 -0.15
v -3 -14 -0.15
v -2 -14 -0.15
v -3 -15 -0.15
v -4 -15 -0.15
v -4 -14 -0.15
v -3 -14 -0.15
v 0 -16 -0.16
v -1 -16 -0.16
v -1 -15 -0.16
v 0 -15 -0.16
v -1 -16 -0.16
v -2 -16 -0.16
v -2 -15 -0.16
v -1 -15 -0.16
v -2 -16 -0.16
v -3 -16 -0.16
v -3 -15 -0.16
v -2 -15 -0.16
v -3 -16 -0.16
v -4 -16 -0.16
v -4 -15 -0.16
v -3 -15 -0.16

# Texture cooridinates (Count = 40)
vt 0.4444444 0.962406
vt 0.5 0.962406
vt 0.5 0.9661654
vt 0.4444444 0.9661654
vt 0.5555556 0.962406
vt 0.5555556 0.9661654
vt 0.3333333 0.962406
vt 0.3888889 0.962406
vt 0.3888889 0.9661654
vt 0.3333333 0.9661654
vt 0.4444444 0.9849624
vt 0.5 0.9849624
vt 0.5 0.9887218
vt 0.4444444 0.9887218
vt 0.5555556 0.9849624
vt 0.5555556 0.9887218
vt 0.3888889 0.9699248
vt 0.3333333 0.9699248
vt 0.4444444 0.9699248
vt 0.5 0.9699248
vt 0.5555556 0.9699248
vt 0.4444444 0.981203
vt 0.5 0.981203
vt 0.5555556 0.981203
vt 0.4444444 0.9774436
vt 0.5 0.9774436
vt 0.5555556 0.9774436
vt 0.5 0.9924812
vt 0.4444444 0.9924812
vt 0.5555556 0.9924812
vt 0.3333333 0.9887218
vt 0.3888889 0.9887218
vt 0.3888889 0.9924812
vt 0.3333333 0.9924812
vt 0.3333333 0.9849624
vt 0.3888889 0.9849624
vt 0.3333333 0.981203
vt 0.3888889 0.981203
vt 0.3333333 0.9774436
vt 0.3888889 0.9774436

# Normal
vn 0 0 -1

# Mesh description
g Act-0-Forest_mesh_0279

# Faces
f 1/1/1 2/2/1 3/3/1 4/4/1
f 5/2/1 6/5/1 7/6/1 8/3/1
f 9/7/1 10/8/1 11/9/1 12/10/1
f 13/8/1 14/1/1 15/4/1 16/9/1
f 17/11/1 18/12/1 19/13/1 20/14/1
f 21/12/1 22/15/1 23/16/1 24/13/1
f 25/10/1 26/9/1 27/17/1 28/18/1
f 29/9/1 30/4/1 31/19/1 32/17/1
f 33/4/1 34/3/1 35/20/1 36/19/1
f 37/3/1 38/6/1 39/21/1 40/20/1
f 41/22/1 42/23/1 43/12/1 44/11/1
f 45/23/1 46/24/1 47/15/1 48/12/1
f 49/7/1 50/8/1 51/9/1 52/10/1
f 53/8/1 54/1/1 55/4/1 56/9/1
f 57/1/1 58/2/1 59/3/1 60/4/1
f 61/2/1 62/5/1 63/6/1 64/3/1
f 65/25/1 66/26/1 67/23/1 68/22/1
f 69/26/1 70/27/1 71/24/1 72/23/1
f 73/4/1 74/3/1 75/20/1 76/19/1
f 77/3/1 78/6/1 79/21/1 80/20/1
f 81/22/1 82/23/1 83/12/1 84/11/1
f 85/23/1 86/24/1 87/15/1 88/12/1
f 89/1/1 90/2/1 91/3/1 92/4/1
f 93/2/1 94/5/1 95/6/1 96/3/1
f 97/25/1 98/26/1 99/23/1 100/22/1
f 101/26/1 102/27/1 103/24/1 104/23/1
f 105/10/1 106/9/1 107/17/1 108/18/1
f 109/9/1 110/4/1 111/19/1 112/17/1
f 113/14/1 114/13/1 115/28/1 116/29/1
f 117/13/1 118/16/1 119/30/1 120/28/1
f 121/7/1 122/8/1 123/9/1 124/10/1
f 125/8/1 126/1/1 127/4/1 128/9/1
f 129/11/1 130/12/1 131/13/1 132/14/1
f 133/12/1 134/15/1 135/16/1 136/13/1
f 137/4/1 138/3/1 139/20/1 140/19/1
f 141/3/1 142/6/1 143/21/1 144/20/1
f 145/22/1 146/23/1 147/12/1 148/11/1
f 149/23/1 150/24/1 151/15/1 152/12/1
f 153/31/1 154/32/1 155/33/1 156/34/1
f 157/32/1 158/14/1 159/29/1 160/33/1
f 161/14/1 162/13/1 163/28/1 164/29/1
f 165/13/1 166/16/1 167/30/1 168/28/1
f 169/1/1 170/2/1 171/3/1 172/4/1
f 173/2/1 174/5/1 175/6/1 176/3/1
f 177/25/1 178/26/1 179/23/1 180/22/1
f 181/26/1 182/27/1 183/24/1 184/23/1
f 185/35/1 186/36/1 187/32/1 188/31/1
f 189/36/1 190/11/1 191/14/1 192/32/1
f 193/11/1 194/12/1 195/13/1 196/14/1
f 197/12/1 198/15/1 199/16/1 200/13/1
f 201/22/1 202/23/1 203/12/1 204/11/1
f 205/23/1 206/24/1 207/15/1 208/12/1
f 209/37/1 210/38/1 211/36/1 212/35/1
f 213/38/1 214/22/1 215/11/1 216/36/1
f 217/22/1 218/23/1 219/12/1 220/11/1
f 221/23/1 222/24/1 223/15/1 224/12/1
f 225/25/1 226/26/1 227/23/1 228/22/1
f 229/26/1 230/27/1 231/24/1 232/23/1
f 233/39/1 234/40/1 235/38/1 236/37/1
f 237/40/1 238/25/1 239/22/1 240/38/1
f 241/25/1 242/26/1 243/23/1 244/22/1
f 245/26/1 246/27/1 247/24/1 248/23/1
f 249/14/1 250/13/1 251/28/1 252/29/1
f 253/13/1 254/16/1 255/30/1 256/28/1
f 257/11/1 258/12/1 259/13/1 260/14/1
f 261/12/1 262/15/1 263/16/1 264/13/1
f 265/10/1 266/9/1 267/17/1 268/18/1
f 269/9/1 270/4/1 271/19/1 272/17/1
f 273/14/1 274/13/1 275/28/1 276/29/1
f 277/13/1 278/16/1 279/30/1 280/28/1
f 281/7/1 282/8/1 283/9/1 284/10/1
f 285/8/1 286/1/1 287/4/1 288/9/1
f 289/11/1 290/12/1 291/13/1 292/14/1
f 293/12/1 294/15/1 295/16/1 296/13/1
f 297/4/1 298/3/1 299/20/1 300/19/1
f 301/3/1 302/6/1 303/21/1 304/20/1
f 305/22/1 306/23/1 307/12/1 308/11/1
f 309/23/1 310/24/1 311/15/1 312/12/1

