# Tiled2Unity generated file. Do not modify by hand.
# Wavefront file for 'Act-0-Forest_mesh_0266.obj'

# Vertices (Count = 320)
v 0 -1 -0.01
v -1 -1 -0.01
v -1 0 -0.01
v 0 0 -0.01
v -1 -1 -0.01
v -2 -1 -0.01
v -2 0 -0.01
v -1 0 -0.01
v -2 -1 -0.01
v -3 -1 -0.01
v -3 0 -0.01
v -2 0 -0.01
v -3 -1 -0.01
v -4 -1 -0.01
v -4 0 -0.01
v -3 0 -0.01
v -4 -1 -0.01
v -5 -1 -0.01
v -5 0 -0.01
v -4 0 -0.01
v -5 -1 -0.01
v -6 -1 -0.01
v -6 0 -0.01
v -5 0 -0.01
v 0 -2 -0.02
v -1 -2 -0.02
v -1 -1 -0.02
v 0 -1 -0.02
v -1 -2 -0.02
v -2 -2 -0.02
v -2 -1 -0.02
v -1 -1 -0.02
v -2 -2 -0.02
v -3 -2 -0.02
v -3 -1 -0.02
v -2 -1 -0.02
v -3 -2 -0.02
v -4 -2 -0.02
v -4 -1 -0.02
v -3 -1 -0.02
v -4 -2 -0.02
v -5 -2 -0.02
v -5 -1 -0.02
v -4 -1 -0.02
v -5 -2 -0.02
v -6 -2 -0.02
v -6 -1 -0.02
v -5 -1 -0.02
v 0 -3 -0.03
v -1 -3 -0.03
v -1 -2 -0.03
v 0 -2 -0.03
v -1 -3 -0.03
v -2 -3 -0.03
v -2 -2 -0.03
v -1 -2 -0.03
v -2 -3 -0.03
v -3 -3 -0.03
v -3 -2 -0.03
v -2 -2 -0.03
v -3 -3 -0.03
v -4 -3 -0.03
v -4 -2 -0.03
v -3 -2 -0.03
v -4 -3 -0.03
v -5 -3 -0.03
v -5 -2 -0.03
v -4 -2 -0.03
v -5 -3 -0.03
v -6 -3 -0.03
v -6 -2 -0.03
v -5 -2 -0.03
v 0 -4 -0.04
v -1 -4 -0.04
v -1 -3 -0.04
v 0 -3 -0.04
v -1 -4 -0.04
v -2 -4 -0.04
v -2 -3 -0.04
v -1 -3 -0.04
v -2 -4 -0.04
v -3 -4 -0.04
v -3 -3 -0.04
v -2 -3 -0.04
v -3 -4 -0.04
v -4 -4 -0.04
v -4 -3 -0.04
v -3 -3 -0.04
v 0 -5 -0.05
v -1 -5 -0.05
v -1 -4 -0.05
v 0 -4 -0.05
v -1 -5 -0.05
v -2 -5 -0.05
v -2 -4 -0.05
v -1 -4 -0.05
v -2 -5 -0.05
v -3 -5 -0.05
v -3 -4 -0.05
v -2 -4 -0.05
v -3 -5 -0.05
v -4 -5 -0.05
v -4 -4 -0.05
v -3 -4 -0.05
v 0 -6 -0.06
v -1 -6 -0.06
v -1 -5 -0.06
v 0 -5 -0.06
v -1 -6 -0.06
v -2 -6 -0.06
v -2 -5 -0.06
v -1 -5 -0.06
v -2 -6 -0.06
v -3 -6 -0.06
v -3 -5 -0.06
v -2 -5 -0.06
v -3 -6 -0.06
v -4 -6 -0.06
v -4 -5 -0.06
v -3 -5 -0.06
v 0 -7 -0.07
v -1 -7 -0.07
v -1 -6 -0.07
v 0 -6 -0.07
v -1 -7 -0.07
v -2 -7 -0.07
v -2 -6 -0.07
v -1 -6 -0.07
v -2 -7 -0.07
v -3 -7 -0.07
v -3 -6 -0.07
v -2 -6 -0.07
v -3 -7 -0.07
v -4 -7 -0.07
v -4 -6 -0.07
v -3 -6 -0.07
v 0 -8 -0.08
v -1 -8 -0.08
v -1 -7 -0.08
v 0 -7 -0.08
v -1 -8 -0.08
v -2 -8 -0.08
v -2 -7 -0.08
v -1 -7 -0.08
v -2 -8 -0.08
v -3 -8 -0.08
v -3 -7 -0.08
v -2 -7 -0.08
v -3 -8 -0.08
v -4 -8 -0.08
v -4 -7 -0.08
v -3 -7 -0.08
v 0 -9 -0.09
v -1 -9 -0.09
v -1 -8 -0.09
v 0 -8 -0.09
v -1 -9 -0.09
v -2 -9 -0.09
v -2 -8 -0.09
v -1 -8 -0.09
v -2 -9 -0.09
v -3 -9 -0.09
v -3 -8 -0.09
v -2 -8 -0.09
v -3 -9 -0.09
v -4 -9 -0.09
v -4 -8 -0.09
v -3 -8 -0.09
v 0 -10 -0.1
v -1 -10 -0.1
v -1 -9 -0.1
v 0 -9 -0.1
v -1 -10 -0.1
v -2 -10 -0.1
v -2 -9 -0.1
v -1 -9 -0.1
v -2 -10 -0.1
v -3 -10 -0.1
v -3 -9 -0.1
v -2 -9 -0.1
v -3 -10 -0.1
v -4 -10 -0.1
v -4 -9 -0.1
v -3 -9 -0.1
v 0 -11 -0.11
v -1 -11 -0.11
v -1 -10 -0.11
v 0 -10 -0.11
v -1 -11 -0.11
v -2 -11 -0.11
v -2 -10 -0.11
v -1 -10 -0.11
v -2 -11 -0.11
v -3 -11 -0.11
v -3 -10 -0.11
v -2 -10 -0.11
v -3 -11 -0.11
v -4 -11 -0.11
v -4 -10 -0.11
v -3 -10 -0.11
v 0 -12 -0.12
v -1 -12 -0.12
v -1 -11 -0.12
v 0 -11 -0.12
v -1 -12 -0.12
v -2 -12 -0.12
v -2 -11 -0.12
v -1 -11 -0.12
v -2 -12 -0.12
v -3 -12 -0.12
v -3 -11 -0.12
v -2 -11 -0.12
v -3 -12 -0.12
v -4 -12 -0.12
v -4 -11 -0.12
v -3 -11 -0.12
v -4 -12 -0.12
v -5 -12 -0.12
v -5 -11 -0.12
v -4 -11 -0.12
v -5 -12 -0.12
v -6 -12 -0.12
v -6 -11 -0.12
v -5 -11 -0.12
v 0 -13 -0.13
v -1 -13 -0.13
v -1 -12 -0.13
v 0 -12 -0.13
v -1 -13 -0.13
v -2 -13 -0.13
v -2 -12 -0.13
v -1 -12 -0.13
v -2 -13 -0.13
v -3 -13 -0.13
v -3 -12 -0.13
v -2 -12 -0.13
v -3 -13 -0.13
v -4 -13 -0.13
v -4 -12 -0.13
v -3 -12 -0.13
v -4 -13 -0.13
v -5 -13 -0.13
v -5 -12 -0.13
v -4 -12 -0.13
v -5 -13 -0.13
v -6 -13 -0.13
v -6 -12 -0.13
v -5 -12 -0.13
v 0 -14 -0.14
v -1 -14 -0.14
v -1 -13 -0.14
v 0 -13 -0.14
v -1 -14 -0.14
v -2 -14 -0.14
v -2 -13 -0.14
v -1 -13 -0.14
v -2 -14 -0.14
v -3 -14 -0.14
v -3 -13 -0.14
v -2 -13 -0.14
v -3 -14 -0.14
v -4 -14 -0.14
v -4 -13 -0.14
v -3 -13 -0.14
v -4 -14 -0.14
v -5 -14 -0.14
v -5 -13 -0.14
v -4 -13 -0.14
v -5 -14 -0.14
v -6 -14 -0.14
v -6 -13 -0.14
v -5 -13 -0.14
v 0 -15 -0.15
v -1 -15 -0.15
v -1 -14 -0.15
v 0 -14 -0.15
v -1 -15 -0.15
v -2 -15 -0.15
v -2 -14 -0.15
v -1 -14 -0.15
v -2 -15 -0.15
v -3 -15 -0.15
v -3 -14 -0.15
v -2 -14 -0.15
v -3 -15 -0.15
v -4 -15 -0.15
v -4 -14 -0.15
v -3 -14 -0.15
v -4 -15 -0.15
v -5 -15 -0.15
v -5 -14 -0.15
v -4 -14 -0.15
v -5 -15 -0.15
v -6 -15 -0.15
v -6 -14 -0.15
v -5 -14 -0.15
v 0 -16 -0.16
v -1 -16 -0.16
v -1 -15 -0.16
v 0 -15 -0.16
v -1 -16 -0.16
v -2 -16 -0.16
v -2 -15 -0.16
v -1 -15 -0.16
v -2 -16 -0.16
v -3 -16 -0.16
v -3 -15 -0.16
v -2 -15 -0.16
v -3 -16 -0.16
v -4 -16 -0.16
v -4 -15 -0.16
v -3 -15 -0.16
v -4 -16 -0.16
v -5 -16 -0.16
v -5 -15 -0.16
v -4 -15 -0.16
v -5 -16 -0.16
v -6 -16 -0.16
v -6 -15 -0.16
v -5 -15 -0.16

# Texture cooridinates (Count = 34)
vt 0.4444444 0.9849624
vt 0.5 0.9849624
vt 0.5 0.9887218
vt 0.4444444 0.9887218
vt 0.5555556 0.9849624
vt 0.5555556 0.9887218
vt 0.3333333 0.9849624
vt 0.3888889 0.9849624
vt 0.3888889 0.9887218
vt 0.3333333 0.9887218
vt 0.3333333 0.9661654
vt 0.3888889 0.9661654
vt 0.3888889 0.9699248
vt 0.3333333 0.9699248
vt 0.4444444 0.9661654
vt 0.4444444 0.9699248
vt 0.5 0.9661654
vt 0.5 0.9699248
vt 0.5555556 0.9661654
vt 0.5555556 0.9699248
vt 0.4444444 0.981203
vt 0.5 0.981203
vt 0.5555556 0.981203
vt 0.3333333 0.962406
vt 0.3888889 0.962406
vt 0.4444444 0.962406
vt 0.5 0.962406
vt 0.5555556 0.962406
vt 0.4444444 0.9774436
vt 0.5 0.9774436
vt 0.5555556 0.9774436
vt 0.5 0.9924812
vt 0.4444444 0.9924812
vt 0.5555556 0.9924812

# Normal
vn 0 0 -1

# Mesh description
g Act-0-Forest_mesh_0266

# Faces
f 1/1/1 2/2/1 3/3/1 4/4/1
f 5/2/1 6/5/1 7/6/1 8/3/1
f 9/7/1 10/8/1 11/9/1 12/10/1
f 13/8/1 14/1/1 15/4/1 16/9/1
f 17/1/1 18/2/1 19/3/1 20/4/1
f 21/2/1 22/5/1 23/6/1 24/3/1
f 25/11/1 26/12/1 27/13/1 28/14/1
f 29/12/1 30/15/1 31/16/1 32/13/1
f 33/15/1 34/17/1 35/18/1 36/16/1
f 37/17/1 38/19/1 39/20/1 40/18/1
f 41/21/1 42/22/1 43/2/1 44/1/1
f 45/22/1 46/23/1 47/5/1 48/2/1
f 49/24/1 50/25/1 51/12/1 52/11/1
f 53/25/1 54/26/1 55/15/1 56/12/1
f 57/26/1 58/27/1 59/17/1 60/15/1
f 61/27/1 62/28/1 63/19/1 64/17/1
f 65/29/1 66/30/1 67/22/1 68/21/1
f 69/30/1 70/31/1 71/23/1 72/22/1
f 73/15/1 74/17/1 75/18/1 76/16/1
f 77/17/1 78/19/1 79/20/1 80/18/1
f 81/21/1 82/22/1 83/2/1 84/1/1
f 85/22/1 86/23/1 87/5/1 88/2/1
f 89/26/1 90/27/1 91/17/1 92/15/1
f 93/27/1 94/28/1 95/19/1 96/17/1
f 97/29/1 98/30/1 99/22/1 100/21/1
f 101/30/1 102/31/1 103/23/1 104/22/1
f 105/11/1 106/12/1 107/13/1 108/14/1
f 109/12/1 110/15/1 111/16/1 112/13/1
f 113/4/1 114/3/1 115/32/1 116/33/1
f 117/3/1 118/6/1 119/34/1 120/32/1
f 121/24/1 122/25/1 123/12/1 124/11/1
f 125/25/1 126/26/1 127/15/1 128/12/1
f 129/1/1 130/2/1 131/3/1 132/4/1
f 133/2/1 134/5/1 135/6/1 136/3/1
f 137/15/1 138/17/1 139/18/1 140/16/1
f 141/17/1 142/19/1 143/20/1 144/18/1
f 145/21/1 146/22/1 147/2/1 148/1/1
f 149/22/1 150/23/1 151/5/1 152/2/1
f 153/26/1 154/27/1 155/17/1 156/15/1
f 157/27/1 158/28/1 159/19/1 160/17/1
f 161/29/1 162/30/1 163/22/1 164/21/1
f 165/30/1 166/31/1 167/23/1 168/22/1
f 169/11/1 170/12/1 171/13/1 172/14/1
f 173/12/1 174/15/1 175/16/1 176/13/1
f 177/4/1 178/3/1 179/32/1 180/33/1
f 181/3/1 182/6/1 183/34/1 184/32/1
f 185/24/1 186/25/1 187/12/1 188/11/1
f 189/25/1 190/26/1 191/15/1 192/12/1
f 193/1/1 194/2/1 195/3/1 196/4/1
f 197/2/1 198/5/1 199/6/1 200/3/1
f 201/15/1 202/17/1 203/18/1 204/16/1
f 205/17/1 206/19/1 207/20/1 208/18/1
f 209/11/1 210/12/1 211/13/1 212/14/1
f 213/12/1 214/15/1 215/16/1 216/13/1
f 217/4/1 218/3/1 219/32/1 220/33/1
f 221/3/1 222/6/1 223/34/1 224/32/1
f 225/26/1 226/27/1 227/17/1 228/15/1
f 229/27/1 230/28/1 231/19/1 232/17/1
f 233/24/1 234/25/1 235/12/1 236/11/1
f 237/25/1 238/26/1 239/15/1 240/12/1
f 241/1/1 242/2/1 243/3/1 244/4/1
f 245/2/1 246/5/1 247/6/1 248/3/1
f 249/11/1 250/12/1 251/13/1 252/14/1
f 253/12/1 254/15/1 255/16/1 256/13/1
f 257/15/1 258/17/1 259/18/1 260/16/1
f 261/17/1 262/19/1 263/20/1 264/18/1
f 265/21/1 266/22/1 267/2/1 268/1/1
f 269/22/1 270/23/1 271/5/1 272/2/1
f 273/24/1 274/25/1 275/12/1 276/11/1
f 277/25/1 278/26/1 279/15/1 280/12/1
f 281/26/1 282/27/1 283/17/1 284/15/1
f 285/27/1 286/28/1 287/19/1 288/17/1
f 289/29/1 290/30/1 291/22/1 292/21/1
f 293/30/1 294/31/1 295/23/1 296/22/1
f 297/15/1 298/17/1 299/18/1 300/16/1
f 301/17/1 302/19/1 303/20/1 304/18/1
f 305/11/1 306/12/1 307/13/1 308/14/1
f 309/12/1 310/15/1 311/16/1 312/13/1
f 313/4/1 314/3/1 315/32/1 316/33/1
f 317/3/1 318/6/1 319/34/1 320/32/1

