# Tiled2Unity generated file. Do not modify by hand.
# Wavefront file for 'Act-0-Forest_mesh_0178.obj'

# Vertices (Count = 960)
v 0 -2 -0.02
v -1 -2 -0.02
v -1 -1 -0.02
v 0 -1 -0.02
v -1 -2 -0.02
v -2 -2 -0.02
v -2 -1 -0.02
v -1 -1 -0.02
v -2 -2 -0.02
v -3 -2 -0.02
v -3 -1 -0.02
v -2 -1 -0.02
v -3 -2 -0.02
v -4 -2 -0.02
v -4 -1 -0.02
v -3 -1 -0.02
v -4 -2 -0.02
v -5 -2 -0.02
v -5 -1 -0.02
v -4 -1 -0.02
v -5 -2 -0.02
v -6 -2 -0.02
v -6 -1 -0.02
v -5 -1 -0.02
v -6 -2 -0.02
v -7 -2 -0.02
v -7 -1 -0.02
v -6 -1 -0.02
v -7 -2 -0.02
v -8 -2 -0.02
v -8 -1 -0.02
v -7 -1 -0.02
v -8 -2 -0.02
v -9 -2 -0.02
v -9 -1 -0.02
v -8 -1 -0.02
v -9 -2 -0.02
v -10 -2 -0.02
v -10 -1 -0.02
v -9 -1 -0.02
v -10 -2 -0.02
v -11 -2 -0.02
v -11 -1 -0.02
v -10 -1 -0.02
v -11 -2 -0.02
v -12 -2 -0.02
v -12 -1 -0.02
v -11 -1 -0.02
v -12 -2 -0.02
v -13 -2 -0.02
v -13 -1 -0.02
v -12 -1 -0.02
v -13 -2 -0.02
v -14 -2 -0.02
v -14 -1 -0.02
v -13 -1 -0.02
v -14 -2 -0.02
v -15 -2 -0.02
v -15 -1 -0.02
v -14 -1 -0.02
v -15 -2 -0.02
v -16 -2 -0.02
v -16 -1 -0.02
v -15 -1 -0.02
v 0 -3 -0.03
v -1 -3 -0.03
v -1 -2 -0.03
v 0 -2 -0.03
v -1 -3 -0.03
v -2 -3 -0.03
v -2 -2 -0.03
v -1 -2 -0.03
v -2 -3 -0.03
v -3 -3 -0.03
v -3 -2 -0.03
v -2 -2 -0.03
v -3 -3 -0.03
v -4 -3 -0.03
v -4 -2 -0.03
v -3 -2 -0.03
v -4 -3 -0.03
v -5 -3 -0.03
v -5 -2 -0.03
v -4 -2 -0.03
v -5 -3 -0.03
v -6 -3 -0.03
v -6 -2 -0.03
v -5 -2 -0.03
v -6 -3 -0.03
v -7 -3 -0.03
v -7 -2 -0.03
v -6 -2 -0.03
v -7 -3 -0.03
v -8 -3 -0.03
v -8 -2 -0.03
v -7 -2 -0.03
v -8 -3 -0.03
v -9 -3 -0.03
v -9 -2 -0.03
v -8 -2 -0.03
v -9 -3 -0.03
v -10 -3 -0.03
v -10 -2 -0.03
v -9 -2 -0.03
v -10 -3 -0.03
v -11 -3 -0.03
v -11 -2 -0.03
v -10 -2 -0.03
v -11 -3 -0.03
v -12 -3 -0.03
v -12 -2 -0.03
v -11 -2 -0.03
v -12 -3 -0.03
v -13 -3 -0.03
v -13 -2 -0.03
v -12 -2 -0.03
v -13 -3 -0.03
v -14 -3 -0.03
v -14 -2 -0.03
v -13 -2 -0.03
v -14 -3 -0.03
v -15 -3 -0.03
v -15 -2 -0.03
v -14 -2 -0.03
v -15 -3 -0.03
v -16 -3 -0.03
v -16 -2 -0.03
v -15 -2 -0.03
v 0 -4 -0.04
v -1 -4 -0.04
v -1 -3 -0.04
v 0 -3 -0.04
v -1 -4 -0.04
v -2 -4 -0.04
v -2 -3 -0.04
v -1 -3 -0.04
v -2 -4 -0.04
v -3 -4 -0.04
v -3 -3 -0.04
v -2 -3 -0.04
v -3 -4 -0.04
v -4 -4 -0.04
v -4 -3 -0.04
v -3 -3 -0.04
v -4 -4 -0.04
v -5 -4 -0.04
v -5 -3 -0.04
v -4 -3 -0.04
v -5 -4 -0.04
v -6 -4 -0.04
v -6 -3 -0.04
v -5 -3 -0.04
v -6 -4 -0.04
v -7 -4 -0.04
v -7 -3 -0.04
v -6 -3 -0.04
v -7 -4 -0.04
v -8 -4 -0.04
v -8 -3 -0.04
v -7 -3 -0.04
v -8 -4 -0.04
v -9 -4 -0.04
v -9 -3 -0.04
v -8 -3 -0.04
v -9 -4 -0.04
v -10 -4 -0.04
v -10 -3 -0.04
v -9 -3 -0.04
v -10 -4 -0.04
v -11 -4 -0.04
v -11 -3 -0.04
v -10 -3 -0.04
v -11 -4 -0.04
v -12 -4 -0.04
v -12 -3 -0.04
v -11 -3 -0.04
v -12 -4 -0.04
v -13 -4 -0.04
v -13 -3 -0.04
v -12 -3 -0.04
v -13 -4 -0.04
v -14 -4 -0.04
v -14 -3 -0.04
v -13 -3 -0.04
v -14 -4 -0.04
v -15 -4 -0.04
v -15 -3 -0.04
v -14 -3 -0.04
v -15 -4 -0.04
v -16 -4 -0.04
v -16 -3 -0.04
v -15 -3 -0.04
v 0 -5 -0.05
v -1 -5 -0.05
v -1 -4 -0.05
v 0 -4 -0.05
v -1 -5 -0.05
v -2 -5 -0.05
v -2 -4 -0.05
v -1 -4 -0.05
v -2 -5 -0.05
v -3 -5 -0.05
v -3 -4 -0.05
v -2 -4 -0.05
v -3 -5 -0.05
v -4 -5 -0.05
v -4 -4 -0.05
v -3 -4 -0.05
v -4 -5 -0.05
v -5 -5 -0.05
v -5 -4 -0.05
v -4 -4 -0.05
v -5 -5 -0.05
v -6 -5 -0.05
v -6 -4 -0.05
v -5 -4 -0.05
v -6 -5 -0.05
v -7 -5 -0.05
v -7 -4 -0.05
v -6 -4 -0.05
v -7 -5 -0.05
v -8 -5 -0.05
v -8 -4 -0.05
v -7 -4 -0.05
v -8 -5 -0.05
v -9 -5 -0.05
v -9 -4 -0.05
v -8 -4 -0.05
v -9 -5 -0.05
v -10 -5 -0.05
v -10 -4 -0.05
v -9 -4 -0.05
v -10 -5 -0.05
v -11 -5 -0.05
v -11 -4 -0.05
v -10 -4 -0.05
v -11 -5 -0.05
v -12 -5 -0.05
v -12 -4 -0.05
v -11 -4 -0.05
v -12 -5 -0.05
v -13 -5 -0.05
v -13 -4 -0.05
v -12 -4 -0.05
v -13 -5 -0.05
v -14 -5 -0.05
v -14 -4 -0.05
v -13 -4 -0.05
v -14 -5 -0.05
v -15 -5 -0.05
v -15 -4 -0.05
v -14 -4 -0.05
v -15 -5 -0.05
v -16 -5 -0.05
v -16 -4 -0.05
v -15 -4 -0.05
v 0 -6 -0.06
v -1 -6 -0.06
v -1 -5 -0.06
v 0 -5 -0.06
v -1 -6 -0.06
v -2 -6 -0.06
v -2 -5 -0.06
v -1 -5 -0.06
v -2 -6 -0.06
v -3 -6 -0.06
v -3 -5 -0.06
v -2 -5 -0.06
v -3 -6 -0.06
v -4 -6 -0.06
v -4 -5 -0.06
v -3 -5 -0.06
v -4 -6 -0.06
v -5 -6 -0.06
v -5 -5 -0.06
v -4 -5 -0.06
v -5 -6 -0.06
v -6 -6 -0.06
v -6 -5 -0.06
v -5 -5 -0.06
v -6 -6 -0.06
v -7 -6 -0.06
v -7 -5 -0.06
v -6 -5 -0.06
v -7 -6 -0.06
v -8 -6 -0.06
v -8 -5 -0.06
v -7 -5 -0.06
v -8 -6 -0.06
v -9 -6 -0.06
v -9 -5 -0.06
v -8 -5 -0.06
v -9 -6 -0.06
v -10 -6 -0.06
v -10 -5 -0.06
v -9 -5 -0.06
v -10 -6 -0.06
v -11 -6 -0.06
v -11 -5 -0.06
v -10 -5 -0.06
v -11 -6 -0.06
v -12 -6 -0.06
v -12 -5 -0.06
v -11 -5 -0.06
v -12 -6 -0.06
v -13 -6 -0.06
v -13 -5 -0.06
v -12 -5 -0.06
v -13 -6 -0.06
v -14 -6 -0.06
v -14 -5 -0.06
v -13 -5 -0.06
v -14 -6 -0.06
v -15 -6 -0.06
v -15 -5 -0.06
v -14 -5 -0.06
v -15 -6 -0.06
v -16 -6 -0.06
v -16 -5 -0.06
v -15 -5 -0.06
v 0 -7 -0.07
v -1 -7 -0.07
v -1 -6 -0.07
v 0 -6 -0.07
v -1 -7 -0.07
v -2 -7 -0.07
v -2 -6 -0.07
v -1 -6 -0.07
v -2 -7 -0.07
v -3 -7 -0.07
v -3 -6 -0.07
v -2 -6 -0.07
v -3 -7 -0.07
v -4 -7 -0.07
v -4 -6 -0.07
v -3 -6 -0.07
v -4 -7 -0.07
v -5 -7 -0.07
v -5 -6 -0.07
v -4 -6 -0.07
v -5 -7 -0.07
v -6 -7 -0.07
v -6 -6 -0.07
v -5 -6 -0.07
v -6 -7 -0.07
v -7 -7 -0.07
v -7 -6 -0.07
v -6 -6 -0.07
v -7 -7 -0.07
v -8 -7 -0.07
v -8 -6 -0.07
v -7 -6 -0.07
v -8 -7 -0.07
v -9 -7 -0.07
v -9 -6 -0.07
v -8 -6 -0.07
v -9 -7 -0.07
v -10 -7 -0.07
v -10 -6 -0.07
v -9 -6 -0.07
v -10 -7 -0.07
v -11 -7 -0.07
v -11 -6 -0.07
v -10 -6 -0.07
v -11 -7 -0.07
v -12 -7 -0.07
v -12 -6 -0.07
v -11 -6 -0.07
v -12 -7 -0.07
v -13 -7 -0.07
v -13 -6 -0.07
v -12 -6 -0.07
v -13 -7 -0.07
v -14 -7 -0.07
v -14 -6 -0.07
v -13 -6 -0.07
v -14 -7 -0.07
v -15 -7 -0.07
v -15 -6 -0.07
v -14 -6 -0.07
v -15 -7 -0.07
v -16 -7 -0.07
v -16 -6 -0.07
v -15 -6 -0.07
v 0 -8 -0.08
v -1 -8 -0.08
v -1 -7 -0.08
v 0 -7 -0.08
v -1 -8 -0.08
v -2 -8 -0.08
v -2 -7 -0.08
v -1 -7 -0.08
v -2 -8 -0.08
v -3 -8 -0.08
v -3 -7 -0.08
v -2 -7 -0.08
v -3 -8 -0.08
v -4 -8 -0.08
v -4 -7 -0.08
v -3 -7 -0.08
v -4 -8 -0.08
v -5 -8 -0.08
v -5 -7 -0.08
v -4 -7 -0.08
v -5 -8 -0.08
v -6 -8 -0.08
v -6 -7 -0.08
v -5 -7 -0.08
v -6 -8 -0.08
v -7 -8 -0.08
v -7 -7 -0.08
v -6 -7 -0.08
v -7 -8 -0.08
v -8 -8 -0.08
v -8 -7 -0.08
v -7 -7 -0.08
v -8 -8 -0.08
v -9 -8 -0.08
v -9 -7 -0.08
v -8 -7 -0.08
v -9 -8 -0.08
v -10 -8 -0.08
v -10 -7 -0.08
v -9 -7 -0.08
v -10 -8 -0.08
v -11 -8 -0.08
v -11 -7 -0.08
v -10 -7 -0.08
v -11 -8 -0.08
v -12 -8 -0.08
v -12 -7 -0.08
v -11 -7 -0.08
v -12 -8 -0.08
v -13 -8 -0.08
v -13 -7 -0.08
v -12 -7 -0.08
v -13 -8 -0.08
v -14 -8 -0.08
v -14 -7 -0.08
v -13 -7 -0.08
v -14 -8 -0.08
v -15 -8 -0.08
v -15 -7 -0.08
v -14 -7 -0.08
v -15 -8 -0.08
v -16 -8 -0.08
v -16 -7 -0.08
v -15 -7 -0.08
v 0 -9 -0.09
v -1 -9 -0.09
v -1 -8 -0.09
v 0 -8 -0.09
v -1 -9 -0.09
v -2 -9 -0.09
v -2 -8 -0.09
v -1 -8 -0.09
v -2 -9 -0.09
v -3 -9 -0.09
v -3 -8 -0.09
v -2 -8 -0.09
v -3 -9 -0.09
v -4 -9 -0.09
v -4 -8 -0.09
v -3 -8 -0.09
v -4 -9 -0.09
v -5 -9 -0.09
v -5 -8 -0.09
v -4 -8 -0.09
v -5 -9 -0.09
v -6 -9 -0.09
v -6 -8 -0.09
v -5 -8 -0.09
v -6 -9 -0.09
v -7 -9 -0.09
v -7 -8 -0.09
v -6 -8 -0.09
v -7 -9 -0.09
v -8 -9 -0.09
v -8 -8 -0.09
v -7 -8 -0.09
v -8 -9 -0.09
v -9 -9 -0.09
v -9 -8 -0.09
v -8 -8 -0.09
v -9 -9 -0.09
v -10 -9 -0.09
v -10 -8 -0.09
v -9 -8 -0.09
v -10 -9 -0.09
v -11 -9 -0.09
v -11 -8 -0.09
v -10 -8 -0.09
v -11 -9 -0.09
v -12 -9 -0.09
v -12 -8 -0.09
v -11 -8 -0.09
v -12 -9 -0.09
v -13 -9 -0.09
v -13 -8 -0.09
v -12 -8 -0.09
v -13 -9 -0.09
v -14 -9 -0.09
v -14 -8 -0.09
v -13 -8 -0.09
v -14 -9 -0.09
v -15 -9 -0.09
v -15 -8 -0.09
v -14 -8 -0.09
v -15 -9 -0.09
v -16 -9 -0.09
v -16 -8 -0.09
v -15 -8 -0.09
v 0 -10 -0.1
v -1 -10 -0.1
v -1 -9 -0.1
v 0 -9 -0.1
v -1 -10 -0.1
v -2 -10 -0.1
v -2 -9 -0.1
v -1 -9 -0.1
v -2 -10 -0.1
v -3 -10 -0.1
v -3 -9 -0.1
v -2 -9 -0.1
v -3 -10 -0.1
v -4 -10 -0.1
v -4 -9 -0.1
v -3 -9 -0.1
v -4 -10 -0.1
v -5 -10 -0.1
v -5 -9 -0.1
v -4 -9 -0.1
v -5 -10 -0.1
v -6 -10 -0.1
v -6 -9 -0.1
v -5 -9 -0.1
v -6 -10 -0.1
v -7 -10 -0.1
v -7 -9 -0.1
v -6 -9 -0.1
v -7 -10 -0.1
v -8 -10 -0.1
v -8 -9 -0.1
v -7 -9 -0.1
v -8 -10 -0.1
v -9 -10 -0.1
v -9 -9 -0.1
v -8 -9 -0.1
v -9 -10 -0.1
v -10 -10 -0.1
v -10 -9 -0.1
v -9 -9 -0.1
v -10 -10 -0.1
v -11 -10 -0.1
v -11 -9 -0.1
v -10 -9 -0.1
v -11 -10 -0.1
v -12 -10 -0.1
v -12 -9 -0.1
v -11 -9 -0.1
v -12 -10 -0.1
v -13 -10 -0.1
v -13 -9 -0.1
v -12 -9 -0.1
v -13 -10 -0.1
v -14 -10 -0.1
v -14 -9 -0.1
v -13 -9 -0.1
v -14 -10 -0.1
v -15 -10 -0.1
v -15 -9 -0.1
v -14 -9 -0.1
v -15 -10 -0.1
v -16 -10 -0.1
v -16 -9 -0.1
v -15 -9 -0.1
v 0 -11 -0.11
v -1 -11 -0.11
v -1 -10 -0.11
v 0 -10 -0.11
v -1 -11 -0.11
v -2 -11 -0.11
v -2 -10 -0.11
v -1 -10 -0.11
v -2 -11 -0.11
v -3 -11 -0.11
v -3 -10 -0.11
v -2 -10 -0.11
v -3 -11 -0.11
v -4 -11 -0.11
v -4 -10 -0.11
v -3 -10 -0.11
v -4 -11 -0.11
v -5 -11 -0.11
v -5 -10 -0.11
v -4 -10 -0.11
v -5 -11 -0.11
v -6 -11 -0.11
v -6 -10 -0.11
v -5 -10 -0.11
v -6 -11 -0.11
v -7 -11 -0.11
v -7 -10 -0.11
v -6 -10 -0.11
v -7 -11 -0.11
v -8 -11 -0.11
v -8 -10 -0.11
v -7 -10 -0.11
v -8 -11 -0.11
v -9 -11 -0.11
v -9 -10 -0.11
v -8 -10 -0.11
v -9 -11 -0.11
v -10 -11 -0.11
v -10 -10 -0.11
v -9 -10 -0.11
v -10 -11 -0.11
v -11 -11 -0.11
v -11 -10 -0.11
v -10 -10 -0.11
v -11 -11 -0.11
v -12 -11 -0.11
v -12 -10 -0.11
v -11 -10 -0.11
v -12 -11 -0.11
v -13 -11 -0.11
v -13 -10 -0.11
v -12 -10 -0.11
v -13 -11 -0.11
v -14 -11 -0.11
v -14 -10 -0.11
v -13 -10 -0.11
v -14 -11 -0.11
v -15 -11 -0.11
v -15 -10 -0.11
v -14 -10 -0.11
v -15 -11 -0.11
v -16 -11 -0.11
v -16 -10 -0.11
v -15 -10 -0.11
v 0 -12 -0.12
v -1 -12 -0.12
v -1 -11 -0.12
v 0 -11 -0.12
v -1 -12 -0.12
v -2 -12 -0.12
v -2 -11 -0.12
v -1 -11 -0.12
v -2 -12 -0.12
v -3 -12 -0.12
v -3 -11 -0.12
v -2 -11 -0.12
v -3 -12 -0.12
v -4 -12 -0.12
v -4 -11 -0.12
v -3 -11 -0.12
v -4 -12 -0.12
v -5 -12 -0.12
v -5 -11 -0.12
v -4 -11 -0.12
v -5 -12 -0.12
v -6 -12 -0.12
v -6 -11 -0.12
v -5 -11 -0.12
v -6 -12 -0.12
v -7 -12 -0.12
v -7 -11 -0.12
v -6 -11 -0.12
v -7 -12 -0.12
v -8 -12 -0.12
v -8 -11 -0.12
v -7 -11 -0.12
v -8 -12 -0.12
v -9 -12 -0.12
v -9 -11 -0.12
v -8 -11 -0.12
v -9 -12 -0.12
v -10 -12 -0.12
v -10 -11 -0.12
v -9 -11 -0.12
v -10 -12 -0.12
v -11 -12 -0.12
v -11 -11 -0.12
v -10 -11 -0.12
v -11 -12 -0.12
v -12 -12 -0.12
v -12 -11 -0.12
v -11 -11 -0.12
v -12 -12 -0.12
v -13 -12 -0.12
v -13 -11 -0.12
v -12 -11 -0.12
v -13 -12 -0.12
v -14 -12 -0.12
v -14 -11 -0.12
v -13 -11 -0.12
v -14 -12 -0.12
v -15 -12 -0.12
v -15 -11 -0.12
v -14 -11 -0.12
v -15 -12 -0.12
v -16 -12 -0.12
v -16 -11 -0.12
v -15 -11 -0.12
v 0 -13 -0.13
v -1 -13 -0.13
v -1 -12 -0.13
v 0 -12 -0.13
v -1 -13 -0.13
v -2 -13 -0.13
v -2 -12 -0.13
v -1 -12 -0.13
v -2 -13 -0.13
v -3 -13 -0.13
v -3 -12 -0.13
v -2 -12 -0.13
v -3 -13 -0.13
v -4 -13 -0.13
v -4 -12 -0.13
v -3 -12 -0.13
v -4 -13 -0.13
v -5 -13 -0.13
v -5 -12 -0.13
v -4 -12 -0.13
v -5 -13 -0.13
v -6 -13 -0.13
v -6 -12 -0.13
v -5 -12 -0.13
v -6 -13 -0.13
v -7 -13 -0.13
v -7 -12 -0.13
v -6 -12 -0.13
v -7 -13 -0.13
v -8 -13 -0.13
v -8 -12 -0.13
v -7 -12 -0.13
v -8 -13 -0.13
v -9 -13 -0.13
v -9 -12 -0.13
v -8 -12 -0.13
v -9 -13 -0.13
v -10 -13 -0.13
v -10 -12 -0.13
v -9 -12 -0.13
v -10 -13 -0.13
v -11 -13 -0.13
v -11 -12 -0.13
v -10 -12 -0.13
v -11 -13 -0.13
v -12 -13 -0.13
v -12 -12 -0.13
v -11 -12 -0.13
v -12 -13 -0.13
v -13 -13 -0.13
v -13 -12 -0.13
v -12 -12 -0.13
v -13 -13 -0.13
v -14 -13 -0.13
v -14 -12 -0.13
v -13 -12 -0.13
v -14 -13 -0.13
v -15 -13 -0.13
v -15 -12 -0.13
v -14 -12 -0.13
v -15 -13 -0.13
v -16 -13 -0.13
v -16 -12 -0.13
v -15 -12 -0.13
v 0 -14 -0.14
v -1 -14 -0.14
v -1 -13 -0.14
v 0 -13 -0.14
v -1 -14 -0.14
v -2 -14 -0.14
v -2 -13 -0.14
v -1 -13 -0.14
v -2 -14 -0.14
v -3 -14 -0.14
v -3 -13 -0.14
v -2 -13 -0.14
v -3 -14 -0.14
v -4 -14 -0.14
v -4 -13 -0.14
v -3 -13 -0.14
v -4 -14 -0.14
v -5 -14 -0.14
v -5 -13 -0.14
v -4 -13 -0.14
v -5 -14 -0.14
v -6 -14 -0.14
v -6 -13 -0.14
v -5 -13 -0.14
v -6 -14 -0.14
v -7 -14 -0.14
v -7 -13 -0.14
v -6 -13 -0.14
v -7 -14 -0.14
v -8 -14 -0.14
v -8 -13 -0.14
v -7 -13 -0.14
v -8 -14 -0.14
v -9 -14 -0.14
v -9 -13 -0.14
v -8 -13 -0.14
v -9 -14 -0.14
v -10 -14 -0.14
v -10 -13 -0.14
v -9 -13 -0.14
v -10 -14 -0.14
v -11 -14 -0.14
v -11 -13 -0.14
v -10 -13 -0.14
v -11 -14 -0.14
v -12 -14 -0.14
v -12 -13 -0.14
v -11 -13 -0.14
v -12 -14 -0.14
v -13 -14 -0.14
v -13 -13 -0.14
v -12 -13 -0.14
v -13 -14 -0.14
v -14 -14 -0.14
v -14 -13 -0.14
v -13 -13 -0.14
v -14 -14 -0.14
v -15 -14 -0.14
v -15 -13 -0.14
v -14 -13 -0.14
v -15 -14 -0.14
v -16 -14 -0.14
v -16 -13 -0.14
v -15 -13 -0.14
v 0 -15 -0.15
v -1 -15 -0.15
v -1 -14 -0.15
v 0 -14 -0.15
v -1 -15 -0.15
v -2 -15 -0.15
v -2 -14 -0.15
v -1 -14 -0.15
v -2 -15 -0.15
v -3 -15 -0.15
v -3 -14 -0.15
v -2 -14 -0.15
v -3 -15 -0.15
v -4 -15 -0.15
v -4 -14 -0.15
v -3 -14 -0.15
v -4 -15 -0.15
v -5 -15 -0.15
v -5 -14 -0.15
v -4 -14 -0.15
v -5 -15 -0.15
v -6 -15 -0.15
v -6 -14 -0.15
v -5 -14 -0.15
v -6 -15 -0.15
v -7 -15 -0.15
v -7 -14 -0.15
v -6 -14 -0.15
v -7 -15 -0.15
v -8 -15 -0.15
v -8 -14 -0.15
v -7 -14 -0.15
v -8 -15 -0.15
v -9 -15 -0.15
v -9 -14 -0.15
v -8 -14 -0.15
v -9 -15 -0.15
v -10 -15 -0.15
v -10 -14 -0.15
v -9 -14 -0.15
v -10 -15 -0.15
v -11 -15 -0.15
v -11 -14 -0.15
v -10 -14 -0.15
v -11 -15 -0.15
v -12 -15 -0.15
v -12 -14 -0.15
v -11 -14 -0.15
v -12 -15 -0.15
v -13 -15 -0.15
v -13 -14 -0.15
v -12 -14 -0.15
v -13 -15 -0.15
v -14 -15 -0.15
v -14 -14 -0.15
v -13 -14 -0.15
v -14 -15 -0.15
v -15 -15 -0.15
v -15 -14 -0.15
v -14 -14 -0.15
v -15 -15 -0.15
v -16 -15 -0.15
v -16 -14 -0.15
v -15 -14 -0.15
v 0 -16 -0.16
v -1 -16 -0.16
v -1 -15 -0.16
v 0 -15 -0.16
v -1 -16 -0.16
v -2 -16 -0.16
v -2 -15 -0.16
v -1 -15 -0.16
v -2 -16 -0.16
v -3 -16 -0.16
v -3 -15 -0.16
v -2 -15 -0.16
v -3 -16 -0.16
v -4 -16 -0.16
v -4 -15 -0.16
v -3 -15 -0.16
v -4 -16 -0.16
v -5 -16 -0.16
v -5 -15 -0.16
v -4 -15 -0.16
v -5 -16 -0.16
v -6 -16 -0.16
v -6 -15 -0.16
v -5 -15 -0.16
v -6 -16 -0.16
v -7 -16 -0.16
v -7 -15 -0.16
v -6 -15 -0.16
v -7 -16 -0.16
v -8 -16 -0.16
v -8 -15 -0.16
v -7 -15 -0.16
v -8 -16 -0.16
v -9 -16 -0.16
v -9 -15 -0.16
v -8 -15 -0.16
v -9 -16 -0.16
v -10 -16 -0.16
v -10 -15 -0.16
v -9 -15 -0.16
v -10 -16 -0.16
v -11 -16 -0.16
v -11 -15 -0.16
v -10 -15 -0.16
v -11 -16 -0.16
v -12 -16 -0.16
v -12 -15 -0.16
v -11 -15 -0.16
v -12 -16 -0.16
v -13 -16 -0.16
v -13 -15 -0.16
v -12 -15 -0.16
v -13 -16 -0.16
v -14 -16 -0.16
v -14 -15 -0.16
v -13 -15 -0.16
v -14 -16 -0.16
v -15 -16 -0.16
v -15 -15 -0.16
v -14 -15 -0.16
v -15 -16 -0.16
v -16 -16 -0.16
v -16 -15 -0.16
v -15 -15 -0.16

# Texture cooridinates (Count = 12)
vt 0.2777778 0.906015
vt 0.3333333 0.906015
vt 0.3333333 0.9097744
vt 0.2777778 0.9097744
vt 0.1666667 0.906015
vt 0.2222222 0.906015
vt 0.2222222 0.9097744
vt 0.1666667 0.9097744
vt 0.2777778 0.9022557
vt 0.3333333 0.9022557
vt 0.1666667 0.9022557
vt 0.2222222 0.9022557

# Normal
vn 0 0 -1

# Mesh description
g Act-0-Forest_mesh_0178

# Faces
f 1/1/1 2/2/1 3/3/1 4/4/1
f 5/5/1 6/6/1 7/7/1 8/8/1
f 9/6/1 10/1/1 11/4/1 12/7/1
f 13/1/1 14/2/1 15/3/1 16/4/1
f 17/5/1 18/6/1 19/7/1 20/8/1
f 21/6/1 22/1/1 23/4/1 24/7/1
f 25/1/1 26/2/1 27/3/1 28/4/1
f 29/5/1 30/6/1 31/7/1 32/8/1
f 33/6/1 34/1/1 35/4/1 36/7/1
f 37/1/1 38/2/1 39/3/1 40/4/1
f 41/5/1 42/6/1 43/7/1 44/8/1
f 45/6/1 46/1/1 47/4/1 48/7/1
f 49/1/1 50/2/1 51/3/1 52/4/1
f 53/5/1 54/6/1 55/7/1 56/8/1
f 57/6/1 58/1/1 59/4/1 60/7/1
f 61/1/1 62/2/1 63/3/1 64/4/1
f 65/9/1 66/10/1 67/2/1 68/1/1
f 69/11/1 70/12/1 71/6/1 72/5/1
f 73/12/1 74/9/1 75/1/1 76/6/1
f 77/9/1 78/10/1 79/2/1 80/1/1
f 81/11/1 82/12/1 83/6/1 84/5/1
f 85/12/1 86/9/1 87/1/1 88/6/1
f 89/9/1 90/10/1 91/2/1 92/1/1
f 93/11/1 94/12/1 95/6/1 96/5/1
f 97/12/1 98/9/1 99/1/1 100/6/1
f 101/9/1 102/10/1 103/2/1 104/1/1
f 105/11/1 106/12/1 107/6/1 108/5/1
f 109/12/1 110/9/1 111/1/1 112/6/1
f 113/9/1 114/10/1 115/2/1 116/1/1
f 117/11/1 118/12/1 119/6/1 120/5/1
f 121/12/1 122/9/1 123/1/1 124/6/1
f 125/9/1 126/10/1 127/2/1 128/1/1
f 129/1/1 130/2/1 131/3/1 132/4/1
f 133/5/1 134/6/1 135/7/1 136/8/1
f 137/6/1 138/1/1 139/4/1 140/7/1
f 141/1/1 142/2/1 143/3/1 144/4/1
f 145/5/1 146/6/1 147/7/1 148/8/1
f 149/6/1 150/1/1 151/4/1 152/7/1
f 153/1/1 154/2/1 155/3/1 156/4/1
f 157/5/1 158/6/1 159/7/1 160/8/1
f 161/6/1 162/1/1 163/4/1 164/7/1
f 165/1/1 166/2/1 167/3/1 168/4/1
f 169/5/1 170/6/1 171/7/1 172/8/1
f 173/6/1 174/1/1 175/4/1 176/7/1
f 177/1/1 178/2/1 179/3/1 180/4/1
f 181/5/1 182/6/1 183/7/1 184/8/1
f 185/6/1 186/1/1 187/4/1 188/7/1
f 189/1/1 190/2/1 191/3/1 192/4/1
f 193/9/1 194/10/1 195/2/1 196/1/1
f 197/11/1 198/12/1 199/6/1 200/5/1
f 201/12/1 202/9/1 203/1/1 204/6/1
f 205/9/1 206/10/1 207/2/1 208/1/1
f 209/11/1 210/12/1 211/6/1 212/5/1
f 213/12/1 214/9/1 215/1/1 216/6/1
f 217/9/1 218/10/1 219/2/1 220/1/1
f 221/11/1 222/12/1 223/6/1 224/5/1
f 225/12/1 226/9/1 227/1/1 228/6/1
f 229/9/1 230/10/1 231/2/1 232/1/1
f 233/11/1 234/12/1 235/6/1 236/5/1
f 237/12/1 238/9/1 239/1/1 240/6/1
f 241/9/1 242/10/1 243/2/1 244/1/1
f 245/11/1 246/12/1 247/6/1 248/5/1
f 249/12/1 250/9/1 251/1/1 252/6/1
f 253/9/1 254/10/1 255/2/1 256/1/1
f 257/1/1 258/2/1 259/3/1 260/4/1
f 261/5/1 262/6/1 263/7/1 264/8/1
f 265/6/1 266/1/1 267/4/1 268/7/1
f 269/1/1 270/2/1 271/3/1 272/4/1
f 273/5/1 274/6/1 275/7/1 276/8/1
f 277/6/1 278/1/1 279/4/1 280/7/1
f 281/1/1 282/2/1 283/3/1 284/4/1
f 285/5/1 286/6/1 287/7/1 288/8/1
f 289/6/1 290/1/1 291/4/1 292/7/1
f 293/1/1 294/2/1 295/3/1 296/4/1
f 297/5/1 298/6/1 299/7/1 300/8/1
f 301/6/1 302/1/1 303/4/1 304/7/1
f 305/1/1 306/2/1 307/3/1 308/4/1
f 309/5/1 310/6/1 311/7/1 312/8/1
f 313/6/1 314/1/1 315/4/1 316/7/1
f 317/1/1 318/2/1 319/3/1 320/4/1
f 321/9/1 322/10/1 323/2/1 324/1/1
f 325/11/1 326/12/1 327/6/1 328/5/1
f 329/12/1 330/9/1 331/1/1 332/6/1
f 333/9/1 334/10/1 335/2/1 336/1/1
f 337/11/1 338/12/1 339/6/1 340/5/1
f 341/12/1 342/9/1 343/1/1 344/6/1
f 345/9/1 346/10/1 347/2/1 348/1/1
f 349/11/1 350/12/1 351/6/1 352/5/1
f 353/12/1 354/9/1 355/1/1 356/6/1
f 357/9/1 358/10/1 359/2/1 360/1/1
f 361/11/1 362/12/1 363/6/1 364/5/1
f 365/12/1 366/9/1 367/1/1 368/6/1
f 369/9/1 370/10/1 371/2/1 372/1/1
f 373/11/1 374/12/1 375/6/1 376/5/1
f 377/12/1 378/9/1 379/1/1 380/6/1
f 381/9/1 382/10/1 383/2/1 384/1/1
f 385/1/1 386/2/1 387/3/1 388/4/1
f 389/5/1 390/6/1 391/7/1 392/8/1
f 393/6/1 394/1/1 395/4/1 396/7/1
f 397/1/1 398/2/1 399/3/1 400/4/1
f 401/5/1 402/6/1 403/7/1 404/8/1
f 405/6/1 406/1/1 407/4/1 408/7/1
f 409/1/1 410/2/1 411/3/1 412/4/1
f 413/5/1 414/6/1 415/7/1 416/8/1
f 417/6/1 418/1/1 419/4/1 420/7/1
f 421/1/1 422/2/1 423/3/1 424/4/1
f 425/5/1 426/6/1 427/7/1 428/8/1
f 429/6/1 430/1/1 431/4/1 432/7/1
f 433/1/1 434/2/1 435/3/1 436/4/1
f 437/5/1 438/6/1 439/7/1 440/8/1
f 441/6/1 442/1/1 443/4/1 444/7/1
f 445/1/1 446/2/1 447/3/1 448/4/1
f 449/9/1 450/10/1 451/2/1 452/1/1
f 453/11/1 454/12/1 455/6/1 456/5/1
f 457/12/1 458/9/1 459/1/1 460/6/1
f 461/9/1 462/10/1 463/2/1 464/1/1
f 465/11/1 466/12/1 467/6/1 468/5/1
f 469/12/1 470/9/1 471/1/1 472/6/1
f 473/9/1 474/10/1 475/2/1 476/1/1
f 477/11/1 478/12/1 479/6/1 480/5/1
f 481/12/1 482/9/1 483/1/1 484/6/1
f 485/9/1 486/10/1 487/2/1 488/1/1
f 489/11/1 490/12/1 491/6/1 492/5/1
f 493/12/1 494/9/1 495/1/1 496/6/1
f 497/9/1 498/10/1 499/2/1 500/1/1
f 501/11/1 502/12/1 503/6/1 504/5/1
f 505/12/1 506/9/1 507/1/1 508/6/1
f 509/9/1 510/10/1 511/2/1 512/1/1
f 513/1/1 514/2/1 515/3/1 516/4/1
f 517/5/1 518/6/1 519/7/1 520/8/1
f 521/6/1 522/1/1 523/4/1 524/7/1
f 525/1/1 526/2/1 527/3/1 528/4/1
f 529/5/1 530/6/1 531/7/1 532/8/1
f 533/6/1 534/1/1 535/4/1 536/7/1
f 537/1/1 538/2/1 539/3/1 540/4/1
f 541/5/1 542/6/1 543/7/1 544/8/1
f 545/6/1 546/1/1 547/4/1 548/7/1
f 549/1/1 550/2/1 551/3/1 552/4/1
f 553/5/1 554/6/1 555/7/1 556/8/1
f 557/6/1 558/1/1 559/4/1 560/7/1
f 561/1/1 562/2/1 563/3/1 564/4/1
f 565/5/1 566/6/1 567/7/1 568/8/1
f 569/6/1 570/1/1 571/4/1 572/7/1
f 573/1/1 574/2/1 575/3/1 576/4/1
f 577/9/1 578/10/1 579/2/1 580/1/1
f 581/11/1 582/12/1 583/6/1 584/5/1
f 585/12/1 586/9/1 587/1/1 588/6/1
f 589/9/1 590/10/1 591/2/1 592/1/1
f 593/11/1 594/12/1 595/6/1 596/5/1
f 597/12/1 598/9/1 599/1/1 600/6/1
f 601/9/1 602/10/1 603/2/1 604/1/1
f 605/11/1 606/12/1 607/6/1 608/5/1
f 609/12/1 610/9/1 611/1/1 612/6/1
f 613/9/1 614/10/1 615/2/1 616/1/1
f 617/11/1 618/12/1 619/6/1 620/5/1
f 621/12/1 622/9/1 623/1/1 624/6/1
f 625/9/1 626/10/1 627/2/1 628/1/1
f 629/11/1 630/12/1 631/6/1 632/5/1
f 633/12/1 634/9/1 635/1/1 636/6/1
f 637/9/1 638/10/1 639/2/1 640/1/1
f 641/1/1 642/2/1 643/3/1 644/4/1
f 645/5/1 646/6/1 647/7/1 648/8/1
f 649/6/1 650/1/1 651/4/1 652/7/1
f 653/1/1 654/2/1 655/3/1 656/4/1
f 657/5/1 658/6/1 659/7/1 660/8/1
f 661/6/1 662/1/1 663/4/1 664/7/1
f 665/1/1 666/2/1 667/3/1 668/4/1
f 669/5/1 670/6/1 671/7/1 672/8/1
f 673/6/1 674/1/1 675/4/1 676/7/1
f 677/1/1 678/2/1 679/3/1 680/4/1
f 681/5/1 682/6/1 683/7/1 684/8/1
f 685/6/1 686/1/1 687/4/1 688/7/1
f 689/1/1 690/2/1 691/3/1 692/4/1
f 693/5/1 694/6/1 695/7/1 696/8/1
f 697/6/1 698/1/1 699/4/1 700/7/1
f 701/1/1 702/2/1 703/3/1 704/4/1
f 705/9/1 706/10/1 707/2/1 708/1/1
f 709/11/1 710/12/1 711/6/1 712/5/1
f 713/12/1 714/9/1 715/1/1 716/6/1
f 717/9/1 718/10/1 719/2/1 720/1/1
f 721/11/1 722/12/1 723/6/1 724/5/1
f 725/12/1 726/9/1 727/1/1 728/6/1
f 729/9/1 730/10/1 731/2/1 732/1/1
f 733/11/1 734/12/1 735/6/1 736/5/1
f 737/12/1 738/9/1 739/1/1 740/6/1
f 741/9/1 742/10/1 743/2/1 744/1/1
f 745/11/1 746/12/1 747/6/1 748/5/1
f 749/12/1 750/9/1 751/1/1 752/6/1
f 753/9/1 754/10/1 755/2/1 756/1/1
f 757/11/1 758/12/1 759/6/1 760/5/1
f 761/12/1 762/9/1 763/1/1 764/6/1
f 765/9/1 766/10/1 767/2/1 768/1/1
f 769/1/1 770/2/1 771/3/1 772/4/1
f 773/5/1 774/6/1 775/7/1 776/8/1
f 777/6/1 778/1/1 779/4/1 780/7/1
f 781/1/1 782/2/1 783/3/1 784/4/1
f 785/5/1 786/6/1 787/7/1 788/8/1
f 789/6/1 790/1/1 791/4/1 792/7/1
f 793/1/1 794/2/1 795/3/1 796/4/1
f 797/5/1 798/6/1 799/7/1 800/8/1
f 801/6/1 802/1/1 803/4/1 804/7/1
f 805/1/1 806/2/1 807/3/1 808/4/1
f 809/5/1 810/6/1 811/7/1 812/8/1
f 813/6/1 814/1/1 815/4/1 816/7/1
f 817/1/1 818/2/1 819/3/1 820/4/1
f 821/5/1 822/6/1 823/7/1 824/8/1
f 825/6/1 826/1/1 827/4/1 828/7/1
f 829/1/1 830/2/1 831/3/1 832/4/1
f 833/9/1 834/10/1 835/2/1 836/1/1
f 837/11/1 838/12/1 839/6/1 840/5/1
f 841/12/1 842/9/1 843/1/1 844/6/1
f 845/9/1 846/10/1 847/2/1 848/1/1
f 849/11/1 850/12/1 851/6/1 852/5/1
f 853/12/1 854/9/1 855/1/1 856/6/1
f 857/9/1 858/10/1 859/2/1 860/1/1
f 861/11/1 862/12/1 863/6/1 864/5/1
f 865/12/1 866/9/1 867/1/1 868/6/1
f 869/9/1 870/10/1 871/2/1 872/1/1
f 873/11/1 874/12/1 875/6/1 876/5/1
f 877/12/1 878/9/1 879/1/1 880/6/1
f 881/9/1 882/10/1 883/2/1 884/1/1
f 885/11/1 886/12/1 887/6/1 888/5/1
f 889/12/1 890/9/1 891/1/1 892/6/1
f 893/9/1 894/10/1 895/2/1 896/1/1
f 897/1/1 898/2/1 899/3/1 900/4/1
f 901/5/1 902/6/1 903/7/1 904/8/1
f 905/6/1 906/1/1 907/4/1 908/7/1
f 909/1/1 910/2/1 911/3/1 912/4/1
f 913/5/1 914/6/1 915/7/1 916/8/1
f 917/6/1 918/1/1 919/4/1 920/7/1
f 921/1/1 922/2/1 923/3/1 924/4/1
f 925/5/1 926/6/1 927/7/1 928/8/1
f 929/6/1 930/1/1 931/4/1 932/7/1
f 933/1/1 934/2/1 935/3/1 936/4/1
f 937/5/1 938/6/1 939/7/1 940/8/1
f 941/6/1 942/1/1 943/4/1 944/7/1
f 945/1/1 946/2/1 947/3/1 948/4/1
f 949/5/1 950/6/1 951/7/1 952/8/1
f 953/6/1 954/1/1 955/4/1 956/7/1
f 957/1/1 958/2/1 959/3/1 960/4/1

