# Tiled2Unity generated file. Do not modify by hand.
# Wavefront file for 'Act-0-Forest_mesh_0248.obj'

# Vertices (Count = 856)
v -2 -1 -0.01
v -3 -1 -0.01
v -3 0 -0.01
v -2 0 -0.01
v -3 -1 -0.01
v -4 -1 -0.01
v -4 0 -0.01
v -3 0 -0.01
v -4 -1 -0.01
v -5 -1 -0.01
v -5 0 -0.01
v -4 0 -0.01
v -5 -1 -0.01
v -6 -1 -0.01
v -6 0 -0.01
v -5 0 -0.01
v -6 -1 -0.01
v -7 -1 -0.01
v -7 0 -0.01
v -6 0 -0.01
v -7 -1 -0.01
v -8 -1 -0.01
v -8 0 -0.01
v -7 0 -0.01
v -8 -1 -0.01
v -9 -1 -0.01
v -9 0 -0.01
v -8 0 -0.01
v -9 -1 -0.01
v -10 -1 -0.01
v -10 0 -0.01
v -9 0 -0.01
v -10 -1 -0.01
v -11 -1 -0.01
v -11 0 -0.01
v -10 0 -0.01
v -11 -1 -0.01
v -12 -1 -0.01
v -12 0 -0.01
v -11 0 -0.01
v -12 -1 -0.01
v -13 -1 -0.01
v -13 0 -0.01
v -12 0 -0.01
v -13 -1 -0.01
v -14 -1 -0.01
v -14 0 -0.01
v -13 0 -0.01
v -14 -1 -0.01
v -15 -1 -0.01
v -15 0 -0.01
v -14 0 -0.01
v -15 -1 -0.01
v -16 -1 -0.01
v -16 0 -0.01
v -15 0 -0.01
v -2 -2 -0.02
v -3 -2 -0.02
v -3 -1 -0.02
v -2 -1 -0.02
v -3 -2 -0.02
v -4 -2 -0.02
v -4 -1 -0.02
v -3 -1 -0.02
v -4 -2 -0.02
v -5 -2 -0.02
v -5 -1 -0.02
v -4 -1 -0.02
v -5 -2 -0.02
v -6 -2 -0.02
v -6 -1 -0.02
v -5 -1 -0.02
v -6 -2 -0.02
v -7 -2 -0.02
v -7 -1 -0.02
v -6 -1 -0.02
v -7 -2 -0.02
v -8 -2 -0.02
v -8 -1 -0.02
v -7 -1 -0.02
v -8 -2 -0.02
v -9 -2 -0.02
v -9 -1 -0.02
v -8 -1 -0.02
v -9 -2 -0.02
v -10 -2 -0.02
v -10 -1 -0.02
v -9 -1 -0.02
v -10 -2 -0.02
v -11 -2 -0.02
v -11 -1 -0.02
v -10 -1 -0.02
v -11 -2 -0.02
v -12 -2 -0.02
v -12 -1 -0.02
v -11 -1 -0.02
v -12 -2 -0.02
v -13 -2 -0.02
v -13 -1 -0.02
v -12 -1 -0.02
v -13 -2 -0.02
v -14 -2 -0.02
v -14 -1 -0.02
v -13 -1 -0.02
v -14 -2 -0.02
v -15 -2 -0.02
v -15 -1 -0.02
v -14 -1 -0.02
v -15 -2 -0.02
v -16 -2 -0.02
v -16 -1 -0.02
v -15 -1 -0.02
v -2 -3 -0.03
v -3 -3 -0.03
v -3 -2 -0.03
v -2 -2 -0.03
v -3 -3 -0.03
v -4 -3 -0.03
v -4 -2 -0.03
v -3 -2 -0.03
v -4 -3 -0.03
v -5 -3 -0.03
v -5 -2 -0.03
v -4 -2 -0.03
v -5 -3 -0.03
v -6 -3 -0.03
v -6 -2 -0.03
v -5 -2 -0.03
v -6 -3 -0.03
v -7 -3 -0.03
v -7 -2 -0.03
v -6 -2 -0.03
v -7 -3 -0.03
v -8 -3 -0.03
v -8 -2 -0.03
v -7 -2 -0.03
v -8 -3 -0.03
v -9 -3 -0.03
v -9 -2 -0.03
v -8 -2 -0.03
v -9 -3 -0.03
v -10 -3 -0.03
v -10 -2 -0.03
v -9 -2 -0.03
v -10 -3 -0.03
v -11 -3 -0.03
v -11 -2 -0.03
v -10 -2 -0.03
v -11 -3 -0.03
v -12 -3 -0.03
v -12 -2 -0.03
v -11 -2 -0.03
v -12 -3 -0.03
v -13 -3 -0.03
v -13 -2 -0.03
v -12 -2 -0.03
v -13 -3 -0.03
v -14 -3 -0.03
v -14 -2 -0.03
v -13 -2 -0.03
v -14 -3 -0.03
v -15 -3 -0.03
v -15 -2 -0.03
v -14 -2 -0.03
v -15 -3 -0.03
v -16 -3 -0.03
v -16 -2 -0.03
v -15 -2 -0.03
v -4 -4 -0.04
v -5 -4 -0.04
v -5 -3 -0.04
v -4 -3 -0.04
v -5 -4 -0.04
v -6 -4 -0.04
v -6 -3 -0.04
v -5 -3 -0.04
v -6 -4 -0.04
v -7 -4 -0.04
v -7 -3 -0.04
v -6 -3 -0.04
v -7 -4 -0.04
v -8 -4 -0.04
v -8 -3 -0.04
v -7 -3 -0.04
v -8 -4 -0.04
v -9 -4 -0.04
v -9 -3 -0.04
v -8 -3 -0.04
v -9 -4 -0.04
v -10 -4 -0.04
v -10 -3 -0.04
v -9 -3 -0.04
v -10 -4 -0.04
v -11 -4 -0.04
v -11 -3 -0.04
v -10 -3 -0.04
v -11 -4 -0.04
v -12 -4 -0.04
v -12 -3 -0.04
v -11 -3 -0.04
v -12 -4 -0.04
v -13 -4 -0.04
v -13 -3 -0.04
v -12 -3 -0.04
v -13 -4 -0.04
v -14 -4 -0.04
v -14 -3 -0.04
v -13 -3 -0.04
v -14 -4 -0.04
v -15 -4 -0.04
v -15 -3 -0.04
v -14 -3 -0.04
v -15 -4 -0.04
v -16 -4 -0.04
v -16 -3 -0.04
v -15 -3 -0.04
v -4 -5 -0.05
v -5 -5 -0.05
v -5 -4 -0.05
v -4 -4 -0.05
v -5 -5 -0.05
v -6 -5 -0.05
v -6 -4 -0.05
v -5 -4 -0.05
v -6 -5 -0.05
v -7 -5 -0.05
v -7 -4 -0.05
v -6 -4 -0.05
v -7 -5 -0.05
v -8 -5 -0.05
v -8 -4 -0.05
v -7 -4 -0.05
v -8 -5 -0.05
v -9 -5 -0.05
v -9 -4 -0.05
v -8 -4 -0.05
v -9 -5 -0.05
v -10 -5 -0.05
v -10 -4 -0.05
v -9 -4 -0.05
v -10 -5 -0.05
v -11 -5 -0.05
v -11 -4 -0.05
v -10 -4 -0.05
v -11 -5 -0.05
v -12 -5 -0.05
v -12 -4 -0.05
v -11 -4 -0.05
v -12 -5 -0.05
v -13 -5 -0.05
v -13 -4 -0.05
v -12 -4 -0.05
v -13 -5 -0.05
v -14 -5 -0.05
v -14 -4 -0.05
v -13 -4 -0.05
v -14 -5 -0.05
v -15 -5 -0.05
v -15 -4 -0.05
v -14 -4 -0.05
v -15 -5 -0.05
v -16 -5 -0.05
v -16 -4 -0.05
v -15 -4 -0.05
v -4 -6 -0.06
v -5 -6 -0.06
v -5 -5 -0.06
v -4 -5 -0.06
v -5 -6 -0.06
v -6 -6 -0.06
v -6 -5 -0.06
v -5 -5 -0.06
v -6 -6 -0.06
v -7 -6 -0.06
v -7 -5 -0.06
v -6 -5 -0.06
v -7 -6 -0.06
v -8 -6 -0.06
v -8 -5 -0.06
v -7 -5 -0.06
v -8 -6 -0.06
v -9 -6 -0.06
v -9 -5 -0.06
v -8 -5 -0.06
v -9 -6 -0.06
v -10 -6 -0.06
v -10 -5 -0.06
v -9 -5 -0.06
v -10 -6 -0.06
v -11 -6 -0.06
v -11 -5 -0.06
v -10 -5 -0.06
v -11 -6 -0.06
v -12 -6 -0.06
v -12 -5 -0.06
v -11 -5 -0.06
v -12 -6 -0.06
v -13 -6 -0.06
v -13 -5 -0.06
v -12 -5 -0.06
v -13 -6 -0.06
v -14 -6 -0.06
v -14 -5 -0.06
v -13 -5 -0.06
v -14 -6 -0.06
v -15 -6 -0.06
v -15 -5 -0.06
v -14 -5 -0.06
v -15 -6 -0.06
v -16 -6 -0.06
v -16 -5 -0.06
v -15 -5 -0.06
v -4 -7 -0.07
v -5 -7 -0.07
v -5 -6 -0.07
v -4 -6 -0.07
v -5 -7 -0.07
v -6 -7 -0.07
v -6 -6 -0.07
v -5 -6 -0.07
v -6 -7 -0.07
v -7 -7 -0.07
v -7 -6 -0.07
v -6 -6 -0.07
v -7 -7 -0.07
v -8 -7 -0.07
v -8 -6 -0.07
v -7 -6 -0.07
v -8 -7 -0.07
v -9 -7 -0.07
v -9 -6 -0.07
v -8 -6 -0.07
v -9 -7 -0.07
v -10 -7 -0.07
v -10 -6 -0.07
v -9 -6 -0.07
v -10 -7 -0.07
v -11 -7 -0.07
v -11 -6 -0.07
v -10 -6 -0.07
v -11 -7 -0.07
v -12 -7 -0.07
v -12 -6 -0.07
v -11 -6 -0.07
v -12 -7 -0.07
v -13 -7 -0.07
v -13 -6 -0.07
v -12 -6 -0.07
v -13 -7 -0.07
v -14 -7 -0.07
v -14 -6 -0.07
v -13 -6 -0.07
v -14 -7 -0.07
v -15 -7 -0.07
v -15 -6 -0.07
v -14 -6 -0.07
v -15 -7 -0.07
v -16 -7 -0.07
v -16 -6 -0.07
v -15 -6 -0.07
v -4 -8 -0.08
v -5 -8 -0.08
v -5 -7 -0.08
v -4 -7 -0.08
v -5 -8 -0.08
v -6 -8 -0.08
v -6 -7 -0.08
v -5 -7 -0.08
v -6 -8 -0.08
v -7 -8 -0.08
v -7 -7 -0.08
v -6 -7 -0.08
v -7 -8 -0.08
v -8 -8 -0.08
v -8 -7 -0.08
v -7 -7 -0.08
v -8 -8 -0.08
v -9 -8 -0.08
v -9 -7 -0.08
v -8 -7 -0.08
v -9 -8 -0.08
v -10 -8 -0.08
v -10 -7 -0.08
v -9 -7 -0.08
v -10 -8 -0.08
v -11 -8 -0.08
v -11 -7 -0.08
v -10 -7 -0.08
v -11 -8 -0.08
v -12 -8 -0.08
v -12 -7 -0.08
v -11 -7 -0.08
v -12 -8 -0.08
v -13 -8 -0.08
v -13 -7 -0.08
v -12 -7 -0.08
v -13 -8 -0.08
v -14 -8 -0.08
v -14 -7 -0.08
v -13 -7 -0.08
v -14 -8 -0.08
v -15 -8 -0.08
v -15 -7 -0.08
v -14 -7 -0.08
v -15 -8 -0.08
v -16 -8 -0.08
v -16 -7 -0.08
v -15 -7 -0.08
v -4 -9 -0.09
v -5 -9 -0.09
v -5 -8 -0.09
v -4 -8 -0.09
v -5 -9 -0.09
v -6 -9 -0.09
v -6 -8 -0.09
v -5 -8 -0.09
v -6 -9 -0.09
v -7 -9 -0.09
v -7 -8 -0.09
v -6 -8 -0.09
v -7 -9 -0.09
v -8 -9 -0.09
v -8 -8 -0.09
v -7 -8 -0.09
v -8 -9 -0.09
v -9 -9 -0.09
v -9 -8 -0.09
v -8 -8 -0.09
v -9 -9 -0.09
v -10 -9 -0.09
v -10 -8 -0.09
v -9 -8 -0.09
v -10 -9 -0.09
v -11 -9 -0.09
v -11 -8 -0.09
v -10 -8 -0.09
v -11 -9 -0.09
v -12 -9 -0.09
v -12 -8 -0.09
v -11 -8 -0.09
v -12 -9 -0.09
v -13 -9 -0.09
v -13 -8 -0.09
v -12 -8 -0.09
v -13 -9 -0.09
v -14 -9 -0.09
v -14 -8 -0.09
v -13 -8 -0.09
v -14 -9 -0.09
v -15 -9 -0.09
v -15 -8 -0.09
v -14 -8 -0.09
v -15 -9 -0.09
v -16 -9 -0.09
v -16 -8 -0.09
v -15 -8 -0.09
v -4 -10 -0.1
v -5 -10 -0.1
v -5 -9 -0.1
v -4 -9 -0.1
v -5 -10 -0.1
v -6 -10 -0.1
v -6 -9 -0.1
v -5 -9 -0.1
v -6 -10 -0.1
v -7 -10 -0.1
v -7 -9 -0.1
v -6 -9 -0.1
v -7 -10 -0.1
v -8 -10 -0.1
v -8 -9 -0.1
v -7 -9 -0.1
v -8 -10 -0.1
v -9 -10 -0.1
v -9 -9 -0.1
v -8 -9 -0.1
v -9 -10 -0.1
v -10 -10 -0.1
v -10 -9 -0.1
v -9 -9 -0.1
v -10 -10 -0.1
v -11 -10 -0.1
v -11 -9 -0.1
v -10 -9 -0.1
v -11 -10 -0.1
v -12 -10 -0.1
v -12 -9 -0.1
v -11 -9 -0.1
v -12 -10 -0.1
v -13 -10 -0.1
v -13 -9 -0.1
v -12 -9 -0.1
v -13 -10 -0.1
v -14 -10 -0.1
v -14 -9 -0.1
v -13 -9 -0.1
v -14 -10 -0.1
v -15 -10 -0.1
v -15 -9 -0.1
v -14 -9 -0.1
v -15 -10 -0.1
v -16 -10 -0.1
v -16 -9 -0.1
v -15 -9 -0.1
v -4 -11 -0.11
v -5 -11 -0.11
v -5 -10 -0.11
v -4 -10 -0.11
v -5 -11 -0.11
v -6 -11 -0.11
v -6 -10 -0.11
v -5 -10 -0.11
v -6 -11 -0.11
v -7 -11 -0.11
v -7 -10 -0.11
v -6 -10 -0.11
v -7 -11 -0.11
v -8 -11 -0.11
v -8 -10 -0.11
v -7 -10 -0.11
v -8 -11 -0.11
v -9 -11 -0.11
v -9 -10 -0.11
v -8 -10 -0.11
v -9 -11 -0.11
v -10 -11 -0.11
v -10 -10 -0.11
v -9 -10 -0.11
v -10 -11 -0.11
v -11 -11 -0.11
v -11 -10 -0.11
v -10 -10 -0.11
v -11 -11 -0.11
v -12 -11 -0.11
v -12 -10 -0.11
v -11 -10 -0.11
v -12 -11 -0.11
v -13 -11 -0.11
v -13 -10 -0.11
v -12 -10 -0.11
v -13 -11 -0.11
v -14 -11 -0.11
v -14 -10 -0.11
v -13 -10 -0.11
v -14 -11 -0.11
v -15 -11 -0.11
v -15 -10 -0.11
v -14 -10 -0.11
v -15 -11 -0.11
v -16 -11 -0.11
v -16 -10 -0.11
v -15 -10 -0.11
v -2 -12 -0.12
v -3 -12 -0.12
v -3 -11 -0.12
v -2 -11 -0.12
v -3 -12 -0.12
v -4 -12 -0.12
v -4 -11 -0.12
v -3 -11 -0.12
v -4 -12 -0.12
v -5 -12 -0.12
v -5 -11 -0.12
v -4 -11 -0.12
v -5 -12 -0.12
v -6 -12 -0.12
v -6 -11 -0.12
v -5 -11 -0.12
v -6 -12 -0.12
v -7 -12 -0.12
v -7 -11 -0.12
v -6 -11 -0.12
v -7 -12 -0.12
v -8 -12 -0.12
v -8 -11 -0.12
v -7 -11 -0.12
v -8 -12 -0.12
v -9 -12 -0.12
v -9 -11 -0.12
v -8 -11 -0.12
v -9 -12 -0.12
v -10 -12 -0.12
v -10 -11 -0.12
v -9 -11 -0.12
v -10 -12 -0.12
v -11 -12 -0.12
v -11 -11 -0.12
v -10 -11 -0.12
v -11 -12 -0.12
v -12 -12 -0.12
v -12 -11 -0.12
v -11 -11 -0.12
v -12 -12 -0.12
v -13 -12 -0.12
v -13 -11 -0.12
v -12 -11 -0.12
v -13 -12 -0.12
v -14 -12 -0.12
v -14 -11 -0.12
v -13 -11 -0.12
v -14 -12 -0.12
v -15 -12 -0.12
v -15 -11 -0.12
v -14 -11 -0.12
v -15 -12 -0.12
v -16 -12 -0.12
v -16 -11 -0.12
v -15 -11 -0.12
v -2 -13 -0.13
v -3 -13 -0.13
v -3 -12 -0.13
v -2 -12 -0.13
v -3 -13 -0.13
v -4 -13 -0.13
v -4 -12 -0.13
v -3 -12 -0.13
v -4 -13 -0.13
v -5 -13 -0.13
v -5 -12 -0.13
v -4 -12 -0.13
v -5 -13 -0.13
v -6 -13 -0.13
v -6 -12 -0.13
v -5 -12 -0.13
v -6 -13 -0.13
v -7 -13 -0.13
v -7 -12 -0.13
v -6 -12 -0.13
v -7 -13 -0.13
v -8 -13 -0.13
v -8 -12 -0.13
v -7 -12 -0.13
v -8 -13 -0.13
v -9 -13 -0.13
v -9 -12 -0.13
v -8 -12 -0.13
v -9 -13 -0.13
v -10 -13 -0.13
v -10 -12 -0.13
v -9 -12 -0.13
v -10 -13 -0.13
v -11 -13 -0.13
v -11 -12 -0.13
v -10 -12 -0.13
v -11 -13 -0.13
v -12 -13 -0.13
v -12 -12 -0.13
v -11 -12 -0.13
v -12 -13 -0.13
v -13 -13 -0.13
v -13 -12 -0.13
v -12 -12 -0.13
v -13 -13 -0.13
v -14 -13 -0.13
v -14 -12 -0.13
v -13 -12 -0.13
v -14 -13 -0.13
v -15 -13 -0.13
v -15 -12 -0.13
v -14 -12 -0.13
v -15 -13 -0.13
v -16 -13 -0.13
v -16 -12 -0.13
v -15 -12 -0.13
v 0 -14 -0.14
v -1 -14 -0.14
v -1 -13 -0.14
v 0 -13 -0.14
v -1 -14 -0.14
v -2 -14 -0.14
v -2 -13 -0.14
v -1 -13 -0.14
v -2 -14 -0.14
v -3 -14 -0.14
v -3 -13 -0.14
v -2 -13 -0.14
v -3 -14 -0.14
v -4 -14 -0.14
v -4 -13 -0.14
v -3 -13 -0.14
v -4 -14 -0.14
v -5 -14 -0.14
v -5 -13 -0.14
v -4 -13 -0.14
v -5 -14 -0.14
v -6 -14 -0.14
v -6 -13 -0.14
v -5 -13 -0.14
v -6 -14 -0.14
v -7 -14 -0.14
v -7 -13 -0.14
v -6 -13 -0.14
v -7 -14 -0.14
v -8 -14 -0.14
v -8 -13 -0.14
v -7 -13 -0.14
v -8 -14 -0.14
v -9 -14 -0.14
v -9 -13 -0.14
v -8 -13 -0.14
v -9 -14 -0.14
v -10 -14 -0.14
v -10 -13 -0.14
v -9 -13 -0.14
v -10 -14 -0.14
v -11 -14 -0.14
v -11 -13 -0.14
v -10 -13 -0.14
v -11 -14 -0.14
v -12 -14 -0.14
v -12 -13 -0.14
v -11 -13 -0.14
v -12 -14 -0.14
v -13 -14 -0.14
v -13 -13 -0.14
v -12 -13 -0.14
v -13 -14 -0.14
v -14 -14 -0.14
v -14 -13 -0.14
v -13 -13 -0.14
v -14 -14 -0.14
v -15 -14 -0.14
v -15 -13 -0.14
v -14 -13 -0.14
v -15 -14 -0.14
v -16 -14 -0.14
v -16 -13 -0.14
v -15 -13 -0.14
v 0 -15 -0.15
v -1 -15 -0.15
v -1 -14 -0.15
v 0 -14 -0.15
v -1 -15 -0.15
v -2 -15 -0.15
v -2 -14 -0.15
v -1 -14 -0.15
v -2 -15 -0.15
v -3 -15 -0.15
v -3 -14 -0.15
v -2 -14 -0.15
v -3 -15 -0.15
v -4 -15 -0.15
v -4 -14 -0.15
v -3 -14 -0.15
v -4 -15 -0.15
v -5 -15 -0.15
v -5 -14 -0.15
v -4 -14 -0.15
v -5 -15 -0.15
v -6 -15 -0.15
v -6 -14 -0.15
v -5 -14 -0.15
v -6 -15 -0.15
v -7 -15 -0.15
v -7 -14 -0.15
v -6 -14 -0.15
v -7 -15 -0.15
v -8 -15 -0.15
v -8 -14 -0.15
v -7 -14 -0.15
v -8 -15 -0.15
v -9 -15 -0.15
v -9 -14 -0.15
v -8 -14 -0.15
v -9 -15 -0.15
v -10 -15 -0.15
v -10 -14 -0.15
v -9 -14 -0.15
v -10 -15 -0.15
v -11 -15 -0.15
v -11 -14 -0.15
v -10 -14 -0.15
v -11 -15 -0.15
v -12 -15 -0.15
v -12 -14 -0.15
v -11 -14 -0.15
v -12 -15 -0.15
v -13 -15 -0.15
v -13 -14 -0.15
v -12 -14 -0.15
v -13 -15 -0.15
v -14 -15 -0.15
v -14 -14 -0.15
v -13 -14 -0.15
v -14 -15 -0.15
v -15 -15 -0.15
v -15 -14 -0.15
v -14 -14 -0.15
v -15 -15 -0.15
v -16 -15 -0.15
v -16 -14 -0.15
v -15 -14 -0.15
v 0 -16 -0.16
v -1 -16 -0.16
v -1 -15 -0.16
v 0 -15 -0.16
v -1 -16 -0.16
v -2 -16 -0.16
v -2 -15 -0.16
v -1 -15 -0.16
v -2 -16 -0.16
v -3 -16 -0.16
v -3 -15 -0.16
v -2 -15 -0.16
v -3 -16 -0.16
v -4 -16 -0.16
v -4 -15 -0.16
v -3 -15 -0.16
v -4 -16 -0.16
v -5 -16 -0.16
v -5 -15 -0.16
v -4 -15 -0.16
v -5 -16 -0.16
v -6 -16 -0.16
v -6 -15 -0.16
v -5 -15 -0.16
v -6 -16 -0.16
v -7 -16 -0.16
v -7 -15 -0.16
v -6 -15 -0.16
v -7 -16 -0.16
v -8 -16 -0.16
v -8 -15 -0.16
v -7 -15 -0.16
v -8 -16 -0.16
v -9 -16 -0.16
v -9 -15 -0.16
v -8 -15 -0.16
v -9 -16 -0.16
v -10 -16 -0.16
v -10 -15 -0.16
v -9 -15 -0.16
v -10 -16 -0.16
v -11 -16 -0.16
v -11 -15 -0.16
v -10 -15 -0.16
v -11 -16 -0.16
v -12 -16 -0.16
v -12 -15 -0.16
v -11 -15 -0.16
v -12 -16 -0.16
v -13 -16 -0.16
v -13 -15 -0.16
v -12 -15 -0.16
v -13 -16 -0.16
v -14 -16 -0.16
v -14 -15 -0.16
v -13 -15 -0.16
v -14 -16 -0.16
v -15 -16 -0.16
v -15 -15 -0.16
v -14 -15 -0.16
v -15 -16 -0.16
v -16 -16 -0.16
v -16 -15 -0.16
v -15 -15 -0.16

# Texture cooridinates (Count = 30)
vt 0.3333333 0.9849624
vt 0.3888889 0.9849624
vt 0.3888889 0.9887218
vt 0.3333333 0.9887218
vt 0.4444444 0.9849624
vt 0.4444444 0.9887218
vt 0.3333333 0.962406
vt 0.3888889 0.962406
vt 0.3888889 0.9661654
vt 0.3333333 0.9661654
vt 0.4444444 0.962406
vt 0.4444444 0.9661654
vt 0.5 0.962406
vt 0.5 0.9661654
vt 0.5555556 0.962406
vt 0.5555556 0.9661654
vt 0.3333333 0.981203
vt 0.3888889 0.981203
vt 0.4444444 0.981203
vt 0.3888889 0.9699248
vt 0.3333333 0.9699248
vt 0.4444444 0.9699248
vt 0.5 0.9699248
vt 0.5555556 0.9699248
vt 0.3333333 0.9774436
vt 0.3888889 0.9774436
vt 0.4444444 0.9774436
vt 0.3888889 0.9924812
vt 0.3333333 0.9924812
vt 0.4444444 0.9924812

# Normal
vn 0 0 -1

# Mesh description
g Act-0-Forest_mesh_0248

# Faces
f 1/1/1 2/2/1 3/3/1 4/4/1
f 5/2/1 6/5/1 7/6/1 8/3/1
f 9/7/1 10/8/1 11/9/1 12/10/1
f 13/8/1 14/11/1 15/12/1 16/9/1
f 17/7/1 18/8/1 19/9/1 20/10/1
f 21/8/1 22/11/1 23/12/1 24/9/1
f 25/11/1 26/13/1 27/14/1 28/12/1
f 29/13/1 30/15/1 31/16/1 32/14/1
f 33/7/1 34/8/1 35/9/1 36/10/1
f 37/8/1 38/11/1 39/12/1 40/9/1
f 41/11/1 42/13/1 43/14/1 44/12/1
f 45/13/1 46/15/1 47/16/1 48/14/1
f 49/7/1 50/8/1 51/9/1 52/10/1
f 53/8/1 54/11/1 55/12/1 56/9/1
f 57/17/1 58/18/1 59/2/1 60/1/1
f 61/18/1 62/19/1 63/5/1 64/2/1
f 65/10/1 66/9/1 67/20/1 68/21/1
f 69/9/1 70/12/1 71/22/1 72/20/1
f 73/12/1 74/14/1 75/23/1 76/22/1
f 77/14/1 78/16/1 79/24/1 80/23/1
f 81/10/1 82/9/1 83/20/1 84/21/1
f 85/9/1 86/12/1 87/22/1 88/20/1
f 89/12/1 90/14/1 91/23/1 92/22/1
f 93/14/1 94/16/1 95/24/1 96/23/1
f 97/10/1 98/9/1 99/20/1 100/21/1
f 101/9/1 102/12/1 103/22/1 104/20/1
f 105/12/1 106/14/1 107/23/1 108/22/1
f 109/14/1 110/16/1 111/24/1 112/23/1
f 113/25/1 114/26/1 115/18/1 116/17/1
f 117/26/1 118/27/1 119/19/1 120/18/1
f 121/7/1 122/8/1 123/9/1 124/10/1
f 125/8/1 126/11/1 127/12/1 128/9/1
f 129/11/1 130/13/1 131/14/1 132/12/1
f 133/13/1 134/15/1 135/16/1 136/14/1
f 137/7/1 138/8/1 139/9/1 140/10/1
f 141/8/1 142/11/1 143/12/1 144/9/1
f 145/11/1 146/13/1 147/14/1 148/12/1
f 149/13/1 150/15/1 151/16/1 152/14/1
f 153/7/1 154/8/1 155/9/1 156/10/1
f 157/8/1 158/11/1 159/12/1 160/9/1
f 161/11/1 162/13/1 163/14/1 164/12/1
f 165/13/1 166/15/1 167/16/1 168/14/1
f 169/17/1 170/18/1 171/2/1 172/1/1
f 173/18/1 174/19/1 175/5/1 176/2/1
f 177/10/1 178/9/1 179/20/1 180/21/1
f 181/9/1 182/12/1 183/22/1 184/20/1
f 185/12/1 186/14/1 187/23/1 188/22/1
f 189/14/1 190/16/1 191/24/1 192/23/1
f 193/10/1 194/9/1 195/20/1 196/21/1
f 197/9/1 198/12/1 199/22/1 200/20/1
f 201/12/1 202/14/1 203/23/1 204/22/1
f 205/14/1 206/16/1 207/24/1 208/23/1
f 209/10/1 210/9/1 211/20/1 212/21/1
f 213/9/1 214/12/1 215/22/1 216/20/1
f 217/25/1 218/26/1 219/18/1 220/17/1
f 221/26/1 222/27/1 223/19/1 224/18/1
f 225/7/1 226/8/1 227/9/1 228/10/1
f 229/8/1 230/11/1 231/12/1 232/9/1
f 233/11/1 234/13/1 235/14/1 236/12/1
f 237/13/1 238/15/1 239/16/1 240/14/1
f 241/7/1 242/8/1 243/9/1 244/10/1
f 245/8/1 246/11/1 247/12/1 248/9/1
f 249/11/1 250/13/1 251/14/1 252/12/1
f 253/13/1 254/15/1 255/16/1 256/14/1
f 257/7/1 258/8/1 259/9/1 260/10/1
f 261/8/1 262/11/1 263/12/1 264/9/1
f 265/4/1 266/3/1 267/28/1 268/29/1
f 269/3/1 270/6/1 271/30/1 272/28/1
f 273/12/1 274/14/1 275/23/1 276/22/1
f 277/14/1 278/16/1 279/24/1 280/23/1
f 281/10/1 282/9/1 283/20/1 284/21/1
f 285/9/1 286/12/1 287/22/1 288/20/1
f 289/12/1 290/14/1 291/23/1 292/22/1
f 293/14/1 294/16/1 295/24/1 296/23/1
f 297/10/1 298/9/1 299/20/1 300/21/1
f 301/9/1 302/12/1 303/22/1 304/20/1
f 305/12/1 306/14/1 307/23/1 308/22/1
f 309/14/1 310/16/1 311/24/1 312/23/1
f 313/1/1 314/2/1 315/3/1 316/4/1
f 317/2/1 318/5/1 319/6/1 320/3/1
f 321/11/1 322/13/1 323/14/1 324/12/1
f 325/13/1 326/15/1 327/16/1 328/14/1
f 329/7/1 330/8/1 331/9/1 332/10/1
f 333/8/1 334/11/1 335/12/1 336/9/1
f 337/11/1 338/13/1 339/14/1 340/12/1
f 341/13/1 342/15/1 343/16/1 344/14/1
f 345/7/1 346/8/1 347/9/1 348/10/1
f 349/8/1 350/11/1 351/12/1 352/9/1
f 353/11/1 354/13/1 355/14/1 356/12/1
f 357/13/1 358/15/1 359/16/1 360/14/1
f 361/17/1 362/18/1 363/2/1 364/1/1
f 365/18/1 366/19/1 367/5/1 368/2/1
f 369/10/1 370/9/1 371/20/1 372/21/1
f 373/9/1 374/12/1 375/22/1 376/20/1
f 377/12/1 378/14/1 379/23/1 380/22/1
f 381/14/1 382/16/1 383/24/1 384/23/1
f 385/10/1 386/9/1 387/20/1 388/21/1
f 389/9/1 390/12/1 391/22/1 392/20/1
f 393/12/1 394/14/1 395/23/1 396/22/1
f 397/14/1 398/16/1 399/24/1 400/23/1
f 401/10/1 402/9/1 403/20/1 404/21/1
f 405/9/1 406/12/1 407/22/1 408/20/1
f 409/25/1 410/26/1 411/18/1 412/17/1
f 413/26/1 414/27/1 415/19/1 416/18/1
f 417/7/1 418/8/1 419/9/1 420/10/1
f 421/8/1 422/11/1 423/12/1 424/9/1
f 425/11/1 426/13/1 427/14/1 428/12/1
f 429/13/1 430/15/1 431/16/1 432/14/1
f 433/7/1 434/8/1 435/9/1 436/10/1
f 437/8/1 438/11/1 439/12/1 440/9/1
f 441/11/1 442/13/1 443/14/1 444/12/1
f 445/13/1 446/15/1 447/16/1 448/14/1
f 449/7/1 450/8/1 451/9/1 452/10/1
f 453/8/1 454/11/1 455/12/1 456/9/1
f 457/4/1 458/3/1 459/28/1 460/29/1
f 461/3/1 462/6/1 463/30/1 464/28/1
f 465/12/1 466/14/1 467/23/1 468/22/1
f 469/14/1 470/16/1 471/24/1 472/23/1
f 473/10/1 474/9/1 475/20/1 476/21/1
f 477/9/1 478/12/1 479/22/1 480/20/1
f 481/12/1 482/14/1 483/23/1 484/22/1
f 485/14/1 486/16/1 487/24/1 488/23/1
f 489/10/1 490/9/1 491/20/1 492/21/1
f 493/9/1 494/12/1 495/22/1 496/20/1
f 497/12/1 498/14/1 499/23/1 500/22/1
f 501/14/1 502/16/1 503/24/1 504/23/1
f 505/1/1 506/2/1 507/3/1 508/4/1
f 509/2/1 510/5/1 511/6/1 512/3/1
f 513/11/1 514/13/1 515/14/1 516/12/1
f 517/13/1 518/15/1 519/16/1 520/14/1
f 521/7/1 522/8/1 523/9/1 524/10/1
f 525/8/1 526/11/1 527/12/1 528/9/1
f 529/11/1 530/13/1 531/14/1 532/12/1
f 533/13/1 534/15/1 535/16/1 536/14/1
f 537/7/1 538/8/1 539/9/1 540/10/1
f 541/8/1 542/11/1 543/12/1 544/9/1
f 545/11/1 546/13/1 547/14/1 548/12/1
f 549/13/1 550/15/1 551/16/1 552/14/1
f 553/4/1 554/3/1 555/28/1 556/29/1
f 557/3/1 558/6/1 559/30/1 560/28/1
f 561/12/1 562/14/1 563/23/1 564/22/1
f 565/14/1 566/16/1 567/24/1 568/23/1
f 569/10/1 570/9/1 571/20/1 572/21/1
f 573/9/1 574/12/1 575/22/1 576/20/1
f 577/12/1 578/14/1 579/23/1 580/22/1
f 581/14/1 582/16/1 583/24/1 584/23/1
f 585/10/1 586/9/1 587/20/1 588/21/1
f 589/9/1 590/12/1 591/22/1 592/20/1
f 593/12/1 594/14/1 595/23/1 596/22/1
f 597/14/1 598/16/1 599/24/1 600/23/1
f 601/10/1 602/9/1 603/20/1 604/21/1
f 605/9/1 606/12/1 607/22/1 608/20/1
f 609/1/1 610/2/1 611/3/1 612/4/1
f 613/2/1 614/5/1 615/6/1 616/3/1
f 617/11/1 618/13/1 619/14/1 620/12/1
f 621/13/1 622/15/1 623/16/1 624/14/1
f 625/7/1 626/8/1 627/9/1 628/10/1
f 629/8/1 630/11/1 631/12/1 632/9/1
f 633/11/1 634/13/1 635/14/1 636/12/1
f 637/13/1 638/15/1 639/16/1 640/14/1
f 641/7/1 642/8/1 643/9/1 644/10/1
f 645/8/1 646/11/1 647/12/1 648/9/1
f 649/11/1 650/13/1 651/14/1 652/12/1
f 653/13/1 654/15/1 655/16/1 656/14/1
f 657/7/1 658/8/1 659/9/1 660/10/1
f 661/8/1 662/11/1 663/12/1 664/9/1
f 665/4/1 666/3/1 667/28/1 668/29/1
f 669/3/1 670/6/1 671/30/1 672/28/1
f 673/12/1 674/14/1 675/23/1 676/22/1
f 677/14/1 678/16/1 679/24/1 680/23/1
f 681/10/1 682/9/1 683/20/1 684/21/1
f 685/9/1 686/12/1 687/22/1 688/20/1
f 689/12/1 690/14/1 691/23/1 692/22/1
f 693/14/1 694/16/1 695/24/1 696/23/1
f 697/10/1 698/9/1 699/20/1 700/21/1
f 701/9/1 702/12/1 703/22/1 704/20/1
f 705/12/1 706/14/1 707/23/1 708/22/1
f 709/14/1 710/16/1 711/24/1 712/23/1
f 713/10/1 714/9/1 715/20/1 716/21/1
f 717/9/1 718/12/1 719/22/1 720/20/1
f 721/12/1 722/14/1 723/23/1 724/22/1
f 725/14/1 726/16/1 727/24/1 728/23/1
f 729/1/1 730/2/1 731/3/1 732/4/1
f 733/2/1 734/5/1 735/6/1 736/3/1
f 737/11/1 738/13/1 739/14/1 740/12/1
f 741/13/1 742/15/1 743/16/1 744/14/1
f 745/7/1 746/8/1 747/9/1 748/10/1
f 749/8/1 750/11/1 751/12/1 752/9/1
f 753/11/1 754/13/1 755/14/1 756/12/1
f 757/13/1 758/15/1 759/16/1 760/14/1
f 761/7/1 762/8/1 763/9/1 764/10/1
f 765/8/1 766/11/1 767/12/1 768/9/1
f 769/11/1 770/13/1 771/14/1 772/12/1
f 773/13/1 774/15/1 775/16/1 776/14/1
f 777/7/1 778/8/1 779/9/1 780/10/1
f 781/8/1 782/11/1 783/12/1 784/9/1
f 785/11/1 786/13/1 787/14/1 788/12/1
f 789/13/1 790/15/1 791/16/1 792/14/1
f 793/12/1 794/14/1 795/23/1 796/22/1
f 797/14/1 798/16/1 799/24/1 800/23/1
f 801/10/1 802/9/1 803/20/1 804/21/1
f 805/9/1 806/12/1 807/22/1 808/20/1
f 809/12/1 810/14/1 811/23/1 812/22/1
f 813/14/1 814/16/1 815/24/1 816/23/1
f 817/10/1 818/9/1 819/20/1 820/21/1
f 821/9/1 822/12/1 823/22/1 824/20/1
f 825/12/1 826/14/1 827/23/1 828/22/1
f 829/14/1 830/16/1 831/24/1 832/23/1
f 833/10/1 834/9/1 835/20/1 836/21/1
f 837/9/1 838/12/1 839/22/1 840/20/1
f 841/12/1 842/14/1 843/23/1 844/22/1
f 845/14/1 846/16/1 847/24/1 848/23/1
f 849/10/1 850/9/1 851/20/1 852/21/1
f 853/9/1 854/12/1 855/22/1 856/20/1

