# Tiled2Unity generated file. Do not modify by hand.
# Wavefront file for 'Act-0-Forest_mesh_0253.obj'

# Vertices (Count = 480)
v 0 -1 -0.01
v -1 -1 -0.01
v -1 0 -0.01
v 0 0 -0.01
v -1 -1 -0.01
v -2 -1 -0.01
v -2 0 -0.01
v -1 0 -0.01
v -2 -1 -0.01
v -3 -1 -0.01
v -3 0 -0.01
v -2 0 -0.01
v -3 -1 -0.01
v -4 -1 -0.01
v -4 0 -0.01
v -3 0 -0.01
v -4 -1 -0.01
v -5 -1 -0.01
v -5 0 -0.01
v -4 0 -0.01
v -5 -1 -0.01
v -6 -1 -0.01
v -6 0 -0.01
v -5 0 -0.01
v -6 -1 -0.01
v -7 -1 -0.01
v -7 0 -0.01
v -6 0 -0.01
v -7 -1 -0.01
v -8 -1 -0.01
v -8 0 -0.01
v -7 0 -0.01
v -8 -1 -0.01
v -9 -1 -0.01
v -9 0 -0.01
v -8 0 -0.01
v -9 -1 -0.01
v -10 -1 -0.01
v -10 0 -0.01
v -9 0 -0.01
v 0 -2 -0.02
v -1 -2 -0.02
v -1 -1 -0.02
v 0 -1 -0.02
v -1 -2 -0.02
v -2 -2 -0.02
v -2 -1 -0.02
v -1 -1 -0.02
v -2 -2 -0.02
v -3 -2 -0.02
v -3 -1 -0.02
v -2 -1 -0.02
v -3 -2 -0.02
v -4 -2 -0.02
v -4 -1 -0.02
v -3 -1 -0.02
v -4 -2 -0.02
v -5 -2 -0.02
v -5 -1 -0.02
v -4 -1 -0.02
v -5 -2 -0.02
v -6 -2 -0.02
v -6 -1 -0.02
v -5 -1 -0.02
v 0 -3 -0.03
v -1 -3 -0.03
v -1 -2 -0.03
v 0 -2 -0.03
v -1 -3 -0.03
v -2 -3 -0.03
v -2 -2 -0.03
v -1 -2 -0.03
v -2 -3 -0.03
v -3 -3 -0.03
v -3 -2 -0.03
v -2 -2 -0.03
v -3 -3 -0.03
v -4 -3 -0.03
v -4 -2 -0.03
v -3 -2 -0.03
v -4 -3 -0.03
v -5 -3 -0.03
v -5 -2 -0.03
v -4 -2 -0.03
v -5 -3 -0.03
v -6 -3 -0.03
v -6 -2 -0.03
v -5 -2 -0.03
v 0 -4 -0.04
v -1 -4 -0.04
v -1 -3 -0.04
v 0 -3 -0.04
v -1 -4 -0.04
v -2 -4 -0.04
v -2 -3 -0.04
v -1 -3 -0.04
v -2 -4 -0.04
v -3 -4 -0.04
v -3 -3 -0.04
v -2 -3 -0.04
v -3 -4 -0.04
v -4 -4 -0.04
v -4 -3 -0.04
v -3 -3 -0.04
v -8 -4 -0.04
v -9 -4 -0.04
v -9 -3 -0.04
v -8 -3 -0.04
v -9 -4 -0.04
v -10 -4 -0.04
v -10 -3 -0.04
v -9 -3 -0.04
v -10 -4 -0.04
v -11 -4 -0.04
v -11 -3 -0.04
v -10 -3 -0.04
v -11 -4 -0.04
v -12 -4 -0.04
v -12 -3 -0.04
v -11 -3 -0.04
v 0 -5 -0.05
v -1 -5 -0.05
v -1 -4 -0.05
v 0 -4 -0.05
v -1 -5 -0.05
v -2 -5 -0.05
v -2 -4 -0.05
v -1 -4 -0.05
v -2 -5 -0.05
v -3 -5 -0.05
v -3 -4 -0.05
v -2 -4 -0.05
v -3 -5 -0.05
v -4 -5 -0.05
v -4 -4 -0.05
v -3 -4 -0.05
v -8 -5 -0.05
v -9 -5 -0.05
v -9 -4 -0.05
v -8 -4 -0.05
v -9 -5 -0.05
v -10 -5 -0.05
v -10 -4 -0.05
v -9 -4 -0.05
v -10 -5 -0.05
v -11 -5 -0.05
v -11 -4 -0.05
v -10 -4 -0.05
v -11 -5 -0.05
v -12 -5 -0.05
v -12 -4 -0.05
v -11 -4 -0.05
v 0 -6 -0.06
v -1 -6 -0.06
v -1 -5 -0.06
v 0 -5 -0.06
v -1 -6 -0.06
v -2 -6 -0.06
v -2 -5 -0.06
v -1 -5 -0.06
v -2 -6 -0.06
v -3 -6 -0.06
v -3 -5 -0.06
v -2 -5 -0.06
v -3 -6 -0.06
v -4 -6 -0.06
v -4 -5 -0.06
v -3 -5 -0.06
v -8 -6 -0.06
v -9 -6 -0.06
v -9 -5 -0.06
v -8 -5 -0.06
v -9 -6 -0.06
v -10 -6 -0.06
v -10 -5 -0.06
v -9 -5 -0.06
v -10 -6 -0.06
v -11 -6 -0.06
v -11 -5 -0.06
v -10 -5 -0.06
v -11 -6 -0.06
v -12 -6 -0.06
v -12 -5 -0.06
v -11 -5 -0.06
v 0 -7 -0.07
v -1 -7 -0.07
v -1 -6 -0.07
v 0 -6 -0.07
v -1 -7 -0.07
v -2 -7 -0.07
v -2 -6 -0.07
v -1 -6 -0.07
v -2 -7 -0.07
v -3 -7 -0.07
v -3 -6 -0.07
v -2 -6 -0.07
v -3 -7 -0.07
v -4 -7 -0.07
v -4 -6 -0.07
v -3 -6 -0.07
v -4 -7 -0.07
v -5 -7 -0.07
v -5 -6 -0.07
v -4 -6 -0.07
v -5 -7 -0.07
v -6 -7 -0.07
v -6 -6 -0.07
v -5 -6 -0.07
v -6 -7 -0.07
v -7 -7 -0.07
v -7 -6 -0.07
v -6 -6 -0.07
v -7 -7 -0.07
v -8 -7 -0.07
v -8 -6 -0.07
v -7 -6 -0.07
v -8 -7 -0.07
v -9 -7 -0.07
v -9 -6 -0.07
v -8 -6 -0.07
v -9 -7 -0.07
v -10 -7 -0.07
v -10 -6 -0.07
v -9 -6 -0.07
v -10 -7 -0.07
v -11 -7 -0.07
v -11 -6 -0.07
v -10 -6 -0.07
v -11 -7 -0.07
v -12 -7 -0.07
v -12 -6 -0.07
v -11 -6 -0.07
v 0 -8 -0.08
v -1 -8 -0.08
v -1 -7 -0.08
v 0 -7 -0.08
v -1 -8 -0.08
v -2 -8 -0.08
v -2 -7 -0.08
v -1 -7 -0.08
v -2 -8 -0.08
v -3 -8 -0.08
v -3 -7 -0.08
v -2 -7 -0.08
v -3 -8 -0.08
v -4 -8 -0.08
v -4 -7 -0.08
v -3 -7 -0.08
v -4 -8 -0.08
v -5 -8 -0.08
v -5 -7 -0.08
v -4 -7 -0.08
v -5 -8 -0.08
v -6 -8 -0.08
v -6 -7 -0.08
v -5 -7 -0.08
v -6 -8 -0.08
v -7 -8 -0.08
v -7 -7 -0.08
v -6 -7 -0.08
v -7 -8 -0.08
v -8 -8 -0.08
v -8 -7 -0.08
v -7 -7 -0.08
v 0 -9 -0.09
v -1 -9 -0.09
v -1 -8 -0.09
v 0 -8 -0.09
v -1 -9 -0.09
v -2 -9 -0.09
v -2 -8 -0.09
v -1 -8 -0.09
v -2 -9 -0.09
v -3 -9 -0.09
v -3 -8 -0.09
v -2 -8 -0.09
v -3 -9 -0.09
v -4 -9 -0.09
v -4 -8 -0.09
v -3 -8 -0.09
v -4 -9 -0.09
v -5 -9 -0.09
v -5 -8 -0.09
v -4 -8 -0.09
v -5 -9 -0.09
v -6 -9 -0.09
v -6 -8 -0.09
v -5 -8 -0.09
v -6 -9 -0.09
v -7 -9 -0.09
v -7 -8 -0.09
v -6 -8 -0.09
v -7 -9 -0.09
v -8 -9 -0.09
v -8 -8 -0.09
v -7 -8 -0.09
v 0 -10 -0.1
v -1 -10 -0.1
v -1 -9 -0.1
v 0 -9 -0.1
v -1 -10 -0.1
v -2 -10 -0.1
v -2 -9 -0.1
v -1 -9 -0.1
v -2 -10 -0.1
v -3 -10 -0.1
v -3 -9 -0.1
v -2 -9 -0.1
v -3 -10 -0.1
v -4 -10 -0.1
v -4 -9 -0.1
v -3 -9 -0.1
v -4 -10 -0.1
v -5 -10 -0.1
v -5 -9 -0.1
v -4 -9 -0.1
v -5 -10 -0.1
v -6 -10 -0.1
v -6 -9 -0.1
v -5 -9 -0.1
v -6 -10 -0.1
v -7 -10 -0.1
v -7 -9 -0.1
v -6 -9 -0.1
v -7 -10 -0.1
v -8 -10 -0.1
v -8 -9 -0.1
v -7 -9 -0.1
v 0 -11 -0.11
v -1 -11 -0.11
v -1 -10 -0.11
v 0 -10 -0.11
v -1 -11 -0.11
v -2 -11 -0.11
v -2 -10 -0.11
v -1 -10 -0.11
v -2 -11 -0.11
v -3 -11 -0.11
v -3 -10 -0.11
v -2 -10 -0.11
v -3 -11 -0.11
v -4 -11 -0.11
v -4 -10 -0.11
v -3 -10 -0.11
v -5 -11 -0.11
v -6 -11 -0.11
v -6 -10 -0.11
v -5 -10 -0.11
v -6 -11 -0.11
v -7 -11 -0.11
v -7 -10 -0.11
v -6 -10 -0.11
v -7 -11 -0.11
v -8 -11 -0.11
v -8 -10 -0.11
v -7 -10 -0.11
v -8 -11 -0.11
v -9 -11 -0.11
v -9 -10 -0.11
v -8 -10 -0.11
v 0 -12 -0.12
v -1 -12 -0.12
v -1 -11 -0.12
v 0 -11 -0.12
v -1 -12 -0.12
v -2 -12 -0.12
v -2 -11 -0.12
v -1 -11 -0.12
v -2 -12 -0.12
v -3 -12 -0.12
v -3 -11 -0.12
v -2 -11 -0.12
v -3 -12 -0.12
v -4 -12 -0.12
v -4 -11 -0.12
v -3 -11 -0.12
v -5 -12 -0.12
v -6 -12 -0.12
v -6 -11 -0.12
v -5 -11 -0.12
v -6 -12 -0.12
v -7 -12 -0.12
v -7 -11 -0.12
v -6 -11 -0.12
v -7 -12 -0.12
v -8 -12 -0.12
v -8 -11 -0.12
v -7 -11 -0.12
v -8 -12 -0.12
v -9 -12 -0.12
v -9 -11 -0.12
v -8 -11 -0.12
v 0 -13 -0.13
v -1 -13 -0.13
v -1 -12 -0.13
v 0 -12 -0.13
v -1 -13 -0.13
v -2 -13 -0.13
v -2 -12 -0.13
v -1 -12 -0.13
v -2 -13 -0.13
v -3 -13 -0.13
v -3 -12 -0.13
v -2 -12 -0.13
v -3 -13 -0.13
v -4 -13 -0.13
v -4 -12 -0.13
v -3 -12 -0.13
v -5 -13 -0.13
v -6 -13 -0.13
v -6 -12 -0.13
v -5 -12 -0.13
v -6 -13 -0.13
v -7 -13 -0.13
v -7 -12 -0.13
v -6 -12 -0.13
v -7 -13 -0.13
v -8 -13 -0.13
v -8 -12 -0.13
v -7 -12 -0.13
v -8 -13 -0.13
v -9 -13 -0.13
v -9 -12 -0.13
v -8 -12 -0.13
v 0 -14 -0.14
v -1 -14 -0.14
v -1 -13 -0.14
v 0 -13 -0.14
v -1 -14 -0.14
v -2 -14 -0.14
v -2 -13 -0.14
v -1 -13 -0.14
v -5 -14 -0.14
v -6 -14 -0.14
v -6 -13 -0.14
v -5 -13 -0.14
v -6 -14 -0.14
v -7 -14 -0.14
v -7 -13 -0.14
v -6 -13 -0.14
v -7 -14 -0.14
v -8 -14 -0.14
v -8 -13 -0.14
v -7 -13 -0.14
v -8 -14 -0.14
v -9 -14 -0.14
v -9 -13 -0.14
v -8 -13 -0.14
v 0 -15 -0.15
v -1 -15 -0.15
v -1 -14 -0.15
v 0 -14 -0.15
v -1 -15 -0.15
v -2 -15 -0.15
v -2 -14 -0.15
v -1 -14 -0.15
v 0 -16 -0.16
v -1 -16 -0.16
v -1 -15 -0.16
v 0 -15 -0.16
v -1 -16 -0.16
v -2 -16 -0.16
v -2 -15 -0.16
v -1 -15 -0.16
v -2 -16 -0.16
v -3 -16 -0.16
v -3 -15 -0.16
v -2 -15 -0.16
v -3 -16 -0.16
v -4 -16 -0.16
v -4 -15 -0.16
v -3 -15 -0.16
v -4 -16 -0.16
v -5 -16 -0.16
v -5 -15 -0.16
v -4 -15 -0.16
v -5 -16 -0.16
v -6 -16 -0.16
v -6 -15 -0.16
v -5 -15 -0.16

# Texture cooridinates (Count = 40)
vt 0.4444444 0.962406
vt 0.5 0.962406
vt 0.5 0.9661654
vt 0.4444444 0.9661654
vt 0.5555556 0.962406
vt 0.5555556 0.9661654
vt 0.3333333 0.962406
vt 0.3888889 0.962406
vt 0.3888889 0.9661654
vt 0.3333333 0.9661654
vt 0.4444444 0.9849624
vt 0.5 0.9849624
vt 0.5 0.9887218
vt 0.4444444 0.9887218
vt 0.5555556 0.9849624
vt 0.5555556 0.9887218
vt 0.3333333 0.9774436
vt 0.3888889 0.9774436
vt 0.3888889 0.981203
vt 0.3333333 0.981203
vt 0.4444444 0.9774436
vt 0.4444444 0.981203
vt 0.5 0.9774436
vt 0.5 0.981203
vt 0.5555556 0.9774436
vt 0.5555556 0.981203
vt 0.3888889 0.9699248
vt 0.3333333 0.9699248
vt 0.4444444 0.9699248
vt 0.5 0.9699248
vt 0.5555556 0.9699248
vt 0.3333333 0.9887218
vt 0.3888889 0.9887218
vt 0.3888889 0.9924812
vt 0.3333333 0.9924812
vt 0.4444444 0.9924812
vt 0.5 0.9924812
vt 0.5555556 0.9924812
vt 0.3333333 0.9849624
vt 0.3888889 0.9849624

# Normal
vn 0 0 -1

# Mesh description
g Act-0-Forest_mesh_0253

# Faces
f 1/1/1 2/2/1 3/3/1 4/4/1
f 5/2/1 6/5/1 7/6/1 8/3/1
f 9/7/1 10/8/1 11/9/1 12/10/1
f 13/8/1 14/1/1 15/4/1 16/9/1
f 17/11/1 18/12/1 19/13/1 20/14/1
f 21/12/1 22/15/1 23/16/1 24/13/1
f 25/17/1 26/18/1 27/19/1 28/20/1
f 29/18/1 30/21/1 31/22/1 32/19/1
f 33/21/1 34/23/1 35/24/1 36/22/1
f 37/23/1 38/25/1 39/26/1 40/24/1
f 41/10/1 42/9/1 43/27/1 44/28/1
f 45/9/1 46/4/1 47/29/1 48/27/1
f 49/4/1 50/3/1 51/30/1 52/29/1
f 53/3/1 54/6/1 55/31/1 56/30/1
f 57/22/1 58/24/1 59/12/1 60/11/1
f 61/24/1 62/26/1 63/15/1 64/12/1
f 65/7/1 66/8/1 67/9/1 68/10/1
f 69/8/1 70/1/1 71/4/1 72/9/1
f 73/1/1 74/2/1 75/3/1 76/4/1
f 77/2/1 78/5/1 79/6/1 80/3/1
f 81/21/1 82/23/1 83/24/1 84/22/1
f 85/23/1 86/25/1 87/26/1 88/24/1
f 89/4/1 90/3/1 91/30/1 92/29/1
f 93/3/1 94/6/1 95/31/1 96/30/1
f 97/22/1 98/24/1 99/12/1 100/11/1
f 101/24/1 102/26/1 103/15/1 104/12/1
f 105/32/1 106/33/1 107/34/1 108/35/1
f 109/33/1 110/14/1 111/36/1 112/34/1
f 113/14/1 114/13/1 115/37/1 116/36/1
f 117/13/1 118/16/1 119/38/1 120/37/1
f 121/1/1 122/2/1 123/3/1 124/4/1
f 125/2/1 126/5/1 127/6/1 128/3/1
f 129/21/1 130/23/1 131/24/1 132/22/1
f 133/23/1 134/25/1 135/26/1 136/24/1
f 137/39/1 138/40/1 139/33/1 140/32/1
f 141/40/1 142/11/1 143/14/1 144/33/1
f 145/11/1 146/12/1 147/13/1 148/14/1
f 149/12/1 150/15/1 151/16/1 152/13/1
f 153/10/1 154/9/1 155/27/1 156/28/1
f 157/9/1 158/4/1 159/29/1 160/27/1
f 161/14/1 162/13/1 163/37/1 164/36/1
f 165/13/1 166/16/1 167/38/1 168/37/1
f 169/20/1 170/19/1 171/40/1 172/39/1
f 173/19/1 174/22/1 175/11/1 176/40/1
f 177/22/1 178/24/1 179/12/1 180/11/1
f 181/24/1 182/26/1 183/15/1 184/12/1
f 185/7/1 186/8/1 187/9/1 188/10/1
f 189/8/1 190/1/1 191/4/1 192/9/1
f 193/11/1 194/12/1 195/13/1 196/14/1
f 197/12/1 198/15/1 199/16/1 200/13/1
f 201/32/1 202/33/1 203/34/1 204/35/1
f 205/33/1 206/14/1 207/36/1 208/34/1
f 209/14/1 210/13/1 211/37/1 212/36/1
f 213/13/1 214/16/1 215/38/1 216/37/1
f 217/17/1 218/18/1 219/19/1 220/20/1
f 221/18/1 222/21/1 223/22/1 224/19/1
f 225/21/1 226/23/1 227/24/1 228/22/1
f 229/23/1 230/25/1 231/26/1 232/24/1
f 233/4/1 234/3/1 235/30/1 236/29/1
f 237/3/1 238/6/1 239/31/1 240/30/1
f 241/22/1 242/24/1 243/12/1 244/11/1
f 245/24/1 246/26/1 247/15/1 248/12/1
f 249/39/1 250/40/1 251/33/1 252/32/1
f 253/40/1 254/11/1 255/14/1 256/33/1
f 257/11/1 258/12/1 259/13/1 260/14/1
f 261/12/1 262/15/1 263/16/1 264/13/1
f 265/1/1 266/2/1 267/3/1 268/4/1
f 269/2/1 270/5/1 271/6/1 272/3/1
f 273/21/1 274/23/1 275/24/1 276/22/1
f 277/23/1 278/25/1 279/26/1 280/24/1
f 281/20/1 282/19/1 283/40/1 284/39/1
f 285/19/1 286/22/1 287/11/1 288/40/1
f 289/22/1 290/24/1 291/12/1 292/11/1
f 293/24/1 294/26/1 295/15/1 296/12/1
f 297/10/1 298/9/1 299/27/1 300/28/1
f 301/9/1 302/4/1 303/29/1 304/27/1
f 305/14/1 306/13/1 307/37/1 308/36/1
f 309/13/1 310/16/1 311/38/1 312/37/1
f 313/17/1 314/18/1 315/19/1 316/20/1
f 317/18/1 318/21/1 319/22/1 320/19/1
f 321/21/1 322/23/1 323/24/1 324/22/1
f 325/23/1 326/25/1 327/26/1 328/24/1
f 329/7/1 330/8/1 331/9/1 332/10/1
f 333/8/1 334/1/1 335/4/1 336/9/1
f 337/11/1 338/12/1 339/13/1 340/14/1
f 341/12/1 342/15/1 343/16/1 344/13/1
f 345/32/1 346/33/1 347/34/1 348/35/1
f 349/33/1 350/14/1 351/36/1 352/34/1
f 353/14/1 354/13/1 355/37/1 356/36/1
f 357/13/1 358/16/1 359/38/1 360/37/1
f 361/4/1 362/3/1 363/30/1 364/29/1
f 365/3/1 366/6/1 367/31/1 368/30/1
f 369/22/1 370/24/1 371/12/1 372/11/1
f 373/24/1 374/26/1 375/15/1 376/12/1
f 377/39/1 378/40/1 379/33/1 380/32/1
f 381/40/1 382/11/1 383/14/1 384/33/1
f 385/11/1 386/12/1 387/13/1 388/14/1
f 389/12/1 390/15/1 391/16/1 392/13/1
f 393/1/1 394/2/1 395/3/1 396/4/1
f 397/2/1 398/5/1 399/6/1 400/3/1
f 401/21/1 402/23/1 403/24/1 404/22/1
f 405/23/1 406/25/1 407/26/1 408/24/1
f 409/20/1 410/19/1 411/40/1 412/39/1
f 413/19/1 414/22/1 415/11/1 416/40/1
f 417/22/1 418/24/1 419/12/1 420/11/1
f 421/24/1 422/26/1 423/15/1 424/12/1
f 425/22/1 426/24/1 427/12/1 428/11/1
f 429/24/1 430/26/1 431/15/1 432/12/1
f 433/17/1 434/18/1 435/19/1 436/20/1
f 437/18/1 438/21/1 439/22/1 440/19/1
f 441/21/1 442/23/1 443/24/1 444/22/1
f 445/23/1 446/25/1 447/26/1 448/24/1
f 449/21/1 450/23/1 451/24/1 452/22/1
f 453/23/1 454/25/1 455/26/1 456/24/1
f 457/14/1 458/13/1 459/37/1 460/36/1
f 461/13/1 462/16/1 463/38/1 464/37/1
f 465/32/1 466/33/1 467/34/1 468/35/1
f 469/33/1 470/14/1 471/36/1 472/34/1
f 473/14/1 474/13/1 475/37/1 476/36/1
f 477/13/1 478/16/1 479/38/1 480/37/1

