# Tiled2Unity generated file. Do not modify by hand.
# Wavefront file for 'Act-0-Forest_mesh_0227.obj'

# Vertices (Count = 8)
v -14 -1 -0.01
v -15 -1 -0.01
v -15 0 -0.01
v -14 0 -0.01
v -15 -1 -0.01
v -16 -1 -0.01
v -16 0 -0.01
v -15 0 -0.01

# Texture cooridinates (Count = 6)
vt 0.2222222 0.9548872
vt 0.2777778 0.9548872
vt 0.2777778 0.9586466
vt 0.2222222 0.9586466
vt 0.3333333 0.9548872
vt 0.3333333 0.9586466

# Normal
vn 0 0 -1

# Mesh description
g Act-0-Forest_mesh_0227

# Faces
f 1/1/1 2/2/1 3/3/1 4/4/1
f 5/2/1 6/5/1 7/6/1 8/3/1

