# Tiled2Unity generated file. Do not modify by hand.
# Wavefront file for 'Act-0-Forest_mesh_0335.obj'

# Vertices (Count = 320)
v 0 -1 -0.01
v -1 -1 -0.01
v -1 0 -0.01
v 0 0 -0.01
v -1 -1 -0.01
v -2 -1 -0.01
v -2 0 -0.01
v -1 0 -0.01
v -2 -1 -0.01
v -3 -1 -0.01
v -3 0 -0.01
v -2 0 -0.01
v -3 -1 -0.01
v -4 -1 -0.01
v -4 0 -0.01
v -3 0 -0.01
v 0 -2 -0.02
v -1 -2 -0.02
v -1 -1 -0.02
v 0 -1 -0.02
v -1 -2 -0.02
v -2 -2 -0.02
v -2 -1 -0.02
v -1 -1 -0.02
v -2 -2 -0.02
v -3 -2 -0.02
v -3 -1 -0.02
v -2 -1 -0.02
v -3 -2 -0.02
v -4 -2 -0.02
v -4 -1 -0.02
v -3 -1 -0.02
v 0 -3 -0.03
v -1 -3 -0.03
v -1 -2 -0.03
v 0 -2 -0.03
v -1 -3 -0.03
v -2 -3 -0.03
v -2 -2 -0.03
v -1 -2 -0.03
v -2 -3 -0.03
v -3 -3 -0.03
v -3 -2 -0.03
v -2 -2 -0.03
v -3 -3 -0.03
v -4 -3 -0.03
v -4 -2 -0.03
v -3 -2 -0.03
v 0 -4 -0.04
v -1 -4 -0.04
v -1 -3 -0.04
v 0 -3 -0.04
v -1 -4 -0.04
v -2 -4 -0.04
v -2 -3 -0.04
v -1 -3 -0.04
v -2 -4 -0.04
v -3 -4 -0.04
v -3 -3 -0.04
v -2 -3 -0.04
v -3 -4 -0.04
v -4 -4 -0.04
v -4 -3 -0.04
v -3 -3 -0.04
v -4 -4 -0.04
v -5 -4 -0.04
v -5 -3 -0.04
v -4 -3 -0.04
v -5 -4 -0.04
v -6 -4 -0.04
v -6 -3 -0.04
v -5 -3 -0.04
v 0 -5 -0.05
v -1 -5 -0.05
v -1 -4 -0.05
v 0 -4 -0.05
v -1 -5 -0.05
v -2 -5 -0.05
v -2 -4 -0.05
v -1 -4 -0.05
v -2 -5 -0.05
v -3 -5 -0.05
v -3 -4 -0.05
v -2 -4 -0.05
v -3 -5 -0.05
v -4 -5 -0.05
v -4 -4 -0.05
v -3 -4 -0.05
v -4 -5 -0.05
v -5 -5 -0.05
v -5 -4 -0.05
v -4 -4 -0.05
v -5 -5 -0.05
v -6 -5 -0.05
v -6 -4 -0.05
v -5 -4 -0.05
v 0 -6 -0.06
v -1 -6 -0.06
v -1 -5 -0.06
v 0 -5 -0.06
v -1 -6 -0.06
v -2 -6 -0.06
v -2 -5 -0.06
v -1 -5 -0.06
v -2 -6 -0.06
v -3 -6 -0.06
v -3 -5 -0.06
v -2 -5 -0.06
v -3 -6 -0.06
v -4 -6 -0.06
v -4 -5 -0.06
v -3 -5 -0.06
v -4 -6 -0.06
v -5 -6 -0.06
v -5 -5 -0.06
v -4 -5 -0.06
v -5 -6 -0.06
v -6 -6 -0.06
v -6 -5 -0.06
v -5 -5 -0.06
v 0 -7 -0.07
v -1 -7 -0.07
v -1 -6 -0.07
v 0 -6 -0.07
v -1 -7 -0.07
v -2 -7 -0.07
v -2 -6 -0.07
v -1 -6 -0.07
v -2 -7 -0.07
v -3 -7 -0.07
v -3 -6 -0.07
v -2 -6 -0.07
v -3 -7 -0.07
v -4 -7 -0.07
v -4 -6 -0.07
v -3 -6 -0.07
v -4 -7 -0.07
v -5 -7 -0.07
v -5 -6 -0.07
v -4 -6 -0.07
v -5 -7 -0.07
v -6 -7 -0.07
v -6 -6 -0.07
v -5 -6 -0.07
v 0 -8 -0.08
v -1 -8 -0.08
v -1 -7 -0.08
v 0 -7 -0.08
v -1 -8 -0.08
v -2 -8 -0.08
v -2 -7 -0.08
v -1 -7 -0.08
v -2 -8 -0.08
v -3 -8 -0.08
v -3 -7 -0.08
v -2 -7 -0.08
v -3 -8 -0.08
v -4 -8 -0.08
v -4 -7 -0.08
v -3 -7 -0.08
v -4 -8 -0.08
v -5 -8 -0.08
v -5 -7 -0.08
v -4 -7 -0.08
v -5 -8 -0.08
v -6 -8 -0.08
v -6 -7 -0.08
v -5 -7 -0.08
v 0 -9 -0.09
v -1 -9 -0.09
v -1 -8 -0.09
v 0 -8 -0.09
v -1 -9 -0.09
v -2 -9 -0.09
v -2 -8 -0.09
v -1 -8 -0.09
v -2 -9 -0.09
v -3 -9 -0.09
v -3 -8 -0.09
v -2 -8 -0.09
v -3 -9 -0.09
v -4 -9 -0.09
v -4 -8 -0.09
v -3 -8 -0.09
v -4 -9 -0.09
v -5 -9 -0.09
v -5 -8 -0.09
v -4 -8 -0.09
v -5 -9 -0.09
v -6 -9 -0.09
v -6 -8 -0.09
v -5 -8 -0.09
v 0 -10 -0.1
v -1 -10 -0.1
v -1 -9 -0.1
v 0 -9 -0.1
v -1 -10 -0.1
v -2 -10 -0.1
v -2 -9 -0.1
v -1 -9 -0.1
v -2 -10 -0.1
v -3 -10 -0.1
v -3 -9 -0.1
v -2 -9 -0.1
v -3 -10 -0.1
v -4 -10 -0.1
v -4 -9 -0.1
v -3 -9 -0.1
v -4 -10 -0.1
v -5 -10 -0.1
v -5 -9 -0.1
v -4 -9 -0.1
v -5 -10 -0.1
v -6 -10 -0.1
v -6 -9 -0.1
v -5 -9 -0.1
v 0 -11 -0.11
v -1 -11 -0.11
v -1 -10 -0.11
v 0 -10 -0.11
v -1 -11 -0.11
v -2 -11 -0.11
v -2 -10 -0.11
v -1 -10 -0.11
v -2 -11 -0.11
v -3 -11 -0.11
v -3 -10 -0.11
v -2 -10 -0.11
v -3 -11 -0.11
v -4 -11 -0.11
v -4 -10 -0.11
v -3 -10 -0.11
v -4 -11 -0.11
v -5 -11 -0.11
v -5 -10 -0.11
v -4 -10 -0.11
v -5 -11 -0.11
v -6 -11 -0.11
v -6 -10 -0.11
v -5 -10 -0.11
v 0 -12 -0.12
v -1 -12 -0.12
v -1 -11 -0.12
v 0 -11 -0.12
v -1 -12 -0.12
v -2 -12 -0.12
v -2 -11 -0.12
v -1 -11 -0.12
v -2 -12 -0.12
v -3 -12 -0.12
v -3 -11 -0.12
v -2 -11 -0.12
v -3 -12 -0.12
v -4 -12 -0.12
v -4 -11 -0.12
v -3 -11 -0.12
v 0 -13 -0.13
v -1 -13 -0.13
v -1 -12 -0.13
v 0 -12 -0.13
v -1 -13 -0.13
v -2 -13 -0.13
v -2 -12 -0.13
v -1 -12 -0.13
v -2 -13 -0.13
v -3 -13 -0.13
v -3 -12 -0.13
v -2 -12 -0.13
v -3 -13 -0.13
v -4 -13 -0.13
v -4 -12 -0.13
v -3 -12 -0.13
v 0 -14 -0.14
v -1 -14 -0.14
v -1 -13 -0.14
v 0 -13 -0.14
v -1 -14 -0.14
v -2 -14 -0.14
v -2 -13 -0.14
v -1 -13 -0.14
v -2 -14 -0.14
v -3 -14 -0.14
v -3 -13 -0.14
v -2 -13 -0.14
v -3 -14 -0.14
v -4 -14 -0.14
v -4 -13 -0.14
v -3 -13 -0.14
v 0 -15 -0.15
v -1 -15 -0.15
v -1 -14 -0.15
v 0 -14 -0.15
v -1 -15 -0.15
v -2 -15 -0.15
v -2 -14 -0.15
v -1 -14 -0.15
v -2 -15 -0.15
v -3 -15 -0.15
v -3 -14 -0.15
v -2 -14 -0.15
v -3 -15 -0.15
v -4 -15 -0.15
v -4 -14 -0.15
v -3 -14 -0.15
v 0 -16 -0.16
v -1 -16 -0.16
v -1 -15 -0.16
v 0 -15 -0.16
v -1 -16 -0.16
v -2 -16 -0.16
v -2 -15 -0.16
v -1 -15 -0.16
v -2 -16 -0.16
v -3 -16 -0.16
v -3 -15 -0.16
v -2 -15 -0.16
v -3 -16 -0.16
v -4 -16 -0.16
v -4 -15 -0.16
v -3 -15 -0.16

# Texture cooridinates (Count = 34)
vt 0.4444444 0.962406
vt 0.5 0.962406
vt 0.5 0.9661654
vt 0.4444444 0.9661654
vt 0.5555556 0.962406
vt 0.5555556 0.9661654
vt 0.4444444 0.9774436
vt 0.5 0.9774436
vt 0.5 0.981203
vt 0.4444444 0.981203
vt 0.5555556 0.9774436
vt 0.5555556 0.981203
vt 0.3333333 0.9661654
vt 0.3888889 0.9661654
vt 0.3888889 0.9699248
vt 0.3333333 0.9699248
vt 0.4444444 0.9699248
vt 0.4444444 0.9887218
vt 0.5 0.9887218
vt 0.5 0.9924812
vt 0.4444444 0.9924812
vt 0.5555556 0.9887218
vt 0.5555556 0.9924812
vt 0.3333333 0.962406
vt 0.3888889 0.962406
vt 0.4444444 0.9849624
vt 0.5 0.9849624
vt 0.5555556 0.9849624
vt 0.5 0.9699248
vt 0.5555556 0.9699248
vt 0.3333333 0.981203
vt 0.3888889 0.981203
vt 0.3888889 0.9849624
vt 0.3333333 0.9849624

# Normal
vn 0 0 -1

# Mesh description
g Act-0-Forest_mesh_0335

# Faces
f 1/1/1 2/2/1 3/3/1 4/4/1
f 5/2/1 6/5/1 7/6/1 8/3/1
f 9/7/1 10/8/1 11/9/1 12/10/1
f 13/8/1 14/11/1 15/12/1 16/9/1
f 17/13/1 18/14/1 19/15/1 20/16/1
f 21/14/1 22/4/1 23/17/1 24/15/1
f 25/18/1 26/19/1 27/20/1 28/21/1
f 29/19/1 30/22/1 31/23/1 32/20/1
f 33/24/1 34/25/1 35/14/1 36/13/1
f 37/25/1 38/1/1 39/4/1 40/14/1
f 41/26/1 42/27/1 43/19/1 44/18/1
f 45/27/1 46/28/1 47/22/1 48/19/1
f 49/4/1 50/3/1 51/29/1 52/17/1
f 53/3/1 54/6/1 55/30/1 56/29/1
f 57/13/1 58/14/1 59/15/1 60/16/1
f 61/14/1 62/4/1 63/17/1 64/15/1
f 65/18/1 66/19/1 67/20/1 68/21/1
f 69/19/1 70/22/1 71/23/1 72/20/1
f 73/1/1 74/2/1 75/3/1 76/4/1
f 77/2/1 78/5/1 79/6/1 80/3/1
f 81/24/1 82/25/1 83/14/1 84/13/1
f 85/25/1 86/1/1 87/4/1 88/14/1
f 89/26/1 90/27/1 91/19/1 92/18/1
f 93/27/1 94/28/1 95/22/1 96/19/1
f 97/13/1 98/14/1 99/15/1 100/16/1
f 101/14/1 102/4/1 103/17/1 104/15/1
f 105/4/1 106/3/1 107/29/1 108/17/1
f 109/3/1 110/6/1 111/30/1 112/29/1
f 113/10/1 114/9/1 115/27/1 116/26/1
f 117/9/1 118/12/1 119/28/1 120/27/1
f 121/24/1 122/25/1 123/14/1 124/13/1
f 125/25/1 126/1/1 127/4/1 128/14/1
f 129/1/1 130/2/1 131/3/1 132/4/1
f 133/2/1 134/5/1 135/6/1 136/3/1
f 137/7/1 138/8/1 139/9/1 140/10/1
f 141/8/1 142/11/1 143/12/1 144/9/1
f 145/4/1 146/3/1 147/29/1 148/17/1
f 149/3/1 150/6/1 151/30/1 152/29/1
f 153/13/1 154/14/1 155/15/1 156/16/1
f 157/14/1 158/4/1 159/17/1 160/15/1
f 161/18/1 162/19/1 163/20/1 164/21/1
f 165/19/1 166/22/1 167/23/1 168/20/1
f 169/1/1 170/2/1 171/3/1 172/4/1
f 173/2/1 174/5/1 175/6/1 176/3/1
f 177/24/1 178/25/1 179/14/1 180/13/1
f 181/25/1 182/1/1 183/4/1 184/14/1
f 185/26/1 186/27/1 187/19/1 188/18/1
f 189/27/1 190/28/1 191/22/1 192/19/1
f 193/13/1 194/14/1 195/15/1 196/16/1
f 197/14/1 198/4/1 199/17/1 200/15/1
f 201/4/1 202/3/1 203/29/1 204/17/1
f 205/3/1 206/6/1 207/30/1 208/29/1
f 209/10/1 210/9/1 211/27/1 212/26/1
f 213/9/1 214/12/1 215/28/1 216/27/1
f 217/24/1 218/25/1 219/14/1 220/13/1
f 221/25/1 222/1/1 223/4/1 224/14/1
f 225/1/1 226/2/1 227/3/1 228/4/1
f 229/2/1 230/5/1 231/6/1 232/3/1
f 233/7/1 234/8/1 235/9/1 236/10/1
f 237/8/1 238/11/1 239/12/1 240/9/1
f 241/4/1 242/3/1 243/29/1 244/17/1
f 245/3/1 246/6/1 247/30/1 248/29/1
f 249/10/1 250/9/1 251/27/1 252/26/1
f 253/9/1 254/12/1 255/28/1 256/27/1
f 257/1/1 258/2/1 259/3/1 260/4/1
f 261/2/1 262/5/1 263/6/1 264/3/1
f 265/7/1 266/8/1 267/9/1 268/10/1
f 269/8/1 270/11/1 271/12/1 272/9/1
f 273/13/1 274/14/1 275/15/1 276/16/1
f 277/14/1 278/4/1 279/17/1 280/15/1
f 281/18/1 282/19/1 283/20/1 284/21/1
f 285/19/1 286/22/1 287/23/1 288/20/1
f 289/24/1 290/25/1 291/14/1 292/13/1
f 293/25/1 294/1/1 295/4/1 296/14/1
f 297/26/1 298/27/1 299/19/1 300/18/1
f 301/27/1 302/28/1 303/22/1 304/19/1
f 305/31/1 306/32/1 307/33/1 308/34/1
f 309/32/1 310/10/1 311/26/1 312/33/1
f 313/10/1 314/9/1 315/27/1 316/26/1
f 317/9/1 318/12/1 319/28/1 320/27/1

